<svg width="50" height="50" viewBox="0 0 50 50" fill="none" xmlns="http://www.w3.org/2000/svg">
<path fill-rule="evenodd" clip-rule="evenodd" d="M49.1664 43.3363H46.6664V17.5C46.6671 17.3031 46.5974 17.1125 46.4698 16.9624C46.3423 16.8124 46.1654 16.7129 45.9709 16.6819L26.6664 13.4637V0.836292C26.6667 0.726588 26.6454 0.618147 26.6037 0.51669C26.5619 0.415234 26.5006 0.322728 26.4232 0.245028C26.3457 0.167329 26.2537 0.105985 26.1524 0.0639204C26.0511 0.0218559 25.9424 -5.87071e-07 25.8327 0H4.16637C4.0567 0.000119207 3.94815 0.0218135 3.84688 0.0639204C3.74562 0.106027 3.65364 0.167797 3.57622 0.245472C3.4988 0.323148 3.43744 0.415288 3.39567 0.51669C3.35389 0.618093 3.33251 0.726622 3.33275 0.836292V43.3363H0.833633C0.613492 43.3358 0.402124 43.4227 0.245865 43.5778C0.089606 43.7328 0.00120688 43.9436 4.45598e-06 44.1637V49.1637C-0.000354446 49.2734 0.0209708 49.3818 0.0627042 49.4833C0.104438 49.5848 0.165756 49.6773 0.243202 49.755C0.320648 49.8327 0.412656 49.894 0.513976 49.9361C0.615295 49.9781 0.723929 50 0.833633 50H49.1673C49.2769 49.9999 49.3854 49.9782 49.4866 49.9361C49.5878 49.894 49.6798 49.8322 49.7571 49.7545C49.8345 49.6768 49.8957 49.5847 49.9374 49.4833C49.9791 49.3819 50.0004 49.2733 50 49.1637V44.1637C49.9988 43.9436 49.9104 43.7328 49.7541 43.5778C49.5979 43.4227 49.3865 43.3358 49.1664 43.3363ZM45 18.2089V43.3363H26.6664V15.1545L45 18.2089ZM5 1.66371H25V43.3363H5V1.66371ZM48.3336 48.3363H1.66637V45H48.3336V48.3363ZM13.3336 5H8.33363C8.224 5.00012 8.11547 5.0218 8.01425 5.06392C7.91304 5.10604 7.82116 5.16778 7.74381 5.24547C7.66646 5.32316 7.60516 5.41529 7.56348 5.51669C7.5218 5.61809 7.50053 5.72666 7.50089 5.83629V10.8363C7.50209 11.0563 7.59041 11.2667 7.74647 11.4218C7.90254 11.5768 8.11365 11.6639 8.33363 11.6637H13.3336C13.5536 11.6639 13.7647 11.5768 13.9208 11.4218C14.0769 11.2667 14.1652 11.0563 14.1664 10.8363V5.83629C14.1667 5.72666 14.1455 5.61809 14.1038 5.51669C14.0621 5.41529 14.0009 5.32316 13.9235 5.24547C13.8462 5.16778 13.7542 5.10604 13.653 5.06392C13.5518 5.0218 13.4433 5.00012 13.3336 5ZM12.5 10H9.16637V6.66371H12.5V10ZM21.6664 5H16.6664C16.5566 5 16.448 5.02187 16.3466 5.06392C16.2452 5.10597 16.1531 5.16734 16.0756 5.24503C15.9981 5.32271 15.9367 5.41478 15.8948 5.51625C15.853 5.61771 15.8316 5.72654 15.8318 5.83629V10.8363C15.8332 11.0565 15.9219 11.2672 16.0783 11.4222C16.2347 11.5773 16.4461 11.6642 16.6664 11.6637H21.6664C21.8865 11.6642 22.0979 11.5773 22.2541 11.4222C22.4104 11.2672 22.4988 11.0564 22.5 10.8363V5.83629C22.5002 5.72662 22.4789 5.61809 22.4371 5.51669C22.3953 5.41529 22.3339 5.32315 22.2565 5.24547C22.1791 5.1678 22.0871 5.10603 21.9859 5.06392C21.8846 5.02181 21.776 5.00012 21.6664 5ZM20.8327 10H17.5V6.66371H20.8327V10ZM13.3336 13.3363H8.33363C8.11365 13.336 7.90254 13.4232 7.74647 13.5782C7.59041 13.7333 7.50209 13.9437 7.50089 14.1637V19.1637C7.50053 19.2733 7.5218 19.3819 7.56348 19.4833C7.60516 19.5847 7.66646 19.6768 7.74381 19.7545C7.82116 19.8322 7.91304 19.894 8.01425 19.9361C8.11547 19.9782 8.224 19.9999 8.33363 20H13.3336C13.4433 19.9999 13.5518 19.9782 13.653 19.9361C13.7542 19.894 13.8462 19.8322 13.9235 19.7545C14.0009 19.6768 14.0621 19.5847 14.1038 19.4833C14.1455 19.3819 14.1667 19.2733 14.1664 19.1637V14.1637C14.1652 13.9437 14.0769 13.7333 13.9208 13.5782C13.7647 13.4232 13.5536 13.336 13.3336 13.3363ZM12.5 18.3363H9.16637V15H12.5V18.3363ZM21.6664 13.3363H16.6664C16.4461 13.3358 16.2347 13.4227 16.0783 13.5778C15.9219 13.7328 15.8332 13.9435 15.8318 14.1637V19.1637C15.8316 19.2734 15.853 19.3823 15.8948 19.4837C15.9367 19.5852 15.9981 19.6773 16.0756 19.755C16.1531 19.8327 16.2452 19.894 16.3466 19.9361C16.448 19.9781 16.5566 20 16.6664 20H21.6664C21.776 19.9999 21.8846 19.9782 21.9859 19.9361C22.0871 19.894 22.1791 19.8322 22.2565 19.7545C22.3339 19.6768 22.3953 19.5847 22.4371 19.4833C22.4789 19.3819 22.5002 19.2734 22.5 19.1637V14.1637C22.4988 13.9436 22.4104 13.7328 22.2541 13.5778C22.0979 13.4227 21.8865 13.3358 21.6664 13.3363ZM20.8327 18.3363H17.5V15H20.8327V18.3363ZM13.3336 21.6637H8.33363C8.224 21.6638 8.11547 21.6855 8.01425 21.7276C7.91304 21.7697 7.82116 21.8315 7.74381 21.9092C7.66646 21.9869 7.60516 22.079 7.56348 22.1804C7.5218 22.2818 7.50053 22.3904 7.50089 22.5V27.5C7.50053 27.6096 7.5218 27.7182 7.56348 27.8196C7.60516 27.921 7.66646 28.0131 7.74381 28.0908C7.82116 28.1685 7.91304 28.2302 8.01425 28.2724C8.11547 28.3145 8.224 28.3362 8.33363 28.3363H13.3336C13.4433 28.3362 13.5518 28.3145 13.653 28.2724C13.7542 28.2302 13.8462 28.1685 13.9235 28.0908C14.0009 28.0131 14.0621 27.921 14.1038 27.8196C14.1455 27.7182 14.1667 27.6096 14.1664 27.5V22.5C14.1667 22.3904 14.1455 22.2818 14.1038 22.1804C14.0621 22.079 14.0009 21.9869 13.9235 21.9092C13.8462 21.8315 13.7542 21.7697 13.653 21.7276C13.5518 21.6855 13.4433 21.6638 13.3336 21.6637ZM12.5 26.6637H9.16637V23.3363H12.5V26.6637ZM21.6664 21.6637H16.6664C16.5566 21.6637 16.448 21.6851 16.3466 21.7272C16.2452 21.7692 16.1531 21.831 16.0756 21.9087C15.9981 21.9864 15.9367 22.0785 15.8948 22.1799C15.853 22.2814 15.8316 22.3902 15.8318 22.5V27.5C15.8316 27.6097 15.853 27.7186 15.8948 27.82C15.9367 27.9215 15.9981 28.0136 16.0756 28.0913C16.1531 28.1689 16.2452 28.2308 16.3466 28.2728C16.448 28.3149 16.5566 28.3363 16.6664 28.3363H21.6664C21.776 28.3362 21.8846 28.3145 21.9859 28.2724C22.0871 28.2303 22.1791 28.1685 22.2565 28.0908C22.3339 28.0131 22.3953 27.921 22.4371 27.8196C22.4789 27.7182 22.5002 27.6097 22.5 27.5V22.5C22.5002 22.3903 22.4789 22.2818 22.4371 22.1804C22.3953 22.079 22.3339 21.9869 22.2565 21.9092C22.1791 21.8315 22.0871 21.7697 21.9859 21.7276C21.8846 21.6855 21.776 21.6638 21.6664 21.6637ZM20.8327 26.6637H17.5V23.3363H20.8327V26.6637ZM13.3336 30H8.33363C8.224 30.0001 8.11547 30.0218 8.01425 30.0639C7.91304 30.106 7.82116 30.1678 7.74381 30.2455C7.66646 30.3232 7.60516 30.4153 7.56348 30.5167C7.5218 30.6181 7.50053 30.7267 7.50089 30.8363V35.8363C7.50209 36.0563 7.59041 36.2667 7.74647 36.4218C7.90254 36.5768 8.11365 36.6639 8.33363 36.6637H13.3336C13.5536 36.6639 13.7647 36.5768 13.9208 36.4218C14.0769 36.2667 14.1652 36.0563 14.1664 35.8363V30.8363C14.1667 30.7267 14.1455 30.6181 14.1038 30.5167C14.0621 30.4153 14.0009 30.3232 13.9235 30.2455C13.8462 30.1678 13.7542 30.106 13.653 30.0639C13.5518 30.0218 13.4433 30.0001 13.3336 30ZM12.5 35H9.16637V31.6637H12.5V35ZM21.6664 30H16.6664C16.5566 30 16.448 30.0219 16.3466 30.0639C16.2452 30.106 16.1531 30.1673 16.0756 30.245C15.9981 30.3227 15.9367 30.4148 15.8948 30.5162C15.853 30.6177 15.8316 30.7265 15.8318 30.8363V35.8363C15.8332 36.0565 15.9219 36.2672 16.0783 36.4222C16.2347 36.5773 16.4461 36.6642 16.6664 36.6637H21.6664C21.8865 36.6642 22.0979 36.5773 22.2541 36.4222C22.4104 36.2672 22.4988 36.0564 22.5 35.8363V30.8363C22.5002 30.7266 22.4789 30.6181 22.4371 30.5167C22.3953 30.4153 22.3339 30.3231 22.2565 30.2455C22.1791 30.1678 22.0871 30.106 21.9859 30.0639C21.8846 30.0218 21.776 30.0001 21.6664 30ZM20.8327 35H17.5V31.6637H20.8327V35ZM29.1673 28.3363H34.1673C34.2769 28.3362 34.3855 28.3145 34.4868 28.2724C34.5881 28.2303 34.68 28.1685 34.7575 28.0908C34.8349 28.0131 34.8962 27.921 34.938 27.8196C34.9797 27.7182 35.0011 27.6097 35.0009 27.5V22.5C35.0011 22.3903 34.9797 22.2818 34.938 22.1804C34.8962 22.079 34.8349 21.9869 34.7575 21.9092C34.68 21.8315 34.5881 21.7697 34.4868 21.7276C34.3855 21.6855 34.2769 21.6638 34.1673 21.6637H29.1673C29.0576 21.6637 28.9489 21.6851 28.8476 21.7272C28.7463 21.7692 28.6543 21.831 28.5768 21.9087C28.4994 21.9864 28.4381 22.0785 28.3963 22.1799C28.3546 22.2814 28.3333 22.3903 28.3336 22.5V27.5C28.3333 27.6097 28.3546 27.7186 28.3963 27.82C28.4381 27.9215 28.4994 28.0136 28.5768 28.0913C28.6543 28.169 28.7463 28.2307 28.8476 28.2728C28.9489 28.3149 29.0576 28.3363 29.1673 28.3363ZM30 23.3363H33.3327V26.6637H30V23.3363ZM37.5 28.3363H42.5C42.6097 28.3362 42.7182 28.3145 42.8195 28.2724C42.9207 28.2303 43.0127 28.1685 43.0901 28.0908C43.1676 28.0131 43.2289 27.921 43.2707 27.8196C43.3125 27.7182 43.3339 27.6097 43.3336 27.5V22.5C43.3339 22.3903 43.3125 22.2818 43.2707 22.1804C43.2289 22.079 43.1676 21.9869 43.0901 21.9092C43.0127 21.8315 42.9207 21.7697 42.8195 21.7276C42.7182 21.6855 42.6097 21.6638 42.5 21.6637H37.5C37.3903 21.6638 37.2818 21.6855 37.1805 21.7276C37.0792 21.7697 36.9873 21.8315 36.9098 21.9092C36.8324 21.9869 36.7711 22.079 36.7293 22.1804C36.6875 22.2818 36.6661 22.3903 36.6664 22.5V27.5C36.6661 27.6097 36.6875 27.7182 36.7293 27.8196C36.7711 27.921 36.8324 28.0131 36.9098 28.0908C36.9873 28.1685 37.0792 28.2303 37.1805 28.2724C37.2818 28.3145 37.3903 28.3362 37.5 28.3363ZM38.3327 23.3363H41.6664V26.6637H38.3327V23.3363ZM29.1673 36.6637H34.1673C34.3874 36.6642 34.5988 36.5773 34.755 36.4222C34.9113 36.2672 34.9997 36.0564 35.0009 35.8363V30.8363C35.0011 30.7266 34.9797 30.6181 34.938 30.5167C34.8962 30.4153 34.8349 30.3231 34.7575 30.2455C34.68 30.1678 34.5881 30.106 34.4868 30.0639C34.3855 30.0218 34.2769 30.0001 34.1673 30H29.1673C29.0576 30 28.9489 30.0218 28.8476 30.0639C28.7463 30.106 28.6543 30.1673 28.5768 30.245C28.4994 30.3227 28.4381 30.4152 28.3963 30.5167C28.3546 30.6181 28.3333 30.7266 28.3336 30.8363V35.8363C28.3348 36.0564 28.4232 36.2672 28.5795 36.4222C28.7357 36.5773 28.9471 36.6642 29.1673 36.6637ZM30 31.6637H33.3327V35H30V31.6637ZM37.5 36.6637H42.5C42.7201 36.6642 42.9315 36.5773 43.0878 36.4222C43.244 36.2672 43.3324 36.0564 43.3336 35.8363V30.8363C43.3339 30.7266 43.3125 30.6181 43.2707 30.5167C43.2289 30.4153 43.1676 30.3231 43.0901 30.2455C43.0127 30.1678 42.9207 30.106 42.8195 30.0639C42.7182 30.0218 42.6097 30.0001 42.5 30H37.5C37.3903 30.0001 37.2818 30.0218 37.1805 30.0639C37.0792 30.106 36.9873 30.1678 36.9098 30.2455C36.8324 30.3231 36.7711 30.4153 36.7293 30.5167C36.6875 30.6181 36.6661 30.7266 36.6664 30.8363V35.8363C36.6676 36.0564 36.756 36.2672 36.9122 36.4222C37.0685 36.5773 37.2799 36.6642 37.5 36.6637ZM38.3327 31.6637H41.6664V35H38.3327V31.6637Z" fill="#051C3F"/>
</svg>
