<svg width="40" height="40" viewBox="0 0 40 40" fill="none" xmlns="http://www.w3.org/2000/svg">
<path fill-rule="evenodd" clip-rule="evenodd" d="M14.9997 20.0002C18.2163 20.0002 20.833 17.3835 20.833 14.1668C20.833 10.9502 18.2163 8.3335 14.9997 8.3335C11.783 8.3335 9.16634 10.9502 9.16634 14.1668C9.16634 17.3835 11.783 20.0002 14.9997 20.0002ZM3.33301 28.7502C3.33301 24.8668 11.0997 22.9168 14.9997 22.9168C18.8997 22.9168 26.6663 24.8668 26.6663 28.7502V31.6668H3.33301V28.7502ZM14.9997 26.2502C12.0163 26.2502 8.63299 27.3668 7.23299 28.3335H22.7663C21.3663 27.3668 17.983 26.2502 14.9997 26.2502ZM17.4997 14.1668C17.4997 12.7835 16.383 11.6668 14.9997 11.6668C13.6163 11.6668 12.4997 12.7835 12.4997 14.1668C12.4997 15.5502 13.6163 16.6668 14.9997 16.6668C16.383 16.6668 17.4997 15.5502 17.4997 14.1668ZM26.733 23.0168C28.6664 24.4168 29.9997 26.2835 29.9997 28.7502V31.6668H36.6664V28.7502C36.6664 25.3835 30.833 23.4668 26.733 23.0168ZM30.833 14.1668C30.833 17.3835 28.2163 20.0002 24.9997 20.0002C24.0997 20.0002 23.2663 19.7835 22.4997 19.4168C23.5497 17.9335 24.1663 16.1168 24.1663 14.1668C24.1663 12.2168 23.5497 10.4002 22.4997 8.91683C23.2663 8.55016 24.0997 8.3335 24.9997 8.3335C28.2163 8.3335 30.833 10.9502 30.833 14.1668Z" fill="white"/>
</svg>
