<svg width="50" height="49" viewBox="0 0 50 49" fill="none" xmlns="http://www.w3.org/2000/svg">
<path d="M43.679 13.8036C44.0326 13.9994 44.4786 13.8711 44.6744 13.5173C45.2136 12.5428 45.4986 11.4356 45.4986 10.3155C45.4986 6.66392 42.5278 3.69312 38.8763 3.69312C35.2247 3.69312 32.2539 6.66392 32.2539 10.3155C32.2539 13.9671 35.2247 16.9379 38.8763 16.9379C39.9297 16.9379 40.9372 16.6976 41.8709 16.2236C42.2315 16.0405 42.3755 15.5997 42.1924 15.239C42.0092 14.8785 41.5686 14.7344 41.2078 14.9175C40.4815 15.2863 39.6972 15.4732 38.8764 15.4732C36.0324 15.4732 33.7188 13.1594 33.7188 10.3155C33.7188 7.47154 36.0324 5.15786 38.8764 5.15786C41.7203 5.15786 44.034 7.47154 44.034 10.3155C44.034 11.1882 43.8123 12.0502 43.3929 12.8083C43.197 13.1622 43.3252 13.6079 43.679 13.8036Z" fill="#051C3F"/>
<path d="M38.8764 2.67441C39.2809 2.67441 39.6088 2.34658 39.6088 1.94209V0.732324C39.6088 0.327832 39.281 0 38.8764 0C38.4718 0 38.144 0.327832 38.144 0.732324V1.94209C38.144 2.34658 38.4719 2.67441 38.8764 2.67441Z" fill="#051C3F"/>
<path d="M42.2198 3.51091C42.3223 3.56042 42.4305 3.58376 42.5372 3.58376C42.8096 3.58376 43.0712 3.43103 43.1974 3.16912L43.7227 2.07937C43.8984 1.71511 43.7452 1.27732 43.3809 1.10173C43.0168 0.925852 42.5788 1.07908 42.4032 1.44353L41.878 2.53328C41.7024 2.89753 41.8554 3.33533 42.2198 3.51091Z" fill="#051C3F"/>
<path d="M45.4418 5.9922C45.6017 5.9922 45.7628 5.94006 45.8976 5.83263L46.844 5.07892C47.1603 4.82697 47.2126 4.36623 46.9605 4.04982C46.7086 3.73341 46.2478 3.68117 45.9314 3.93332L44.9851 4.68703C44.6687 4.93898 44.6165 5.39972 44.8685 5.71613C45.0131 5.89767 45.2264 5.9922 45.4418 5.9922Z" fill="#051C3F"/>
<path d="M46.2967 8.85246C46.3738 9.19231 46.6759 9.42278 47.0102 9.42278C47.0639 9.42278 47.1185 9.41672 47.1731 9.40442L48.3527 9.13645C48.7472 9.0469 48.9943 8.65451 48.9047 8.26008C48.8151 7.86565 48.4228 7.61828 48.0283 7.70813L46.8486 7.9761C46.4542 8.06565 46.207 8.45803 46.2967 8.85246Z" fill="#051C3F"/>
<path d="M48.1151 13.4656C48.4488 13.4656 48.7502 13.2361 48.8281 12.8971C48.9188 12.5028 48.6726 12.1099 48.2783 12.0192L47.0992 11.7483C46.705 11.6575 46.312 11.9039 46.2214 12.2981C46.1308 12.6924 46.377 13.0853 46.7712 13.176L47.9503 13.4469C48.0056 13.4595 48.0607 13.4656 48.1151 13.4656Z" fill="#051C3F"/>
<path d="M44.7723 16.3989L45.7169 17.1549C45.8519 17.263 46.0135 17.3155 46.174 17.3155C46.3887 17.3155 46.6016 17.2214 46.7463 17.0408C46.999 16.725 46.9479 16.2641 46.6321 16.0114L45.6876 15.2553C45.3719 15.0025 44.9109 15.0539 44.6582 15.3695C44.4054 15.6852 44.4565 16.146 44.7723 16.3989Z" fill="#051C3F"/>
<path d="M41.9161 17.4571C41.5514 17.6318 41.3973 18.0691 41.5721 18.4339L42.0946 19.5249C42.2204 19.7876 42.4825 19.941 42.7556 19.941C42.8617 19.941 42.9694 19.9179 43.0715 19.869C43.4362 19.6943 43.5903 19.257 43.4155 18.8921L42.893 17.8011C42.7183 17.4363 42.2806 17.2823 41.9161 17.4571Z" fill="#051C3F"/>
<path d="M38.5375 18.147C38.1338 18.147 37.8061 18.4737 37.8051 18.8776L37.8022 20.0875C37.8013 20.4919 38.1284 20.8206 38.5329 20.8216H38.5347C38.9384 20.8216 39.2661 20.4948 39.267 20.0909L39.2698 18.8811C39.2708 18.4767 38.9437 18.1479 38.5392 18.147C38.5386 18.147 38.538 18.147 38.5375 18.147Z" fill="#051C3F"/>
<path d="M34.2197 17.6419L33.6917 18.7306C33.5153 19.0945 33.6671 19.5326 34.0311 19.7091C34.1341 19.7591 34.2429 19.7827 34.35 19.7827C34.6219 19.7827 34.883 19.6307 35.0095 19.3697L35.5374 18.2811C35.7139 17.9172 35.562 17.479 35.1981 17.3026C34.8339 17.1261 34.396 17.278 34.2197 17.6419Z" fill="#051C3F"/>
<path d="M31.5261 14.972L30.5779 15.7234C30.2609 15.9746 30.2074 16.4353 30.4587 16.7522C30.6032 16.9347 30.8172 17.0298 31.0331 17.0298C31.1925 17.0298 31.353 16.978 31.4875 16.8714L32.4358 16.1199C32.7528 15.8687 32.8062 15.408 32.5549 15.0911C32.3036 14.7739 31.8429 14.7207 31.5261 14.972Z" fill="#051C3F"/>
<path d="M29.2382 13.1095C29.2913 13.1095 29.3453 13.1036 29.3994 13.0914L30.5797 12.8263C30.9744 12.7377 31.2225 12.3459 31.1337 11.9513C31.0452 11.5566 30.6542 11.3081 30.2587 11.3973L29.0784 11.6624C28.6837 11.751 28.4356 12.1428 28.5244 12.5374C28.6009 12.878 28.9032 13.1095 29.2382 13.1095Z" fill="#051C3F"/>
<path d="M29.1602 8.77977L30.3387 9.0535C30.3943 9.06649 30.4501 9.07264 30.505 9.07264C30.8379 9.07264 31.1392 8.84393 31.2177 8.50575C31.3091 8.1118 31.064 7.71825 30.6699 7.62674L29.4914 7.35301C29.0983 7.26112 28.7039 7.50672 28.6124 7.90077C28.5209 8.29461 28.7661 8.68817 29.1602 8.77977Z" fill="#051C3F"/>
<path d="M30.8159 4.79175L31.7587 5.54995C31.894 5.65874 32.0562 5.71157 32.2172 5.71157C32.4314 5.71157 32.6437 5.61812 32.7884 5.43814C33.0419 5.123 32.9918 4.66196 32.6767 4.40845L31.7339 3.65024C31.4187 3.39673 30.9578 3.44673 30.7042 3.76196C30.4507 4.0772 30.5007 4.53814 30.8159 4.79175Z" fill="#051C3F"/>
<path d="M34.5595 3.0106C34.6849 3.27418 34.9474 3.42838 35.2212 3.42838C35.3267 3.42838 35.434 3.40553 35.5355 3.35709C35.9008 3.18326 36.0558 2.74635 35.882 2.38111L35.362 1.28873C35.1881 0.923494 34.751 0.768122 34.386 0.942244C34.0208 1.11607 33.8657 1.55299 34.0395 1.91822L34.5595 3.0106Z" fill="#051C3F"/>
<path d="M15.0109 44.2975C15.1579 44.3657 15.3114 44.3985 15.4618 44.3985C15.7948 44.3985 16.1134 44.2376 16.3181 43.9427L23.1901 34.0391C23.4595 33.6509 23.4907 33.1495 23.2715 32.7309C23.0525 32.3121 22.6229 32.0521 22.1503 32.0521H20.6348L22.0108 27.1379C22.1002 26.8181 22.0365 26.4829 21.8357 26.2185C21.635 25.9539 21.3295 25.8022 20.9975 25.8022H16.444C15.9686 25.8022 15.5506 26.1229 15.4276 26.5821L13.1254 35.1737C13.0227 35.5568 13.1023 35.9569 13.3437 36.2716C13.5851 36.5862 13.951 36.7668 14.3478 36.7668H16.1263L14.4372 43.0703C14.3024 43.5736 14.5382 44.0783 15.0109 44.2975ZM14.6075 35.3022L16.7604 27.267H20.4535L19.0971 32.1109C19.0029 32.4475 19.0701 32.8002 19.2812 33.0786C19.4924 33.357 19.8141 33.5168 20.1636 33.5168H21.7696L16.4652 41.1612L17.6802 36.6268C17.7657 36.3082 17.6995 35.9755 17.4988 35.7138C17.298 35.4522 16.9937 35.3021 16.6639 35.3021H14.6075V35.3022Z" fill="#051C3F"/>
<path d="M43.5379 41.4088C43.8644 41.4687 44.1934 41.4988 44.521 41.4987C45.9551 41.4986 47.3594 40.9351 48.3956 39.8988C49.7594 38.5351 50.299 36.6017 49.8391 34.7265C49.7598 34.402 49.5088 34.1511 49.1848 34.0718C47.3093 33.6118 45.3757 34.1514 44.0121 35.5151C42.739 36.7881 42.1802 38.616 42.502 40.3729L41.5873 41.2876L40.6726 40.3729C40.9945 38.616 40.4356 36.7882 39.1626 35.5151C37.7988 34.1514 35.8658 33.6119 33.9903 34.0717C33.6664 34.1509 33.4155 34.4015 33.3355 34.7261C32.8756 36.6014 33.4151 38.535 34.7788 39.8988C35.8153 40.9352 37.2194 41.4987 38.6536 41.4987C38.981 41.4987 39.3101 41.4686 39.6367 41.4087L40.8549 42.6673V46.8064H31.3909V43.6654C31.3909 43.2609 31.0631 42.933 30.6586 42.933C30.2541 42.933 29.9262 43.2609 29.9262 43.6654V46.8064H6.57215V29.822L18.2492 20.382L21.9115 23.3426C22.2261 23.5969 22.6872 23.5479 22.9414 23.2335C23.1957 22.9191 23.1469 22.4578 22.8323 22.2036L19.0447 19.1416C18.5838 18.769 17.9145 18.7691 17.4535 19.1417L2.63582 31.1206L1.54588 29.7723L17.7041 16.7096C18.0199 16.4542 18.4783 16.4543 18.7941 16.7095L34.9526 29.7723L33.8627 31.1207L25.4983 24.3589C25.1837 24.1045 24.7225 24.1536 24.4684 24.4681C24.2141 24.7825 24.263 25.2438 24.5775 25.4981L29.9264 29.8221V40.1827C29.9264 40.5872 30.2542 40.9151 30.6588 40.9151C31.0634 40.9151 31.3911 40.5872 31.3911 40.1827V31.0063L33.0969 32.3852C33.3306 32.574 33.6117 32.666 33.8912 32.6659C34.2604 32.6659 34.6268 32.5055 34.8765 32.1966L36.217 30.5383C36.6558 29.9957 36.5712 29.1973 36.0284 28.7586L33.7658 26.9295L34.785 25.6686C34.9976 25.4058 35.0951 25.0758 35.0594 24.7397C35.0238 24.4035 34.8594 24.1014 34.5965 23.889L23.9221 15.2597C23.3796 14.8209 22.5811 14.9054 22.1424 15.4483L21.1231 16.7091L19.715 15.5708C18.8656 14.8841 17.6326 14.8838 16.7833 15.5708L0.470094 28.7584C0.207203 28.971 0.0427501 29.2731 0.00720319 29.6092C-0.0284414 29.9453 0.0690196 30.2753 0.281422 30.5381L1.62195 32.1964C2.06072 32.7392 2.85916 32.8237 3.40174 32.385L5.1074 31.0061V46.8065H2.19148C1.78699 46.8065 1.45916 47.1343 1.45916 47.5388C1.45916 47.9433 1.78699 48.2712 2.19148 48.2712H45.8525C46.257 48.2712 46.5849 47.9434 46.5849 47.5388C46.5849 47.1342 46.257 46.8065 45.8525 46.8065H42.3198V42.6674L43.5379 41.4088ZM45.0478 36.5509C45.9615 35.637 47.2253 35.2289 48.4863 35.4246C48.6822 36.6855 48.2739 37.9492 47.36 38.8632C46.7009 39.5222 45.8386 39.9185 44.9351 40.0116L46.6947 38.2521C46.9807 37.9659 46.9807 37.5024 46.6947 37.2162C46.4086 36.9303 45.945 36.9303 45.6589 37.2162L43.8993 38.9758C43.9925 38.0724 44.3888 37.2099 45.0478 36.5509ZM37.4629 37.1632C37.1767 36.8773 36.7132 36.8773 36.427 37.1632C36.1411 37.4493 36.1411 37.9129 36.427 38.199L38.2395 40.0116C37.3361 39.9183 36.4738 39.5222 35.8147 38.8631C34.9007 37.9491 34.4925 36.6852 34.6883 35.4246C35.9496 35.228 37.2131 35.637 38.1269 36.551C38.786 37.21 39.1823 38.0724 39.2755 38.9758L37.4629 37.1632ZM31.1358 22.9745L33.5208 24.9026L32.6267 26.0084L30.2418 24.0804L31.1358 22.9745ZM26.87 19.526L29.9967 22.0536L29.1026 23.1596L25.976 20.632L26.87 19.526ZM23.1562 16.5237L25.7308 18.6051L24.8368 19.7111L22.2622 17.6297L23.1562 16.5237Z" fill="#051C3F"/>
</svg>
