<svg width="50" height="50" viewBox="0 0 50 50" fill="none" xmlns="http://www.w3.org/2000/svg">
<path d="M49.833 10.4628C50.0005 10.2395 50.0455 9.94701 49.9521 9.68368C49.8588 9.42035 49.6396 9.22202 49.3688 9.15368L46.5763 8.45535C46.3797 8.05536 46.1488 7.66203 45.8855 7.28203L46.6497 3.45956C46.7097 3.15956 46.6005 2.85123 46.3655 2.6554C46.1305 2.45957 45.8072 2.40873 45.523 2.52206L41.8347 3.99789C41.5522 3.87955 41.2697 3.77789 40.9914 3.69372L40.6205 3.50872L39.0781 0.423747C38.7956 -0.141249 37.8697 -0.141249 37.5872 0.423747L36.0447 3.50872L35.6747 3.69372C35.3964 3.77872 35.1139 3.88039 34.8314 3.99789L31.1431 2.52206C30.8606 2.4104 30.5356 2.45873 30.3006 2.6554C30.0656 2.8504 29.9565 3.15956 30.0165 3.45956L30.7806 7.28203C30.524 7.65286 30.2981 8.03536 30.1056 8.42452L26.5031 9.14535C26.2023 9.20535 25.9581 9.42701 25.869 9.72035C25.7798 10.0145 25.8598 10.3337 26.0773 10.5512L29.1665 13.6411V14.7661L27.5873 17.9236C27.4581 18.1819 27.4723 18.4886 27.624 18.7344C27.7765 18.9794 28.044 19.1294 28.3331 19.1294H32.0481C32.2589 19.3261 32.4864 19.5186 32.7373 19.7119L33.3331 20.3078V23.2961C33.3331 23.6119 33.5114 23.9002 33.7939 24.0419C34.0764 24.1819 34.4139 24.1519 34.6664 23.9627L37.4997 21.8378V28.3385C33.2948 28.7577 29.9998 32.316 29.9998 36.6293C29.9998 40.9426 33.2948 44.5009 37.4997 44.9201V48.2959H11.6666V46.6292H12.4999C12.6799 46.6292 12.8557 46.5709 12.9999 46.4626L16.3332 43.9626C16.5432 43.8059 16.6665 43.5584 16.6665 43.2959V40.796V37.4626V34.3002L19.0907 28.6427L21.0565 24.3477C21.0682 24.3219 21.079 24.2952 21.0882 24.2686C21.4723 23.1352 21.6665 21.9669 21.6665 20.7961C21.6665 14.8228 16.8065 9.96284 10.8333 9.96284C4.85997 9.96284 0 14.8228 0 20.7961C0 21.9669 0.194165 23.1352 0.578329 24.2686C0.587496 24.2952 0.598329 24.3219 0.609996 24.3477L2.56748 28.6244L4.99996 34.3002V37.4626V40.796V43.2959C4.99996 43.5584 5.1233 43.8051 5.3333 43.9626L8.6666 46.4626C8.81077 46.5709 8.9866 46.6292 9.1666 46.6292H9.99993V49.1292C9.99993 49.5892 10.3733 49.9626 10.8333 49.9626H38.3331C38.7931 49.9626 39.1664 49.5892 39.1664 49.1292V44.9201C43.3714 44.5009 46.6663 40.9426 46.6663 36.6293C46.6663 32.316 43.3714 28.7577 39.1664 28.3385V21.8378L41.9997 23.9627C42.1472 24.0727 42.323 24.1294 42.4997 24.1294C42.6264 24.1294 42.7547 24.1002 42.8722 24.0419C43.1547 23.9002 43.333 23.6119 43.333 23.2961V20.3078L43.9289 19.7119C44.1797 19.5186 44.4072 19.3261 44.618 19.1294H48.333C48.6222 19.1294 48.8897 18.9794 49.0422 18.7344C49.1938 18.4886 49.208 18.1819 49.0788 17.9236L47.4997 14.7661V13.5737L49.833 10.4628ZM14.9999 39.9626H6.66662V38.296H14.9999V39.9626ZM14.9999 36.6293H6.66662V34.9627H9.1666H12.4999H14.9999V36.6293ZM7.99578 26.0102C8.7591 26.3594 9.71243 26.6294 10.8333 26.6294C11.3749 26.6294 12.4724 26.5502 13.6699 26.0127L11.8491 33.296H9.81743L7.99578 26.0102ZM4.0908 27.9494L2.14332 23.6936C1.82665 22.7452 1.66665 21.7711 1.66665 20.7961C1.66665 15.742 5.77913 11.6295 10.8333 11.6295C15.8874 11.6295 19.9999 15.742 19.9999 20.7961C19.9999 21.7711 19.8399 22.7452 19.5232 23.6944L17.5674 27.9677L15.2841 33.296H13.5674L15.8082 24.3319C15.8982 23.9719 15.7391 23.5961 15.4191 23.4094C15.0982 23.2227 14.6932 23.2702 14.4249 23.5261C13.0632 24.8227 11.4599 24.9627 10.8333 24.9627C8.95244 24.9627 7.69494 23.9577 7.24161 23.5261C6.97328 23.2702 6.56745 23.2227 6.24746 23.4094C5.92746 23.5961 5.76829 23.9719 5.85829 24.3319L8.09911 33.296H6.38245L4.0908 27.9494ZM9.44493 44.9626L6.66662 42.8793V41.6293H14.9999V42.8793L12.2224 44.9626H9.44493ZM44.9997 36.6293C44.9997 40.3051 42.0089 43.2959 38.3331 43.2959C34.6573 43.2959 31.6664 40.3051 31.6664 36.6293C31.6664 32.9535 34.6573 29.9627 38.3331 29.9627C42.0089 29.9627 44.9997 32.9535 44.9997 36.6293ZM45.9205 15.3353L46.9847 17.4628H44.2797C44.0555 17.4628 43.8414 17.5528 43.6847 17.712C43.4489 17.9528 43.183 18.1844 42.873 18.4219C42.843 18.4444 42.8155 18.4686 42.7889 18.4953L41.9105 19.3736C41.7539 19.5294 41.6664 19.7419 41.6664 19.9628V21.6294L39.6664 20.1294C39.5222 20.0211 39.3464 19.9628 39.1664 19.9628H37.4997C37.3197 19.9628 37.1439 20.0211 36.9997 20.1294L34.9998 21.6294V19.9628C34.9998 19.7419 34.9123 19.5294 34.7556 19.3736L33.8773 18.4953C33.8514 18.4686 33.8231 18.4444 33.7931 18.4219C33.4823 18.1853 33.2173 17.9528 32.9814 17.712C32.8248 17.5528 32.6106 17.4628 32.3864 17.4628H29.6815L30.7448 15.3353C30.8031 15.2203 30.8331 15.092 30.8331 14.9628V13.2962C30.8331 13.0753 30.7456 12.8628 30.5889 12.707L28.3565 10.4745L30.8464 9.97618C31.1148 9.92284 31.3389 9.74035 31.4481 9.48951C31.6673 8.98202 31.9581 8.48202 32.3131 8.00453C32.3423 7.96536 32.3898 7.87869 32.4123 7.83536C32.4948 7.66953 32.5206 7.4812 32.4839 7.2987L31.9523 4.64122L34.5373 5.67538C34.7506 5.75954 34.9881 5.75454 35.1964 5.65788C35.5406 5.49954 35.8847 5.36871 36.2189 5.27121C36.2664 5.25704 36.3122 5.23871 36.3572 5.21705L37.0406 4.87538C37.2014 4.79455 37.3331 4.66372 37.4131 4.50288L38.3331 2.65956L39.2539 4.50205C39.3347 4.66288 39.4656 4.79455 39.6264 4.87455L40.3097 5.21621C40.3539 5.23788 40.3997 5.25621 40.448 5.27038C40.7822 5.36871 41.1255 5.49871 41.4705 5.65704C41.6789 5.75371 41.9155 5.75871 42.1297 5.67454L44.7147 4.64038L44.183 7.29786C44.1464 7.47953 44.1947 7.71453 44.2772 7.87953C44.2989 7.92286 44.3247 7.96453 44.353 8.00286C44.7088 8.48202 45.0005 8.98452 45.2213 9.49618C45.3238 9.73451 45.5322 9.91201 45.7838 9.97451L47.7455 10.4653L45.9997 12.7962C45.8913 12.9403 45.833 13.1162 45.833 13.2962V14.9628C45.833 15.092 45.863 15.2203 45.9205 15.3353Z" fill="#051C3F"/>
<path d="M38.3328 6.62964C35.1162 6.62964 32.4995 9.24629 32.4995 12.4629C32.4995 15.6796 35.1162 18.2962 38.3328 18.2962C41.5494 18.2962 44.1661 15.6796 44.1661 12.4629C44.1661 9.24629 41.5494 6.62964 38.3328 6.62964ZM38.3328 16.6296C36.0353 16.6296 34.1662 14.7604 34.1662 12.4629C34.1662 10.1654 36.0353 8.29629 38.3328 8.29629C40.6303 8.29629 42.4994 10.1654 42.4994 12.4629C42.4994 14.7604 40.6303 16.6296 38.3328 16.6296Z" fill="#051C3F"/>
<path d="M41.5421 35.3578C41.3896 35.1128 41.1221 34.9628 40.8329 34.9628H37.3046L39.0471 32.0587L37.6179 31.2012L35.1179 35.3678C34.9629 35.6253 34.9596 35.9461 35.1071 36.207C35.2554 36.4678 35.5329 36.6295 35.8329 36.6295H39.4846L37.5879 40.4236L39.0787 41.1686L41.5787 36.1686C41.7079 35.9103 41.6937 35.6036 41.5421 35.3578Z" fill="#051C3F"/>
<path d="M11.6667 4.96289H10V8.2962H11.6667V4.96289Z" fill="#051C3F"/>
<path d="M20.2438 6.87288L17.7437 9.37305L18.9221 10.5515L21.4223 8.05137L20.2438 6.87288Z" fill="#051C3F"/>
<path d="M1.42263 6.87375L0.244141 8.05225L2.74431 10.5524L3.9228 9.37392L1.42263 6.87375Z" fill="#051C3F"/>
</svg>
