<svg width="100" height="100" viewBox="0 0 100 100" fill="none" xmlns="http://www.w3.org/2000/svg">
<g filter="url(#filter0_d)">
<circle cx="50" cy="44" r="40" fill="#051C3F"/>
</g>
<path d="M53.9423 43.4269C54.1885 42.9474 53.999 42.3593 53.5191 42.1134C53.0391 41.8673 52.4506 42.0568 52.2045 42.5362C50.7581 45.3536 47.8928 47.1039 44.7266 47.1039C40.0957 47.1039 36.3281 43.3391 36.3281 38.7117C36.3281 34.0843 40.0957 30.3196 44.7266 30.3196C47.8927 30.3196 50.7581 32.0698 52.2044 34.8873C52.4506 35.3667 53.0389 35.5561 53.519 35.3101C53.9989 35.0641 54.1884 34.4759 53.9422 33.9964C52.16 30.5246 48.6287 28.3679 44.7266 28.3679C39.0187 28.3679 34.375 33.0081 34.375 38.7117C34.375 44.4154 39.0187 49.0555 44.7266 49.0555C48.6287 49.0555 52.16 46.8988 53.9423 43.4269Z" fill="white"/>
<path d="M54.6435 29.7782C54.8934 29.7782 55.1434 29.6829 55.3341 29.4924L58.6755 26.1535C59.0568 25.7724 59.0568 25.1545 58.6755 24.7733C58.2941 24.3923 57.6758 24.3923 57.2943 24.7733L53.953 28.1122C53.5717 28.4933 53.5717 29.1112 53.953 29.4924C54.1437 29.6829 54.3936 29.7782 54.6435 29.7782Z" fill="white"/>
<path d="M34.1191 47.9311L30.7777 51.27C30.3964 51.6511 30.3964 52.269 30.7777 52.6501C30.9684 52.8407 31.2183 52.9359 31.4682 52.9359C31.7181 52.9359 31.9681 52.8407 32.1588 52.6501L35.5002 49.3112C35.8815 48.9302 35.8815 48.3123 35.5002 47.9311C35.1188 47.5499 34.5006 47.55 34.1191 47.9311Z" fill="white"/>
<path d="M53.9531 49.3112L57.2945 52.6501C57.4852 52.8407 57.7351 52.9359 57.985 52.9359C58.2349 52.9359 58.4849 52.8407 58.6755 52.6501C59.0569 52.269 59.0569 51.6511 58.6755 51.27L55.3341 47.9311C54.9528 47.55 54.3344 47.55 53.953 47.9311C53.5715 48.3121 53.5717 48.93 53.9531 49.3112Z" fill="white"/>
<path d="M34.1191 29.4924C34.3098 29.6829 34.5597 29.7782 34.8096 29.7782C35.0595 29.7782 35.3095 29.6829 35.5002 29.4924C35.8815 29.1113 35.8815 28.4934 35.5002 28.1122L32.1589 24.7733C31.7775 24.3923 31.1592 24.3923 30.7777 24.7733C30.3964 25.1544 30.3964 25.7723 30.7777 26.1535L34.1191 29.4924Z" fill="white"/>
<path d="M57.7749 38.7117C57.7749 39.2506 58.2121 39.6875 58.7515 39.6875H63.477C64.0163 39.6875 64.4535 39.2506 64.4535 38.7117C64.4535 38.1727 64.0163 37.7358 63.477 37.7358H58.7515C58.2121 37.7358 57.7749 38.1727 57.7749 38.7117Z" fill="white"/>
<path d="M31.6786 38.7117C31.6786 38.1727 31.2414 37.7358 30.7021 37.7358H25.9766C25.4372 37.7358 25 38.1727 25 38.7117C25 39.2506 25.4372 39.6875 25.9766 39.6875H30.7021C31.2414 39.6875 31.6786 39.2506 31.6786 38.7117Z" fill="white"/>
<path d="M44.7266 25.6736C45.2659 25.6736 45.7031 25.2367 45.7031 24.6978V19.9758C45.7031 19.4369 45.2659 19 44.7266 19C44.1872 19 43.75 19.4369 43.75 19.9758V24.6978C43.75 25.2367 44.1872 25.6736 44.7266 25.6736Z" fill="white"/>
<path d="M74.0234 64.0861H71.0979V60.9635H74.0234C74.5628 60.9635 75 60.5266 75 59.9876C75 59.4487 74.5628 59.0118 74.0234 59.0118H71.0979V57.063C71.0979 56.524 70.6606 56.0871 70.1213 56.0871H64.2551C61.0346 56.0871 58.3585 58.4606 57.8865 61.549H48.7305C47.0612 61.549 45.7031 60.1919 45.7031 58.5239V52.7898C45.7031 52.2508 45.2659 51.814 44.7266 51.814C44.1872 51.814 43.75 52.2508 43.75 52.7898V58.5239C43.75 61.2681 45.9842 63.5006 48.7305 63.5006H57.8864C58.3584 66.5889 61.0346 68.9624 64.255 68.9624H70.1212C70.6605 68.9624 71.0978 68.5256 71.0978 67.9866V66.0378H74.0234C74.5628 66.0378 75 65.6009 75 65.0619C75 64.523 74.5628 64.0861 74.0234 64.0861ZM69.1447 67.0108H64.2551C61.7796 67.0108 59.7656 64.9983 59.7656 62.5248C59.7656 60.0512 61.7796 58.0388 64.255 58.0388H69.1446V67.0108H69.1447Z" fill="white"/>
<path d="M44.91 43.4153C45.0158 43.4519 45.1236 43.4693 45.2295 43.4693C45.6341 43.4693 46.0125 43.216 46.1523 42.8125L47.4624 39.0311C47.5658 38.7328 47.5184 38.403 47.3351 38.1458C47.1519 37.8887 46.8555 37.736 46.5396 37.736H44.2846L45.146 35.2497C45.3225 34.7404 45.0524 34.1846 44.5427 34.0083C44.0329 33.832 43.4768 34.1019 43.3004 34.6112L41.9903 38.3925C41.8869 38.6908 41.9343 39.0207 42.1176 39.2778C42.3008 39.5349 42.5972 39.6877 42.9131 39.6877H45.1681L44.3067 42.174C44.1302 42.6832 44.4003 43.239 44.91 43.4153Z" fill="white"/>
<path d="M55.0781 38.7117C55.0781 38.455 54.9736 38.2033 54.792 38.0218C54.6104 37.8403 54.3584 37.7358 54.1016 37.7358C53.8447 37.7358 53.5928 37.8403 53.4111 38.0218C53.2295 38.2033 53.125 38.455 53.125 38.7117C53.125 38.9683 53.2295 39.2201 53.4111 39.4016C53.5928 39.5831 53.8447 39.6875 54.1016 39.6875C54.3584 39.6875 54.6104 39.5831 54.792 39.4016C54.9736 39.2201 55.0781 38.9683 55.0781 38.7117Z" fill="white"/>
<defs>
<filter id="filter0_d" x="0" y="0" width="100" height="100" filterUnits="userSpaceOnUse" color-interpolation-filters="sRGB">
<feFlood flood-opacity="0" result="BackgroundImageFix"/>
<feColorMatrix in="SourceAlpha" type="matrix" values="0 0 0 0 0 0 0 0 0 0 0 0 0 0 0 0 0 0 127 0"/>
<feOffset dy="6"/>
<feGaussianBlur stdDeviation="5"/>
<feColorMatrix type="matrix" values="0 0 0 0 0 0 0 0 0 0 0 0 0 0 0 0 0 0 0.1 0"/>
<feBlend mode="normal" in2="BackgroundImageFix" result="effect1_dropShadow"/>
<feBlend mode="normal" in="SourceGraphic" in2="effect1_dropShadow" result="shape"/>
</filter>
</defs>
</svg>
