<svg width="100" height="100" viewBox="0 0 100 100" fill="none" xmlns="http://www.w3.org/2000/svg">
<g filter="url(#filter0_d)">
<circle cx="50" cy="44" r="40" fill="url(#paint0_linear)"/>
</g>
<path d="M27.1325 33.4267L27.9488 37.073C27.9833 37.2271 28.061 37.3682 28.1728 37.4798C28.2846 37.5914 28.4259 37.6689 28.5802 37.7033L32.2291 38.519L35.3867 40.5212C35.5202 40.6056 35.675 40.6504 35.833 40.6504C35.991 40.6504 36.1458 40.6056 36.2794 40.5212L39.4374 38.519L43.0864 37.7035C43.2407 37.6691 43.382 37.5916 43.4938 37.48C43.6056 37.3684 43.6834 37.2273 43.7179 37.0732L44.5341 33.4269L46.537 30.2717C46.6217 30.1381 46.6666 29.9833 46.6666 29.8252C46.6666 29.6671 46.6217 29.5123 46.537 29.3788L44.5339 26.2237L43.7177 22.5774C43.6831 22.4233 43.6054 22.2822 43.4936 22.1706C43.3818 22.059 43.2405 21.9815 43.0862 21.9472L39.4374 21.1314L36.2796 19.1293C36.146 19.0448 35.9912 19 35.8332 19C35.6752 19 35.5204 19.0448 35.3869 19.1293L32.2291 21.1314L28.5802 21.947C28.4259 21.9813 28.2846 22.0588 28.1728 22.1704C28.061 22.282 27.9833 22.4231 27.9488 22.5772L27.1325 26.2237L25.1297 29.3788C25.045 29.5123 25 29.6671 25 29.8252C25 29.9833 25.045 30.1381 25.1297 30.2717L27.1325 33.4267ZM28.6176 26.994C28.6692 26.9129 28.7064 26.8235 28.7275 26.7297L29.4599 23.4571L32.7351 22.7244C32.8291 22.7039 32.9187 22.667 32.9999 22.6154L35.8332 20.8192L38.6665 22.6154C38.7476 22.667 38.8371 22.7039 38.931 22.7244L42.2062 23.4571L42.9386 26.7294C42.9598 26.8233 42.9971 26.9128 43.0488 26.994L44.8464 29.8252L43.0488 32.6564C42.9973 32.7375 42.9601 32.827 42.9389 32.9207L42.2065 36.193L38.9313 36.9257C38.8375 36.9462 38.7479 36.9831 38.6669 37.0347L35.8332 38.8313L32.9999 37.035C32.9188 36.9834 32.8293 36.9465 32.7354 36.926L29.4599 36.1934L28.7275 32.921C28.7064 32.8272 28.6692 32.7376 28.6176 32.6564L26.82 29.8252L28.6176 26.994Z" fill="white"/>
<path d="M35.8333 35.6543H36.0498V35.6439C37.5378 35.5437 38.9262 34.8607 39.9129 33.7431C40.8997 32.6256 41.405 31.164 41.319 29.6762C41.2331 28.1883 40.5628 26.7945 39.4539 25.7979C38.3451 24.8012 36.8873 24.2823 35.3976 24.354C33.9079 24.4256 32.5067 25.082 31.4987 26.1804C30.4908 27.2789 29.9575 28.7305 30.0149 30.2197C30.0724 31.709 30.7158 33.1153 31.8054 34.133C32.8949 35.1507 34.3425 35.6974 35.8333 35.6543ZM35.8333 25.6618C36.6574 25.6618 37.463 25.906 38.1482 26.3635C38.8334 26.821 39.3674 27.4712 39.6828 28.232C39.9982 28.9928 40.0807 29.8299 39.9199 30.6376C39.7591 31.4452 39.3623 32.1871 38.7796 32.7694C38.1969 33.3517 37.4544 33.7482 36.6462 33.9089C35.8379 34.0695 35.0002 33.9871 34.2388 33.6719C33.4775 33.3568 32.8267 32.8232 32.3689 32.1385C31.911 31.4538 31.6667 30.6488 31.6667 29.8253C31.668 28.7215 32.1074 27.6632 32.8885 26.8827C33.6696 26.1021 34.7287 25.6631 35.8333 25.6618Z" fill="white"/>
<path d="M74.1669 55.6392H71.6669V53.141C71.6669 52.9202 71.5791 52.7084 71.4228 52.5522C71.2665 52.396 71.0546 52.3083 70.8335 52.3083H70.0002V43.1485C70.0002 42.9277 69.9124 42.7159 69.7561 42.5597C69.5999 42.4035 69.3879 42.3158 69.1669 42.3158H59.5571L63.3103 26.6887C63.3397 26.5663 63.341 26.4388 63.314 26.3159C63.287 26.1929 63.2325 26.0777 63.1545 25.9789C63.0765 25.88 62.9771 25.8001 62.8638 25.7452C62.7505 25.6902 62.6262 25.6617 62.5002 25.6616H47.1877V27.327H52.2767L50.6773 33.9887H45.8336V35.6541H50.2767L48.6767 42.3158H44.557L45.3103 39.1793L43.69 38.7906L42.8434 42.3158H38.7318L38.9354 41.4693L37.3152 41.0806L37.0181 42.3158H32.8921L33.2453 40.8456L31.6253 40.4552L25.0235 67.9355C24.9941 68.0578 24.9929 68.1853 25.0198 68.3082C25.0468 68.4312 25.1014 68.5464 25.1793 68.6453C25.2573 68.7441 25.3567 68.824 25.47 68.879C25.5833 68.9339 25.7076 68.9625 25.8336 68.9625H52.5002C52.6874 68.9625 52.8691 68.8994 53.016 68.7836C53.163 68.6678 53.2667 68.506 53.3103 68.3241L58.3571 47.3121H60.0002V52.3083H59.1669C58.9459 52.3083 58.7339 52.396 58.5776 52.5522C58.4214 52.7084 58.3336 52.9202 58.3336 53.141V55.6392H57.9169V57.3046H73.3335V67.2971H56.6669V64.2435H55.0002V68.1298C55.0002 68.3506 55.088 68.5624 55.2443 68.7186C55.4006 68.8748 55.6125 68.9625 55.8336 68.9625H74.1669C74.3879 68.9625 74.5998 68.8748 74.7561 68.7186C74.9124 68.5624 75.0002 68.3506 75.0002 68.1298V56.4719C75.0002 56.251 74.9124 56.0392 74.7561 55.883C74.5998 55.7269 74.3879 55.6392 74.1669 55.6392ZM36.3287 52.3083H40.4433L38.844 58.97H34.7267L36.3287 52.3083ZM33.0129 58.97H28.8912L30.4915 52.3083H34.6148L33.0129 58.97ZM52.5097 50.6429H48.3903L49.9903 43.9812H54.1098L52.5097 50.6429ZM52.1097 52.3083L50.5098 58.97H46.3904L47.9904 52.3083H52.1097ZM44.6773 58.97H40.5575L42.1575 52.3083H46.2772L44.6773 58.97ZM38.4439 60.6354L36.8439 67.2971H32.724L34.3261 60.6354H38.4439ZM40.1575 60.6354H44.2773L42.6772 67.2971H38.5571L40.1575 60.6354ZM45.9909 60.6354H50.1102L48.5102 67.2971H44.3905L45.9909 60.6354ZM53.9909 27.327H58.1102L56.5102 33.9887H52.3903L53.9909 27.327ZM51.9909 35.6541H56.1102L54.5103 42.3158H50.3904L51.9909 35.6541ZM48.2773 43.9812L46.6773 50.6429H42.5575L44.1575 43.9812H48.2773ZM42.444 43.9812L40.844 50.6429H36.7294L38.3315 43.9812H42.444ZM32.4927 43.9812H36.6177L35.0156 50.6429H30.8916L32.4927 43.9812ZM28.4911 60.6354H32.6123L31.0107 67.2971H26.8907L28.4911 60.6354ZM51.843 67.2971H50.224L59.8241 27.327H61.4431L51.843 67.2971ZM60.8336 45.6466H58.757L59.157 43.9812H68.3335V52.3083H67.5002C67.2792 52.3083 67.0672 52.396 66.911 52.5522C66.7547 52.7084 66.6669 52.9202 66.6669 53.141V55.6392H63.3336V53.141C63.3336 52.9202 63.2458 52.7084 63.0895 52.5522C62.9332 52.396 62.7212 52.3083 62.5002 52.3083H61.6669V46.4794C61.6669 46.2585 61.5791 46.0467 61.4228 45.8905C61.2665 45.7344 61.0546 45.6466 60.8336 45.6466ZM60.0002 55.6392V53.9737H61.6669V55.6392H60.0002ZM68.3335 55.6392V53.9737H70.0002V55.6392H68.3335Z" fill="white"/>
<path d="M66.6665 61.4683H71.6665V63.1337H66.6665V61.4683Z" fill="white"/>
<path d="M60.0002 59.8027V61.4682H58.3335V63.1336H60.0002V64.799H61.6668V63.1336H63.3335V61.4682H61.6668V59.8027H60.0002Z" fill="white"/>
<defs>
<filter id="filter0_d" x="0" y="0" width="100" height="100" filterUnits="userSpaceOnUse" color-interpolation-filters="sRGB">
<feFlood flood-opacity="0" result="BackgroundImageFix"/>
<feColorMatrix in="SourceAlpha" type="matrix" values="0 0 0 0 0 0 0 0 0 0 0 0 0 0 0 0 0 0 127 0"/>
<feOffset dy="6"/>
<feGaussianBlur stdDeviation="5"/>
<feColorMatrix type="matrix" values="0 0 0 0 0 0 0 0 0 0 0 0 0 0 0 0 0 0 0.1 0"/>
<feBlend mode="normal" in2="BackgroundImageFix" result="effect1_dropShadow"/>
<feBlend mode="normal" in="SourceGraphic" in2="effect1_dropShadow" result="shape"/>
</filter>
<linearGradient id="paint0_linear" x1="50" y1="4" x2="50" y2="84" gradientUnits="userSpaceOnUse">
<stop stop-color="#70B33B"/>
<stop offset="1" stop-color="#4DB9AF"/>
</linearGradient>
</defs>
</svg>
