<svg width="50" height="50" viewBox="0 0 50 50" fill="none" xmlns="http://www.w3.org/2000/svg">
<path d="M16.3364 37.6587C16.219 37.3064 15.8894 37.069 15.5186 37.069H3.45001C3.07876 37.069 2.74918 37.3064 2.63175 37.6587L0.0456239 45.4173C-0.0419271 45.6799 0.0022693 45.9691 0.164323 46.1939C0.326377 46.4187 0.586504 46.5517 0.86389 46.5517H6.89818V48.2758H6.03614C5.55966 48.2758 5.1741 48.6618 5.1741 49.1379C5.1741 49.6139 5.55966 49.9999 6.03614 49.9999H12.9325C13.4085 49.9999 13.7945 49.6139 13.7945 49.1379C13.7945 48.6618 13.4085 48.2758 12.9325 48.2758H12.0704V46.5517H18.1047C18.3817 46.5517 18.6418 46.4187 18.8039 46.1939C18.9659 45.9691 19.0101 45.6799 18.9226 45.4173L16.3364 37.6587ZM15.4744 40.5172H12.3625L12.171 38.7931H14.8969L15.4744 40.5172ZM11.1099 44.8275H7.86082L8.14789 42.2414H10.8203L11.1099 44.8275ZM8.34277 40.5172L8.53429 38.7931H10.4394L10.6305 40.5172H8.34277ZM6.79968 38.7931L6.60817 40.5172H3.49631L4.07129 38.7931H6.79968ZM2.9205 42.2414H6.4137L6.12579 44.8275H2.0593L2.9205 42.2414ZM8.62226 48.2758V46.5517H10.3463V48.2758H8.62226ZM12.8462 44.8275L12.5583 42.2414H16.0511L16.9131 44.8275H12.8462Z" fill="#051C3F"/>
<path d="M37.0254 37.6587C36.908 37.3064 36.5784 37.069 36.2075 37.069H24.139C23.7677 37.069 23.4381 37.3064 23.3207 37.6587L20.7346 45.4173C20.647 45.6799 20.6912 45.9691 20.8533 46.1939C21.0153 46.4187 21.2755 46.5517 21.5529 46.5517H27.5871V48.2758H26.7251C26.2486 48.2758 25.8631 48.6618 25.8631 49.1379C25.8631 49.6139 26.2486 49.9999 26.7251 49.9999H33.6214C34.0975 49.9999 34.4835 49.6139 34.4835 49.1379C34.4835 48.6618 34.0975 48.2758 33.6214 48.2758H32.7594V46.5517H38.7937C39.0706 46.5517 39.3308 46.4187 39.4928 46.1939C39.6549 45.9691 39.6991 45.6799 39.6115 45.4173L37.0254 37.6587ZM36.1634 40.5172H33.0515L32.86 38.7931H35.5859L36.1634 40.5172ZM31.7989 44.8275H28.5498L28.8368 42.2414H31.5093L31.7989 44.8275ZM29.0317 40.5172L29.2233 38.7931H31.1212L31.3127 40.5172H29.0317ZM27.4886 38.7931L27.2971 40.5172H24.1853L24.7603 38.7931H27.4886ZM23.6095 42.2414H27.1027L26.811 44.8275H22.7483L23.6095 42.2414ZM29.3112 48.2758V46.5517H31.0353V48.2758H29.3112ZM33.5351 44.8275L33.2472 42.2414H36.74L37.6021 44.8275H33.5351Z" fill="#051C3F"/>
<path d="M28.4489 31.8965C28.7259 31.8965 28.986 31.7635 29.1481 31.5387C29.3101 31.314 29.3543 31.0248 29.2668 30.7621L26.6807 23.0035C26.5632 22.6512 26.2337 22.4138 25.8628 22.4138H13.7943C13.423 22.4138 13.0934 22.6512 12.976 23.0035L10.3899 30.7621C10.3023 31.0248 10.3465 31.314 10.5086 31.5387C10.6706 31.7635 10.9307 31.8965 11.2081 31.8965H17.2424V33.6206H16.3804C15.9039 33.6206 15.5183 34.0066 15.5183 34.4827C15.5183 34.9588 15.9039 35.3448 16.3804 35.3448H23.2767C23.7528 35.3448 24.1387 34.9588 24.1387 34.4827C24.1387 34.0066 23.7528 33.6206 23.2767 33.6206H22.4147V31.8965H28.4489ZM18.4921 27.5862H21.1645L21.4516 30.1724H18.2051L18.4921 27.5862ZM18.6845 25.8621L18.876 24.1379H20.7811L20.9722 25.8621H18.6845ZM23.1904 30.1724L22.9025 27.5862H26.3953L27.2573 30.1724H23.1904ZM25.8203 25.8621H22.7068L22.5153 24.1379H25.2411L25.8203 25.8621ZM17.1414 24.1379L16.9499 25.8621H13.8406L14.4155 24.1379H17.1414ZM13.2622 27.5862H16.755L16.4671 30.1724H12.4035L13.2622 27.5862ZM18.9665 33.6206V31.8965H20.6906V33.6206H18.9665Z" fill="#051C3F"/>
<path d="M47.3696 23.0035C47.2522 22.6512 46.9226 22.4138 46.5518 22.4138H34.4832C34.112 22.4138 33.7824 22.6512 33.665 23.0035L31.0788 30.7621C30.9913 31.0248 31.0355 31.314 31.1975 31.5387C31.3596 31.7635 31.6197 31.8965 31.8971 31.8965H37.9314V33.6206H37.0693C36.5929 33.6206 36.2073 34.0066 36.2073 34.4827C36.2073 34.9588 36.5929 35.3448 37.0693 35.3448H43.9657C44.4417 35.3448 44.8277 34.9588 44.8277 34.4827C44.8277 34.0066 44.4417 33.6206 43.9657 33.6206H43.1036V31.8965H49.1379C49.4149 31.8965 49.675 31.7635 49.8371 31.5387C49.9991 31.314 50.0433 31.0248 49.9558 30.7621L47.3696 23.0035ZM46.5076 25.8621H43.3958L43.2042 24.1379H45.9301L46.5076 25.8621ZM42.1431 30.1724H38.894L39.1811 27.5862H41.8535L42.1431 30.1724ZM39.376 25.8621L39.5675 24.1379H41.4726L41.6637 25.8621H39.376ZM37.8329 24.1379L37.6414 25.8621H34.5295L35.1045 24.1379H37.8329ZM33.9537 27.5862H37.4469L37.159 30.1724H33.0925L33.9537 27.5862ZM39.6555 33.6206V31.8965H41.3795V33.6206H39.6555ZM43.8794 30.1724L43.5915 27.5862H47.0843L47.9463 30.1724H43.8794Z" fill="#051C3F"/>
<path d="M2.58767 9.48287H15.5183C16.7886 9.48329 17.8716 8.56061 18.0728 7.30624C18.274 6.05145 17.5336 4.83665 16.3269 4.43971C15.9994 2.21089 14.2711 0.448038 12.0491 0.0767788C11.7721 0.0233208 11.4901 -0.00235591 11.2081 0.000169666C9.51051 -0.00614427 7.92028 0.828559 6.96143 2.22941C6.42392 1.89814 5.80475 1.72303 5.17379 1.7243C3.55536 1.72598 2.15538 2.85112 1.8056 4.43129C0.589145 4.81644 -0.1643 6.03124 0.0305857 7.29235C0.225892 8.55303 1.31144 9.48329 2.58767 9.48287ZM2.58767 6.03461C3.06373 6.03461 3.44971 5.64862 3.44971 5.17255C3.44971 4.22041 4.22125 3.44842 5.17379 3.44842C5.70499 3.45011 6.20504 3.6993 6.5262 4.12233C6.71604 4.36815 7.02331 4.49233 7.33016 4.44813C7.63743 4.40435 7.89713 4.19852 8.01078 3.90976C8.52094 2.58931 9.79253 1.72009 11.2081 1.7243C11.3891 1.72303 11.5705 1.73987 11.7485 1.77439C13.4179 2.0442 14.6474 3.48126 14.6562 5.17255C14.6562 5.64862 15.0418 6.03461 15.5183 6.03461C15.9943 6.03461 16.3803 6.4206 16.3803 6.89668C16.3803 7.37275 15.9943 7.75874 15.5183 7.75874H2.58767C2.11119 7.75874 1.72562 7.37275 1.72562 6.89668C1.72562 6.4206 2.11119 6.03461 2.58767 6.03461Z" fill="#051C3F"/>
<path d="M24.0867 17.2413H31.345C32.6726 17.2396 33.7485 16.1637 33.7502 14.8361C33.7691 13.2677 32.7778 11.8648 31.2933 11.3584C30.8644 11.2208 30.4114 11.174 29.9632 11.2208C29.2611 9.4777 27.4793 8.42075 25.6134 8.63963C23.3287 8.83999 21.6012 10.7944 21.6824 13.0859V14.8361C21.6833 16.1637 22.7591 17.2396 24.0867 17.2413ZM23.4057 13.0859C23.3282 11.6825 24.3822 10.4719 25.783 10.3549C25.8752 10.3469 25.9674 10.3436 26.06 10.3448C27.2916 10.3065 28.3544 11.2027 28.5253 12.4234C28.5754 12.6738 28.7345 12.8893 28.9589 13.011C29.1836 13.1331 29.4505 13.1495 29.6883 13.0552C30.0335 12.9091 30.4199 12.8923 30.7768 13.0068C31.5429 13.285 32.0459 14.0212 32.0261 14.8361C32.0257 15.212 31.7209 15.5168 31.345 15.5172H24.0867C23.7104 15.5172 23.4057 15.212 23.4057 14.8361V13.0859Z" fill="#051C3F"/>
<path d="M45.6896 8.62076C48.0699 8.62076 49.9998 6.69079 49.9998 4.31044C49.9998 1.92966 48.0699 0.00012207 45.6896 0.00012207C43.3089 0.00012207 41.3794 1.92966 41.3794 4.31044C41.3819 6.68953 43.3101 8.61781 45.6896 8.62076ZM45.6896 1.72425C47.1178 1.72425 48.2757 2.88223 48.2757 4.31044C48.2757 5.73865 47.1178 6.89663 45.6896 6.89663C44.261 6.89663 43.1035 5.73865 43.1035 4.31044C43.1035 2.88223 44.261 1.72425 45.6896 1.72425Z" fill="#051C3F"/>
<path d="M44.8276 11.2069V13.7931C44.8276 14.2692 45.2132 14.6552 45.6897 14.6552C46.1657 14.6552 46.5517 14.2692 46.5517 13.7931V11.2069C46.5517 10.7308 46.1657 10.3448 45.6897 10.3448C45.2132 10.3448 44.8276 10.7308 44.8276 11.2069Z" fill="#051C3F"/>
<path d="M38.3753 11.625C38.712 11.9618 39.2575 11.9618 39.5943 11.625L41.4227 9.79652C41.6467 9.58016 41.7367 9.25983 41.6576 8.95845C41.5789 8.65706 41.3436 8.42134 41.0422 8.34263C40.7408 8.26391 40.4201 8.35357 40.2038 8.5775L38.3753 10.406C38.039 10.7428 38.039 11.2883 38.3753 11.625Z" fill="#051C3F"/>
<path d="M36.2073 5.17261H38.7934C39.2694 5.17261 39.6554 4.78662 39.6554 4.31055C39.6554 3.83448 39.2694 3.44849 38.7934 3.44849H36.2073C35.7308 3.44849 35.3452 3.83448 35.3452 4.31055C35.3452 4.78662 35.7308 5.17261 36.2073 5.17261Z" fill="#051C3F"/>
</svg>
