<svg width="40" height="40" viewBox="0 0 40 40" fill="none" xmlns="http://www.w3.org/2000/svg">
<path fill-rule="evenodd" clip-rule="evenodd" d="M19.9997 3.3335C25.5163 3.3335 29.9997 7.81683 29.9997 13.3335C29.9997 20.8335 19.9997 31.6668 19.9997 31.6668C19.9997 31.6668 9.99967 20.8335 9.99967 13.3335C9.99967 7.81683 14.483 3.3335 19.9997 3.3335ZM31.6663 36.6668V33.3335H8.33301V36.6668H31.6663ZM13.333 13.3335C13.333 9.65016 16.3163 6.66683 19.9997 6.66683C23.683 6.66683 26.6663 9.65016 26.6663 13.3335C26.6663 16.8835 23.1997 22.4335 19.9997 26.5168C16.7997 22.4502 13.333 16.8835 13.333 13.3335ZM16.6663 13.3335C16.6663 11.5002 18.1663 10.0002 19.9997 10.0002C21.833 10.0002 23.333 11.5002 23.333 13.3335C23.333 15.1668 21.8497 16.6668 19.9997 16.6668C18.1663 16.6668 16.6663 15.1668 16.6663 13.3335Z" fill="white"/>
</svg>
