<svg width="50" height="51" viewBox="0 0 50 51" fill="none" xmlns="http://www.w3.org/2000/svg">
<path d="M2.54275 25.4234H5.93254V41.5249H7.62743V25.4234H41.5254V41.5249H43.2203V25.4234H46.61C46.7427 25.4234 46.8734 25.3923 46.9918 25.3325C47.1102 25.2728 47.2129 25.1861 47.2917 25.0794C47.3705 24.9727 47.4232 24.849 47.4454 24.7183C47.4677 24.5876 47.459 24.4534 47.42 24.3267L44.0302 13.3099C43.9769 13.1367 43.8695 12.9851 43.7237 12.8774C43.5779 12.7698 43.4015 12.7117 43.2203 12.7117H40.6779V14.4066H42.5944L45.4626 23.7285H3.69019L6.55838 14.4066H8.47488V12.7117H5.93254C5.75131 12.7117 5.57487 12.7698 5.42909 12.8774C5.28331 12.9851 5.17589 13.1367 5.12259 13.3099L1.7328 24.3267C1.69379 24.4534 1.68508 24.5876 1.70736 24.7183C1.72963 24.849 1.78228 24.9727 1.86107 25.0794C1.93985 25.1861 2.04257 25.2728 2.16097 25.3325C2.27936 25.3923 2.41013 25.4234 2.54275 25.4234Z" fill="#051C3F"/>
<path d="M24.5767 37.2877H22.8818V38.9826H24.5767V37.2877Z" fill="#051C3F"/>
<path d="M10.1699 31.3556V39.8301C10.1699 40.0549 10.2592 40.2704 10.4181 40.4293C10.5771 40.5883 10.7926 40.6776 11.0174 40.6776H16.1021C16.3268 40.6776 16.5424 40.5883 16.7013 40.4293C16.8602 40.2704 16.9495 40.0549 16.9495 39.8301V31.3556C16.9495 31.1309 16.8602 30.9153 16.7013 30.7564C16.5424 30.5975 16.3268 30.5082 16.1021 30.5082H11.0174C10.7926 30.5082 10.5771 30.5975 10.4181 30.7564C10.2592 30.9153 10.1699 31.1309 10.1699 31.3556ZM11.8648 38.9827V37.2878H15.2546V38.9827H11.8648ZM15.2546 32.2031V35.5929H11.8648V32.2031H15.2546Z" fill="#051C3F"/>
<path d="M32.2036 31.3556V39.8301C32.2036 40.0549 32.2929 40.2704 32.4518 40.4293C32.6108 40.5883 32.8263 40.6776 33.0511 40.6776H38.1357C38.3605 40.6776 38.5761 40.5883 38.735 40.4293C38.8939 40.2704 38.9832 40.0549 38.9832 39.8301V31.3556C38.9832 31.1309 38.8939 30.9153 38.735 30.7564C38.5761 30.5975 38.3605 30.5082 38.1357 30.5082H33.0511C32.8263 30.5082 32.6108 30.5975 32.4518 30.7564C32.2929 30.9153 32.2036 31.1309 32.2036 31.3556ZM33.8985 38.9827V37.2878H37.2883V38.9827H33.8985ZM37.2883 32.2031V35.5929H33.8985V32.2031H37.2883Z" fill="#051C3F"/>
<path d="M14.4073 27.1183H12.7124V28.8132H14.4073V27.1183Z" fill="#051C3F"/>
<path d="M36.441 27.1183H34.7461V28.8132H36.441V27.1183Z" fill="#051C3F"/>
<path d="M9.32252 21.1862H39.8307C39.9594 21.1862 40.0865 21.1568 40.2023 21.1004C40.318 21.0439 40.4193 20.9618 40.4986 20.8603C40.5778 20.7588 40.6329 20.6405 40.6596 20.5146C40.6864 20.3886 40.684 20.2582 40.6528 20.1332L37.263 6.57407C37.2172 6.39072 37.1114 6.22794 36.9624 6.11163C36.8134 5.99532 36.6299 5.93213 36.4409 5.93213H12.7123C12.5233 5.93213 12.3398 5.99532 12.1908 6.11163C12.0418 6.22794 11.936 6.39072 11.8902 6.57407L8.50039 20.1332C8.46916 20.2582 8.46682 20.3886 8.49354 20.5146C8.52025 20.6405 8.57533 20.7588 8.65459 20.8603C8.73384 20.9618 8.83518 21.0439 8.95092 21.1004C9.06666 21.1568 9.19374 21.1862 9.32252 21.1862ZM28.4448 14.4066H32.3029L32.9385 19.4913H28.7626L28.4448 14.4066ZM27.0643 19.4913H22.0889L22.4067 14.4066H26.7465L27.0643 19.4913ZM28.3388 12.7117L28.021 7.62702H31.4554L32.091 12.7117H28.3388ZM26.6405 12.7117H22.5126L22.8304 7.62702H26.3228L26.6405 12.7117ZM20.8143 12.7117H17.0621L17.6976 7.62702H21.1321L20.8143 12.7117ZM20.7084 14.4066L20.3906 19.4913H16.2146L16.8502 14.4066H20.7084ZM34.6466 19.4913L34.011 14.4066H37.4741L38.7453 19.4913H34.6466ZM37.0504 12.7117H33.7992L33.1636 7.62702H35.7792L37.0504 12.7117ZM13.374 7.62702H15.9895L15.3539 12.7117H12.1028L13.374 7.62702ZM11.6791 14.4066H15.1421L14.5065 19.4913H10.4079L11.6791 14.4066Z" fill="#051C3F"/>
<path d="M35.5935 1.69492C37.6747 1.6962 39.7237 2.20813 41.561 3.1858C43.3982 4.16347 44.9675 5.57701 46.1312 7.30244C47.2948 9.02787 48.0174 11.0125 48.2354 13.0822C48.4534 15.1519 48.1602 17.2435 47.3815 19.1735L48.9525 19.8091C49.6475 18.0929 50.0033 16.2582 50.0001 14.4066C50.0001 6.46287 43.5373 1.94329e-05 35.5935 1.94329e-05C31.9079 -0.00604295 28.3612 1.40654 25.689 3.94489L26.8542 5.17549C29.2121 2.9358 32.3415 1.68947 35.5935 1.69492Z" fill="#051C3F"/>
<path d="M44.9152 42.3724C44.2386 42.3738 43.5721 42.5366 42.9711 42.8474C42.3701 43.1581 41.8519 43.6078 41.4595 44.159C40.8153 44.0057 40.1403 44.0446 39.518 44.2709C38.8956 44.4972 38.3533 44.901 37.958 45.4322C37.5626 45.9635 37.3317 46.5989 37.2937 47.2601C37.2557 47.9212 37.4124 48.5789 37.7442 49.1519H33.5747L32.114 46.2306C32.0436 46.0898 31.9354 45.9715 31.8016 45.8887C31.6677 45.806 31.5134 45.7622 31.3561 45.7622H29.6612V34.7453C29.6612 33.3968 29.1255 32.1035 28.1719 31.1499C27.2183 30.1964 25.925 29.6606 24.5765 29.6606C23.2279 29.6606 21.9346 30.1964 20.9811 31.1499C20.0275 32.1035 19.4918 33.3968 19.4918 34.7453V45.7622H17.7969C17.6395 45.7622 17.4853 45.806 17.3514 45.8887C17.2175 45.9715 17.1093 46.0898 17.039 46.2306L15.5783 49.1519H11.4093C11.7409 48.5789 11.8973 47.9212 11.8592 47.2602C11.8211 46.5992 11.5901 45.9639 11.1949 45.4327C10.7996 44.9015 10.2574 44.4978 9.63519 44.2714C9.01299 44.0451 8.3381 44.006 7.69393 44.159C7.27342 43.5658 6.70734 43.0909 6.05016 42.7798C5.39298 42.4687 4.6668 42.3319 3.94148 42.3827C3.21616 42.4335 2.5161 42.67 1.90864 43.0696C1.30118 43.4692 0.806769 44.0183 0.472956 44.6643C0.139142 45.3102 -0.0228394 46.0312 0.00259339 46.7578C0.0280262 47.4845 0.240017 48.1923 0.618174 48.8134C0.996332 49.4344 1.52793 49.9476 2.16184 50.3038C2.79574 50.6599 3.51063 50.8469 4.23772 50.8468H44.9152C46.039 50.8468 47.1168 50.4004 47.9114 49.6058C48.706 48.8111 49.1525 47.7334 49.1525 46.6096C49.1525 45.4858 48.706 44.4081 47.9114 43.6134C47.1168 42.8188 46.039 42.3724 44.9152 42.3724ZM21.1867 34.7453C21.1867 33.8463 21.5438 32.9841 22.1795 32.3484C22.8152 31.7127 23.6774 31.3555 24.5765 31.3555C25.4755 31.3555 26.3377 31.7127 26.9734 32.3484C27.6091 32.9841 27.9663 33.8463 27.9663 34.7453V45.7622H21.1867V34.7453ZM18.3206 47.4571H30.8323L31.6798 49.1519H17.4732L18.3206 47.4571ZM8.47496 49.1519H4.23772C3.78143 49.152 3.33355 49.0292 2.94106 48.7964C2.54857 48.5637 2.22595 48.2297 2.00704 47.8293C1.78813 47.429 1.681 46.9771 1.69689 46.5211C1.71279 46.065 1.85111 45.6217 2.09736 45.2376C2.34361 44.8534 2.6887 44.5426 3.09643 44.3378C3.50417 44.133 3.95951 44.0417 4.4147 44.0734C4.86988 44.1052 5.30813 44.2589 5.68346 44.5184C6.05879 44.7778 6.35736 45.1336 6.54786 45.5482C6.59567 45.652 6.66398 45.745 6.74868 45.8218C6.83338 45.8985 6.93273 45.9573 7.04074 45.9946C7.14875 46.032 7.2632 46.0471 7.3772 46.039C7.4912 46.031 7.6024 46 7.7041 45.9479C7.94249 45.8251 8.20685 45.7615 8.47496 45.7622C8.92448 45.7622 9.35558 45.9407 9.67343 46.2586C9.99129 46.5764 10.1699 47.0075 10.1699 47.4571C10.1699 47.9066 9.99129 48.3377 9.67343 48.6555C9.35558 48.9734 8.92448 49.1519 8.47496 49.1519ZM44.9152 49.1519H40.678C40.2285 49.1519 39.7974 48.9734 39.4795 48.6555C39.1617 48.3377 38.9831 47.9066 38.9831 47.4571C38.9831 47.0075 39.1617 46.5764 39.4795 46.2586C39.7974 45.9407 40.2285 45.7622 40.678 45.7622C40.9461 45.7615 41.2105 45.8251 41.4488 45.9479C41.5505 46 41.6617 46.031 41.7757 46.039C41.8897 46.0471 42.0042 46.032 42.1122 45.9946C42.2202 45.9573 42.3196 45.8985 42.4043 45.8218C42.489 45.745 42.5573 45.652 42.6051 45.5482C42.7956 45.1336 43.0942 44.7778 43.4695 44.5184C43.8448 44.2589 44.2831 44.1052 44.7382 44.0734C45.1934 44.0417 45.6488 44.133 46.0565 44.3378C46.4642 44.5426 46.8093 44.8534 47.0556 45.2376C47.3018 45.6217 47.4402 46.065 47.4561 46.5211C47.4719 46.9771 47.3648 47.429 47.1459 47.8293C46.927 48.2297 46.6044 48.5637 46.2119 48.7964C45.8194 49.0292 45.3715 49.152 44.9152 49.1519Z" fill="#051C3F"/>
</svg>
