<svg width="100" height="100" viewBox="0 0 100 100" fill="none" xmlns="http://www.w3.org/2000/svg">
<g filter="url(#filter0_d)">
<circle cx="50" cy="44" r="40" fill="#3C96C5"/>
</g>
<path d="M74.833 29.4628C75.0005 29.2395 75.0455 28.947 74.9521 28.6837C74.8588 28.4203 74.6396 28.222 74.3688 28.1537L71.5763 27.4554C71.3797 27.0554 71.1488 26.662 70.8855 26.282L71.6497 22.4596C71.7097 22.1596 71.6005 21.8512 71.3655 21.6554C71.1305 21.4596 70.8072 21.4087 70.523 21.5221L66.8347 22.9979C66.5522 22.8796 66.2697 22.7779 65.9914 22.6937L65.6205 22.5087L64.0781 19.4237C63.7956 18.8588 62.8697 18.8588 62.5872 19.4237L61.0447 22.5087L60.6747 22.6937C60.3964 22.7787 60.1139 22.8804 59.8314 22.9979L56.1431 21.5221C55.8606 21.4104 55.5356 21.4587 55.3006 21.6554C55.0656 21.8504 54.9565 22.1596 55.0165 22.4596L55.7806 26.282C55.524 26.6529 55.2981 27.0354 55.1056 27.4245L51.5031 28.1453C51.2023 28.2053 50.9581 28.427 50.869 28.7203C50.7798 29.0145 50.8598 29.3337 51.0773 29.5512L54.1665 32.6411V33.7661L52.5873 36.9236C52.4581 37.1819 52.4723 37.4886 52.624 37.7344C52.7765 37.9794 53.044 38.1294 53.3331 38.1294H57.0481C57.2589 38.3261 57.4864 38.5186 57.7373 38.7119L58.3331 39.3078V42.2961C58.3331 42.6119 58.5114 42.9002 58.7939 43.0419C59.0764 43.1819 59.4139 43.1519 59.6664 42.9627L62.4997 40.8378V47.3385C58.2948 47.7577 54.9998 51.316 54.9998 55.6293C54.9998 59.9426 58.2948 63.5009 62.4997 63.9201V67.2959H36.6666V65.6292H37.4999C37.6799 65.6292 37.8557 65.5709 37.9999 65.4626L41.3332 62.9626C41.5432 62.8059 41.6665 62.5584 41.6665 62.2959V59.796V56.4626V53.3002L44.0907 47.6427L46.0565 43.3477C46.0682 43.3219 46.079 43.2952 46.0882 43.2686C46.4723 42.1352 46.6665 40.9669 46.6665 39.7961C46.6665 33.8228 41.8065 28.9628 35.8333 28.9628C29.86 28.9628 25 33.8228 25 39.7961C25 40.9669 25.1942 42.1352 25.5783 43.2686C25.5875 43.2952 25.5983 43.3219 25.61 43.3477L27.5675 47.6244L30 53.3002V56.4626V59.796V62.2959C30 62.5584 30.1233 62.8051 30.3333 62.9626L33.6666 65.4626C33.8108 65.5709 33.9866 65.6292 34.1666 65.6292H34.9999V68.1292C34.9999 68.5892 35.3733 68.9626 35.8333 68.9626H63.3331C63.7931 68.9626 64.1664 68.5892 64.1664 68.1292V63.9201C68.3714 63.5009 71.6663 59.9426 71.6663 55.6293C71.6663 51.316 68.3714 47.7577 64.1664 47.3385V40.8378L66.9997 42.9627C67.1472 43.0727 67.323 43.1294 67.4997 43.1294C67.6264 43.1294 67.7547 43.1002 67.8722 43.0419C68.1547 42.9002 68.333 42.6119 68.333 42.2961V39.3078L68.9289 38.7119C69.1797 38.5186 69.4072 38.3261 69.618 38.1294H73.333C73.6222 38.1294 73.8897 37.9794 74.0422 37.7344C74.1938 37.4886 74.208 37.1819 74.0788 36.9236L72.4997 33.7661V32.5737L74.833 29.4628ZM39.9999 58.9626H31.6666V57.296H39.9999V58.9626ZM39.9999 55.6293H31.6666V53.9627H34.1666H37.4999H39.9999V55.6293ZM32.9958 45.0102C33.7591 45.3594 34.7124 45.6294 35.8333 45.6294C36.3749 45.6294 37.4724 45.5502 38.6699 45.0127L36.8491 52.296H34.8174L32.9958 45.0102ZM29.0908 46.9494L27.1433 42.6936C26.8267 41.7452 26.6667 40.7711 26.6667 39.7961C26.6667 34.742 30.7791 30.6295 35.8333 30.6295C40.8874 30.6295 44.9999 34.742 44.9999 39.7961C44.9999 40.7711 44.8399 41.7452 44.5232 42.6944L42.5674 46.9677L40.2841 52.296H38.5674L40.8082 43.3319C40.8982 42.9719 40.7391 42.5961 40.4191 42.4094C40.0982 42.2227 39.6932 42.2702 39.4249 42.5261C38.0632 43.8227 36.4599 43.9627 35.8333 43.9627C33.9524 43.9627 32.6949 42.9577 32.2416 42.5261C31.9733 42.2702 31.5675 42.2227 31.2475 42.4094C30.9275 42.5961 30.7683 42.9719 30.8583 43.3319L33.0991 52.296H31.3825L29.0908 46.9494ZM34.4449 63.9626L31.6666 61.8793V60.6293H39.9999V61.8793L37.2224 63.9626H34.4449ZM69.9997 55.6293C69.9997 59.3051 67.0089 62.2959 63.3331 62.2959C59.6573 62.2959 56.6664 59.3051 56.6664 55.6293C56.6664 51.9535 59.6573 48.9627 63.3331 48.9627C67.0089 48.9627 69.9997 51.9535 69.9997 55.6293ZM70.9205 34.3353L71.9847 36.4628H69.2797C69.0555 36.4628 68.8414 36.5528 68.6847 36.712C68.4489 36.9528 68.183 37.1844 67.873 37.4219C67.843 37.4444 67.8155 37.4686 67.7889 37.4953L66.9105 38.3736C66.7539 38.5294 66.6664 38.7419 66.6664 38.9628V40.6294L64.6664 39.1294C64.5222 39.0211 64.3464 38.9628 64.1664 38.9628H62.4997C62.3197 38.9628 62.1439 39.0211 61.9997 39.1294L59.9998 40.6294V38.9628C59.9998 38.7419 59.9123 38.5294 59.7556 38.3736L58.8773 37.4953C58.8514 37.4686 58.8231 37.4444 58.7931 37.4219C58.4823 37.1853 58.2173 36.9528 57.9814 36.712C57.8248 36.5528 57.6106 36.4628 57.3864 36.4628H54.6815L55.7448 34.3353C55.8031 34.2203 55.8331 34.092 55.8331 33.9628V32.2962C55.8331 32.0753 55.7456 31.8628 55.5889 31.707L53.3565 29.4745L55.8464 28.9762C56.1148 28.9228 56.3389 28.7403 56.4481 28.4895C56.6673 27.982 56.9581 27.482 57.3131 27.0045C57.3423 26.9654 57.3898 26.8787 57.4123 26.8354C57.4948 26.6695 57.5206 26.4812 57.4839 26.2987L56.9523 23.6412L59.5373 24.6754C59.7506 24.7595 59.9881 24.7545 60.1964 24.6579C60.5406 24.4995 60.8847 24.3687 61.2189 24.2712C61.2664 24.257 61.3122 24.2387 61.3572 24.217L62.0406 23.8754C62.2014 23.7945 62.3331 23.6637 62.4131 23.5029L63.3331 21.6596L64.2539 23.5021C64.3347 23.6629 64.4656 23.7945 64.6264 23.8745L65.3097 24.2162C65.3539 24.2379 65.3997 24.2562 65.448 24.2704C65.7822 24.3687 66.1255 24.4987 66.4705 24.657C66.6789 24.7537 66.9155 24.7587 67.1297 24.6745L69.7147 23.6404L69.183 26.2979C69.1464 26.4795 69.1947 26.7145 69.2772 26.8795C69.2989 26.9229 69.3247 26.9645 69.353 27.0029C69.7088 27.482 70.0005 27.9845 70.2213 28.4962C70.3238 28.7345 70.5322 28.912 70.7838 28.9745L72.7455 29.4653L70.9997 31.7962C70.8913 31.9403 70.833 32.1162 70.833 32.2962V33.9628C70.833 34.092 70.863 34.2203 70.9205 34.3353Z" fill="white"/>
<path d="M63.3328 25.6296C60.1162 25.6296 57.4995 28.2463 57.4995 31.4629C57.4995 34.6796 60.1162 37.2962 63.3328 37.2962C66.5494 37.2962 69.1661 34.6796 69.1661 31.4629C69.1661 28.2463 66.5494 25.6296 63.3328 25.6296ZM63.3328 35.6296C61.0353 35.6296 59.1662 33.7604 59.1662 31.4629C59.1662 29.1654 61.0353 27.2963 63.3328 27.2963C65.6303 27.2963 67.4994 29.1654 67.4994 31.4629C67.4994 33.7604 65.6303 35.6296 63.3328 35.6296Z" fill="white"/>
<path d="M66.5421 54.3578C66.3896 54.1128 66.1221 53.9628 65.8329 53.9628H62.3046L64.0471 51.0587L62.6179 50.2012L60.1179 54.3678C59.9629 54.6253 59.9596 54.9461 60.1071 55.207C60.2554 55.4678 60.5329 55.6295 60.8329 55.6295H64.4846L62.5879 59.4236L64.0787 60.1686L66.5787 55.1686C66.7079 54.9103 66.6937 54.6036 66.5421 54.3578Z" fill="white"/>
<path d="M36.6667 23.9629H35V27.2962H36.6667V23.9629Z" fill="white"/>
<path d="M45.2438 25.8729L42.7437 28.373L43.9221 29.5515L46.4223 27.0514L45.2438 25.8729Z" fill="white"/>
<path d="M26.4226 25.8738L25.2441 27.0522L27.7443 29.5524L28.9228 28.3739L26.4226 25.8738Z" fill="white"/>
<defs>
<filter id="filter0_d" x="0" y="0" width="100" height="100" filterUnits="userSpaceOnUse" color-interpolation-filters="sRGB">
<feFlood flood-opacity="0" result="BackgroundImageFix"/>
<feColorMatrix in="SourceAlpha" type="matrix" values="0 0 0 0 0 0 0 0 0 0 0 0 0 0 0 0 0 0 127 0"/>
<feOffset dy="6"/>
<feGaussianBlur stdDeviation="5"/>
<feColorMatrix type="matrix" values="0 0 0 0 0 0 0 0 0 0 0 0 0 0 0 0 0 0 0.1 0"/>
<feBlend mode="normal" in2="BackgroundImageFix" result="effect1_dropShadow"/>
<feBlend mode="normal" in="SourceGraphic" in2="effect1_dropShadow" result="shape"/>
</filter>
</defs>
</svg>
