<svg width="50" height="50" viewBox="0 0 50 50" fill="none" xmlns="http://www.w3.org/2000/svg">
<path d="M41.7287 11.1036C41.3297 10.1306 40.3843 9.49339 39.3324 9.48918H15.5168V4.94168C16.0488 4.6357 16.3776 4.06921 16.3788 3.45558V1.7317C16.3788 0.779689 15.6068 0.0078125 14.6547 0.0078125H9.48226C8.53011 0.0078125 7.75812 0.779689 7.75812 1.7317V3.45558C7.7598 4.06879 8.08855 4.63444 8.62019 4.93999V10.1478L0.0899668 27.2066C-0.0426274 27.4734 -0.0278947 27.7903 0.129114 28.0437C0.286122 28.2975 0.563096 28.4519 0.861538 28.4519H3.44776V49.1385C3.44776 49.6145 3.83375 50.0005 4.30983 50.0005H45.6893C46.1654 50.0005 46.5514 49.6145 46.5514 49.1385V28.4519H49.1376C49.4373 28.4519 49.716 28.2962 49.8725 28.0407C50.0296 27.7853 50.0422 27.4667 49.9066 27.1994L41.7287 11.1036ZM10.3443 5.17947H13.7926V9.48918H10.3443V5.17947ZM9.48226 1.7317H14.6547V3.45558H9.48226V1.7317ZM9.48226 48.2766V43.1049H10.3443C10.8204 43.1049 11.2064 42.719 11.2064 42.243C11.2064 41.767 10.8204 41.3811 10.3443 41.3811H9.48226V37.9333C9.48226 36.0293 11.0262 34.4855 12.9306 34.4855C14.8349 34.4855 16.3788 36.0293 16.3788 37.9333V48.2766H9.48226ZM44.8272 48.2766H18.103V37.9333C18.103 35.0768 15.787 32.7616 12.9306 32.7616C10.0737 32.7616 7.75812 35.0768 7.75812 37.9333V48.2766H5.1719V28.4519H44.8272V48.2766ZM45.6893 26.728H2.25651L8.29102 14.6608H9.48226C9.95834 14.6608 10.3443 14.2749 10.3443 13.7989C10.3443 13.3229 9.95834 12.937 9.48226 12.937H9.15309L10.0152 11.2131H39.3324C39.6889 11.2143 40.008 11.4336 40.1376 11.7657C40.1481 11.793 40.1599 11.8204 40.1738 11.8465L45.5437 22.4183H43.9652C43.4891 22.4183 43.1031 22.8043 43.1031 23.2803C43.1031 23.7563 43.4891 24.1422 43.9652 24.1422H46.4196L47.7334 26.728H45.6893Z" fill="#051C3F"/>
<path d="M40.6939 23.1329C40.6943 23.1009 40.6926 23.0693 40.6884 23.0378L37.8955 13.5564C37.7878 13.1894 37.4514 12.9373 37.0688 12.9369H12.9308C12.5486 12.9369 12.2118 13.189 12.1041 13.5556L9.31075 23.0369C9.30696 23.0685 9.30528 23.1001 9.3057 23.1321C9.29097 23.18 9.28086 23.2297 9.27539 23.2802C9.29054 23.3555 9.30612 23.4309 9.32127 23.5058C9.3419 23.5824 9.37347 23.6552 9.41514 23.7225C9.4244 23.7474 9.43535 23.7722 9.44713 23.7966C9.4585 23.8101 9.47533 23.8164 9.48754 23.8303C9.54479 23.8955 9.61214 23.9515 9.68664 23.9965C9.714 24.0184 9.74305 24.0386 9.77293 24.0567C9.88574 24.1118 10.0095 24.1413 10.1349 24.143H39.8617C39.9876 24.1413 40.1109 24.1118 40.2241 24.0567C40.254 24.0386 40.2826 24.0184 40.31 23.9965C40.3849 23.9515 40.4519 23.8955 40.5091 23.8303C40.5213 23.8164 40.5386 23.8101 40.5499 23.7966C40.5617 23.7722 40.5722 23.7474 40.5815 23.7225C40.6232 23.6552 40.6547 23.5824 40.6758 23.5058C40.6918 23.4309 40.7078 23.3555 40.7238 23.2802C40.7187 23.2301 40.7086 23.1809 40.6939 23.1329ZM37.185 17.2466H32.3068L32.0033 14.6608H36.4231L37.185 17.2466ZM24.1377 18.9705V22.4183H18.8222L19.2263 18.9705H24.1377ZM19.4292 17.2466L19.7327 14.6608H24.1377V17.2466H19.4292ZM25.8619 18.9705H30.7754L31.1799 22.4183H25.8619V18.9705ZM25.8619 17.2466V14.6608H30.2669L30.5704 17.2466H25.8619ZM13.5765 14.6608H17.9963L17.6928 17.2466H12.8142L13.5765 14.6608ZM12.3065 18.9705H17.4903L17.0858 22.4183H11.2929L12.3065 18.9705ZM32.91 22.4183L32.5059 18.9705H37.6893L38.7067 22.4183H32.91Z" fill="#051C3F"/>
<path d="M35.3447 38.7951H36.3196L35.4895 40.0405C35.2251 40.4365 35.332 40.9719 35.7281 41.2362C36.1242 41.5005 36.6597 41.3936 36.924 40.9975L38.6482 38.4117C38.8245 38.147 38.841 37.8069 38.6911 37.5266C38.5413 37.2463 38.2487 37.0712 37.9309 37.0712H36.956L37.7861 35.8259C38.0504 35.4294 37.9435 34.8945 37.5474 34.6302C37.1509 34.3659 36.6159 34.4728 36.3516 34.8688L34.6274 37.4547C34.451 37.7194 34.4342 38.0594 34.5845 38.3397C34.7343 38.62 35.0265 38.7951 35.3447 38.7951Z" fill="#051C3F"/>
<path d="M23.2757 43.9669C24.3676 43.9622 25.3391 43.2724 25.7032 42.243H27.586C28.5382 42.243 29.3102 41.4711 29.3102 40.5191V38.7952H31.0343V43.9669C31.0343 44.9189 31.8063 45.6907 32.7585 45.6907H40.5171C41.4693 45.6907 42.2413 44.9189 42.2413 43.9669V31.8997C42.2413 30.9477 41.4693 30.1758 40.5171 30.1758H32.7585C31.8063 30.1758 31.0343 30.9477 31.0343 31.8997V37.0713H29.3102C28.358 37.0713 27.586 37.8432 27.586 38.7952V40.5191H25.7032C25.2625 39.2826 23.9643 38.5734 22.6855 38.871C21.4071 39.1685 20.5552 40.3781 20.7063 41.6824C20.8574 42.9862 21.9628 43.969 23.2757 43.9669ZM32.7585 31.8997H40.5171V43.9669H32.7585V31.8997ZM23.2757 40.5191C23.7518 40.5191 24.1377 40.905 24.1377 41.381C24.1377 41.857 23.7518 42.243 23.2757 42.243C22.7996 42.243 22.4136 41.857 22.4136 41.381C22.4136 40.905 22.7996 40.5191 23.2757 40.5191Z" fill="#051C3F"/>
<path d="M40.3357 8.6272H47.5943C48.9215 8.62594 49.997 7.55104 49.9995 6.22403C50.0185 4.65545 49.0268 3.25269 47.5417 2.7468C47.1128 2.6096 46.6598 2.56246 46.2115 2.60918C45.5065 0.868879 43.7268 -0.187085 41.8616 0.0275589C39.5764 0.227893 37.8489 2.18242 37.9305 4.47448V6.22403C37.933 7.55104 39.0085 8.62594 40.3357 8.6272ZM39.6547 4.47448C39.5768 3.07045 40.6308 1.86003 42.0321 1.74387C42.1226 1.73166 42.2148 1.73166 42.3099 1.73166C43.5416 1.69378 44.604 2.5894 44.7745 3.80992C44.8246 4.06034 44.9837 4.27625 45.2085 4.3983C45.4332 4.51993 45.7005 4.53592 45.9384 4.44165C46.2835 4.29603 46.6695 4.27919 47.0261 4.39325C47.793 4.67144 48.296 5.40881 48.2754 6.22403C48.275 6.59987 47.9702 6.90458 47.5943 6.905H40.3357C39.9598 6.90458 39.6551 6.59987 39.6547 6.22403V4.47448Z" fill="#051C3F"/>
</svg>
