<svg width="50" height="50" viewBox="0 0 50 50" fill="none" xmlns="http://www.w3.org/2000/svg">
<path d="M49.8371 15.0138C49.675 14.7886 49.4149 14.6552 49.1371 14.6552H47.4129V10.3448C47.4129 10.1163 47.322 9.89696 47.1604 9.73532L42.85 5.42497C42.5137 5.08865 41.9678 5.08865 41.6314 5.42497L40.5164 6.5396V6.03448C40.5164 5.55841 40.1308 5.17241 39.6543 5.17241C39.1782 5.17241 38.7922 5.55841 38.7922 6.03448V8.26374L37.3211 9.73532C37.159 9.89696 37.0685 10.1163 37.0681 10.3448V14.6552H35.344V10.3448C35.344 10.1163 35.253 9.89696 35.0914 9.73532L30.7811 5.42497C30.4447 5.08865 29.8988 5.08865 29.5625 5.42497L28.4474 6.5396V6.03448C28.4474 5.55841 28.0618 5.17241 27.5853 5.17241C27.1093 5.17241 26.7233 5.55841 26.7233 6.03448V8.26374L25.2521 9.73532C25.0901 9.89696 24.9996 10.1163 24.9991 10.3448V14.6552H23.275V0.862069C23.275 0.385995 22.8894 0 22.4129 0H15.5164C15.0403 0 14.6543 0.385995 14.6543 0.862069V14.6552H12.6625L10.9383 10.1243C12.585 8.06716 12.4204 5.10086 10.5561 3.23865C10.2198 2.90233 9.67384 2.90233 9.33709 3.23865L6.89569 5.67753L5.78106 4.5629C5.44305 4.23626 4.9051 4.24089 4.57256 4.57343C4.24003 4.90596 4.2354 5.44349 4.56246 5.78192L5.67709 6.89655L3.23905 9.33543C2.90231 9.67218 2.90231 10.2177 3.23905 10.5545C4.20677 11.5272 5.52345 12.0728 6.89569 12.069C7.35577 12.0677 7.81374 12.0054 8.25698 11.8838L7.17014 14.6552H0.861206C0.584233 14.6552 0.324518 14.7886 0.162459 15.0134C0.000820836 15.2382 -0.0433771 15.5269 0.0441768 15.7896C1.18743 19.2328 4.40924 21.5551 8.03726 21.5517H22.5716C22.769 22.1057 23.1491 22.5763 23.6492 22.8852L22.5582 24.5231C22.3822 24.7878 22.3662 25.1271 22.5165 25.407C22.6663 25.687 22.9576 25.8616 23.275 25.8621H25.1132L24.5382 26.7241H12.9302C12.548 26.7241 12.2116 26.9763 12.1035 27.3429L7.79312 41.9981C7.7847 42.0284 7.79312 42.0604 7.78806 42.0915C7.77333 42.1404 7.76323 42.1904 7.75776 42.2414V45.6897C7.75776 46.1657 8.14375 46.5517 8.61983 46.5517H22.4129V48.2759H20.6888C20.2127 48.2759 19.8267 48.6619 19.8267 49.1379C19.8267 49.614 20.2127 50 20.6888 50H29.3095C29.786 50 30.1716 49.614 30.1716 49.1379C30.1716 48.6619 29.786 48.2759 29.3095 48.2759H27.5853V46.5517H41.3784C41.8549 46.5517 42.2405 46.1657 42.2405 45.6897V42.2414C42.2355 42.1904 42.2254 42.1404 42.2106 42.0915C42.2043 42.0604 42.2106 42.0284 42.2052 41.9981L37.8948 27.3429C37.7871 26.9763 37.4507 26.7241 37.0681 26.7241H26.6096L27.4405 25.4786C27.6173 25.2138 27.6338 24.8737 27.4839 24.5934C27.3336 24.313 27.0415 24.1379 26.7233 24.1379H24.8855L25.4942 23.2258C26.3886 23.0477 27.1227 22.4117 27.4271 21.5517H41.9614C45.5895 21.5551 48.8113 19.2328 49.9545 15.7896C50.0421 15.5273 49.9987 15.2386 49.8371 15.0138ZM18.2103 41.3793L18.6157 37.931H24.1371V41.3793H18.2103ZM9.77276 41.3793L10.7864 37.931H16.8794L16.4744 41.3793H9.77276ZM12.308 32.7586H17.488L17.0831 36.2069H11.2923L12.308 32.7586ZM24.1371 32.7586V36.2069H18.8182L19.2244 32.7586H24.1371ZM19.4268 31.0345L19.7312 28.4483H24.1371V31.0345H19.4268ZM25.8612 37.931H31.383L31.7879 41.3793H25.8612V37.931ZM33.5243 41.3793L33.1193 37.931H39.2123L40.2259 41.3793H33.5243ZM38.7055 36.2069H32.9156L32.5107 32.7586H37.6907L38.7055 36.2069ZM31.1805 36.2069H25.8612V32.7586H30.7752L31.1805 36.2069ZM25.8612 31.0345V28.4483H30.2675L30.5719 31.0345H25.8612ZM13.575 28.4483H17.9948L17.6918 31.0345H12.8148L13.575 28.4483ZM25.8612 48.2759H24.1371V46.5517H25.8612V48.2759ZM40.5164 44.8276H9.4819V43.1034H40.5164V44.8276ZM37.1839 31.0345H32.3069L32.0034 28.4483H36.4237L37.1839 31.0345ZM38.7922 10.7018L42.2405 7.2535L45.6888 10.7018V14.6552H43.1026V12.931C43.1026 12.455 42.717 12.069 42.2405 12.069C41.7644 12.069 41.3784 12.455 41.3784 12.931V14.6552H38.7922V10.7018ZM26.7233 10.7018L30.1716 7.2535L33.6198 10.7018V14.6552H31.0336V12.931C31.0336 12.455 30.648 12.069 30.1716 12.069C29.6955 12.069 29.3095 12.455 29.3095 12.931V14.6552H26.7233V10.7018ZM16.3784 1.72414H21.5509V14.6552H16.3784V1.72414ZM5.14419 9.86791L9.86663 5.14379C10.666 6.49919 10.4467 8.22333 9.33373 9.33543C8.20942 10.4214 6.50464 10.6382 5.14419 9.86791ZM9.93229 12.3346L10.8175 14.6552H9.02266L9.93229 12.3346ZM24.9991 21.5517C24.5231 21.5517 24.1371 21.1657 24.1371 20.6897C24.1371 20.2136 24.5231 19.8276 24.9991 19.8276C25.4756 19.8276 25.8612 20.2136 25.8612 20.6897C25.8612 21.1657 25.4756 21.5517 24.9991 21.5517ZM41.9614 19.8276H27.438C27.4279 19.7973 27.4115 19.7708 27.4001 19.7413C27.3812 19.695 27.3606 19.655 27.3399 19.607C27.2949 19.5094 27.2435 19.4151 27.1863 19.3242C27.1606 19.2829 27.1362 19.2379 27.108 19.2017C27.0348 19.099 26.9544 19.0017 26.8672 18.9104C26.8491 18.8923 26.8357 18.8716 26.8176 18.8535C26.7106 18.7483 26.5953 18.6523 26.4724 18.5665C26.4383 18.5421 26.4 18.5231 26.3646 18.5008C26.2712 18.4419 26.174 18.3888 26.0734 18.3421C26.0262 18.3206 25.9778 18.3017 25.9286 18.2828C25.8275 18.2436 25.724 18.2112 25.6183 18.1864C25.5708 18.1742 25.5253 18.1603 25.4769 18.1519C25.1641 18.0875 24.8413 18.0875 24.5285 18.1519C24.4805 18.1603 24.4347 18.1742 24.3871 18.1864C24.2819 18.2112 24.1779 18.2436 24.0769 18.2828C24.0276 18.3017 23.9805 18.3206 23.9329 18.3421C23.8323 18.3888 23.7347 18.4419 23.6408 18.5008C23.6046 18.5231 23.5675 18.5429 23.533 18.5665C23.4101 18.6523 23.2948 18.7483 23.1883 18.8535C23.1702 18.8716 23.1563 18.8923 23.1382 18.9104C23.0511 19.0017 22.9707 19.099 22.8974 19.2017C22.8692 19.2412 22.8448 19.2829 22.8191 19.3233C22.7623 19.4147 22.7109 19.5094 22.6659 19.607C22.6449 19.6516 22.6242 19.6933 22.6061 19.7413C22.5944 19.7708 22.5779 19.7973 22.5674 19.8276H8.03726C5.60132 19.8301 3.35649 18.5096 2.17536 16.3793H47.8217C46.6409 18.5092 44.3965 19.8297 41.9614 19.8276Z" fill="#051C3F"/>
<path d="M19.8269 3.44836H18.1028C17.6267 3.44836 17.2407 3.83436 17.2407 4.31043C17.2407 4.78651 17.6267 5.1725 18.1028 5.1725H19.8269C20.3034 5.1725 20.689 4.78651 20.689 4.31043C20.689 3.83436 20.3034 3.44836 19.8269 3.44836Z" fill="#051C3F"/>
<path d="M19.8269 6.89648H18.1028C17.6267 6.89648 17.2407 7.28248 17.2407 7.75855C17.2407 8.23463 17.6267 8.62062 18.1028 8.62062H19.8269C20.3034 8.62062 20.689 8.23463 20.689 7.75855C20.689 7.28248 20.3034 6.89648 19.8269 6.89648Z" fill="#051C3F"/>
<path d="M19.8269 10.3448H18.1028C17.6267 10.3448 17.2407 10.7308 17.2407 11.2069C17.2407 11.683 17.6267 12.069 18.1028 12.069H19.8269C20.3034 12.069 20.689 11.683 20.689 11.2069C20.689 10.7308 20.3034 10.3448 19.8269 10.3448Z" fill="#051C3F"/>
</svg>
