<svg width="100" height="100" viewBox="0 0 100 100" fill="none" xmlns="http://www.w3.org/2000/svg">
<g filter="url(#filter0_d)">
<circle cx="50" cy="44" r="40" fill="#3C96C5"/>
</g>
<path d="M66.9814 27.75C69.5903 27.75 71.7129 25.6274 71.7129 23.0186C71.7129 20.4097 69.5903 18.2871 66.9814 18.2871C64.3726 18.2871 62.25 20.4097 62.25 23.0186C62.25 25.6274 64.3726 27.75 66.9814 27.75ZM66.9814 19.7812C68.7664 19.7812 70.2188 21.2336 70.2188 23.0186C70.2188 24.8036 68.7664 26.2559 66.9814 26.2559C65.1964 26.2559 63.7441 24.8036 63.7441 23.0186C63.7441 21.2336 65.1964 19.7812 66.9814 19.7812Z" fill="white"/>
<path d="M66.9814 17.2361C67.394 17.2361 67.7285 16.9016 67.7285 16.4891V15.7471C67.7285 15.3345 67.394 15 66.9814 15C66.5689 15 66.2344 15.3345 66.2344 15.7471V16.4891C66.2344 16.9016 66.5689 17.2361 66.9814 17.2361Z" fill="white"/>
<path d="M66.2344 29.5483V30.2903C66.2344 30.7029 66.5689 31.0374 66.9814 31.0374C67.394 31.0374 67.7285 30.7029 67.7285 30.2903V29.5483C67.7285 29.1358 67.394 28.8013 66.9814 28.8013C66.5689 28.8013 66.2344 29.1358 66.2344 29.5483Z" fill="white"/>
<path d="M63.0696 17.7373C63.208 17.977 63.4591 18.111 63.7173 18.111C63.844 18.111 63.9726 18.0786 64.0901 18.0108C64.4474 17.8045 64.5699 17.3476 64.3636 16.9903L63.9925 16.3477C63.7862 15.9903 63.3292 15.8682 62.972 16.0743C62.6147 16.2806 62.4923 16.7375 62.6986 17.0948L63.0696 17.7373Z" fill="white"/>
<path d="M69.8727 28.0265C69.5154 28.2327 69.3929 28.6897 69.5992 29.047L69.9703 29.6895C70.1086 29.9292 70.3597 30.0632 70.6179 30.0632C70.7446 30.0632 70.8732 30.0308 70.9908 29.963C71.3481 29.7567 71.4705 29.2998 71.2642 28.9425L70.8932 28.2999C70.687 27.9425 70.2299 27.8203 69.8727 28.0265Z" fill="white"/>
<path d="M60.3107 20.0295L60.9532 20.4005C61.0709 20.4684 61.1994 20.5007 61.3261 20.5007C61.5843 20.5007 61.8354 20.3667 61.9737 20.1271C62.18 19.7698 62.0576 19.3129 61.7003 19.1066L61.0577 18.7355C60.7003 18.5291 60.2435 18.6516 60.0372 19.009C59.8309 19.3663 59.9534 19.8232 60.3107 20.0295Z" fill="white"/>
<path d="M72.2626 26.9304L72.9051 27.3014C73.0228 27.3694 73.1513 27.4016 73.278 27.4016C73.5362 27.4016 73.7873 27.2677 73.9256 27.028C74.1319 26.6707 74.0095 26.2138 73.6522 26.0075L73.0096 25.6365C72.6523 25.43 72.1954 25.5525 71.9891 25.9099C71.7828 26.2671 71.9053 26.724 72.2626 26.9304Z" fill="white"/>
<path d="M59.71 23.7656H60.452C60.8645 23.7656 61.199 23.4311 61.199 23.0186C61.199 22.606 60.8645 22.2715 60.452 22.2715H59.71C59.2974 22.2715 58.9629 22.606 58.9629 23.0186C58.9629 23.4311 59.2974 23.7656 59.71 23.7656Z" fill="white"/>
<path d="M72.7639 23.0186C72.7639 23.4311 73.0984 23.7656 73.511 23.7656H74.253C74.6656 23.7656 75.0001 23.4311 75.0001 23.0186C75.0001 22.606 74.6656 22.2715 74.253 22.2715H73.511C73.0984 22.2715 72.7639 22.606 72.7639 23.0186Z" fill="white"/>
<path d="M60.9532 25.6363L60.3107 26.0073C59.9534 26.2136 59.8309 26.6705 60.0372 27.0278C60.1756 27.2675 60.4267 27.4015 60.6849 27.4015C60.8116 27.4015 60.9402 27.3691 61.0577 27.3013L61.7003 26.9302C62.0576 26.7239 62.18 26.267 61.9737 25.9097C61.7674 25.5524 61.3104 25.4301 60.9532 25.6363Z" fill="white"/>
<path d="M72.6368 20.5011C72.7635 20.5011 72.8921 20.4687 73.0096 20.4009L73.6522 20.0299C74.0095 19.8236 74.1319 19.3667 73.9256 19.0094C73.7192 18.652 73.2622 18.5297 72.9051 18.7359L72.2626 19.107C71.9053 19.3133 71.7828 19.7702 71.9891 20.1275C72.1275 20.3671 72.3786 20.5011 72.6368 20.5011Z" fill="white"/>
<path d="M63.0696 28.2995L62.6986 28.9421C62.4923 29.2994 62.6147 29.7563 62.972 29.9626C63.0897 30.0305 63.2182 30.0628 63.3449 30.0628C63.6031 30.0628 63.8542 29.9288 63.9925 29.6892L64.3636 29.0466C64.5699 28.6893 64.4474 28.2324 64.0901 28.0261C63.7327 27.8196 63.2759 27.9421 63.0696 28.2995Z" fill="white"/>
<path d="M69.8727 18.0109C69.9903 18.0788 70.1188 18.1111 70.2455 18.1111C70.5037 18.1111 70.7548 17.9771 70.8932 17.7375L71.2642 17.0949C71.4705 16.7376 71.3481 16.2807 70.9908 16.0744C70.6335 15.868 70.1766 15.9904 69.9703 16.3478L69.5992 16.9904C69.3929 17.3477 69.5154 17.8046 69.8727 18.0109Z" fill="white"/>
<path d="M73.2568 61.3955V59.612C73.2568 59.1994 72.9223 58.8649 72.5098 58.8649C72.0972 58.8649 71.7627 59.1994 71.7627 59.612V61.3181H63.8936V50.8591H71.7627V56.4245C71.7627 56.8371 72.0972 57.1715 72.5098 57.1715C72.9223 57.1715 73.2568 56.8371 73.2568 56.4245V50.5105C73.2568 49.8788 72.743 49.365 72.1113 49.365H68.5307V33.6522C68.5307 33.2396 68.1962 32.9051 67.7836 32.9051H42.8319V28.6898L53.5605 31.8933H53.5606C53.7074 31.9371 53.8555 31.9579 54.0013 31.9579C54.6662 31.9579 55.2818 31.5244 55.4816 30.8555L55.8992 29.4571L58.1422 30.1269C58.2135 30.1482 58.2854 30.1583 58.3563 30.1583C58.6779 30.1583 58.975 29.9488 59.0719 29.6248C59.1899 29.2294 58.9651 28.8133 58.5697 28.6951L28.9816 19.8606C28.586 19.7424 28.1699 19.9673 28.0519 20.3627C27.9339 20.758 28.1587 21.1742 28.554 21.2923L30.7969 21.9621L30.3794 23.3605C30.2613 23.7557 30.3044 24.1731 30.5003 24.536C30.6963 24.8989 31.0219 25.1637 31.417 25.2817L41.3376 28.2439V35.6189H30.352C29.9394 35.6189 29.6049 35.9534 29.6049 36.3659C29.6049 36.7785 29.9394 37.113 30.352 37.113H59.4609V50.9587H25.4941V37.113H27.1952C27.6078 37.113 27.9422 36.7785 27.9422 36.3659C27.9422 35.9534 27.6078 35.6189 27.1952 35.6189H24.7471C24.3345 35.6189 24 35.9534 24 36.3659V51.7058C24 52.1184 24.3345 52.4529 24.7471 52.4529H26.8887V61.3181H26.3408C25.0501 61.3181 24 62.3682 24 63.6589C24 64.9496 25.0501 65.9997 26.3408 65.9997H72.6592C73.9499 65.9997 75 64.9496 75 63.6589C75 62.5747 74.259 61.6602 73.2568 61.3955ZM31.8151 23.8257C31.8053 23.8076 31.8097 23.7926 31.8112 23.7879L32.2243 22.4039L54.4631 29.0442L54.05 30.4282C54.0421 30.4545 54.0146 30.4696 53.9879 30.4617L42.3132 26.9757C42.3036 26.9726 42.2941 26.9697 42.2843 26.967L31.8446 23.8498C31.8398 23.8483 31.8249 23.8439 31.8151 23.8257ZM42.8319 35.6189V34.3992H67.0365V49.365H63.5449C62.9133 49.365 62.3994 49.8788 62.3994 50.5105V61.3181H60.9551V36.3659C60.9551 35.9534 60.6206 35.6189 60.208 35.6189H42.8319ZM59.4609 52.4529V61.3181H57.9668V55.4909C57.9668 55.0784 57.6323 54.7439 57.2197 54.7439H47.2588C46.8462 54.7439 46.5117 55.0784 46.5117 55.4909V61.3181H36.0527V59.6631C36.0527 59.2505 35.7182 58.916 35.3057 58.916C34.8931 58.916 34.5586 59.2505 34.5586 59.6631V61.3181H31.3711V52.4529H34.5586V56.4552C34.5586 56.8677 34.8931 57.2022 35.3057 57.2022C35.7182 57.2022 36.0527 56.8677 36.0527 56.4552V52.4529H59.4609ZM56.4727 61.3181H48.0059V56.238H56.4727V61.3181ZM28.3828 52.4529H29.877V61.3181H28.3828V52.4529ZM72.6592 64.5056H26.3408C25.874 64.5056 25.4941 64.1258 25.4941 63.6589C25.4941 63.192 25.874 62.8122 26.3408 62.8122H72.6592C73.126 62.8122 73.5059 63.192 73.5059 63.6589C73.5059 64.1258 73.126 64.5056 72.6592 64.5056Z" fill="white"/>
<path d="M26.9883 39.3545V48.7178C26.9883 49.1304 27.3228 49.4648 27.7354 49.4648H57.2197C57.6323 49.4648 57.9668 49.1304 57.9668 48.7178V39.3545C57.9668 38.9419 57.6323 38.6074 57.2197 38.6074H27.7354C27.3228 38.6074 26.9883 38.9419 26.9883 39.3545ZM37.248 47.9707V40.1016H47.707V47.9707H37.248ZM56.4727 47.9707H49.2012V40.1016H56.4727V47.9707ZM28.4824 40.1016H35.7539V47.9707H28.4824V40.1016Z" fill="white"/>
<path d="M69.2099 52.4537C68.9181 52.1619 68.4451 52.1619 68.1534 52.4537L66.4642 54.1429C66.1725 54.4346 66.1725 54.9077 66.4642 55.1993L67.5204 56.2555L66.3572 57.4186C66.0655 57.7104 66.0655 58.1833 66.3572 58.4751C66.5031 58.621 66.6943 58.6939 66.8855 58.6939C67.0766 58.6939 67.2679 58.621 67.4137 58.4751L69.1051 56.7837C69.2452 56.6437 69.3239 56.4536 69.3239 56.2555C69.3239 56.0573 69.2452 55.8673 69.1051 55.7272L68.0489 54.6711L69.2099 53.5101C69.5016 53.2185 69.5016 52.7454 69.2099 52.4537Z" fill="white"/>
<defs>
<filter id="filter0_d" x="0" y="0" width="100" height="100" filterUnits="userSpaceOnUse" color-interpolation-filters="sRGB">
<feFlood flood-opacity="0" result="BackgroundImageFix"/>
<feColorMatrix in="SourceAlpha" type="matrix" values="0 0 0 0 0 0 0 0 0 0 0 0 0 0 0 0 0 0 127 0"/>
<feOffset dy="6"/>
<feGaussianBlur stdDeviation="5"/>
<feColorMatrix type="matrix" values="0 0 0 0 0 0 0 0 0 0 0 0 0 0 0 0 0 0 0.1 0"/>
<feBlend mode="normal" in2="BackgroundImageFix" result="effect1_dropShadow"/>
<feBlend mode="normal" in="SourceGraphic" in2="effect1_dropShadow" result="shape"/>
</filter>
</defs>
</svg>
