<svg width="50" height="50" viewBox="0 0 50 50" fill="none" xmlns="http://www.w3.org/2000/svg">
<path d="M28.9423 24.4453C29.1885 23.9654 28.999 23.3769 28.5191 23.1308C28.0391 22.8845 27.4506 23.0741 27.2045 23.5539C25.7581 26.3734 22.8928 28.125 19.7266 28.125C15.0957 28.125 11.3281 24.3574 11.3281 19.7266C11.3281 15.0957 15.0957 11.3281 19.7266 11.3281C22.8927 11.3281 25.7581 13.0797 27.2044 15.8992C27.4506 16.379 28.0389 16.5686 28.519 16.3224C28.9989 16.0762 29.1884 15.4876 28.9422 15.0077C27.16 11.5333 23.6287 9.375 19.7266 9.375C14.0187 9.375 9.375 14.0187 9.375 19.7266C9.375 25.4345 14.0187 30.0781 19.7266 30.0781C23.6287 30.0781 27.16 27.9197 28.9423 24.4453Z" fill="#051C3F"/>
<path d="M29.6435 10.7863C29.8934 10.7863 30.1434 10.691 30.3341 10.5003L33.6755 7.15886C34.0568 6.77751 34.0568 6.15916 33.6755 5.77771C33.2941 5.39636 32.6758 5.39636 32.2943 5.77771L28.953 9.11912C28.5717 9.50046 28.5717 10.1188 28.953 10.5003C29.1437 10.691 29.3936 10.7863 29.6435 10.7863Z" fill="#051C3F"/>
<path d="M9.11912 28.9528L5.77771 32.2942C5.39636 32.6755 5.39636 33.2939 5.77771 33.6754C5.96843 33.8661 6.21833 33.9614 6.46824 33.9614C6.71814 33.9614 6.96814 33.8661 7.15876 33.6754L10.5002 30.3339C10.8815 29.9526 10.8815 29.3342 10.5002 28.9528C10.1188 28.5714 9.50056 28.5714 9.11912 28.9528Z" fill="#051C3F"/>
<path d="M28.9531 30.3339L32.2945 33.6753C32.4852 33.866 32.7351 33.9614 32.985 33.9614C33.2349 33.9614 33.4849 33.866 33.6755 33.6753C34.0569 33.294 34.0569 32.6756 33.6755 32.2942L30.3341 28.9528C29.9528 28.5714 29.3344 28.5714 28.953 28.9528C28.5715 29.3341 28.5717 29.9525 28.9531 30.3339Z" fill="#051C3F"/>
<path d="M9.11912 10.5003C9.30984 10.691 9.55974 10.7863 9.80964 10.7863C10.0595 10.7863 10.3095 10.691 10.5002 10.5003C10.8815 10.1189 10.8815 9.50056 10.5002 9.11912L7.15886 5.77771C6.77751 5.39636 6.15916 5.39636 5.77771 5.77771C5.39636 6.15906 5.39636 6.77742 5.77771 7.15886L9.11912 10.5003Z" fill="#051C3F"/>
<path d="M32.7749 19.7266C32.7749 20.2659 33.2121 20.7031 33.7515 20.7031H38.477C39.0163 20.7031 39.4535 20.2659 39.4535 19.7266C39.4535 19.1872 39.0163 18.75 38.477 18.75H33.7515C33.2121 18.75 32.7749 19.1872 32.7749 19.7266Z" fill="#051C3F"/>
<path d="M6.67861 19.7266C6.67861 19.1872 6.24141 18.75 5.70205 18.75H0.976562C0.437207 18.75 0 19.1872 0 19.7266C0 20.2659 0.437207 20.7031 0.976562 20.7031H5.70205C6.24141 20.7031 6.67861 20.2659 6.67861 19.7266Z" fill="#051C3F"/>
<path d="M19.7266 6.67861C20.2659 6.67861 20.7031 6.24141 20.7031 5.70205V0.976562C20.7031 0.437207 20.2659 0 19.7266 0C19.1872 0 18.75 0.437207 18.75 0.976562V5.70205C18.75 6.24141 19.1872 6.67861 19.7266 6.67861Z" fill="#051C3F"/>
<path d="M49.0234 45.12H46.0979V41.995H49.0234C49.5628 41.995 50 41.5578 50 41.0184C50 40.479 49.5628 40.0418 49.0234 40.0418H46.0979V38.0916C46.0979 37.5522 45.6606 37.115 45.1213 37.115H39.2551C36.0346 37.115 33.3585 39.4903 32.8865 42.5809H23.7305C22.0612 42.5809 20.7031 41.2228 20.7031 39.5536V33.8152C20.7031 33.2758 20.2659 32.8386 19.7266 32.8386C19.1872 32.8386 18.75 33.2758 18.75 33.8152V39.5536C18.75 42.2999 20.9842 44.534 23.7305 44.534H32.8864C33.3584 47.6247 36.0346 49.9999 39.255 49.9999H45.1212C45.6605 49.9999 46.0978 49.5627 46.0978 49.0234V47.0731H49.0234C49.5628 47.0731 50 46.6359 50 46.0965C50 45.5572 49.5628 45.12 49.0234 45.12ZM44.1447 48.0468H39.2551C36.7796 48.0468 34.7656 46.0329 34.7656 43.5575C34.7656 41.0821 36.7796 39.0681 39.255 39.0681H44.1446V48.0468H44.1447Z" fill="#051C3F"/>
<path d="M19.91 24.4337C20.0158 24.4703 20.1236 24.4877 20.2295 24.4877C20.6341 24.4877 21.0125 24.2341 21.1523 23.8303L22.4624 20.0462C22.5658 19.7476 22.5184 19.4175 22.3351 19.1602C22.1519 18.9029 21.8555 18.7501 21.5396 18.7501H19.2846L20.146 16.2619C20.3225 15.7522 20.0524 15.196 19.5427 15.0196C19.0329 14.8431 18.4768 15.1132 18.3004 15.6229L16.9903 19.4071C16.8869 19.7056 16.9343 20.0357 17.1176 20.293C17.3008 20.5504 17.5972 20.7032 17.9131 20.7032H20.1681L19.3067 23.1914C19.1302 23.7009 19.4003 24.2572 19.91 24.4337Z" fill="#051C3F"/>
<path d="M30.0781 19.7266C30.0781 19.4697 29.9736 19.2178 29.792 19.0361C29.6104 18.8545 29.3584 18.75 29.1016 18.75C28.8447 18.75 28.5928 18.8545 28.4111 19.0361C28.2295 19.2178 28.125 19.4697 28.125 19.7266C28.125 19.9834 28.2295 20.2354 28.4111 20.417C28.5928 20.5986 28.8447 20.7031 29.1016 20.7031C29.3584 20.7031 29.6104 20.5986 29.792 20.417C29.9736 20.2354 30.0781 19.9834 30.0781 19.7266Z" fill="#051C3F"/>
</svg>
