<svg width="50" height="51" viewBox="0 0 50 51" fill="none" xmlns="http://www.w3.org/2000/svg">
<path fill-rule="evenodd" clip-rule="evenodd" d="M49.1724 41.6777H30.8362V37.4276C35.1912 36.0356 38.9053 33.1327 41.3082 29.243C43.7111 25.3533 44.6445 20.7331 43.94 16.2156C43.2356 11.6981 40.9397 7.58101 37.4666 4.60752C33.9936 1.63404 29.5721 0 25 0C20.4279 0 16.0064 1.63404 12.5334 4.60752C9.06028 7.58101 6.76437 11.6981 6.05995 16.2156C5.35553 20.7331 6.28894 25.3533 8.69183 29.243C11.0947 33.1327 14.8088 36.0356 19.1638 37.4276V41.6777H0.827553C0.607204 41.6798 0.396623 41.7686 0.241616 41.9253C0.0866077 42.0819 -0.000236429 42.2934 4.83454e-07 42.5137V49.1775C4.83454e-07 49.397 0.0871496 49.6078 0.242352 49.763C0.397555 49.9182 0.608063 50.0055 0.827553 50.0055H49.1724C49.3919 50.0055 49.6024 49.9182 49.7576 49.763C49.9128 49.6078 50 49.397 50 49.1775V42.5137C50.0002 42.2934 49.9134 42.0819 49.7584 41.9253C49.6034 41.7686 49.3928 41.6798 49.1724 41.6777ZM7.49996 19.1949C7.49651 15.5253 8.6463 11.9474 10.7867 8.96669C12.9271 5.98596 15.9499 3.75314 19.4282 2.58368C22.9065 1.41422 26.6644 1.36723 30.1708 2.4494C33.6773 3.53158 36.7549 5.68806 38.9692 8.61438C41.1834 11.5407 42.4222 15.089 42.5105 18.7576C42.5987 22.4261 41.5321 26.0296 39.4611 29.059C37.3902 32.0885 34.4197 34.3904 30.9693 35.6399C27.519 36.8894 23.7632 37.0234 20.2327 36.0225C16.5677 34.9865 13.341 32.7824 11.0428 29.7452C8.7447 26.7079 7.5007 23.0036 7.49996 19.1949ZM20.8362 37.8931C20.8802 37.8968 20.9235 37.9057 20.9655 37.9192C21.0862 37.9451 21.1982 37.9622 21.3017 37.9794C21.5862 38.0398 21.862 38.0917 22.1551 38.1348C22.3017 38.152 22.4482 38.1691 22.5862 38.195C22.8534 38.2294 23.1034 38.2468 23.362 38.2812C23.5172 38.2899 23.6724 38.3071 23.819 38.3158C24.1379 38.333 24.4569 38.3417 24.7845 38.3503C24.8621 38.3503 24.931 38.3587 25 38.3587C25.069 38.3587 25.1466 38.3503 25.2155 38.3503C25.5345 38.3503 25.8621 38.333 26.1724 38.3158C26.3276 38.3071 26.4828 38.2899 26.638 38.2812C26.8966 38.2554 27.1466 38.2294 27.4138 38.195C27.5604 38.1691 27.7069 38.1606 27.8449 38.1348C28.1322 38.0917 28.4167 38.0398 28.6983 37.9794C28.8104 37.9622 28.9225 37.9451 29.0345 37.9192C29.069 37.9106 29.1207 37.9018 29.1638 37.8931V41.6777H20.8362V37.8931ZM48.3276 48.3415H1.67236V43.3413H48.3362V48.3415H48.3276ZM23.3276 22.0741C23.7067 22.2932 24.1253 22.4355 24.5594 22.4925C24.9935 22.5495 25.4346 22.5203 25.8574 22.4066C26.2803 22.2929 26.6765 22.0971 27.0234 21.83C27.3704 21.5629 27.6612 21.2297 27.8793 20.85C28.5948 19.6173 30.4396 12.2037 30.8103 10.7296C30.8612 10.5135 30.8245 10.2859 30.7082 10.0969C30.5918 9.9079 30.4054 9.77256 30.1897 9.72058C30.0548 9.6867 29.9134 9.68816 29.7791 9.72437C29.6447 9.76059 29.522 9.83056 29.4224 9.92768C28.319 10.9794 22.819 16.2898 22.1121 17.5226C21.6728 18.2881 21.5541 19.1963 21.7818 20.049C22.0095 20.9017 22.5652 21.6295 23.3276 22.0741ZM23.5517 18.3501C25.0888 16.5329 26.7295 14.8059 28.4655 13.1777C27.9311 15.4949 27.2575 17.7779 26.4483 20.0141C26.2283 20.3976 25.8659 20.6787 25.4398 20.7966C25.0136 20.9144 24.5582 20.8593 24.1724 20.6434C23.9809 20.5361 23.8124 20.3918 23.6769 20.2191C23.5414 20.0463 23.4415 19.8481 23.383 19.6365C23.3245 19.4248 23.3085 19.2036 23.3359 18.9857C23.3634 18.7679 23.4339 18.5578 23.5432 18.3674C23.5518 18.3674 23.5517 18.3587 23.5517 18.3501ZM25 5.85853C25.1093 5.85831 25.2176 5.83676 25.3184 5.79455C25.4193 5.75234 25.5108 5.69043 25.5877 5.61271C25.6646 5.53499 25.7255 5.44293 25.7666 5.34163C25.8078 5.24033 25.8285 5.1319 25.8276 5.02256V3.35862C25.8276 3.13913 25.7404 2.92872 25.5852 2.77352C25.43 2.61832 25.2195 2.53106 25 2.53106C24.7805 2.53106 24.57 2.61832 24.4148 2.77352C24.2596 2.92872 24.1724 3.13913 24.1724 3.35862V5.02256C24.1715 5.1319 24.1922 5.24033 24.2334 5.34163C24.2745 5.44293 24.3354 5.53499 24.4123 5.61271C24.4892 5.69043 24.5807 5.75234 24.6816 5.79455C24.7824 5.83676 24.8907 5.85831 25 5.85853ZM17.8017 5.0655C17.6877 4.88101 17.5062 4.74862 17.2958 4.69592C17.0854 4.64322 16.8627 4.67453 16.6751 4.78347C16.4876 4.89241 16.3499 5.07004 16.2914 5.27891C16.233 5.48777 16.2583 5.71141 16.3621 5.90189L17.1896 7.34148C17.2434 7.43714 17.3156 7.52118 17.4019 7.58898C17.4881 7.65679 17.5868 7.70711 17.6925 7.73673C17.7982 7.76635 17.9087 7.77464 18.0177 7.76157C18.1266 7.74849 18.2319 7.71432 18.3276 7.66054C18.4233 7.60677 18.5074 7.53468 18.5752 7.44839C18.643 7.3621 18.6931 7.2632 18.7227 7.15753C18.7524 7.05186 18.7609 6.94153 18.7478 6.83257C18.7347 6.72361 18.7003 6.618 18.6466 6.52234L18.6379 6.51392L17.8017 5.0655ZM13.1466 11.3845L11.7069 10.557C11.5145 10.4485 11.2872 10.4202 11.0742 10.4783C10.8612 10.5364 10.6796 10.6761 10.569 10.8672C10.4602 11.0572 10.4309 11.2825 10.4874 11.494C10.5439 11.7055 10.6816 11.8861 10.8707 11.9966L12.319 12.833C12.5099 12.945 12.7374 12.9763 12.9517 12.9205C13.1659 12.8647 13.3492 12.7263 13.4612 12.5354C13.5732 12.3444 13.6048 12.1169 13.5491 11.9027C13.4933 11.6885 13.3547 11.5054 13.1638 11.3934C13.1593 11.3884 13.1532 11.3852 13.1466 11.3845ZM11.6638 19.1949C11.6647 19.0856 11.6439 18.9772 11.6028 18.8759C11.5616 18.7746 11.5009 18.6825 11.424 18.6048C11.3471 18.5271 11.2555 18.4651 11.1546 18.4229C11.0537 18.3807 10.9455 18.3588 10.8362 18.3585H9.1638C8.94317 18.3585 8.73156 18.4462 8.57555 18.6023C8.41953 18.7583 8.33193 18.9701 8.33193 19.1907C8.33193 19.4113 8.41953 19.6227 8.57555 19.7788C8.73156 19.9348 8.94317 20.0225 9.1638 20.0225H10.8362C11.0557 20.0225 11.2662 19.9352 11.4214 19.78C11.5766 19.6248 11.6638 19.4144 11.6638 19.1949ZM12.319 25.5485L10.8707 26.376C10.7761 26.4304 10.6933 26.5026 10.6267 26.589C10.5602 26.6754 10.5113 26.7742 10.4829 26.8795C10.4545 26.9847 10.4471 27.0946 10.4611 27.2027C10.4751 27.3109 10.5103 27.4151 10.5647 27.5096C10.619 27.6041 10.6914 27.6872 10.7778 27.7537C10.8641 27.8203 10.9628 27.8689 11.0681 27.8973C11.1734 27.9257 11.2831 27.9332 11.3913 27.9192C11.4994 27.9051 11.6037 27.87 11.6982 27.8156H11.7069L13.1466 26.9881C13.2442 26.9359 13.3304 26.8648 13.4001 26.7789C13.4697 26.6929 13.5216 26.5939 13.5523 26.4876C13.5831 26.3813 13.5922 26.2696 13.5792 26.1597C13.5662 26.0498 13.5313 25.9435 13.4766 25.8473C13.4218 25.7511 13.3485 25.6672 13.2606 25.5998C13.1728 25.5325 13.0723 25.4833 12.9652 25.4554C12.8581 25.4276 12.7465 25.4214 12.637 25.4373C12.5275 25.4533 12.4223 25.4912 12.3276 25.5485H12.319ZM18.3362 30.7293C18.144 30.6179 17.9156 30.5873 17.7007 30.6439C17.4859 30.7004 17.302 30.8395 17.1896 31.0311L16.3621 32.4707C16.3027 32.5653 16.263 32.6711 16.245 32.7813C16.2271 32.8916 16.2314 33.0041 16.2577 33.1126C16.284 33.2212 16.3317 33.3234 16.3981 33.4132C16.4646 33.503 16.5483 33.5785 16.6444 33.6354C16.7405 33.6924 16.8469 33.7297 16.9576 33.7449C17.0682 33.76 17.1808 33.7528 17.2886 33.7238C17.3965 33.6948 17.4975 33.6447 17.5856 33.5761C17.6737 33.5074 17.7472 33.4218 17.8017 33.3244V33.3155L18.6379 31.8675C18.7487 31.6766 18.7792 31.4495 18.7226 31.2361C18.6661 31.0227 18.5271 30.8403 18.3362 30.7293ZM25 32.5141C24.7796 32.5161 24.5691 32.6049 24.4141 32.7616C24.2591 32.9182 24.1722 33.1297 24.1724 33.35V35.014C24.1724 35.2335 24.2596 35.4439 24.4148 35.5991C24.57 35.7543 24.7805 35.8415 25 35.8415C25.2195 35.8415 25.43 35.7543 25.5852 35.5991C25.7404 35.4439 25.8276 35.2335 25.8276 35.014V33.35C25.8278 33.1297 25.7409 32.9182 25.5859 32.7616C25.4309 32.6049 25.2203 32.5161 25 32.5141ZM32.1983 33.3155C32.3123 33.5 32.4938 33.6328 32.7042 33.6855C32.9146 33.7382 33.1373 33.7069 33.3249 33.598C33.5124 33.489 33.6501 33.311 33.7086 33.1021C33.767 32.8932 33.7417 32.67 33.6379 32.4795L32.8104 31.04C32.7569 30.9441 32.6846 30.8597 32.5981 30.792C32.5116 30.7243 32.4125 30.6744 32.3065 30.6455C32.2006 30.6166 32.0899 30.6093 31.9811 30.6236C31.8722 30.638 31.7672 30.6739 31.6724 30.7293C31.5766 30.7818 31.4924 30.8532 31.4247 30.9389C31.357 31.0246 31.3071 31.1232 31.2782 31.2285C31.2493 31.3339 31.2417 31.4439 31.2561 31.5522C31.2705 31.6605 31.3066 31.7646 31.3621 31.8587L31.3707 31.8675L32.1983 33.3155ZM36.8534 26.9881L38.2931 27.8156C38.3881 27.8704 38.4929 27.9056 38.6017 27.9196C38.7104 27.9336 38.8209 27.9261 38.9266 27.8973C39.0324 27.8684 39.1315 27.8189 39.218 27.7516C39.3046 27.6843 39.377 27.6008 39.431 27.5054C39.4849 27.412 39.5198 27.3088 39.5338 27.2019C39.5478 27.095 39.5406 26.9865 39.5126 26.8824C39.4846 26.7783 39.4363 26.6807 39.3705 26.5953C39.3047 26.5099 39.2228 26.4381 39.1293 26.3844L37.681 25.5485C37.587 25.4907 37.4824 25.4522 37.3733 25.4352C37.2642 25.4183 37.1528 25.4234 37.0457 25.45C36.9386 25.4766 36.8379 25.5242 36.7494 25.5901C36.6609 25.6561 36.5863 25.7388 36.5302 25.8339C36.4741 25.9289 36.4375 26.0343 36.4225 26.1437C36.4075 26.253 36.4144 26.3641 36.4429 26.4707C36.4714 26.5774 36.5208 26.6772 36.5884 26.7645C36.6559 26.8519 36.7402 26.9248 36.8362 26.9792C36.8407 26.9841 36.8468 26.9874 36.8534 26.9881ZM38.3276 19.1949C38.3296 19.4153 38.4186 19.6259 38.5753 19.7809C38.7319 19.9359 38.9435 20.0227 39.1638 20.0225H40.8362C41.0568 20.0225 41.2684 19.9348 41.4245 19.7788C41.5805 19.6227 41.6681 19.4113 41.6681 19.1907C41.6681 18.9701 41.5805 18.7583 41.4245 18.6023C41.2684 18.4462 41.0568 18.3585 40.8362 18.3585H39.1638C39.0539 18.358 38.9448 18.3794 38.8431 18.4213C38.7414 18.4631 38.649 18.5245 38.5713 18.6023C38.4935 18.68 38.4319 18.7725 38.3901 18.8742C38.3482 18.9759 38.327 19.085 38.3276 19.1949ZM37.2672 12.9449C37.413 12.9477 37.5566 12.909 37.681 12.833L39.1293 11.9966C39.3138 11.8825 39.4465 11.701 39.4992 11.4906C39.5519 11.2802 39.5204 11.0577 39.4115 10.8701C39.3025 10.6826 39.1248 10.5447 38.9159 10.4863C38.707 10.4278 38.4836 10.4532 38.2931 10.557L36.8534 11.3845C36.695 11.4768 36.5713 11.6188 36.5012 11.7882C36.4312 11.9576 36.4187 12.1451 36.4657 12.3224C36.5127 12.4996 36.6166 12.6565 36.7614 12.769C36.9062 12.8814 37.0839 12.9433 37.2672 12.9449ZM31.6638 7.64328C31.856 7.75473 32.0844 7.78527 32.2993 7.72873C32.5141 7.67219 32.698 7.53309 32.8104 7.34148L33.6379 5.90189C33.7417 5.71141 33.767 5.48777 33.7086 5.27891C33.6501 5.07004 33.5124 4.89241 33.3249 4.78347C33.1373 4.67453 32.9146 4.64322 32.7042 4.69592C32.4938 4.74862 32.3123 4.88101 32.1983 5.0655L31.3621 6.50508C31.3069 6.59954 31.2708 6.70396 31.2561 6.81236C31.2414 6.92077 31.2483 7.03116 31.2763 7.1369C31.3043 7.24265 31.353 7.34173 31.4195 7.42861C31.486 7.51549 31.569 7.5886 31.6638 7.64328ZM24.5862 19.9105C24.7772 20.0213 25.0042 20.0517 25.2176 19.9951C25.431 19.9385 25.6132 19.7995 25.7241 19.6087L26.1379 18.8847C26.1957 18.7907 26.2342 18.6861 26.2511 18.577C26.268 18.4679 26.2631 18.3562 26.2365 18.2491C26.2099 18.142 26.1623 18.0413 26.0963 17.9528C26.0304 17.8642 25.9474 17.79 25.8524 17.7339C25.7573 17.6778 25.6522 17.6411 25.5428 17.6261C25.4334 17.6111 25.3222 17.6178 25.2155 17.6463C25.1089 17.6748 25.0089 17.7244 24.9216 17.792C24.8343 17.8595 24.7613 17.9438 24.7069 18.0399L24.6983 18.0483L24.2845 18.7639C24.2283 18.8588 24.1915 18.964 24.1762 19.0733C24.161 19.1825 24.1675 19.2937 24.1956 19.4003C24.2237 19.507 24.2727 19.607 24.3398 19.6946C24.4068 19.7822 24.4906 19.8556 24.5862 19.9105Z" fill="#051C3F"/>
</svg>
