<svg width="45" height="53" viewBox="0 0 45 53" fill="none" xmlns="http://www.w3.org/2000/svg">
<path fill-rule="evenodd" clip-rule="evenodd" d="M11.2482 14.1567H11.744C12.0136 16.8115 13.2628 19.2719 15.2496 21.0612C17.2364 22.8506 19.8192 23.8411 22.4973 23.8411C25.1755 23.8411 27.7582 22.8506 29.745 21.0612C31.7318 19.2719 32.981 16.8115 33.2506 14.1567H33.7446C34.3317 14.1567 34.8947 13.9242 35.3099 13.5105C35.725 13.0969 35.9582 12.5357 35.9582 11.9508C35.9582 11.3658 35.725 10.805 35.3099 10.3914C34.8947 9.97779 34.3317 9.74526 33.7446 9.74526H32.681C32.0745 8.10335 31.0761 6.63316 29.7719 5.46165C28.4676 4.29014 26.8968 3.45252 25.1951 3.02107V2.68968C25.1951 1.97633 24.9107 1.29196 24.4044 0.787553C23.8981 0.283141 23.2115 0 22.4955 0C21.7795 0 21.0929 0.283141 20.5866 0.787553C20.0804 1.29196 19.7959 1.97633 19.7959 2.68968V3.02107C18.094 3.45239 16.523 4.29013 15.2186 5.46165C13.9142 6.63317 12.9157 8.10324 12.3091 9.74526H11.2482C10.6611 9.74526 10.0981 9.97779 9.68293 10.3914C9.26779 10.805 9.03456 11.3658 9.03456 11.9508C9.03456 12.5357 9.26779 13.0969 9.68293 13.5105C10.0981 13.9242 10.6611 14.1567 11.2482 14.1567ZM22.4964 22.0909C20.2838 22.1032 18.1449 21.2995 16.4915 19.8346C14.8382 18.3697 13.7872 16.3475 13.541 14.1567H31.4482C31.2023 16.3469 30.1519 18.3688 28.4992 19.8337C26.8465 21.2986 24.7084 22.1026 22.4964 22.0909ZM21.5965 2.68968C21.6004 2.51351 21.6563 2.34231 21.7572 2.19762C21.8582 2.05292 21.9996 1.9409 22.164 1.87586C22.3284 1.81081 22.5083 1.79537 22.6814 1.83164C22.8544 1.86791 23.013 1.95436 23.1371 2.07986C23.2202 2.15813 23.2862 2.25291 23.3308 2.35784C23.3754 2.46277 23.3977 2.57573 23.3963 2.68968V7.10067H21.5965V2.68968ZM19.7968 4.85928V7.97928C19.798 8.09584 19.8222 8.21088 19.8681 8.31812C19.9139 8.42536 19.9806 8.52283 20.0641 8.60442C20.1477 8.68601 20.2465 8.75002 20.3551 8.79354C20.4636 8.83705 20.5797 8.85907 20.6967 8.85789H24.2961C24.5323 8.86004 24.7597 8.76871 24.9284 8.60398C25.0971 8.43926 25.1934 8.21461 25.196 7.97928V4.85928C26.4158 5.23629 27.5415 5.86661 28.4988 6.70887C29.4562 7.55112 30.2234 8.58592 30.7499 9.74526H14.2465C14.7723 8.5861 15.5389 7.55158 16.4956 6.7093C17.4524 5.86703 18.5775 5.23642 19.7968 4.85928ZM11.2482 11.5117H33.7446C33.8615 11.5117 33.9737 11.558 34.0564 11.6404C34.1391 11.7228 34.1855 11.8342 34.1855 11.9508C34.1855 12.0673 34.1391 12.1792 34.0564 12.2616C33.9737 12.344 33.8615 12.3903 33.7446 12.3903H11.2482C11.1313 12.3903 11.0191 12.344 10.9364 12.2616C10.8537 12.1792 10.8073 12.0673 10.8073 11.9508C10.8073 11.8342 10.8537 11.7228 10.9364 11.6404C11.0191 11.558 11.1313 11.5117 11.2482 11.5117ZM38.3987 31.1821C38.1026 30.8952 37.8065 30.6173 37.4988 30.3573C33.3481 26.7337 28.0174 24.7359 22.4987 24.7359C16.9799 24.7359 11.6492 26.7337 7.49851 30.3573C5.14955 32.4056 3.26578 34.929 1.97277 37.7596C0.67977 40.5903 0.00723279 43.6633 0 46.7734V52.063C0.000352507 52.1802 0.0239373 52.2963 0.069395 52.4044C0.114853 52.5126 0.181286 52.6105 0.264893 52.6929C0.3485 52.7754 0.447625 52.8405 0.556588 52.8847C0.665551 52.9289 0.78221 52.9512 0.899856 52.9504H44.1001C44.2178 52.9512 44.3344 52.9289 44.4434 52.8847C44.5524 52.8405 44.6515 52.7754 44.7351 52.6929C44.8187 52.6105 44.8851 52.5126 44.9306 52.4044C44.9761 52.2963 44.9996 52.1802 45 52.063V46.7734C45.0018 43.867 44.4187 40.9896 43.2851 38.3117C42.1516 35.6337 40.4906 33.2095 38.4005 31.1821H38.3987ZM35.9987 37.9601H32.3993V28.9674C33.68 29.655 34.8862 30.4724 35.9987 31.4062V37.9601ZM16.6005 27.345C20.4542 26.2154 24.5529 26.2154 28.4066 27.345C29.1613 27.5632 29.9021 27.8266 30.6248 28.1339C30.6128 28.175 30.6038 28.2171 30.5978 28.2595V37.9601H14.3977V28.2595C14.3927 28.2169 14.3836 28.1748 14.3707 28.1339C15.098 27.8264 15.8432 27.5631 16.6024 27.345H16.6005ZM8.99856 37.9601V31.4062C10.1114 30.4728 11.3176 29.6554 12.598 28.9674V37.9601H8.99856ZM1.79971 46.7734C1.80829 41.7093 3.73674 36.8352 7.19885 33.1276V51.1844H1.79971V46.7734ZM8.99856 51.1844V39.7174H35.9997V51.1844H8.99856ZM43.1994 51.1844H37.8002V33.1188C41.2748 36.8222 43.2051 41.7039 43.1994 46.7734V51.1844Z" fill="#051C3F"/>
</svg>
