<?xml version="1.0" encoding="UTF-8" standalone="no"?>
<svg
   xmlns:dc="http://purl.org/dc/elements/1.1/"
   xmlns:cc="http://creativecommons.org/ns#"
   xmlns:rdf="http://www.w3.org/1999/02/22-rdf-syntax-ns#"
   xmlns:svg="http://www.w3.org/2000/svg"
   xmlns="http://www.w3.org/2000/svg"
   viewBox="0 0 1333.3333 1333.3333"
   height="1333.3333"
   width="1333.3333"
   xml:space="preserve"
   id="svg2"
   version="1.1"><metadata
     id="metadata8"><rdf:RDF><cc:Work
         rdf:about=""><dc:format>image/svg+xml</dc:format><dc:type
           rdf:resource="http://purl.org/dc/dcmitype/StillImage" /></cc:Work></rdf:RDF></metadata><defs
     id="defs6" /><g
     transform="matrix(1.3333333,0,0,-1.3333333,0,1333.3333)"
     id="g10"><g
       transform="scale(0.1)"
       id="g12"><path
         id="path14"
         style="fill:#152038;fill-opacity:1;fill-rule:nonzero;stroke:none"
         d="m 1061.24,3335.98 c 135.24,-319.76 307.37,-618.86 513.82,-894.46 l 284.99,481.71 C 1464.71,3518.96 1234.1,4233.02 1234.1,5000 c 0,2076.52 1689.38,3765.9 3765.9,3765.9 766.98,0 1481.05,-230.61 2076.77,-625.95 l 481.71,285 c -275.6,206.45 -574.7,378.58 -894.45,513.81 -387.42,163.87 -792.53,268.13 -1209.07,312.03 L 5365.72,9406.31 5000,10000 4634.29,9406.31 4545.05,9250.79 C 4128.51,9206.89 3723.4,9102.63 3335.98,8938.76 2826.9,8723.45 2369.77,8415.26 1977.25,8022.75 1584.75,7630.23 1276.55,7173.1 1061.24,6664.03 897.367,6276.61 793.109,5871.49 749.215,5454.95 L 593.691,5365.72 0,5000 593.691,4634.28 749.215,4545.05 c 43.894,-416.54 148.152,-821.66 312.025,-1209.07" /><path
         id="path16"
         style="fill:#152038;fill-opacity:1;fill-rule:nonzero;stroke:none"
         d="m 10000,5000 -593.68,365.72 -155.54,89.24 c -43.89,416.53 -148.14,821.65 -312.01,1209.07 -135.24,319.75 -307.37,618.84 -513.83,894.45 L 8139.96,7076.76 C 8535.3,6481.04 8765.9,5766.98 8765.9,5000 8765.9,2923.48 7076.53,1234.1 5000,1234.1 c -766.98,0 -1481.04,230.61 -2076.76,625.95 l -481.71,-284.99 c 275.6,-206.46 574.7,-378.59 894.45,-513.83 C 3723.4,897.371 4128.51,793.109 4545.05,749.219 L 4634.29,593.691 5000,0 l 365.72,593.691 89.24,155.528 c 416.54,43.89 821.65,148.152 1209.07,312.011 509.07,215.32 966.2,523.51 1358.71,916.03 392.52,392.51 700.71,849.64 916.03,1358.72 163.87,387.41 268.12,792.53 312.01,1209.06 l 155.54,89.24 L 10000,5000" /><path
         id="path18"
         style="fill:none;stroke:#152038;stroke-width:580;stroke-linecap:butt;stroke-linejoin:miter;stroke-miterlimit:10;stroke-dasharray:none;stroke-opacity:1"
         d="m 8993.19,5000 c 0,-2205.38 -1787.81,-3993.19 -3993.19,-3993.19 -2205.38,0 -3993.19,1787.81 -3993.19,3993.19 0,2205.38 1787.81,3993.19 3993.19,3993.19 2205.38,0 3993.19,-1787.81 3993.19,-3993.19 z" /><path
         id="path20"
         style="fill:#4c96c7;fill-opacity:1;fill-rule:nonzero;stroke:none"
         d="M 5000,7449.04 4326.36,4992.49 5000,5542.64 5673.63,4992.49 5000,7449.04" /><path
         id="path22"
         style="fill:#4c96c7;fill-opacity:1;fill-rule:nonzero;stroke:none"
         d="M 5000,5542.64 5673.63,4992.49 5000,7449.04 Z" /></g></g></svg>