<svg width="50" height="50" viewBox="0 0 50 50" fill="none" xmlns="http://www.w3.org/2000/svg">
<path d="M2.4078 8.62703H9.66601C10.9931 8.62535 12.0686 7.55093 12.0711 6.224V4.47455C12.1523 2.18304 10.4245 0.229058 8.1402 0.028735C6.27388 -0.190946 4.49174 0.866218 3.7905 2.60936C3.34223 2.56307 2.88932 2.60978 2.46041 2.74698C0.975436 3.25283 -0.016233 4.65551 0.00270808 6.224C0.00481264 7.55093 1.08066 8.62535 2.4078 8.62703ZM2.97561 4.38996C3.12967 4.34156 3.28961 4.31715 3.45082 4.31757C3.66086 4.31884 3.86879 4.3605 4.06283 4.44088C4.30064 4.53515 4.56792 4.51916 4.79269 4.39711C5.01746 4.27507 5.17614 4.05959 5.22665 3.80877C5.41985 2.48563 6.64302 1.56482 7.96847 1.74452C9.36969 1.8611 10.4237 3.07103 10.347 4.47455V6.224C10.3466 6.59982 10.0419 6.90451 9.66601 6.90493H2.4078C2.03193 6.90451 1.72719 6.59982 1.72676 6.224C1.7053 5.40798 2.20829 4.66982 2.97561 4.39164V4.38996Z" fill="#051C3F"/>
<path d="M45.6895 8.62698C48.0698 8.62698 49.9997 6.6974 49.9997 4.31752C49.9997 1.93721 48.0698 0.00805664 45.6895 0.00805664C43.3089 0.00805664 41.3794 1.93721 41.3794 4.31752C41.3823 6.69614 43.3101 8.62403 45.6895 8.62698ZM45.6895 1.73184C47.1177 1.73184 48.2756 2.88959 48.2756 4.31752C48.2756 5.74545 47.1177 6.90319 45.6895 6.90319C44.2614 6.90319 43.1035 5.74545 43.1035 4.31752C43.1035 2.88959 44.2614 1.73184 45.6895 1.73184Z" fill="#051C3F"/>
<path d="M44.8276 11.2127V13.7984C44.8276 14.2744 45.2136 14.6603 45.6897 14.6603C46.1657 14.6603 46.5517 14.2744 46.5517 13.7984V11.2127C46.5517 10.7367 46.1657 10.3508 45.6897 10.3508C45.2136 10.3508 44.8276 10.7367 44.8276 11.2127Z" fill="#051C3F"/>
<path d="M38.3756 11.6323C38.7119 11.969 39.2578 11.969 39.5941 11.6323L41.4226 9.80416C41.6469 9.58784 41.7366 9.26758 41.6579 8.96625C41.5787 8.66493 41.3434 8.42925 41.0421 8.35055C40.7407 8.27186 40.4204 8.3615 40.2036 8.58539L38.3756 10.4135C38.0389 10.7502 38.0389 11.2956 38.3756 11.6323Z" fill="#051C3F"/>
<path d="M36.2072 5.17947H38.7933C39.2694 5.17947 39.6554 4.79356 39.6554 4.31758C39.6554 3.8416 39.2694 3.45569 38.7933 3.45569H36.2072C35.7312 3.45569 35.3452 3.8416 35.3452 4.31758C35.3452 4.79356 35.7312 5.17947 36.2072 5.17947Z" fill="#051C3F"/>
<path d="M33.6216 29.3124H30.2433L32.5705 26.4026C32.8643 26.0306 32.8025 25.4911 32.4325 25.1952C32.0621 24.8994 31.5225 24.9579 31.224 25.3261L27.7759 29.6356C27.5688 29.8944 27.5284 30.2487 27.672 30.5475C27.8155 30.8463 28.1177 31.0361 28.4494 31.0361H31.8276L29.5 33.945C29.3055 34.1853 29.2546 34.5115 29.3666 34.7993C29.4785 35.0876 29.7365 35.2938 30.0421 35.3397C30.3481 35.3856 30.655 35.264 30.8465 35.0216L34.2946 30.7121C34.5013 30.4533 34.5417 30.0989 34.3981 29.8005C34.2546 29.5022 33.9528 29.3124 33.6216 29.3124Z" fill="#051C3F"/>
<path d="M44.5176 17.4476C44.2609 17.2338 43.9035 17.1875 43.6009 17.3289C43.2982 17.4703 43.1046 17.7737 43.1038 18.1079V21.5554H41.6916L36.7594 17.4476C36.5026 17.2338 36.1452 17.1875 35.8426 17.3289C35.54 17.4703 35.3464 17.7737 35.3455 18.1079V21.5554H33.5238L29.0293 17.4699C28.7768 17.2405 28.4127 17.1812 28.1003 17.3192C27.7885 17.4572 27.5873 17.7666 27.5873 18.1079V21.5554H23.8003L23.2771 14.6308V11.2127C23.2771 10.7367 22.8911 10.3508 22.4151 10.3508H15.5189C15.0428 10.3508 14.6568 10.7367 14.6568 11.2127V14.63L14.1395 21.5554H11.726L11.2087 14.6308V11.2127C11.2087 10.7367 10.8227 10.3508 10.3467 10.3508H3.45046C2.97441 10.3508 2.58843 10.7367 2.58843 11.2127V14.6291L0.00234359 49.0728C-0.0153348 49.3123 0.067585 49.548 0.23132 49.7235C0.395055 49.899 0.624452 49.9983 0.864372 49.9979H49.138C49.614 49.9979 50 49.6119 50 49.136V22.4173C50 22.1614 49.8864 21.919 49.6898 21.7553L44.5176 17.4476ZM16.3809 12.0746H21.5531V13.7984H16.3809V12.0746ZM16.3186 15.5222H21.6158L22.072 21.5554H15.8695L16.3186 15.5222ZM4.31249 12.0746H9.48466V13.7984H4.31249V12.0746ZM1.79375 48.2741L4.25019 15.5222H9.54737L12.0034 48.2741H1.79375ZM29.699 42.2408H32.3713L32.6584 44.8265H29.4119L29.699 42.2408ZM34.3972 44.8265L34.1093 42.2408H37.6024L38.4645 44.8265H34.3972ZM33.9178 40.517L33.7267 38.7933H36.4521L37.0275 40.517H33.9178ZM31.9837 38.7933L32.1748 40.517H29.8913L30.0828 38.7933H31.9837ZM28.1525 40.517H25.0475L25.6224 38.7933H28.3483L28.1525 40.517ZM24.4683 42.2408H27.9614L27.6735 44.8265H23.6105L24.4683 42.2408ZM30.1733 48.2741V46.5503H31.8974V48.2741H30.1733ZM48.2759 48.2741H33.6215V46.5503H39.6557C39.9326 46.5503 40.1927 46.4173 40.3548 46.1926C40.5173 45.9678 40.561 45.6787 40.4735 45.4161L37.8874 37.6591C37.7704 37.3068 37.4408 37.0695 37.0696 37.0695H25.0012C24.6299 37.0695 24.3004 37.3068 24.1829 37.6591L21.5968 45.4161C21.5093 45.6787 21.5535 45.9678 21.7155 46.1926C21.8776 46.4173 22.1381 46.5503 22.4151 46.5503H28.4493V48.2741H13.7325L11.862 23.2792H28.4493C28.9253 23.2792 29.3113 22.8933 29.3113 22.4173V20.0581L32.6104 23.0566C32.7691 23.2005 32.9762 23.2796 33.1904 23.2792H36.2075C36.6836 23.2792 37.0696 22.8933 37.0696 22.4173V19.9495L40.8279 23.081C40.9832 23.2093 41.1781 23.2796 41.3797 23.2792H43.9658C44.4419 23.2792 44.8278 22.8933 44.8278 22.4173V19.9495L48.2759 22.8222V48.2741Z" fill="#051C3F"/>
</svg>
