<svg class="house-illustration" width="1317" height="696" viewBox="0 0 1317 696" fill="none" xmlns="http://www.w3.org/2000/svg">
<g clip-path="url(#clip0)">
<path opacity="0.5" d="M766.488 237.05C764.893 236.997 763.342 236.974 761.813 236.964C760.709 233.036 745.583 229.43 727.015 228.793C707.713 228.131 692.049 230.922 692.015 235.03C692 237.385 697.137 239.657 705.152 241.297C697.285 241.95 691.952 243.546 691.936 245.591C691.915 248.586 703.297 251.403 717.366 251.885C728.795 252.279 738.486 251.006 741.721 248.909C748.03 250.467 756.743 251.596 766.38 251.928C785.681 252.591 801.351 249.796 801.385 245.69C801.414 241.583 785.79 237.714 766.488 237.05Z" fill="white"/>
<path opacity="0.3" d="M729.986 272.195C732.004 272.127 733.969 272.092 735.904 272.072C737.305 267.824 756.454 263.835 779.954 263.028C804.384 262.191 824.205 265.103 824.242 269.538C824.258 272.079 817.754 274.566 807.605 276.386C817.562 277.042 824.31 278.729 824.328 280.937C824.351 284.171 809.942 287.285 792.135 287.896C777.669 288.393 765.406 287.081 761.315 284.838C753.328 286.559 742.299 287.835 730.104 288.254C705.675 289.094 685.847 286.177 685.81 281.744C685.779 277.311 705.557 273.034 729.986 272.195Z" fill="white"/>
<path opacity="0.3" d="M719.39 252.133C724.507 247.989 757.475 245.119 793.019 245.716C813.401 246.059 830.16 247.47 839.835 249.388C849.903 247.839 866.717 246.955 884.406 247.253C910.326 247.689 928.316 250.489 924.56 253.508C921.556 255.961 905.089 257.805 885.134 258.173C895.07 259.726 899.949 261.715 897.41 263.783C892.282 267.929 859.314 270.798 823.774 270.2C788.23 269.604 763.538 265.759 768.654 261.617C769.233 261.208 769.862 260.875 770.526 260.625C737.152 259.817 714.477 256.115 719.39 252.133Z" fill="white"/>
<path class="house-illustration__sun sun--outer" opacity="0.2" d="M930.777 92.2954C934.655 131.634 905.874 166.658 866.491 170.531C827.105 174.405 792.037 145.661 788.159 106.323C784.281 66.9901 813.06 31.9589 852.447 28.085C891.83 24.2115 926.899 52.9629 930.777 92.2954Z" fill="#FEFF9D"/>
<path class="house-illustration__sun sun--middle" opacity="0.5" d="M909.855 94.3531C912.595 122.147 892.259 146.895 864.43 149.632C836.602 152.37 811.826 132.058 809.085 104.264C806.345 76.472 826.678 51.7214 854.507 48.9844C882.336 46.2474 907.114 66.5608 909.855 94.3531Z" fill="#FEFF9D"/>
<path class="house-illustration__sun sun--inner" d="M879.351 96.5177C879.904 100.445 879.278 104.448 877.552 108.02C875.827 111.592 873.08 114.573 869.659 116.585C866.238 118.598 862.296 119.552 858.332 119.328C854.368 119.103 850.559 117.709 847.388 115.322C844.217 112.936 841.825 109.663 840.516 105.919C839.207 102.175 839.039 98.1274 840.033 94.2878C841.027 90.4483 843.138 86.9893 846.101 84.3484C849.063 81.7074 852.742 80.0031 856.674 79.4509C859.285 79.084 861.943 79.2344 864.496 79.8936C867.049 80.5528 869.447 81.7078 871.552 83.2926C873.658 84.8775 875.431 86.8612 876.769 89.1304C878.107 91.3995 878.984 93.9098 879.351 96.5177Z" fill="#FFEE5C"/>
<g opacity="0.5">
<path opacity="0.5" d="M1079.8 397.165H1051.97V463.663H1079.8V397.165Z" fill="#A7D887"/>
<path opacity="0.5" d="M1045.33 365.155H1020.86V463.663H1045.33V365.155Z" fill="#A7D887"/>
<path opacity="0.5" d="M1039.66 406.904H992.637V463.663H1039.66V406.904Z" fill="#A7D887"/>
<path opacity="0.5" d="M1060.69 427.132H1033.1V463.663H1060.69V427.132Z" fill="#A7D887"/>
<path opacity="0.5" d="M1004.75 383.758H986.395V463.663H1004.75V383.758Z" fill="#A7D887"/>
<path opacity="0.5" d="M974.838 336.361H933.963V463.663H974.838V336.361Z" fill="#A7D887"/>
<path opacity="0.5" d="M941.495 331.64H875.552V463.663H941.495V331.64Z" fill="#A7D887"/>
<path opacity="0.5" d="M885.485 303.773H855.694V463.663H885.485V303.773Z" fill="#A7D887"/>
<path opacity="0.5" d="M992.637 414.593H949.135V463.663H992.637V414.593Z" fill="#A7D887"/>
<path opacity="0.5" d="M930.523 376.57H906.538V463.663H930.523V376.57Z" fill="#A7D887"/>
<path opacity="0.5" d="M939.166 436.185H921.662V463.663H939.166V436.185Z" fill="#A7D887"/>
<path opacity="0.5" d="M1088.56 436.185H1071.05V463.663H1088.56V436.185Z" fill="#A7D887"/>
<path opacity="0.5" d="M915.177 408.702H880.274V463.663H915.177V408.702Z" fill="#A7D887"/>
<path opacity="0.5" d="M859.468 390.087H782.115V463.663H859.468V390.087Z" fill="#A7D887"/>
<path opacity="0.5" d="M638.703 451.751H561.344V463.663H638.703V451.751Z" fill="#A7D887"/>
<path opacity="0.5" d="M782.115 432.484H767.965V463.663H782.115V432.484Z" fill="#A7D887"/>
<path opacity="0.5" d="M775.038 338.897H724.567V463.663H775.038V338.897Z" fill="#A7D887"/>
<path opacity="0.5" d="M733.057 351.627H705.11V463.663H733.057V351.627Z" fill="#A7D887"/>
<path opacity="0.5" d="M717.026 412.998H679.289V463.663H717.026V412.998Z" fill="#A7D887"/>
<path opacity="0.5" d="M688.724 374.898H667.025V463.663H688.724V374.898Z" fill="#A7D887"/>
<path opacity="0.5" d="M671.744 349.133H619.859V463.663H671.744V349.133Z" fill="#A7D887"/>
<path opacity="0.5" d="M846.264 364.937H830.229V463.663H846.264V364.937Z" fill="#A7D887"/>
<path opacity="0.5" d="M801.424 414.868H788.015V463.663H801.424V414.868Z" fill="#A7D887"/>
</g>
<g opacity="0.5">
<path opacity="0.5" d="M1261.4 397.165H1233.57V463.663H1261.4V397.165Z" fill="#A7D887"/>
<path opacity="0.5" d="M1226.93 379.164H1202.45V463.663H1226.93V379.164Z" fill="#A7D887"/>
<path opacity="0.5" d="M1221.25 406.903H1174.23V463.663H1221.25V406.903Z" fill="#A7D887"/>
<path opacity="0.5" d="M1242.29 427.132H1214.69V463.663H1242.29V427.132Z" fill="#A7D887"/>
<path opacity="0.5" d="M1186.33 367.917H1167.99V463.663H1186.33V367.917Z" fill="#A7D887"/>
<path opacity="0.5" d="M1156.43 336.361H1115.56V463.663H1156.43V336.361Z" fill="#A7D887"/>
<path opacity="0.5" d="M1096.77 336.101H1072.33V463.663H1096.77V336.101Z" fill="#A7D887"/>
<path opacity="0.5" d="M1067.08 324.788H1037.29V463.663H1067.08V324.788Z" fill="#A7D887"/>
<path opacity="0.5" d="M1174.23 414.593H1130.73V463.662H1174.23V414.593Z" fill="#A7D887"/>
<path opacity="0.5" d="M1112.11 376.569H1088.13V463.663H1112.11V376.569Z" fill="#A7D887"/>
<path opacity="0.5" d="M1120.76 436.185H1103.26V463.663H1120.76V436.185Z" fill="#A7D887"/>
<path opacity="0.5" d="M1270.15 436.185H1252.65V463.663H1270.15V436.185Z" fill="#A7D887"/>
<path opacity="0.5" d="M1096.77 408.702H1061.87V463.663H1096.77V408.702Z" fill="#A7D887"/>
<path opacity="0.5" d="M1041.06 360.543H963.709V463.663H1041.06V360.543Z" fill="#A7D887"/>
<path opacity="0.5" d="M820.294 390.087H742.938V463.663H820.294V390.087Z" fill="#A7D887"/>
<path opacity="0.5" d="M963.709 432.484H949.557V463.663H963.709V432.484Z" fill="#A7D887"/>
<path opacity="0.5" d="M956.632 382.814H906.161V463.663H956.632V382.814Z" fill="#A7D887"/>
<path opacity="0.5" d="M914.651 342.015H898.619V463.663H914.651V342.015Z" fill="#A7D887"/>
<path opacity="0.5" d="M898.619 412.998H860.883V463.663H898.619V412.998Z" fill="#A7D887"/>
<path opacity="0.5" d="M870.319 374.898H848.62V463.663H870.319V374.898Z" fill="#A7D887"/>
<path opacity="0.5" d="M853.336 349.133H801.453V463.663H853.336V349.133Z" fill="#A7D887"/>
<path opacity="0.5" d="M1027.86 377.151H1011.82V463.663H1027.86V377.151Z" fill="#A7D887"/>
<path opacity="0.5" d="M983.018 414.868H969.608V463.663H983.018V414.868Z" fill="#A7D887"/>
</g>
<path d="M609.332 420.763H574.923V463.663H609.332V420.763Z" fill="#A7D887"/>
<path d="M647.808 400.114H617.546V463.663H647.808V400.114Z" fill="#A7D887"/>
<path d="M682.698 427.045H624.561V463.663H682.698V427.045Z" fill="#A7D887"/>
<path d="M632.674 440.097H598.556V463.663H632.674V440.097Z" fill="#A7D887"/>
<path d="M690.416 412.116H667.732V463.663H690.416V412.116Z" fill="#A7D887"/>
<path d="M755.244 381.539H704.705V463.663H755.244V381.539Z" fill="#A7D887"/>
<path d="M808.685 357.515H778.469V463.663H808.685V357.515Z" fill="#A7D887"/>
<path d="M852.014 386.291H815.182V463.663H852.014V386.291Z" fill="#A7D887"/>
<path d="M736.483 432.007H682.698V463.662H736.483V432.007Z" fill="#A7D887"/>
<path d="M789.151 407.478H759.495V463.663H789.151V407.478Z" fill="#A7D887"/>
<path d="M770.455 445.936H748.81V463.663H770.455V445.936Z" fill="#A7D887"/>
<path d="M585.746 445.936H564.1V463.663H585.746V445.936Z" fill="#A7D887"/>
<path d="M821.621 428.206H778.469V463.663H821.621V428.206Z" fill="#A7D887"/>
<path d="M942.991 416.197H847.35V463.663H942.991V416.197Z" fill="#A7D887"/>
<path d="M1233.57 434.529H1120.31V463.662H1233.57V434.529Z" fill="#A7D887"/>
<path d="M1247.48 447.205H1219.19V463.663H1247.48V447.205Z" fill="#A7D887"/>
<path d="M960.486 443.547H942.991V463.662H960.486V443.547Z" fill="#A7D887"/>
<path d="M1014.14 411.505H951.739V463.663H1014.14V411.505Z" fill="#A7D887"/>
<path d="M1023.47 385.186H1003.64V463.663H1023.47V385.186Z" fill="#A7D887"/>
<path d="M1070.13 430.977H1023.47V463.663H1070.13V430.977Z" fill="#A7D887"/>
<path d="M1085.29 406.397H1058.46V463.663H1085.29V406.397Z" fill="#A7D887"/>
<path d="M1143.6 389.777H1079.45V463.663H1143.6V389.777Z" fill="#A7D887"/>
<path d="M883.502 380.97H863.675V463.663H883.502V380.97Z" fill="#A7D887"/>
<path d="M935.69 432.183H919.117V463.663H935.69V432.183Z" fill="#A7D887"/>
<path d="M1180.03 311.494H1112.1V463.661H1180.03V311.494Z" fill="#D8DB61"/>
<path d="M1180.03 446.483H1151.28V451.108H1180.03V446.483Z" fill="#EBF9F1"/>
<path d="M1146.06 446.483H1135.98V451.108H1146.06V446.483Z" fill="white"/>
<path d="M1130.2 446.483H1112.1V451.108H1130.2V446.483Z" fill="#EBF9F1"/>
<path d="M1163.08 437.235H1151.28V441.859H1163.08V437.235Z" fill="#EBF9F1"/>
<path d="M1180.03 437.235H1168.22V441.859H1180.03V437.235Z" fill="#EBF9F1"/>
<path d="M1174.89 427.987H1141.03V432.611H1174.89V427.987Z" fill="#EBF9F1"/>
<path d="M1135.71 427.987H1112.1V432.611H1135.71V427.987Z" fill="#EBF9F1"/>
<path d="M1180.03 418.738H1151.28V423.363H1180.03V418.738Z" fill="#EBF9F1"/>
<path d="M1146.06 418.738H1118.64V423.363H1146.06V418.738Z" fill="white"/>
<path d="M1160.19 409.49H1135.98V414.113H1160.19V409.49Z" fill="#EBF9F1"/>
<path d="M1128.89 409.49H1119.96V414.113H1128.89V409.49Z" fill="#EBF9F1"/>
<path d="M1174.89 400.242H1151.28V404.867H1174.89V400.242Z" fill="white"/>
<path d="M1146.06 400.242H1122.46V404.867H1146.06V400.242Z" fill="#EBF9F1"/>
<path d="M1130.37 390.993H1112.1V395.617H1130.37V390.993Z" fill="#EBF9F1"/>
<path d="M1157.18 390.993H1141.03V395.617H1157.18V390.993Z" fill="#EBF9F1"/>
<path d="M1170.79 390.993H1162.71V395.617H1170.79V390.993Z" fill="#EBF9F1"/>
<path d="M1180.03 381.745H1151.28V386.369H1180.03V381.745Z" fill="#EBF9F1"/>
<path d="M1142.01 381.745H1118.4V386.369H1142.01V381.745Z" fill="white"/>
<path d="M1163.08 372.497H1151.28V377.121H1163.08V372.497Z" fill="#EBF9F1"/>
<path d="M1146.06 372.497H1135.98V377.121H1146.06V372.497Z" fill="#EBF9F1"/>
<path d="M1174.89 363.247H1163.08V367.872H1174.89V363.247Z" fill="#EBF9F1"/>
<path d="M1146.06 363.247H1122.46V367.872H1146.06V363.247Z" fill="#EBF9F1"/>
<path d="M1157.96 353.999H1141.03V358.623H1157.96V353.999Z" fill="#EBF9F1"/>
<path d="M1128.89 353.999H1111.96V358.623H1128.89V353.999Z" fill="#EBF9F1"/>
<path d="M1174.89 344.75H1151.28V349.374H1174.89V344.75Z" fill="white"/>
<path d="M1146.06 344.75H1122.46V349.374H1146.06V344.75Z" fill="#EBF9F1"/>
<path d="M1159.89 335.502H1136.29V340.127H1159.89V335.502Z" fill="#EBF9F1"/>
<path d="M1174.89 326.252H1151.28V330.876H1174.89V326.252Z" fill="#EBF9F1"/>
<path d="M1136.23 326.252H1112.1V330.876H1136.23V326.252Z" fill="white"/>
<path d="M1180.03 317.004H1111.96V321.628H1180.03V317.004Z" fill="#EBF9F1"/>
<path opacity="0.1" d="M1180.03 463.661H1112.1L1180.03 311.494V463.661Z" fill="#020051"/>
<path d="M1072.25 288.459H994.039V463.663H1072.25V288.459Z" fill="#D0D2D3"/>
<path d="M1072.25 302.911H1039.15V308.235H1072.25V302.911Z" fill="#EBF9F1"/>
<path d="M1033.14 302.911H1021.54V308.235H1033.14V302.911Z" fill="white"/>
<path d="M1014.88 302.911H994.039V308.235H1014.88V302.911Z" fill="#EBF9F1"/>
<path d="M1052.74 313.56H1039.15V318.885H1052.74V313.56Z" fill="#EBF9F1"/>
<path d="M1072.25 313.56H1058.66V318.885H1072.25V313.56Z" fill="#EBF9F1"/>
<path d="M1066.33 324.208H1027.34V329.533H1066.33V324.208Z" fill="#EBF9F1"/>
<path d="M1021.22 324.208H994.039V329.533H1021.22V324.208Z" fill="#EBF9F1"/>
<path d="M1072.25 334.858H1039.15V340.182H1072.25V334.858Z" fill="#EBF9F1"/>
<path d="M1033.14 334.858H1001.57V340.182H1033.14V334.858Z" fill="white"/>
<path d="M1049.41 345.506H1021.54V350.831H1049.41V345.506Z" fill="#EBF9F1"/>
<path d="M1013.37 345.506H1003.09V350.831H1013.37V345.506Z" fill="#EBF9F1"/>
<path d="M1066.33 356.156H1039.15V361.48H1066.33V356.156Z" fill="white"/>
<path d="M1033.14 356.156H1005.96V361.48H1033.14V356.156Z" fill="#EBF9F1"/>
<path d="M1015.08 366.805H994.039V372.129H1015.08V366.805Z" fill="#EBF9F1"/>
<path d="M1045.95 366.805H1027.34V372.129H1045.95V366.805Z" fill="#EBF9F1"/>
<path d="M1061.61 366.805H1052.31V372.129H1061.61V366.805Z" fill="#EBF9F1"/>
<path d="M1072.25 377.453H1039.15V382.778H1072.25V377.453Z" fill="#EBF9F1"/>
<path d="M1028.47 377.453H1001.3V382.778H1028.47V377.453Z" fill="white"/>
<path d="M1052.74 388.102H1039.15V393.426H1052.74V388.102Z" fill="#EBF9F1"/>
<path d="M1033.14 388.102H1021.54V393.426H1033.14V388.102Z" fill="#EBF9F1"/>
<path d="M1066.33 398.751H1052.74V404.075H1066.33V398.751Z" fill="#EBF9F1"/>
<path d="M1033.14 398.751H1005.96V404.075H1033.14V398.751Z" fill="#EBF9F1"/>
<path d="M1046.84 409.399H1027.34V414.723H1046.84V409.399Z" fill="#EBF9F1"/>
<path d="M1013.37 409.399H993.874V414.723H1013.37V409.399Z" fill="#EBF9F1"/>
<path d="M1066.33 420.046H1039.15V425.371H1066.33V420.046Z" fill="white"/>
<path d="M1033.14 420.046H1005.96V425.371H1033.14V420.046Z" fill="#EBF9F1"/>
<path d="M1049.07 430.696H1021.89V436.02H1049.07V430.696Z" fill="#EBF9F1"/>
<path d="M1066.33 441.345H1039.15V446.669H1066.33V441.345Z" fill="#EBF9F1"/>
<path d="M1021.82 441.345H994.039V446.669H1021.82V441.345Z" fill="white"/>
<path opacity="0.1" d="M1072.25 463.66H994.042L1072.25 288.457V463.66Z" fill="#020051"/>
<path d="M958.648 288.822H880.603V463.661H958.648V288.822Z" fill="#8CDEA4"/>
<path d="M958.647 443.925H925.618V449.238H958.647V443.925Z" fill="#EBF9F1"/>
<path d="M919.626 443.925H908.042V449.238H919.626V443.925Z" fill="white"/>
<path d="M901.401 443.925H880.603V449.238H901.401V443.925Z" fill="#EBF9F1"/>
<path d="M939.178 433.298H925.618V438.611H939.178V433.298Z" fill="#EBF9F1"/>
<path d="M958.647 433.298H945.087V438.611H958.647V433.298Z" fill="#EBF9F1"/>
<path d="M952.739 422.672H913.834V427.985H952.739V422.672Z" fill="#EBF9F1"/>
<path d="M907.725 422.672H880.603V427.985H907.725V422.672Z" fill="#EBF9F1"/>
<path d="M958.647 412.046H925.618V417.36H958.647V412.046Z" fill="#EBF9F1"/>
<path d="M919.626 412.046H888.117V417.36H919.626V412.046Z" fill="white"/>
<path d="M935.858 401.42H908.042V406.734H935.858V401.42Z" fill="#EBF9F1"/>
<path d="M899.89 401.42H889.628V406.734H899.89V401.42Z" fill="#EBF9F1"/>
<path d="M952.739 390.793H925.618V396.106H952.739V390.793Z" fill="white"/>
<path d="M919.626 390.793H892.502V396.106H919.626V390.793Z" fill="#EBF9F1"/>
<path d="M901.594 380.167H880.603V385.48H901.594V380.167Z" fill="#EBF9F1"/>
<path d="M932.398 380.167H913.834V385.48H932.398V380.167Z" fill="#EBF9F1"/>
<path d="M948.029 380.167H938.747V385.48H948.029V380.167Z" fill="#EBF9F1"/>
<path d="M958.647 369.54H925.618V374.853H958.647V369.54Z" fill="#EBF9F1"/>
<path d="M914.963 369.54H887.842V374.853H914.963V369.54Z" fill="white"/>
<path d="M939.178 358.914H925.618V364.226H939.178V358.914Z" fill="#EBF9F1"/>
<path d="M919.626 358.914H908.042V364.226H919.626V358.914Z" fill="#EBF9F1"/>
<path d="M952.739 348.286H939.178V353.6H952.739V348.286Z" fill="#EBF9F1"/>
<path d="M919.626 348.286H892.502V353.6H919.626V348.286Z" fill="#EBF9F1"/>
<path d="M933.286 337.661H913.834V342.973H933.286V337.661Z" fill="#EBF9F1"/>
<path d="M899.89 337.661H880.437V342.973H899.89V337.661Z" fill="#EBF9F1"/>
<path d="M952.739 327.033H925.618V332.347H952.739V327.033Z" fill="white"/>
<path d="M919.626 327.033H892.502V332.347H919.626V327.033Z" fill="#EBF9F1"/>
<path d="M935.512 316.406H908.391V321.72H935.512V316.406Z" fill="#EBF9F1"/>
<path d="M952.739 305.779H925.618V311.093H952.739V305.779Z" fill="#EBF9F1"/>
<path d="M908.321 305.779H880.603V311.093H908.321V305.779Z" fill="white"/>
<path d="M958.647 295.153H880.437V300.466H958.647V295.153Z" fill="#EBF9F1"/>
<path opacity="0.1" d="M958.647 463.661H880.602L958.647 288.822V463.661Z" fill="#020051"/>
<path d="M1123.03 341.464H1068.48V463.663H1123.03V341.464Z" fill="#ACD389"/>
<path d="M1123.03 351.545H1099.95V355.258H1123.03V351.545Z" fill="#EBF9F1"/>
<path d="M1095.76 351.545H1087.66V355.258H1095.76V351.545Z" fill="white"/>
<path d="M1083.02 351.545H1068.48V355.258H1083.02V351.545Z" fill="#EBF9F1"/>
<path d="M1109.42 358.972H1099.95V362.686H1109.42V358.972Z" fill="#EBF9F1"/>
<path d="M1123.03 358.972H1113.55V362.686H1123.03V358.972Z" fill="#EBF9F1"/>
<path d="M1118.9 366.399H1091.71V370.112H1118.9V366.399Z" fill="#EBF9F1"/>
<path d="M1087.44 366.399H1068.48V370.112H1087.44V366.399Z" fill="#EBF9F1"/>
<path d="M1123.03 373.826H1099.95V377.54H1123.03V373.826Z" fill="#EBF9F1"/>
<path d="M1095.76 373.826H1073.74V377.54H1095.76V373.826Z" fill="white"/>
<path d="M1107.1 381.253H1087.66V384.967H1107.1V381.253Z" fill="#EBF9F1"/>
<path d="M1081.96 381.253H1074.79V384.967H1081.96V381.253Z" fill="#EBF9F1"/>
<path d="M1118.9 388.682H1099.95V392.395H1118.9V388.682Z" fill="white"/>
<path d="M1095.76 388.682H1076.8V392.395H1095.76V388.682Z" fill="#EBF9F1"/>
<path d="M1083.15 396.108H1068.48V399.822H1083.15V396.108Z" fill="#EBF9F1"/>
<path d="M1104.69 396.108H1091.71V399.822H1104.69V396.108Z" fill="#EBF9F1"/>
<path d="M1115.61 396.108H1109.12V399.822H1115.61V396.108Z" fill="#EBF9F1"/>
<path d="M1123.03 403.536H1099.95V407.25H1123.03V403.536Z" fill="#EBF9F1"/>
<path d="M1092.5 403.536H1073.54V407.25H1092.5V403.536Z" fill="white"/>
<path d="M1109.42 410.96H1099.95V414.674H1109.42V410.96Z" fill="#EBF9F1"/>
<path d="M1095.76 410.96H1087.66V414.674H1095.76V410.96Z" fill="#EBF9F1"/>
<path d="M1118.9 418.388H1109.42V422.102H1118.9V418.388Z" fill="#EBF9F1"/>
<path d="M1095.76 418.388H1076.8V422.102H1095.76V418.388Z" fill="#EBF9F1"/>
<path d="M1105.31 425.815H1091.71V429.529H1105.31V425.815Z" fill="#EBF9F1"/>
<path d="M1081.96 425.815H1068.37V429.529H1081.96V425.815Z" fill="#EBF9F1"/>
<path d="M1118.9 433.243H1099.95V436.956H1118.9V433.243Z" fill="white"/>
<path d="M1095.76 433.243H1076.8V436.956H1095.76V433.243Z" fill="#EBF9F1"/>
<path d="M1106.86 440.669H1087.9V444.384H1106.86V440.669Z" fill="#EBF9F1"/>
<path d="M1118.9 448.097H1099.95V451.811H1118.9V448.097Z" fill="#EBF9F1"/>
<path d="M1087.86 448.097H1068.48V451.811H1087.86V448.097Z" fill="white"/>
<path opacity="0.1" d="M1123.03 463.661H1068.49L1123.03 341.463V463.661Z" fill="#020051"/>
<path d="M871.763 341.464H817.213V463.663H871.763V341.464Z" fill="#8CDEA4"/>
<path d="M871.763 351.545H848.678V355.258H871.763V351.545Z" fill="#EBF9F1"/>
<path d="M844.487 351.545H836.393V355.258H844.487V351.545Z" fill="white"/>
<path d="M831.752 351.545H817.213V355.258H831.752V351.545Z" fill="#EBF9F1"/>
<path d="M858.154 358.972H848.678V362.686H858.154V358.972Z" fill="#EBF9F1"/>
<path d="M871.763 358.972H862.285V362.686H871.763V358.972Z" fill="#EBF9F1"/>
<path d="M867.634 366.399H840.44V370.112H867.634V366.399Z" fill="#EBF9F1"/>
<path d="M836.171 366.399H817.213V370.112H836.171V366.399Z" fill="#EBF9F1"/>
<path d="M871.763 373.826H848.678V377.54H871.763V373.826Z" fill="#EBF9F1"/>
<path d="M844.487 373.826H822.466V377.54H844.487V373.826Z" fill="white"/>
<path d="M855.833 381.253H836.393V384.967H855.833V381.253Z" fill="#EBF9F1"/>
<path d="M830.694 381.253H823.523V384.967H830.694V381.253Z" fill="#EBF9F1"/>
<path d="M867.634 388.682H848.678V392.395H867.634V388.682Z" fill="white"/>
<path d="M844.487 388.682H825.531V392.395H844.487V388.682Z" fill="#EBF9F1"/>
<path d="M831.884 396.108H817.213V399.822H831.884V396.108Z" fill="#EBF9F1"/>
<path d="M853.415 396.108H840.44V399.822H853.415V396.108Z" fill="#EBF9F1"/>
<path d="M864.342 396.108H857.854V399.822H864.342V396.108Z" fill="#EBF9F1"/>
<path d="M871.763 403.536H848.678V407.25H871.763V403.536Z" fill="#EBF9F1"/>
<path d="M841.23 403.536H822.274V407.25H841.23V403.536Z" fill="white"/>
<path d="M858.154 410.96H848.678V414.674H858.154V410.96Z" fill="#EBF9F1"/>
<path d="M844.487 410.96H836.393V414.674H844.487V410.96Z" fill="#EBF9F1"/>
<path d="M867.634 418.388H858.154V422.102H867.634V418.388Z" fill="#EBF9F1"/>
<path d="M844.487 418.388H825.531V422.102H844.487V418.388Z" fill="#EBF9F1"/>
<path d="M854.036 425.815H840.44V429.529H854.036V425.815Z" fill="#EBF9F1"/>
<path d="M830.694 425.815H817.098V429.529H830.694V425.815Z" fill="#EBF9F1"/>
<path d="M867.634 433.243H848.678V436.956H867.634V433.243Z" fill="white"/>
<path d="M844.487 433.243H825.531V436.956H844.487V433.243Z" fill="#EBF9F1"/>
<path d="M855.593 440.669H836.635V444.384H855.593V440.669Z" fill="#EBF9F1"/>
<path d="M867.634 448.097H848.678V451.811H867.634V448.097Z" fill="#EBF9F1"/>
<path d="M836.588 448.097H817.213V451.811H836.588V448.097Z" fill="white"/>
<path opacity="0.1" d="M871.762 463.661H817.216L871.762 341.463V463.661Z" fill="#020051"/>
<path d="M1111.23 453.285L1222.54 463.663H111.516L193.533 452.379L261.23 444.714L329.352 437.507C329.352 437.507 358.111 436.867 367.693 440.234C377.279 443.599 471.884 438.041 471.884 438.041C471.884 438.041 510.572 432.721 517.772 432.045C524.967 431.37 580.687 424.511 607.43 426.588C634.173 428.666 662.299 424.923 685.616 428.152C708.939 431.379 760.107 426.129 776.7 424.003C793.292 421.877 915.005 438.138 923.214 439.97C931.424 441.805 1032.77 434.617 1050.03 438.527C1067.28 442.434 1111.23 453.285 1111.23 453.285Z" fill="#5EB85C"/>
<path d="M494.053 52.8686C494.053 52.8686 493.362 45.1469 501.007 43.3706C507.852 41.7829 512.523 44.0783 512.523 44.0783C512.523 44.0783 506.602 43.1473 502.224 45.6069C500.458 46.5938 496.015 56.5865 496.015 56.5865C496.015 56.5865 484.964 54.4112 481.911 56.3801C478.86 58.3491 476.439 63.0106 476.439 63.0106C476.439 63.0106 480.301 51.8257 483.665 51.3735C487.029 50.9241 494.053 52.8686 494.053 52.8686Z" fill="#5EB85C"/>
<path d="M515.292 70.4582C515.292 70.4582 517.662 66.115 522.345 67.8865C526.536 69.4752 528.195 72.3525 528.195 72.3525C528.195 72.3525 525.39 69.7552 522.197 69.5046C520.912 69.4023 515.011 73.1281 515.011 73.1281C515.011 73.1281 509.924 68.0508 507.609 68.0093C505.296 67.9701 502.361 69.5853 502.361 69.5853C502.361 69.5853 508.373 65.0199 510.316 65.9745C512.261 66.933 515.292 70.4582 515.292 70.4582Z" fill="#5EB85C"/>
<path d="M862.638 501.325C872.545 499.779 880.297 488.901 882.558 476C884.819 463.1 883.777 451.023 876.047 457.27C868.318 463.516 865.114 454.166 867.297 446.808C873.219 426.853 865.357 392.087 856.506 402.931C847.655 413.774 856.466 411.267 845.525 398.885C834.584 386.503 811.501 383.01 821.307 402.769C831.113 422.528 846.436 438.751 836.56 433.814C826.683 428.876 811.277 430.252 821.123 441.674C830.968 453.096 846.295 468.394 838.596 468.156C830.898 467.918 803.442 458.731 825.346 478.864C847.25 498.997 862.638 501.325 862.638 501.325Z" fill="#5F9133"/>
<path d="M831.129 398.44C836.089 406.092 840.575 414.04 844.56 422.24C848.569 430.415 852.075 438.844 854.761 447.516L855.743 450.774L855.988 451.588L856.193 452.413L856.603 454.062L857.423 457.358L858.059 460.691C858.258 461.805 858.505 462.903 858.664 464.029L859.162 467.4C859.461 469.651 859.756 471.903 860 474.161C860.497 478.674 860.866 483.197 861.106 487.73C861.33 492.249 861.45 496.817 861.311 501.281L863.966 501.369C863.998 496.715 863.763 492.163 863.426 487.582C863.075 483.012 862.592 478.457 861.977 473.919C861.676 471.649 861.324 469.387 860.967 467.127L860.384 463.744C860.196 462.616 859.917 461.494 859.688 460.369L858.959 457L858.047 453.68L857.591 452.021L857.363 451.191L857.096 450.374L856.025 447.108C853.1 438.421 849.372 430.043 845.153 421.942C840.964 413.829 836.281 405.98 831.129 398.44Z" fill="white"/>
<path d="M854.513 442.421C854.494 440.103 854.618 437.786 854.883 435.483C855.139 433.172 855.504 430.869 855.952 428.58C856.401 426.291 856.931 424.018 857.543 421.76C858.156 419.506 858.843 417.269 859.649 415.072C858.748 417.232 857.962 419.441 857.249 421.674C856.538 423.907 855.906 426.166 855.353 428.449C854.803 430.731 854.333 433.035 853.972 435.363C853.599 437.696 853.371 440.051 853.287 442.412L854.513 442.421Z" fill="white"/>
<path d="M863.525 486.956C863.85 486.267 864.214 485.598 864.616 484.952C865.032 484.291 865.466 483.635 865.938 483.003C866.876 481.726 867.91 480.521 869.03 479.399C870.156 478.265 871.363 477.214 872.643 476.257C873.272 475.756 873.95 475.327 874.617 474.874C875.288 474.428 875.997 474.044 876.69 473.625C875.96 473.968 875.208 474.277 874.49 474.652C873.775 475.035 873.044 475.396 872.358 475.834C870.953 476.671 869.611 477.61 868.344 478.643C867.063 479.681 865.863 480.814 864.753 482.032C864.191 482.64 863.662 483.279 863.147 483.935C862.621 484.609 862.136 485.314 861.695 486.046L863.525 486.956Z" fill="white"/>
<path d="M862.297 476.503C860.915 475.188 859.518 473.95 858.088 472.727C856.658 471.508 855.201 470.325 853.716 469.178C852.225 468.037 850.702 466.944 849.147 465.897C847.587 464.864 845.975 463.91 844.318 463.04C845.881 464.053 847.392 465.143 848.845 466.309C850.289 467.482 851.693 468.698 853.057 469.957C854.416 471.222 855.744 472.518 857.04 473.844C858.331 475.169 859.609 476.531 860.812 477.905L862.297 476.503Z" fill="white"/>
<path d="M858.8 458.251C857.1 456.564 855.341 455.023 853.516 453.528C851.691 452.041 849.805 450.638 847.858 449.317C845.909 448.005 843.888 446.805 841.803 445.721C839.716 444.657 837.547 443.76 835.317 443.04C837.491 443.885 839.594 444.901 841.607 446.079C843.604 447.27 845.532 448.572 847.381 449.981C849.224 451.394 851.002 452.885 852.713 454.454C854.414 456.019 856.078 457.663 857.599 459.359L858.8 458.251Z" fill="white"/>
<path d="M868.293 510.667C859.747 508.88 853.037 499.145 851.056 487.917C849.075 476.689 849.945 466.323 856.625 472.063C863.305 477.804 866.243 469.828 864.144 463.443C858.76 447.059 865.685 416.344 873.343 426.1C881.001 435.856 879.834 428.148 882.801 423.114C889.836 411.179 912.1 410.981 903.692 427.571C895.285 444.161 882.112 457.45 890.616 453.644C899.12 449.838 912.407 451.73 903.945 461.129C895.484 470.528 882.305 483.018 888.943 483.165C895.58 483.312 919.231 476.646 900.393 493.005C881.556 509.364 868.293 510.667 868.293 510.667Z" fill="#70B33B"/>
<path d="M895.214 423.389C890.751 429.737 886.706 436.368 883.103 443.239C879.433 450.095 876.328 457.238 873.819 464.596L872.906 467.37C872.614 468.299 872.381 469.246 872.115 470.183C871.864 471.124 871.586 472.06 871.356 473.007L870.747 475.871C870.309 477.779 870.014 479.697 869.692 481.614L869.252 484.497L868.856 487.387C868.354 491.243 867.962 495.113 867.679 498.998C867.413 502.889 867.228 506.758 867.272 510.704L869.314 510.631C869.188 506.829 869.284 502.948 869.464 499.105C869.657 495.254 869.962 491.408 870.378 487.568L870.708 484.691L871.082 481.82C871.36 479.911 871.612 477.991 872.002 476.112L872.539 473.278C872.745 472.339 872.999 471.409 873.227 470.474C873.469 469.542 873.679 468.601 873.947 467.676L874.792 464.91C877.126 457.538 880.058 450.368 883.558 443.472C887.004 436.533 890.898 429.824 895.214 423.389Z" fill="white"/>
<path d="M868.99 497.477C868.058 496.052 867.077 494.729 866.043 493.421C865.009 492.12 863.926 490.863 862.792 489.651C861.668 488.433 860.472 487.283 859.237 486.185C857.999 485.092 856.698 484.074 855.34 483.136C856.61 484.178 857.817 485.295 858.954 486.48C860.084 487.666 861.167 488.894 862.173 490.183C863.185 491.466 864.144 492.786 865.052 494.142C865.951 495.494 866.818 496.897 867.574 498.294L868.99 497.477Z" fill="white"/>
<path d="M869.613 490.477C870.625 489.623 871.708 488.792 872.799 488.001C873.895 487.209 875.017 486.453 876.166 485.734C877.317 485.021 878.499 484.358 879.711 483.745C880.93 483.142 882.188 482.62 883.476 482.183C882.147 482.508 880.841 482.921 879.566 483.418C878.294 483.928 877.044 484.493 875.815 485.112C874.592 485.736 873.39 486.401 872.208 487.106C871.026 487.816 869.874 488.547 868.727 489.356L869.613 490.477Z" fill="white"/>
<path d="M872.016 475.023C873.351 473.561 874.76 472.168 876.237 470.848C877.716 469.521 879.257 468.264 880.86 467.078C882.468 465.901 884.146 464.823 885.886 463.852C887.641 462.896 889.478 462.097 891.375 461.466C889.44 462.003 887.556 462.71 885.746 463.579C883.941 464.47 882.192 465.47 880.51 466.575C878.832 467.688 877.209 468.88 875.64 470.15C874.063 471.42 872.553 472.769 871.115 474.193L872.016 475.023Z" fill="white"/>
<path d="M871.32 433.552C871.478 435.687 871.762 437.811 872.089 439.927C872.417 442.045 872.819 444.149 873.237 446.25C873.657 448.351 874.121 450.442 874.603 452.53C875.088 454.618 875.592 456.698 876.137 458.776L876.923 458.554C876.318 456.51 875.747 454.447 875.197 452.383C874.651 450.316 874.122 448.245 873.636 446.163C873.153 444.081 872.685 441.994 872.291 439.893C871.897 437.791 871.546 435.681 871.32 433.552Z" fill="white"/>
<path d="M343.319 149.426L558.797 95.9844L1025.41 313.818L1017.7 319.399L180.807 350.304L176.086 345.746L343.319 149.426Z" fill="#405068" fill-opacity="0.9"/>
<path d="M343.319 149.426L1025.41 313.818L1017.7 319.399L180.807 350.304L176.086 345.746L343.319 149.426Z" fill="#051C3F"/>
<path opacity="0.1" d="M1012.12 519.304C1012.12 519.304 579.914 570.752 436.02 586.29C274.53 603.728 168.43 521.121 168.43 521.121C168.43 521.121 741.491 499.648 744.366 499.648C747.241 499.648 1012.12 519.304 1012.12 519.304Z" fill="#0F1D1F"/>
<path d="M676.277 533.894L405.29 553.765L238.764 509.724L388.962 499.377L676.277 533.894Z" fill="#62738C"/>
<path d="M1017.7 338.632L343.319 204.723L180.807 365.396L596.612 395.01L1017.7 338.632Z" fill="#BDC7D8"/>
<path d="M707.294 531.68L953.803 513.543L844.774 506.928L707.294 514.496V531.68Z" fill="#62738C"/>
<path d="M844.774 368.034L707.294 351.993V514.495L844.774 506.928V368.034Z" fill="#455C66"/>
<path d="M844.774 368.034L953.803 354.501L707.294 315.755V351.993L844.774 368.034Z" fill="#051C3F"/>
<path d="M405.29 501.331L676.278 533.894V341.094L405.255 396.691L405.29 501.331Z" fill="#CBD6DE"/>
<path opacity="0.1" d="M405.29 501.331L580.934 522.437L676.278 341.094L405.255 396.691L405.29 501.331Z" fill="#0F1D1F"/>
<path opacity="0.1" d="M405.29 501.331L521.929 515.347L676.278 341.094L405.255 396.691L405.29 501.331Z" fill="#0F1D1F"/>
<path d="M676.278 341.094L405.255 396.691L405.29 307.296L676.278 341.094Z" fill="#051C3F"/>
<path d="M676.278 310.88L405.29 268.286L405.255 274.241L665.002 313.818L676.278 310.88Z" fill="#455C66"/>
<path d="M355.807 557.461L208.044 506.431V356.901L355.807 232.444V557.461Z" fill="#CBD6DE"/>
<path d="M953.803 354.501V513.542L933.664 515.019V351.335L953.803 354.501Z" fill="#EFF2F8"/>
<path d="M953.803 354.501L355.807 260.509V232.444L953.803 338.186V354.501Z" fill="#EFF2F8"/>
<path opacity="0.1" d="M953.803 348.724L355.807 250.88V232.444L953.803 338.186V348.724Z" fill="#0F1D1F"/>
<path d="M933.664 515.019L915.226 513.872V353.697L933.664 351.335V515.019Z" fill="#CBD6DE"/>
<path d="M343.319 164.771V204.723L180.807 365.396V350.304L343.319 164.771Z" fill="#CBD6DE"/>
<path d="M1017.7 338.632L343.319 204.723V164.771L1017.7 319.399V338.632Z" fill="#EFF2F8"/>
<path d="M792.294 369.488L837.372 374.436V499.982L792.294 502.052V369.488ZM735.718 504.651L783.773 502.444V368.665L735.718 363.278V504.651ZM676.542 507.368L726.941 505.054V362.314L676.542 356.782L676.542 507.368Z" fill="#A6DCF4"/>
<path d="M355.807 260.509V557.461L405.29 553.765V268.287L355.807 260.509Z" fill="#EFF2F8"/>
<path d="M707.295 531.68L676.278 533.894V310.88L707.295 315.755V531.68Z" fill="#EFF2F8"/>
<path d="M405.29 341.895L665.002 367.28V313.818L405.255 274.241L405.29 341.895Z" fill="#455C66"/>
<path d="M665.002 532.539L676.278 533.894V310.88L665.002 313.818V532.539Z" fill="#CBD6DE"/>
<path d="M655.418 369.027L405.255 345.168L405.29 341.895L665.002 367.28L655.418 369.027Z" fill="#405068"/>
<path d="M406.351 287.919L665.818 324.066L665.819 316.985L406.268 278.887L406.351 287.919Z" fill="#EFF2F8"/>
<path d="M406.468 300.659L665.815 334.058L665.817 326.981L406.385 291.636L406.468 300.659Z" fill="#EFF2F8"/>
<path d="M406.585 313.388L665.813 344.043L665.815 336.972L406.502 304.373L406.585 313.388Z" fill="#EFF2F8"/>
<path d="M406.701 326.104L665.81 354.02L665.812 346.954L406.619 317.098L406.701 326.104Z" fill="#EFF2F8"/>
<path d="M406.818 338.81L665.808 363.99L665.81 356.929L406.735 329.812L406.818 338.81Z" fill="#EFF2F8"/>
<path d="M676.277 310.88L405.29 268.286V284.262L665.789 320.76L676.277 310.88Z" fill="#405068"/>
<path opacity="0.1" d="M933.664 351.335L915.226 375.552V353.697L933.664 351.335Z" fill="#0F1D1F"/>
<path opacity="0.1" d="M844.774 368.034L707.294 351.993V427.145L844.774 431.784V368.034Z" fill="#0F1D1F"/>
<path d="M953.803 513.542L355.807 557.461V565.099L954.014 516.653L953.803 513.542Z" fill="#405068"/>
<path d="M355.807 557.461V565.099L207.766 511.606V506.43L355.807 557.461Z" fill="#051C3F"/>
<path d="M772.974 451.023C772.627 450.874 772.341 450.611 772.166 450.276C771.99 449.942 771.936 449.558 772.011 449.188C772.087 448.818 772.288 448.485 772.581 448.246C772.873 448.007 773.239 447.877 773.617 447.876L785.879 447.846C786.095 447.845 786.309 447.886 786.509 447.968C786.708 448.049 786.89 448.169 787.043 448.321C787.197 448.473 787.318 448.654 787.402 448.853C787.485 449.052 787.528 449.265 787.528 449.48C787.529 449.696 787.487 449.91 787.405 450.109C787.322 450.308 787.201 450.489 787.049 450.642C786.896 450.794 786.715 450.915 786.516 450.998C786.316 451.08 786.103 451.123 785.887 451.123L773.625 451.153C773.402 451.154 773.18 451.11 772.974 451.023Z" fill="#21201E"/>
<path d="M774.064 448.426C773.721 448.279 773.44 448.018 773.267 447.688C773.095 447.357 773.041 446.978 773.116 446.613C773.191 446.248 773.389 445.92 773.678 445.684C773.967 445.448 774.328 445.319 774.701 445.318C787.767 445.292 787.77 445.292 788.182 446.315C788.261 446.513 788.3 446.724 788.298 446.937C788.295 447.149 788.25 447.359 788.166 447.554C788.081 447.75 787.959 447.926 787.807 448.075C787.654 448.223 787.473 448.339 787.275 448.418C787.069 448.504 786.846 448.544 786.622 448.535C785.906 448.535 774.707 448.556 774.707 448.556C774.486 448.556 774.268 448.512 774.064 448.426Z" fill="#CBD6DE"/>
<path d="M543.126 328.463C542.796 328.28 542.538 327.989 542.398 327.639C542.257 327.288 542.242 326.9 542.355 326.54C542.468 326.179 542.702 325.869 543.017 325.661C543.333 325.453 543.711 325.36 544.087 325.398L556.288 326.614C556.503 326.635 556.711 326.697 556.902 326.799C557.093 326.9 557.261 327.038 557.398 327.205C557.536 327.371 557.638 327.563 557.701 327.77C557.764 327.976 557.785 328.193 557.763 328.407C557.742 328.622 557.678 328.83 557.576 329.02C557.474 329.21 557.335 329.378 557.168 329.515C557 329.651 556.808 329.753 556.601 329.815C556.394 329.876 556.177 329.897 555.962 329.874L543.761 328.659C543.538 328.638 543.322 328.571 543.126 328.463Z" fill="#21201E"/>
<path d="M544.475 325.991C544.149 325.81 543.896 325.522 543.757 325.176C543.619 324.829 543.605 324.446 543.716 324.091C543.828 323.735 544.059 323.429 544.37 323.224C544.681 323.019 545.054 322.927 545.425 322.964C558.426 324.265 558.429 324.265 558.735 325.325C558.793 325.53 558.811 325.744 558.786 325.955C558.762 326.166 558.696 326.371 558.592 326.556C558.488 326.742 558.349 326.906 558.182 327.037C558.015 327.169 557.823 327.267 557.619 327.325C557.404 327.39 557.178 327.407 556.956 327.375C556.244 327.303 545.101 326.186 545.101 326.186C544.882 326.163 544.668 326.097 544.475 325.991Z" fill="#CBD6DE"/>
<path d="M735.218 195.526L840 263L766.824 243.968L658 173L735.218 195.526Z" fill="#2D4248"/>
<path d="M647.319 170.352L757 241L684.29 222.084L581 151L647.319 170.352Z" fill="#2D4248"/>
<path d="M571.744 148.264L674 219L598.382 197.641L502 128L571.744 148.264Z" fill="#2D4248"/>
<g filter="url(#filter0_d)">
<path d="M737.997 191.482L842 260L769.11 240.276L661.105 168.22L737.997 191.482ZM583.825 144.845L686.961 217.408L759.85 237.132L650.287 164.95L583.825 144.845ZM505 121L600.569 191.877L675.855 214.036L574.433 142.004L505 121Z" fill="url(#paint0_linear)"/>
</g>
<path opacity="0.1" d="M318.517 509.913C317.918 509.981 317.169 510.452 321.055 511.416C341.938 516.6 398.125 528.734 419.526 533.165C445.572 538.558 464.225 539.067 485.735 539.067C507.245 539.067 571.704 533.713 581.475 532.183C591.246 530.653 571.691 525.09 546.184 521.422C519.19 517.54 407.376 503.802 407.376 503.802C407.376 503.802 321.877 509.53 318.517 509.913Z" fill="#0F1D1F"/>
<path opacity="0.1" d="M334.598 509.435C334.106 509.492 333.491 509.887 336.684 510.697C353.848 515.047 400.028 525.23 417.618 528.949C439.025 533.475 454.356 533.902 472.035 533.902C489.715 533.902 546.281 530.134 554.312 528.85C562.343 527.565 542.842 520.967 521.718 519.093C500.594 517.22 407.632 504.306 407.632 504.306C407.632 504.306 337.36 509.114 334.598 509.435Z" fill="#0F1D1F"/>
<path d="M353.387 491.561L373.929 501.424L421.007 510.351L454.395 509.232L508.296 506.544L492.596 466.099L355.525 469.64C355.05 472.868 354.405 476.069 353.592 479.229C352.248 484.443 353.387 491.561 353.387 491.561Z" fill="#151717"/>
<path d="M355.795 491.561L376.337 501.424L423.416 510.351L456.803 509.232L510.704 506.544L495.004 466.099L357.933 469.64C357.458 472.868 356.813 476.069 356 479.229C354.657 484.443 355.795 491.561 355.795 491.561Z" fill="#151717"/>
<path d="M447.544 528.687C453.507 528.687 458.341 517.707 458.341 504.163C458.341 490.619 453.507 479.64 447.544 479.64C441.58 479.64 436.746 490.619 436.746 504.163C436.746 517.707 441.58 528.687 447.544 528.687Z" fill="#162C30"/>
<path d="M447.543 479.64H433.976L433.72 529.291L447.543 528.687V479.64Z" fill="#162C30"/>
<path d="M433.72 529.291C439.915 529.291 444.937 518.176 444.937 504.466C444.937 490.755 439.915 479.64 433.72 479.64C427.525 479.64 422.503 490.755 422.503 504.466C422.503 518.176 427.525 529.291 433.72 529.291Z" fill="#162C30"/>
<path d="M432.998 523.473C437.564 523.473 441.265 514.963 441.265 504.465C441.265 493.968 437.564 485.458 432.998 485.458C428.432 485.458 424.731 493.968 424.731 504.465C424.731 514.963 428.432 523.473 432.998 523.473Z" fill="#F0F2F8"/>
<path d="M432.82 521.577C436.839 521.577 440.097 513.916 440.097 504.465C440.097 495.015 436.839 487.354 432.82 487.354C428.801 487.354 425.543 495.015 425.543 504.465C425.543 513.916 428.801 521.577 432.82 521.577Z" fill="#162C30"/>
<path d="M431.816 486.057L433.283 501.541L425.806 495.933L425.233 499.212L432.998 505.105L426.73 515.631L427.691 518.507L434.208 507.682L436.746 520.957L438.122 518.566L435.722 505.07L440.968 501.244L440.534 497.37L435.419 501.285L433.976 485.857L431.816 486.057Z" fill="#F0F2F8"/>
<path d="M436.6 504.466C436.6 507.503 435.529 509.966 434.208 509.966C432.887 509.966 431.816 507.503 431.816 504.466C431.816 501.428 432.887 498.966 434.208 498.966C435.529 498.966 436.6 501.428 436.6 504.466Z" fill="#A6B3C6"/>
<path d="M436.256 504.466C436.256 505.913 435.746 507.088 435.116 507.088C434.486 507.088 433.976 505.913 433.976 504.466C433.976 503.018 434.486 501.844 435.116 501.844C435.746 501.844 436.256 503.018 436.256 504.466Z" fill="#F0F2F8"/>
<path d="M538.872 523.478C547.99 523.478 555.382 513.391 555.382 500.949C555.382 488.506 547.99 478.419 538.872 478.419C529.754 478.419 522.362 488.506 522.362 500.949C522.362 513.391 529.754 523.478 538.872 523.478Z" fill="#162C30"/>
<path d="M539.048 478.419H529.137L530.269 524.191L539.048 523.478V478.419Z" fill="#162C30"/>
<path d="M530.013 524.181C538.79 524.181 545.906 513.97 545.906 501.374C545.906 488.778 538.79 478.566 530.013 478.566C521.236 478.566 514.12 488.778 514.12 501.374C514.12 513.97 521.236 524.181 530.013 524.181Z" fill="#162C30"/>
<path d="M528.99 518.836C535.459 518.836 540.703 511.018 540.703 501.373C540.703 491.729 535.459 483.911 528.99 483.911C522.521 483.911 517.276 491.729 517.276 501.373C517.276 511.018 522.521 518.836 528.99 518.836Z" fill="#F0F2F8"/>
<path d="M528.737 517.094C534.432 517.094 539.048 510.056 539.048 501.373C539.048 492.691 534.432 485.653 528.737 485.653C523.043 485.653 518.427 492.691 518.427 501.373C518.427 510.056 523.043 517.094 528.737 517.094Z" fill="#162C30"/>
<path d="M527.314 484.462L528.508 498.687L518.8 493.535L517.987 496.548L528.105 501.962L520.108 511.631L521.47 514.273L529.819 504.329L534.3 516.525L536.25 514.328L531.964 501.929L540.282 498.414L539.667 494.856L531.535 498.452L530.375 484.279L527.314 484.462Z" fill="#F0F2F8"/>
<path d="M533.355 501.373C533.355 504.164 531.838 506.426 529.966 506.426C528.094 506.426 526.577 504.164 526.577 501.373C526.577 498.583 528.094 496.321 529.966 496.321C531.838 496.321 533.355 498.583 533.355 501.373Z" fill="#A6B3C6"/>
<path d="M532.215 501.373C532.215 502.704 531.491 503.782 530.599 503.782C529.707 503.782 528.984 502.704 528.984 501.373C528.984 500.043 529.707 498.965 530.599 498.965C531.491 498.965 532.215 500.043 532.215 501.373Z" fill="#F0F2F8"/>
<path d="M527.102 444.607C525.61 445.545 525.744 449.118 524.736 451.19C524.736 451.19 523.016 452.493 523.715 453.482C523.893 453.772 524.152 454.004 524.46 454.149C524.769 454.294 525.112 454.347 525.45 454.3C525.912 454.213 526.667 453.459 527.116 452.908C529.043 452.614 530.943 452.164 532.797 451.562C535.184 450.756 536.331 446.706 535.478 444.574C534.776 442.819 529.38 443.174 527.102 444.607Z" fill="#3C96C5"/>
<path d="M378.281 494.299C378.281 504.674 374.926 513.085 370.79 513.085C366.653 513.085 363.298 504.674 363.298 494.299C363.298 483.924 366.652 475.515 370.79 475.515C374.927 475.515 378.281 483.924 378.281 494.299Z" fill="#162C30"/>
<path d="M370.789 475.515H361.377L361.2 513.549L370.789 513.085V475.515Z" fill="#162C30"/>
<path d="M368.982 494.531C368.982 505.033 365.497 513.548 361.2 513.548C356.902 513.548 353.417 505.033 353.417 494.531C353.417 484.029 356.902 475.515 361.2 475.515C365.497 475.515 368.982 484.029 368.982 494.531Z" fill="#162C30"/>
<path d="M366.434 494.532C366.434 502.572 363.866 509.092 360.698 509.092C357.531 509.092 354.962 502.572 354.962 494.532C354.962 486.49 357.531 479.971 360.698 479.971C363.866 479.971 366.434 486.49 366.434 494.532Z" fill="#F0F2F8"/>
<path d="M365.624 494.532C365.624 501.771 363.363 507.639 360.575 507.639C357.787 507.639 355.526 501.771 355.526 494.532C355.526 487.293 357.787 481.424 360.575 481.424C363.363 481.424 365.624 487.293 365.624 494.532Z" fill="#162C30"/>
<path d="M359.878 480.43L360.896 492.292L355.709 487.996L355.311 490.507L360.698 495.022L356.349 503.084L357.016 505.287L361.537 496.996L363.298 507.165L364.253 505.333L362.587 494.995L366.227 492.064L365.927 489.096L362.378 492.095L361.377 480.278L359.878 480.43Z" fill="#F0F2F8"/>
<path d="M363.198 494.531C363.198 496.858 362.454 498.745 361.537 498.745C360.621 498.745 359.878 496.858 359.878 494.531C359.878 492.205 360.621 490.318 361.537 490.318C362.454 490.318 363.198 492.204 363.198 494.531Z" fill="#A6B3C6"/>
<path d="M362.959 494.532C362.959 495.641 362.605 496.539 362.168 496.539C361.731 496.539 361.377 495.641 361.377 494.532C361.377 493.422 361.731 492.523 362.168 492.523C362.605 492.523 362.959 493.422 362.959 494.532Z" fill="#F0F2F8"/>
<path d="M353.387 491.561L353.343 487.177C353.343 487.177 353.757 470.837 360.426 471.188C365.904 471.476 368.21 478.243 369.904 485.73C371.329 492.026 372.279 501.508 375.742 502.036C383.194 503.171 392.193 504.722 399.924 505.887C407.565 507.039 419.962 510.351 419.962 510.351C418.829 497.347 421.115 471.044 432.359 471.62C442.755 472.152 446.45 491.561 448.36 513.548C450.677 514.854 471.556 515.966 481.084 515.966C491.247 515.966 539.636 514.391 545.665 513.662C551.694 512.933 556 512.611 559.031 506.031C564.004 495.233 563.582 485.27 562.675 481.411C561.017 474.356 559.215 461.757 533.268 452.039C532.396 451.712 527.882 451.968 526.925 451.751C507.464 434.041 486.129 420.291 468.614 417.915C451.547 415.6 423.89 414.449 403.384 413.596C389.545 413.02 375.882 420.507 364.206 434.329C360.097 437.568 357.11 439.728 357.11 439.728C357.11 439.728 351.741 462.513 350.768 464.241C349.531 466.436 350.912 489.041 353.387 491.561Z" fill="#3C96C5"/>
<path opacity="0.1" d="M449.658 518.27C449.658 518.27 450.09 496.673 446.054 483.57C443.061 473.854 438.602 467.561 431.35 467.445C422.412 467.301 415.061 489.762 420.106 510.783C421.747 517.62 449.658 518.27 449.658 518.27Z" fill="#3C96C5"/>
<path opacity="0.1" d="M374.042 504.549C374.042 504.549 372.678 486.916 370.214 479.387C368.054 472.784 364.467 468.32 359.741 468.236C353.917 468.133 350.507 484.632 353.795 499.696C354.864 504.596 374.042 504.549 374.042 504.549Z" fill="#3C96C5"/>
<path opacity="0.2" d="M434.481 450.743L368.283 437.245L363.958 434.545L356.822 439.512C357.327 440.442 360.885 443.06 363.201 443.724C377.905 447.935 411.551 453.09 423.746 454.846L426.577 451.982L430.708 452.474L427.679 455.374C439.396 456.833 453.249 457.517 434.481 450.743Z" fill="#3C96C5"/>
<path opacity="0.2" d="M393.712 496.199C403.277 497.825 416.609 500.525 413.759 501.543C410.909 502.561 399.281 499.887 391.707 498.316C373.628 494.568 365.212 491.355 393.712 496.199Z" fill="white"/>
<path d="M450.811 517.365C449.405 516.501 448.631 515.276 448.36 513.549C448.36 513.549 470.853 516.309 472.831 515.013C479.146 510.875 487.934 502.936 502.995 502.452C510.631 502.206 551.143 500.722 555.9 500.938C560.657 501.154 555.8 516.684 551.246 517.245C539.832 518.65 499.495 520.556 489.404 520.268C479.452 519.984 450.811 517.365 450.811 517.365Z" fill="#162C30"/>
<path fill-rule="evenodd" clip-rule="evenodd" d="M364.469 447.144L370.2 448.752L369.838 447.277L364.107 445.669L364.469 447.144Z" fill="#162C30"/>
<path fill-rule="evenodd" clip-rule="evenodd" d="M364.518 446.906L370.249 448.515L369.887 447.04L364.157 445.431L364.518 446.906Z" fill="#A6B3C6"/>
<path fill-rule="evenodd" clip-rule="evenodd" d="M388.866 453.233L396.821 454.701L396.28 453.048L388.325 451.579L388.866 453.233Z" fill="#162C30"/>
<path fill-rule="evenodd" clip-rule="evenodd" d="M388.901 452.957L396.857 454.426L396.316 452.773L388.36 451.303L388.901 452.957Z" fill="#A6B3C6"/>
<path d="M533.313 471.097C534.06 470.328 533.831 468.896 532.801 467.899C531.772 466.901 530.332 466.716 529.585 467.485C528.839 468.254 529.068 469.685 530.097 470.683C531.127 471.68 532.567 471.865 533.313 471.097Z" fill="#D0D2D3"/>
<path opacity="0.1" d="M420.134 467.402C417.583 478.387 416.045 498.293 412.034 497.759C407.168 497.111 382.59 492.533 379.419 491.669C376.247 490.805 372.301 474.425 369.652 467.733C367.201 461.541 358.696 448.007 353.219 480.403C352.545 484.388 352.302 472.221 352.642 467.877C353.363 458.662 355.856 454.481 380.392 456.742C389.295 457.562 421.618 461.01 420.134 467.402Z" fill="#231F20"/>
<path opacity="0.1" d="M449.912 476.427C447.893 472.045 454.092 472.079 468.398 482.058C477.172 488.178 487.39 494.816 482.291 498.96C478.182 502.298 469.966 506.957 464.117 506.679C458.268 506.401 457.404 503.346 456.806 500.629C456.04 497.151 451.932 480.808 449.912 476.427Z" fill="#231F20"/>
<path opacity="0.1" d="M544.515 479.402C538.136 479.288 525.588 479.776 518.067 479.994C508.475 480.271 501.021 482.969 494.353 488.785C491.004 491.706 504.562 493.408 518.921 493.274C528.254 493.187 539.414 492.74 545.803 492.285C552.183 491.832 559.462 492.105 557.916 488.379C556.624 485.265 552.792 479.551 544.515 479.402Z" fill="#231F20"/>
<path d="M530.457 452.038C509.41 452.398 458.812 451.031 443.027 449.303C433.08 433.465 422.124 415.971 403.384 413.596C430.774 414.028 454.384 415.305 468.831 416.835C483.102 418.347 510.347 433.465 530.457 452.038Z" fill="#162C30"/>
<path d="M529.159 452.687C488.724 423.747 420.322 416.835 403.312 413.38C430.701 413.812 445.504 414.583 459.965 415.972C481.701 418.059 509.049 434.113 529.159 452.687Z" fill="#6C8294"/>
<path d="M372.175 496.96C372.175 496.96 384.202 499.76 395.312 502.072C405.691 504.231 411.169 505.743 419.782 507.903C420.136 508.669 420.533 509.414 420.971 510.135L421.111 511.035C421.111 511.035 398.735 506.155 391.811 505.167C378.693 503.296 375 503.046 373.977 502C372.953 500.954 372.175 496.96 372.175 496.96Z" fill="#162C30"/>
<path d="M434.481 450.743C405.218 448.151 371.578 440.762 367.202 439.512C365.436 439.008 365.359 438.001 364.639 434.977C375.45 422.019 391.996 416.62 400.069 417.483C422.557 419.89 434.481 450.743 434.481 450.743Z" fill="#162C30"/>
<path d="M364.638 434.977C365.359 438.001 365.435 439.009 367.201 439.513C371.578 440.762 405.218 448.151 434.481 450.743C434.481 450.743 422.557 419.89 400.068 417.484C399.479 417.423 398.887 417.393 398.295 417.395C389.757 417.395 374.709 422.906 364.638 434.977ZM366.522 435.431C371.981 429.136 378.342 425.326 382.783 423.22C388.275 420.616 393.929 419.122 398.295 419.122C398.826 419.121 399.357 419.147 399.884 419.201C404.698 419.717 409.41 421.692 413.89 425.074C417.539 427.828 421.044 431.514 424.306 436.027C427.17 440.029 429.655 444.288 431.728 448.75C417.098 447.314 402.103 444.822 391.823 442.925C379.251 440.605 369.749 438.443 367.677 437.851C367.242 437.727 367.195 437.643 367.131 437.526C366.93 437.166 366.748 436.402 366.522 435.431H366.522Z" fill="#162C30"/>
<path d="M422.688 442.717C424.972 443.731 427.601 447.755 429.144 449.996C429.144 449.996 431.778 451.405 430.708 452.474C430.362 452.814 429.943 453.071 429.482 453.224C429.022 453.377 428.533 453.423 428.052 453.358C427.344 453.264 426.188 452.449 425.501 451.852C422.575 451.539 419.671 451.053 416.803 450.398C413.148 449.526 411.501 445.455 411.525 442.914C411.542 441.096 419.199 441.168 422.688 442.717Z" fill="#3C96C5"/>
<path d="M554.424 472.371C554.424 472.371 541.613 473.704 532.242 473.761C520.343 473.833 503.108 473.068 503.108 473.068L497.515 464.727C497.515 464.727 517.287 466.309 531.863 466.048C541.232 465.88 554.045 464.657 554.045 464.657L554.424 472.371Z" fill="#1D3439"/>
<path d="M520.67 465.797C520.67 465.797 520.955 461.183 521.594 459.195L539.29 459.337C538.759 461.389 538.379 463.477 538.153 465.584L520.67 465.797Z" fill="#051C3F"/>
<path d="M540.219 473.435C540.219 473.435 536.281 473.765 532.242 473.762C528.202 473.759 523.548 473.762 523.548 473.762C523.548 473.762 521.95 467.997 520.67 465.797C520.67 465.797 527.212 465.949 531.283 465.892C535.354 465.834 538.153 465.584 538.153 465.584C540.096 469.37 540.219 473.435 540.219 473.435Z" fill="#162C30"/>
<path d="M538.153 465.584L536.732 468.21L520.244 468.352C520.244 468.352 520.173 465.655 520.67 465.797C521.168 465.939 538.153 465.584 538.153 465.584Z" fill="black"/>
<path d="M531.51 471.486C532.495 472.446 533.877 472.629 534.597 471.895C535.317 471.162 535.102 469.789 534.118 468.83C533.133 467.87 531.751 467.687 531.031 468.421C530.311 469.155 530.526 470.527 531.51 471.486Z" fill="black"/>
<path d="M525.686 471.751C526.806 472.842 528.377 473.05 529.195 472.216C530.014 471.382 529.77 469.821 528.651 468.73C527.531 467.639 525.96 467.431 525.142 468.265C524.323 469.099 524.567 470.66 525.686 471.751Z" fill="black"/>
<path d="M521.097 466.034C521.097 466.034 521.381 461.42 522.021 459.432L539.296 459.598C538.818 461.641 538.468 463.711 538.248 465.797L521.097 466.034Z" fill="#162C30"/>
<path d="M398.231 417.483L391.593 444.64L386.884 448.867C386.127 465.28 386.188 481.98 388.5 492.965C389.036 495.51 386.338 497.392 386.338 497.392C386.338 497.392 386.554 503.656 390.663 504.843" stroke="#404041" stroke-width="0.7947" stroke-linejoin="round"/>
<path d="M370.855 428.839L367.201 439.512L363.201 443.724C363.201 443.724 362.619 454.269 363.039 457.386C363.459 460.504 362.214 462.885 362.012 464.765C361.538 469.172 361.869 471.438 361.869 471.438" stroke="#404041" stroke-width="0.7947" stroke-linejoin="round"/>
<path d="M503.108 473.068C501.782 470.682 499.372 466.819 497.515 464.728C492.482 464.482 465.739 460.063 465.739 460.063C465.739 460.063 463.517 467.738 476.837 470.158C481.733 471.047 489.557 472.457 503.108 473.068Z" fill="#F1F1F2"/>
<path d="M477.039 466.113C477.655 464.628 476.36 462.683 474.148 461.768C471.936 460.853 469.644 461.316 469.028 462.801C468.413 464.286 469.707 466.231 471.919 467.146C474.131 468.061 476.424 467.598 477.039 466.113Z" fill="white"/>
<path d="M486.988 468.81C487.603 467.325 486.309 465.379 484.097 464.465C481.885 463.55 479.592 464.012 478.977 465.497C478.361 466.982 479.656 468.928 481.868 469.842C484.08 470.757 486.372 470.295 486.988 468.81Z" fill="white"/>
<path d="M496.256 470.254C495.674 471.658 493.506 472.096 491.414 471.231C489.321 470.365 488.097 468.525 488.68 467.121C489.262 465.716 491.43 465.279 493.522 466.144C495.614 467.009 496.838 468.849 496.256 470.254Z" fill="white"/>
<path d="M551.305 472.819C554.44 472.5 558.369 472.819 557.936 469.364C557.504 465.908 552.537 462.689 552.537 462.689C552.017 462.714 550.269 463.936 549.274 465.071C549.867 467.379 550.774 470.682 551.305 472.819Z" fill="#F1F1F2"/>
<path d="M552.411 471.846C553.431 471.846 554.259 470.702 554.259 469.291C554.259 467.879 553.431 466.735 552.411 466.735C551.39 466.735 550.563 467.879 550.563 469.291C550.563 470.702 551.39 471.846 552.411 471.846Z" fill="white"/>
<path d="M553.816 469.622C554.837 469.622 555.664 468.478 555.664 467.067C555.664 465.655 554.837 464.511 553.816 464.511C552.796 464.511 551.968 465.655 551.968 467.067C551.968 468.478 552.796 469.622 553.816 469.622Z" fill="white"/>
<path opacity="0.1" d="M611.383 432.035L614.222 434.526V481.217L596.948 480.902L592.219 476.141L611.383 432.035Z" fill="#0F1D1F"/>
<path d="M597.82 431L586 431.877V475.886L597.82 476.75L611.383 475.936V432.035L597.82 431Z" fill="#405068"/>
<path opacity="0.2" d="M611.383 432.035L597.82 431V476.75L611.383 475.936V432.035Z" fill="#231F20"/>
<path opacity="0.5" d="M589.097 470.471L594.28 470.742V471.281L589.097 471.01V470.471Z" fill="white"/>
<path d="M589.097 461.706H594.28V470.742L589.097 470.471V461.706Z" fill="#4D4D4D"/>
<path d="M589.097 461.706L591.689 466.088L589.097 470.471V461.706Z" fill="#333333"/>
<path d="M591.689 466.088L589.097 461.706H594.28V466.088H591.689Z" fill="#1A1A1A"/>
<path opacity="0.1" d="M650.082 424.262L653.222 427.298V484.217L634.112 483.832L628.88 478.028L650.082 424.262Z" fill="#0F1D1F"/>
<path d="M635.076 423L622 424.069V477.718L635.076 478.771L650.082 477.779V424.262L635.076 423Z" fill="#70B33B"/>
<path opacity="0.2" d="M650.082 424.262L635.076 423V478.771L650.082 477.779V424.262Z" fill="#231F20"/>
<path d="M625 430H630.734V441.015H625V430Z" fill="#4D4D4D"/>
<path d="M641.98 435.11L645.101 435.112L640.391 444.197L641.716 437.19L638.493 437.225L643.245 428.629L641.98 435.11Z" fill="white"/>
<path opacity="0.1" d="M650.082 395.52L653.222 396.77V420.217L634.112 420.058L628.88 417.668L650.082 395.52Z" fill="#0F1D1F"/>
<path d="M635 393.5L622 395.44V417.54H635.076L650.082 417.565V395.52L635 393.5Z" fill="#3C96C5"/>
<path opacity="0.2" d="M650 395.5L635 393.5V417.582H650V395.5Z" fill="#231F20"/>
<path opacity="0.1" d="M1114.52 530.836C1112.45 529.123 1109.46 529.902 1109.59 531.925C1109.72 533.949 1108.71 540.2 1106.83 541.321C1104.94 542.442 1099.21 544.591 1105.64 549.918C1112.06 555.243 1121.69 555.325 1125.91 554.987C1130.12 554.649 1139.59 554.768 1135.54 549.308C1131.5 543.849 1125.28 542.391 1124.82 538.558C1124.36 534.724 1114.52 530.836 1114.52 530.836Z" fill="#006B29"/>
<path opacity="0.7" d="M1107.05 535.118C1105.6 537.843 1112.44 538.558 1115.17 538.558C1117.9 538.558 1116.94 536.781 1116.94 535.118C1116.94 533.455 1114.73 532.108 1112 532.108C1109.27 532.108 1107.85 533.631 1107.05 535.118Z" fill="#0E2529"/>
<path opacity="0.7" d="M1103.22 544.58C1101.76 547.303 1110.66 549.308 1113.4 549.308C1116.13 549.308 1114.89 546.258 1114.89 544.596C1114.89 542.932 1110.89 541.569 1108.16 541.569C1105.43 541.569 1104.01 543.092 1103.22 544.58Z" fill="#0E2529"/>
<path d="M1116.96 528.115C1116.96 528.115 1117.08 530.479 1116.85 531.661C1116.62 532.844 1117.65 534.888 1115.58 535.747C1114.47 536.229 1113.32 536.59 1112.13 536.822C1112.13 536.822 1106.38 536.393 1106.84 535.102C1107.3 533.812 1109.49 529.081 1109.49 529.081L1112.02 527.36L1116.96 528.115Z" fill="#A6B3C6"/>
<path d="M1113.4 535.425C1113.4 535.425 1110.06 531.339 1109.26 531.339C1108.45 531.339 1105.22 530.486 1105.29 531.607C1105.5 535.136 1101.49 534.546 1101.15 535.833C1100.8 537.127 1100.4 539.082 1101.67 540.157C1102.93 541.231 1104.77 541.339 1104.77 542.414C1104.77 543.488 1104.89 544.241 1106.38 544.351C1107.88 544.457 1110.29 544.351 1111.33 544.563C1112.36 544.78 1112.36 543.92 1112.48 542.199C1112.59 540.478 1112.94 538.758 1112.94 537.575C1112.95 536.835 1113.1 536.104 1113.4 535.425Z" fill="#A6B3C6"/>
<path opacity="0.4" d="M1105 536.608C1103.29 536.193 1099.61 537.198 1099.61 537.198C1099.61 537.198 1101.32 542.091 1101.67 542.306C1102.01 542.522 1104.2 544.886 1105.23 545.101C1106.27 545.317 1112.82 545.423 1112.82 545.423C1112.82 545.423 1112.02 543.703 1111.44 542.628C1110.87 541.554 1111.9 540.801 1110.06 539.188C1108.64 537.892 1106.89 537 1105 536.608Z" fill="#231F20"/>
<path d="M1125.89 455.603C1125.89 455.603 1126.07 463.98 1125.31 468.998C1124.54 474.013 1121.07 489.126 1120.76 490.56C1120.46 491.993 1119.69 495.005 1119.84 498.158C1119.99 501.31 1119.38 513.886 1118.15 518.188C1117.77 519.52 1116.86 521.061 1117.19 522.738C1117.53 524.454 1119.1 526.307 1118.69 527.899C1118.59 528.274 1115.25 528.548 1115.16 528.903C1114.86 530.047 1114.63 531.207 1114.47 532.379C1114.24 534.256 1113.75 536.094 1113.03 537.843C1113.03 537.843 1111.29 533.126 1108.97 532.323C1107.67 531.875 1104.45 532.537 1104.45 532.537C1104.45 532.537 1104.37 531.714 1105.75 529.421C1107.13 527.126 1107.57 525.068 1107.57 523.491C1107.57 521.913 1106.96 521.34 1106.19 517.183C1105.42 513.026 1101.3 501.878 1100.84 498.727C1100.38 495.573 1099.27 486.405 1098.05 482.392C1096.82 478.377 1096.06 469.298 1095.6 464.424C1095.32 461.523 1095.63 458.594 1096.53 455.821L1125.89 455.603Z" fill="#162C30"/>
<path opacity="0.31" d="M1110.87 453.174L1123.63 454.571C1123.63 454.571 1124.55 456.722 1124.44 458.765C1124.32 460.808 1123.6 463.334 1122.6 464.573C1116.99 471.523 1110.63 478.118 1110.18 481.237C1109.72 484.355 1108.88 489.617 1109.23 492.52C1109.57 495.421 1109.3 498.641 1111.03 500.36C1112.75 502.08 1114.69 503.179 1114.46 506.404C1114.23 509.631 1113.05 516.93 1112.59 518.76C1112.13 520.587 1109.72 524.349 1108.57 526.609C1107.42 528.866 1105.92 527.468 1105.92 527.468L1100.86 508.438C1100.86 508.438 1098.47 483.636 1097.67 478.475C1096.86 473.314 1097.74 459.54 1097.97 459.217C1098.2 458.895 1098.99 453.819 1099.8 453.819C1100.6 453.819 1110.87 453.174 1110.87 453.174Z" fill="black"/>
<path d="M1138.95 459.605C1139.09 460.004 1141.27 463.72 1141.42 465.31C1141.56 466.902 1141.71 468.497 1139.96 470.486C1138.22 472.475 1136.19 474.466 1135.31 474.73C1134.44 474.996 1134.56 473.842 1134.73 473.007C1134.95 471.92 1135.43 469.265 1135.43 469.265C1135.43 469.265 1134.18 471.643 1132.91 470.948C1132.43 470.681 1133.5 464.624 1133.79 463.207C1134 462.157 1133.13 461.331 1133.57 461.331C1134.01 461.33 1138.95 459.605 1138.95 459.605Z" fill="#FFB17B"/>
<path d="M1083.99 454.381C1083.99 454.381 1082.02 458.561 1081.62 459.666C1081.23 460.774 1080.97 462.619 1081.36 463.848C1081.75 465.079 1082.81 466.678 1083.46 467.045C1084.12 467.415 1087.28 468.399 1087.28 468.399C1087.39 468.124 1087.41 467.823 1087.34 467.536C1087.26 467.25 1087.11 466.993 1086.88 466.799C1086.09 466.062 1084.91 464.834 1084.65 463.971C1084.38 463.11 1084.65 461.266 1084.65 461.266C1084.65 461.266 1085.11 465.466 1086.16 465.466C1087.21 465.466 1087.01 461.388 1086.88 460.528C1086.75 459.666 1088.07 458.437 1088.33 457.332C1088.59 456.225 1088.72 453.888 1088.72 453.888L1083.99 454.381Z" fill="#FFB17B"/>
<path d="M1141.63 461.003C1141.63 461.003 1135.15 463.746 1133.47 463.459C1132.14 461.038 1133.18 455.708 1132.41 452.554C1131.65 449.401 1130.04 440.538 1129.73 437.526C1129.42 434.515 1127.75 434.477 1127.75 434.477C1127.75 434.477 1126.05 442.304 1126.35 444.169C1126.66 446.032 1126.05 446.389 1126.35 448.253C1126.66 450.115 1126.53 456.747 1126.53 456.747C1126.53 456.747 1118.92 456.112 1114.47 456.257C1110.02 456.4 1096.12 456.42 1096.12 456.42C1096.12 456.42 1096.73 453.156 1096.53 447.981C1096.36 443.567 1095.73 431.781 1095.42 429.631C1093.5 432.571 1093.79 434.195 1092.41 437.923C1091.03 441.65 1089.66 448.59 1089.66 456.475C1089.66 458.561 1088.13 455.277 1086.06 455.168C1085.39 455.15 1084.73 455.264 1084.11 455.503C1083.49 455.742 1082.92 456.101 1082.44 456.559C1082.44 456.559 1084.18 444.628 1084.94 440.902C1085.71 437.176 1087.48 432.093 1088.09 428.223C1088.71 424.353 1090.18 417.783 1091.4 415.202C1092.63 412.622 1091.7 408.069 1097 406.817C1099.35 406.261 1104.04 404.935 1104.04 404.935C1104.04 404.935 1108.64 403.789 1111.56 404.362C1114.47 404.935 1120.14 405.509 1120.14 405.509C1120.14 405.509 1127.31 406.902 1129.62 407.906C1131.92 408.91 1133.73 413.64 1134.51 415.964C1136.78 422.716 1139.25 435.386 1139.4 438.398C1139.55 441.407 1141.63 461.003 1141.63 461.003Z" fill="white"/>
<path d="M1131.09 454.405H1092.49V458.543H1131.09V454.405Z" fill="white"/>
<path d="M1109.94 412.697C1116.06 412.697 1121.02 407.944 1121.02 402.08C1121.02 396.216 1116.06 391.462 1109.94 391.462C1103.82 391.462 1098.85 396.216 1098.85 402.08C1098.85 407.944 1103.82 412.697 1109.94 412.697Z" fill="white"/>
<path opacity="0.15" d="M1105.36 407.252C1105.36 407.252 1100.89 427.508 1105.96 428.324C1108.84 428.788 1105.57 429.588 1104.98 432.245C1104 436.672 1104.9 443.564 1105.14 444.278C1106.01 446.892 1103.18 450.376 1107.1 450.376C1111.03 450.376 1111.68 452.336 1105.8 453.208C1102.25 453.754 1099.01 455.527 1096.64 458.217L1098.71 408.886L1105.36 407.252Z" fill="white"/>
<path d="M1119.5 390.083L1117.97 394.266C1117.97 394.266 1117.09 398.676 1118.14 401.535C1118.96 403.759 1120.85 405.401 1120.85 405.401C1120.85 405.401 1114.37 411.124 1109.31 410.519C1104.26 409.914 1103.08 405.27 1103.08 405.27L1106.26 401.453C1106.26 401.453 1106.88 399.615 1106.71 398.647C1106.6 398.023 1105.52 398.537 1104.92 397.817C1104.59 397.418 1104.29 396.087 1103.99 395.164C1103.43 393.497 1102.88 390.893 1103.4 389.175C1103.68 388.265 1102.81 386.244 1102.82 385.581C1102.89 381.96 1103.24 379.074 1106.24 378.223C1108.38 377.617 1112.37 377.488 1114.81 378.374C1117.72 379.425 1119.56 383.105 1120.08 384.882C1120.59 386.659 1119.5 390.083 1119.5 390.083Z" fill="#FFB17B"/>
<path opacity="0.2" d="M1111.34 378.328C1111.34 378.328 1114.24 378.853 1115.1 381.6C1115.63 383.3 1115.89 385.071 1115.87 386.851L1116.92 388.144C1116.92 388.144 1113.6 390.624 1113.32 392.551C1112.93 395.258 1114.27 397.46 1111.42 398.186L1113.65 398.867C1114.6 399.918 1117.16 402.252 1117.24 403.332C1117.5 406.726 1118.46 407.694 1119.67 408.502L1120.62 414.682L1108.96 419.893L1098.98 414.563L1100.66 403.897C1100.66 403.897 1103.38 402.321 1103.64 401.958C1103.9 401.594 1104.29 399.777 1104.29 399.777C1104.29 399.777 1100.53 394.565 1100.79 393.719C1101.05 392.869 1101.44 382.449 1101.57 381.964C1101.7 381.478 1102.09 378.449 1104.68 378.813C1107.27 379.177 1111.34 378.328 1111.34 378.328Z" fill="#B00000"/>
<path d="M1106.14 374.419C1106.14 374.419 1101.53 376.622 1101.38 379.329C1101.19 382.703 1102.63 384.281 1107.42 384.13C1109.31 384.071 1113.35 382.648 1113.88 382.653C1114.42 382.658 1115.72 383.63 1115.57 385.179C1115.52 385.701 1116.07 391.305 1116.07 391.305L1117.17 391.523L1118.37 388.686C1118.37 388.686 1121.53 387.585 1118.83 392.925C1120.79 389.967 1121.32 383.402 1121.28 381.63C1121.24 379.858 1117.88 374.83 1115.61 375.236C1112.06 375.871 1108.94 374.986 1108.05 375.37C1103.35 377.377 1106.14 374.419 1106.14 374.419Z" fill="#162C30"/>
<path d="M1120.31 391.275C1119.98 392.507 1119.2 393.386 1118.57 393.238C1117.93 393.09 1117.69 391.97 1118.02 390.737C1118.35 389.504 1119.13 388.625 1119.77 388.774C1120.4 388.922 1120.64 390.042 1120.31 391.275Z" fill="#FFB17B"/>
<path d="M1116.16 390.481C1116.16 390.481 1113.95 395.763 1113.48 396.308C1113.01 396.852 1107.89 399.03 1105.91 398.159C1104.85 397.695 1103.81 394.565 1103.81 394.565C1103.81 394.565 1104.06 396.91 1104.28 398.159C1104.51 399.466 1105.11 401.246 1107.07 401.589C1110.81 402.243 1115.87 398.331 1115.87 398.331L1117.32 391.139L1116.16 390.481Z" fill="#162C30"/>
<path d="M1112.71 388.605L1112.74 388.6L1117.63 387.783L1117.53 387.19L1112.67 388.002L1108.11 387.791C1107.83 387.482 1107.45 387.286 1107.04 387.241C1106.45 387.241 1105.99 387.778 1105.94 387.839L1106.4 388.224C1106.56 388.024 1106.79 387.889 1107.04 387.842C1107.32 387.904 1107.57 388.059 1107.75 388.281L1107.83 388.38L1112.71 388.605Z" fill="#162C30"/>
<path d="M1109.24 386.977C1108.08 386.898 1107.2 387.969 1107.62 388.978C1108.08 390.079 1108.9 391.209 1110.3 391.294C1111.84 391.387 1112.59 390.144 1112.95 389.012C1113.23 388.112 1112.53 387.2 1111.52 387.132L1109.24 386.977Z" fill="#162C30"/>
<path d="M1105.18 387.059C1106.08 386.983 1106.77 388.021 1106.44 388.998C1106.08 390.067 1105.45 391.162 1104.35 391.244C1103.15 391.334 1102.57 390.129 1102.29 389.032C1102.06 388.159 1102.62 387.275 1103.4 387.209L1105.18 387.059Z" fill="#162C30"/>
<path d="M1117.97 400.637C1118.23 403.577 1118.2 420.32 1116.68 430.23C1115.49 438.019 1114.08 443.516 1114.08 443.516L1117.13 457.77C1117.4 458.991 1118.07 460.087 1119.04 460.874C1120.01 461.662 1121.22 462.095 1122.47 462.101L1130.2 462.137L1127.75 434.477L1129.85 441.011L1132.88 461.702L1142.43 458.435L1139.87 433.606L1131.94 407.252L1121.11 403.659L1117.97 400.637Z" fill="#162C30"/>
<path opacity="0.31" d="M1112.69 450.702C1112.83 445.638 1116.02 444.985 1119.17 448.579C1122.31 452.172 1126.35 456.528 1122.31 443.951C1118.27 431.373 1123.61 422.77 1125.91 413.786C1128.2 404.801 1129.39 403.005 1129.62 407.905C1129.84 412.805 1132.14 414.929 1132.79 418.196C1133.43 421.463 1132.29 429.712 1135.4 431.386C1138.5 433.06 1143.19 432.516 1139.87 433.605C1136.54 434.694 1135.78 435.837 1137.14 436.327C1138.5 436.817 1138.5 437.144 1136.38 439.268C1134.25 441.391 1132.13 464.587 1132.13 464.587H1117.12L1112.69 450.702Z" fill="black"/>
<path opacity="0.5" d="M1122.27 405.245L1123.47 407.859L1121.51 409.057L1123.69 410.364L1114.64 444.885C1114.64 444.885 1115.19 427.566 1115.35 420.546C1115.51 413.525 1118.35 401.543 1118.35 401.543L1122.27 405.245Z" fill="black"/>
<path d="M1121.71 403.876L1122.91 406.49L1120.95 407.688L1123.13 408.995L1114.08 443.516C1114.08 443.516 1114.63 426.197 1114.79 419.177C1114.95 412.156 1117.79 400.174 1117.79 400.174L1121.71 403.876Z" fill="#162C30"/>
<path d="M1102.76 403.413L1091.93 407.579C1091.93 407.579 1086.22 427.126 1086.05 428.596C1085.87 430.066 1084.77 433.72 1084.94 434.21C1085.12 434.7 1081.79 454.623 1081.79 454.623C1081.79 454.623 1084.49 451.955 1086.93 453.316C1089.33 454.653 1090.36 456.093 1090.36 456.093L1094.03 439.377L1095.42 429.631L1096.12 439.921L1093.15 460.993L1093.94 461.669C1094.31 461.99 1094.76 462.209 1095.24 462.306C1095.73 462.403 1096.23 462.374 1096.7 462.221C1097.16 462.069 1097.59 461.798 1097.92 461.436C1098.25 461.073 1098.49 460.631 1098.6 460.152L1102.41 443.842C1102.41 443.842 1099.06 408.014 1106.26 401.535C1105.23 402.384 1104.04 403.022 1102.76 403.413Z" fill="#162C30"/>
<path opacity="0.31" d="M1100.89 421.463C1097.78 415.583 1093.26 405.782 1092.6 411.499C1091.95 417.216 1089.44 420.973 1088.79 424.24C1088.13 427.507 1086.5 429.467 1087.64 431.754C1088.79 434.041 1089.28 435.348 1087.81 435.184C1086.33 435.021 1084.7 435.021 1086.99 436.491C1089.28 437.961 1088.62 440.738 1088.95 443.515C1089.28 446.292 1088.95 451.683 1089.11 454.95C1089.28 458.217 1088.79 460.34 1090.42 462.464C1092.06 464.587 1092.55 448.089 1092.55 448.089L1095.44 432.625C1096.15 435.134 1096.74 437.678 1097.18 440.248C1097.84 444.169 1097.78 443.515 1097.62 446.945C1097.45 450.376 1095.93 449.995 1096.53 455.821C1097.13 461.647 1096.31 470.304 1098.6 463.934C1100.89 457.563 1104.65 428.161 1104.65 428.161L1100.89 421.463Z" fill="black"/>
<path opacity="0.31" d="M1101.33 405.156L1098.71 408.014L1100.23 408.994L1097.84 410.954L1101.43 446.02C1101.43 446.02 1102.03 420.541 1102.52 414.766C1103.02 408.991 1105.25 403.658 1105.25 403.658L1101.33 405.156Z" fill="black"/>
<path d="M1102.2 403.087L1099.58 405.945L1101.11 406.925L1098.71 408.886L1102.31 443.951C1102.31 443.951 1102.9 418.472 1103.4 412.697C1103.89 406.922 1106.12 401.589 1106.12 401.589L1102.2 403.087Z" fill="#162C30"/>
<path opacity="0.1" d="M1071.39 527.151C1069.5 529.174 1068.15 531.197 1064.23 531.197C1060.31 531.197 1062.61 530.793 1058.02 531.198C1053.43 531.602 1055.05 533.895 1053.16 534.569C1051.27 535.244 1035.87 536.188 1031.42 534.974C1026.96 533.76 1019.8 533.49 1028.31 530.523C1036.82 527.556 1029.8 524.588 1038.71 525.128C1047.62 525.668 1049.65 526.476 1055.72 525.667C1061.8 524.858 1063.83 523.374 1066.53 524.048C1069.23 524.723 1073.28 525.128 1071.39 527.151Z" fill="#006B29"/>
<path opacity="0.7" d="M1041.34 531.939C1042.26 531.68 1043.28 530.912 1044.21 530.881C1044.88 530.859 1046.75 530.842 1046.72 529.877C1045.8 529.551 1044.69 529.873 1043.73 529.811C1042.82 529.752 1041.91 529.617 1040.98 529.564C1039 529.448 1033.72 531.199 1035.88 532.176C1038.04 533.153 1040.47 532.186 1041.34 531.939Z" fill="#0E2529"/>
<path d="M1069.43 523.64L1069.17 523.468C1068.28 522.664 1067.1 523.885 1066.11 523.475C1065.57 525.024 1064.17 525.647 1062.97 526.712C1060.73 528.718 1062.91 529.058 1064.25 529.096C1065.86 529.142 1068.35 528.079 1069.58 527.22C1071.15 526.127 1069.3 524.593 1069.43 523.64Z" fill="#3C96C5"/>
<path d="M1046.46 526.805L1046.55 526.625C1046.28 526.036 1046.49 525.758 1045.71 525.18C1045.15 524.761 1044.32 523.757 1043.58 523.933C1043.63 524.832 1041.2 525.345 1040.5 525.366C1039.42 525.398 1036.9 523.532 1036.32 524.729C1035.44 526.538 1038.71 528.142 1039.88 528.5C1041.81 529.084 1042.98 529.751 1044.92 530.121C1045.85 530.298 1046.49 530.53 1046.62 529.402C1046.71 528.593 1046.49 527.598 1046.46 526.805Z" fill="#3C96C5"/>
<path d="M1036.31 525.271L1036.31 525.289C1036.26 525.278 1036.29 525.271 1036.31 525.271Z" fill="#162C30"/>
<path opacity="0.1" d="M1036.28 526.072C1036.2 525.919 1036.16 525.746 1036.17 525.573C1036.18 525.4 1036.24 525.233 1036.34 525.092C1036.92 523.887 1040.1 527.033 1040.88 527.506C1041.7 528.002 1043.9 529.135 1044.8 529.343C1045.86 529.585 1046.54 529.94 1046.16 530.31C1045.18 530.377 1044.27 530.088 1043.33 529.891C1042.44 529.702 1041.47 529.187 1040.56 528.99C1038.55 528.555 1036.81 527.007 1036.28 526.072Z" fill="#006B29"/>
<path d="M1066.32 439.077C1064.5 436.581 1061.73 434.963 1060.58 434.963C1059.44 434.963 1053.36 436.042 1052.55 437.458C1051.74 438.874 1049.51 442.617 1051.94 446.36C1052.42 447.097 1053.76 449.293 1053.76 449.293L1050.19 449.799C1050.19 449.799 1047.38 451.519 1047.42 454.183C1047.43 455.471 1048.3 457.015 1048.3 457.015C1048.46 456.322 1048.68 455.645 1048.97 454.992C1049.44 453.913 1050.52 453.171 1051.27 452.834C1052.01 452.497 1055.08 451.418 1055.08 451.418C1055.08 451.418 1056.63 451.688 1057.11 452.025C1057.58 452.362 1062.98 451.519 1064.03 452.362C1064.36 452.633 1064.5 452.564 1064.84 452.969C1065.18 453.374 1065.18 454.183 1065.85 455.397C1066.53 456.611 1069.67 457.791 1069.67 457.791C1069.45 457.109 1069.29 456.409 1069.19 455.7C1069.63 455.85 1070.08 455.941 1070.54 455.97C1070.54 455.97 1070.27 454.756 1069.6 454.284C1068.92 453.812 1065.41 450.305 1065.41 450.305C1065.41 450.305 1066.66 450.339 1066.86 448.046C1067.07 445.753 1068.15 441.572 1066.32 439.077Z" fill="#162C30"/>
<path opacity="0.31" d="M1069.46 458.802C1068.45 456.88 1069.36 456.678 1067.54 454.756C1065.72 452.834 1065.21 452.429 1064.7 451.316C1064.2 450.204 1063.29 451.316 1064.5 449.091C1065.72 446.865 1067.34 446.966 1066.63 444.842C1065.92 442.718 1068.55 444.134 1065.21 441.099C1061.87 438.065 1061.66 438.57 1061.06 437.154C1060.45 435.738 1056.9 436.244 1054.68 436.952C1052.45 437.66 1047.38 441.403 1047.38 441.403L1045.46 454.857C1045.46 454.857 1047.28 451.721 1049.11 450.507C1050.93 449.293 1052.55 450.507 1050.02 452.53C1047.49 454.553 1045.87 457.993 1045.87 457.993L1047.89 459.611L1069.46 458.802Z" fill="black"/>
<path d="M1071.89 468.817C1071.89 468.817 1072.91 472.054 1073.11 472.964C1073.31 473.875 1073.62 478.933 1073.51 481.664C1073.41 484.395 1072.3 488.543 1072.3 489.554C1072.3 490.566 1072.91 490.869 1073.21 491.577C1073.51 492.285 1072.7 493.803 1072.2 494.916C1071.69 496.028 1070.17 494.309 1069.77 493.297C1069.36 492.285 1069.56 488.745 1069.46 487.632C1069.36 486.519 1070.17 478.73 1069.87 477.213C1069.56 475.696 1068.25 470.436 1068.25 470.436L1071.89 468.817Z" fill="#FFB17D"/>
<path d="M1048.09 466.49C1048.09 466.49 1047.69 468.614 1047.18 468.513C1046.68 468.412 1040.29 465.984 1039.38 465.276C1038.62 464.66 1038.03 463.859 1037.66 462.95C1037.36 462.242 1036.95 460.926 1036.24 461.129C1035.53 461.331 1035.84 462.646 1035.84 463.253C1035.84 463.86 1034.32 462.849 1033.71 463.051C1033.1 463.253 1030.57 462.141 1030.57 463.253C1030.57 464.366 1031.08 465.782 1032.7 466.693C1034.11 467.472 1035.66 467.986 1037.26 468.21C1038.27 468.311 1039.99 469.93 1042.12 471.143C1044.24 472.357 1046.27 473.672 1047.28 473.976C1048.3 474.279 1049.11 473.672 1050.12 472.458C1050.86 471.511 1051.5 470.494 1052.04 469.424L1048.09 466.49Z" fill="#FFB17D"/>
<path d="M1043.16 524.414C1044.5 525.107 1044.99 526.274 1046.49 526.271C1046.69 525.732 1046.44 525.509 1046.65 524.991C1046.87 524.435 1050.34 515.627 1050.73 513.475C1051.29 510.34 1052.32 507.306 1053.2 504.248C1053.53 503.098 1055.74 497.631 1057.01 498.152C1057.21 498.236 1058.33 500.452 1058.69 501.255C1059.33 502.647 1059.77 503.736 1060.31 505.166C1060.79 506.495 1061.43 507.762 1062.2 508.943C1063.04 510.265 1062.91 512.327 1063.15 513.933C1063.43 515.821 1064.64 521.907 1065.04 523.779C1065.39 525.44 1068.48 525.12 1068.94 525.142C1070.22 525.203 1069.96 521.352 1069.85 520.258C1069.68 518.574 1069.44 516.291 1069.36 514.607C1069.26 512.325 1069.02 510.038 1068.28 507.864C1067.8 506.437 1068.52 504.824 1068.13 503.354C1067.18 499.738 1066.8 496.796 1066.97 493.13C1067.08 490.76 1067.51 487.653 1066.99 485.369C1066.86 484.761 1066.21 483.291 1065.6 483.09C1065.3 482.989 1063.91 483.266 1063.44 483.221C1061.38 483.028 1059.37 483.282 1057.3 483.338C1055.63 483.372 1053.95 483.302 1052.29 483.13C1050.72 482.976 1050.33 482.925 1049.9 484.689C1048.88 488.921 1047.87 493.32 1047.32 497.65C1047.11 499.232 1047.13 500.818 1047.06 502.414C1046.97 504.511 1046.16 506.614 1045.81 508.713C1045.32 511.601 1044.52 514.524 1044.21 517.43C1044.1 518.481 1044.07 519.604 1043.79 520.603C1043.56 521.44 1043.67 522.187 1043.56 522.574C1043.45 522.961 1043.01 524.232 1043.16 524.414Z" fill="#162C30"/>
<path opacity="0.31" d="M1070.44 526.861C1070.44 526.861 1068.25 524.283 1067.86 521.833C1067.48 519.383 1064.12 513.323 1065.15 511.389C1066.18 509.455 1069.28 504.168 1069.28 504.168L1060.89 499.785L1047.08 500.687L1043.98 509.713L1042.04 526.217L1042.56 530.73C1042.56 530.73 1046.43 531.245 1046.56 528.667C1046.69 526.088 1047.21 517.965 1047.34 515.902C1047.47 513.839 1045.92 510.1 1048.5 507.521C1051.08 504.942 1058.57 505.2 1058.57 505.2L1061.15 520.543L1061.28 528.022L1070.44 526.861Z" fill="black"/>
<path opacity="0.1" d="M1015.56 525.33C1018 525.33 1019.48 527.623 1018.13 528.972C1016.78 530.32 1013.54 535.311 1014.08 537.199C1014.62 539.087 1017.05 543.943 1009.49 543.943C1001.93 543.943 993.35 542.931 990.785 540.234C988.219 537.537 986.261 535.175 992.337 533.692C998.414 532.209 999.359 532.343 1002.06 529.916C1004.76 527.488 1015.56 525.33 1015.56 525.33Z" fill="#006B29"/>
<path opacity="0.7" d="M1008.14 526.072C1006.85 528.635 1008.5 529.309 1010.91 529.309C1013.31 529.309 1016.85 527.636 1016.85 526.072C1016.85 524.508 1014.9 523.24 1012.49 523.24C1010.09 523.24 1008.84 524.673 1008.14 526.072Z" fill="#0E2529"/>
<path opacity="0.7" d="M1004.76 534.974C1003.48 537.536 1005.12 538.211 1007.53 538.211C1009.93 538.211 1013.47 536.538 1013.47 534.974C1013.47 533.409 1011.52 532.141 1009.12 532.141C1006.71 532.141 1005.46 533.574 1004.76 534.974Z" fill="#0E2529"/>
<path d="M1016.86 519.482C1016.86 519.482 1016.97 521.707 1016.76 522.82C1016.56 523.933 1017.47 525.855 1015.65 526.664C1014.68 527.116 1013.66 527.455 1012.61 527.675C1012.61 527.675 1007.55 527.271 1007.95 526.057C1008.36 524.843 1010.28 520.392 1010.28 520.392L1012.51 518.773L1016.86 519.482Z" fill="#FFB032"/>
<path d="M1013.73 526.36C1013.73 526.36 1010.79 522.516 1010.08 522.516C1009.37 522.516 1006.53 521.713 1006.58 522.768C1006.77 526.087 1003.24 525.533 1002.94 526.746C1002.63 527.96 1002.28 529.8 1003.39 530.811C1004.51 531.823 1006.13 531.924 1006.13 532.936C1006.13 533.947 1006.23 534.655 1007.55 534.756C1008.86 534.857 1010.99 534.756 1011.9 534.959C1012.81 535.161 1012.81 534.352 1012.91 532.733C1013.02 531.115 1013.32 529.496 1013.32 528.383C1013.33 527.69 1013.46 527.003 1013.73 526.36Z" fill="#FFB032"/>
<path opacity="0.31" d="M1006.33 527.473C1004.83 527.084 1001.59 528.028 1001.59 528.028C1001.59 528.028 1003.09 532.632 1003.39 532.834C1003.7 533.037 1005.62 535.262 1006.53 535.464C1007.45 535.667 1013.22 535.768 1013.22 535.768C1013.22 535.768 1012.51 534.149 1012 533.138C1011.5 532.126 1012.41 531.418 1010.79 529.901C1009.56 528.693 1008.01 527.853 1006.33 527.473Z" fill="black"/>
<path d="M1009.47 378.873C1009.47 378.873 1009.77 377.052 1010.89 376.85C1012 376.647 1015.51 376.563 1018.28 378.367C1022.06 380.829 1024.06 387.37 1024.56 390.708C1025.07 394.046 1024.36 394.653 1025.57 397.081C1026.79 399.509 1029.32 401.127 1029.32 401.127C1028.8 401.582 1028.17 401.881 1027.49 401.988C1026.8 402.096 1026.11 402.008 1025.47 401.734L1023.14 400.824C1023.14 400.824 1024.54 402.592 1027.38 406.234C1027.88 406.878 1026.13 410.834 1026.13 410.834L1006.94 411.041L1002.79 409.018C1002.79 409.018 1001.77 405.275 1001.88 402.847C1001.98 400.419 1002.69 400.015 1001.67 398.194C1000.66 396.373 999.262 396.755 1000.88 393.619C1002.5 390.483 1003.31 388.285 1004 385.347C1004.57 382.949 1002.79 381.604 1005.12 379.581C1007.45 377.558 1009.47 378.873 1009.47 378.873Z" fill="#162C30"/>
<path opacity="0.31" d="M1005.87 376.647C1005.87 376.647 1010.83 376.647 1012.75 377.659C1014.68 378.671 1018.02 380.188 1019.13 382.515C1020.25 384.841 1021.56 388.584 1021.67 390.81C1021.77 393.035 1021.06 394.552 1022.37 396.677C1023.69 398.801 1022.88 399.206 1021.56 400.419C1020.25 401.633 1019.84 401.633 1021.16 403.252C1022.48 404.87 1021.06 409.321 1021.06 409.321C1021.06 409.321 1005.87 409.726 1004.75 407.501C1003.64 405.275 1003.23 405.477 1003.94 402.847C1004.65 400.217 1006.07 400.318 1004.35 398.093C1002.62 395.867 1001.61 393.237 1003.74 390.304C1005.87 387.37 1006.37 385.549 1005.56 383.223C1004.75 380.896 1005.87 376.647 1005.87 376.647Z" fill="black"/>
<path d="M1026.02 450.796C1026.02 450.796 1026.56 459.563 1025.89 464.283C1025.21 469.004 1020.34 485.864 1020.07 487.212C1019.8 488.561 1019.13 491.394 1019.26 494.361C1019.4 497.328 1018.99 506.095 1017.91 510.141C1017.58 511.397 1016.78 512.847 1017.07 514.424C1017.36 516.038 1018.75 517.782 1018.38 519.279C1018.3 519.632 1015.35 519.89 1015.28 520.223C1015.01 521.301 1014.81 522.393 1014.67 523.494C1014.47 525.254 1014.04 526.981 1013.4 528.635C1013.4 528.635 1011.87 524.199 1009.82 523.442C1008.69 523.02 1005.84 523.644 1005.84 523.644C1005.84 523.644 1005.77 522.868 1006.99 520.71C1008.2 518.552 1008.59 516.615 1008.59 515.132C1008.59 513.648 1008.05 513.109 1007.38 509.197C1006.7 505.286 1005.08 495.709 1004.68 492.742C1004.27 489.775 1000.73 475.748 999.647 471.971C998.566 468.195 996.929 464.014 996.524 459.428C996.119 454.842 997.604 449.986 997.604 449.986L1026.02 450.796Z" fill="#162C30"/>
<path opacity="0.31" d="M1011.5 448.975L1022.74 450.29C1022.74 450.29 1023.55 452.313 1023.45 454.235C1023.35 456.157 1023.04 458.889 1021.83 459.698C1020.61 460.507 1015.36 462.847 1013.58 472.032C1013.01 474.939 1011.89 489.217 1011.66 493.073C1011.36 498.207 1014.74 498.643 1014.54 501.678C1014.33 504.713 1013.42 508.961 1013.02 510.681C1012.61 512.401 1010.48 515.941 1009.47 518.065C1008.46 520.19 1007.14 518.875 1007.14 518.875L1002.69 500.97C1002.69 500.97 995.596 472.848 994.887 467.993C994.178 463.137 994.633 454.741 994.836 454.438C995.038 454.134 995.646 449.784 996.355 449.784C997.064 449.784 1011.5 448.975 1011.5 448.975Z" fill="black"/>
<path d="M1035.3 456.461C1035.4 456.764 1036.92 459.597 1037.02 460.811C1037.12 462.025 1037.22 463.239 1036.01 464.756C1034.79 466.273 1033.37 467.791 1032.77 467.993C1032.16 468.195 1032.24 467.315 1032.36 466.678C1032.51 465.85 1032.85 463.827 1032.85 463.827C1032.85 463.827 1031.98 465.639 1031.09 465.108C1030.76 464.906 1031.5 460.286 1031.7 459.207C1031.85 458.405 1031.25 457.776 1031.55 457.776C1031.85 457.776 1035.3 456.461 1035.3 456.461Z" fill="#FFB17D"/>
<path d="M987.797 449.987C987.797 449.987 986.278 453.426 985.974 454.336C985.671 455.247 985.468 456.764 985.772 457.776C986.076 458.787 986.886 460.102 987.392 460.406C987.899 460.709 990.329 461.519 990.329 461.519C990.412 461.294 990.428 461.049 990.374 460.816C990.32 460.582 990.199 460.369 990.026 460.204C989.418 459.597 988.506 458.585 988.304 457.877C988.101 457.169 988.304 455.651 988.304 455.651C988.304 455.651 988.658 459.106 989.468 459.106C990.278 459.106 990.127 455.753 990.026 455.045C989.924 454.336 990.937 453.325 991.14 452.414C991.296 451.477 991.397 450.531 991.443 449.582L987.797 449.987Z" fill="#FFB17D"/>
<path d="M1038.59 456.341C1038.59 456.341 1032.88 458.92 1031.4 458.65C1030.23 456.374 1028.98 451.47 1028.31 448.503C1027.63 445.536 1025.61 436.499 1025.34 433.667C1025.07 430.834 1024.39 424.9 1024.39 424.9C1024.39 424.9 1022.77 429.89 1022.91 432.183C1023.04 434.476 1024.26 436.769 1024.53 438.522C1024.8 440.276 1025.74 442.704 1026.01 444.457C1026.28 446.21 1026.55 451.875 1026.55 451.875C1026.55 451.875 1018.59 451.74 1014.67 451.875C1010.75 452.01 996.033 450.931 996.033 450.931C996.033 450.931 996.928 446.75 997.874 442.703C998.819 438.657 999.63 435.824 999.359 433.667C999.089 431.509 999.816 428.137 999.546 426.114C999.276 424.09 999.006 421.528 999.006 421.528C999.006 421.528 996.456 431.119 995.241 434.626C994.025 438.132 992.405 445.281 992.405 452.699C992.405 454.663 990.514 449.698 988.759 450.507C987.003 451.317 986.463 452.16 986.463 452.16C986.463 452.16 986.717 440.815 987.392 437.308C988.068 433.801 989.688 428.272 990.228 424.63C990.768 420.988 994.161 412.775 995.241 410.348C996.321 407.92 999.411 405.477 1001.44 404.803C1003.46 404.128 1005.49 403.589 1005.49 403.589C1005.49 403.589 1009.54 402.51 1012.1 403.05C1014.67 403.589 1019.67 404.128 1019.67 404.128C1019.67 404.128 1022.79 405.357 1024.81 406.301C1026.84 407.246 1029.81 411.947 1030.28 414.192C1031.1 418.103 1032.09 421.393 1032.23 424.225C1032.36 427.058 1032.77 436.364 1033.17 439.466C1033.58 442.568 1038.59 456.341 1038.59 456.341Z" fill="#665F56"/>
<path opacity="0.3" d="M994.279 414.986C995.191 413.165 994.793 410.232 997.933 408.31C1001.07 406.388 1010.08 405.174 1013.12 405.578C1016.16 405.983 1017.17 405.781 1019.19 406.185C1021.22 406.59 1024.16 407.197 1025.47 408.512C1026.79 409.827 1028.05 412.457 1028.45 415.188C1028.86 417.919 1029.42 425.304 1029.93 427.631C1030.44 429.957 1030.6 435.237 1030.06 438.305C1028.51 446.986 1035.2 448.725 1034.59 455.348C1034.5 456.36 1034.99 458.787 1034.99 458.787L1031.45 459.698L1027.3 448.064L1024.36 430.564C1024.36 430.564 1025.27 428.237 1023.95 426.821C1022.64 425.405 1021.02 426.922 1021.02 429.35C1021.02 431.778 1021.73 437.139 1022.33 439.466C1022.94 441.793 1023.85 443.007 1023.85 445.535V452.515L995.342 452.01L997.622 435.723L998.938 424.899C998.938 424.899 1000.36 420.651 998.736 423.079C997.115 425.507 995.495 430.059 995.09 431.778C994.684 433.498 990.775 434.206 989.56 436.836C988.345 439.466 988.345 442.4 987.939 443.715C987.534 445.03 985.367 453.426 985.367 453.426L986.481 429.148C986.481 429.148 986.785 428.238 988.911 424.394C991.038 420.55 991.849 419.538 993.165 417.515C994.482 415.492 994.279 414.986 994.279 414.986Z" fill="#5B3E3E"/>
<path d="M1018.32 390.91C1018.32 390.91 1019.4 389.966 1019.8 390.91C1020.21 391.855 1020.21 392.799 1019.13 393.338C1018.56 393.609 1018.02 393.925 1017.51 394.282C1017.51 394.282 1015.89 399.138 1016.43 401.026C1016.97 402.914 1018.99 403.994 1018.99 403.994C1018.99 403.994 1014.48 411.663 1010.53 411.157C1006.58 410.651 1006.58 407.92 1005.76 405.207C1005.09 403.01 1005.49 403.589 1005.49 403.589L1007.78 401.836C1007.78 401.836 1008.46 398.868 1008.32 398.059C1008.19 397.25 1007.24 397.384 1006.57 395.227C1005.89 393.069 1005.35 390.91 1005.76 387.943C1006.16 384.976 1006.57 383.088 1008.19 382.413C1009.81 381.739 1012.64 380.66 1014.13 382.144C1015.62 383.627 1016.97 385.381 1017.37 386.864C1017.78 388.348 1018.32 390.91 1018.32 390.91Z" fill="#FFB17D"/>
<path opacity="0.2" d="M1011.94 381.098C1011.94 381.098 1014.2 381.537 1014.88 383.829C1015.29 385.254 1015.49 386.731 1015.48 388.213L1016.3 389.292C1015.52 389.883 1015.01 390.756 1014.88 391.72C1014.58 393.979 1014.34 396.71 1012.11 397.317L1015.22 397.452C1015.96 398.329 1014.88 400.124 1014.95 401.026C1015.15 403.858 1017.51 405.612 1018.45 406.286L1019.19 411.445L1010.08 415.795L1002.28 411.344L1003.6 402.442C1003.6 402.442 1005.72 401.127 1005.93 400.824C1006.13 400.52 1006.43 399.003 1006.43 399.003C1006.43 399.003 1003.5 394.653 1003.7 393.945C1003.9 393.237 1004.21 384.538 1004.31 384.133C1004.41 383.728 1004.71 381.199 1006.74 381.503C1008.76 381.806 1011.94 381.098 1011.94 381.098Z" fill="#970000"/>
<path d="M1043.84 501.255C1043.84 501.255 1053.83 504.491 1058.56 504.627C1063.28 504.762 1071.12 508.403 1071.12 508.403C1071.12 508.403 1069.63 494.646 1068.28 489.116C1067.5 485.908 1065.76 478.686 1066.12 475.224C1066.38 472.717 1068.69 473.335 1068.69 473.335C1068.69 473.335 1072.74 472.796 1073.01 470.773C1073.28 468.75 1071.39 463.287 1070.44 461.399C1069.5 459.51 1066.26 457.015 1064.09 456.071C1061.93 455.127 1057.75 453.913 1055.45 455.127C1053.16 456.341 1051.72 456.39 1050.59 458.499C1048.43 462.545 1047.21 467.805 1047.21 467.805L1050.59 471.177C1050.59 471.177 1050.86 476.033 1050.32 477.651C1049.78 479.27 1043.84 501.255 1043.84 501.255Z" fill="#3C96C5"/>
<path d="M1062.88 457.42C1062.88 457.42 1067.2 458.498 1069.06 461.837C1069.79 463.151 1070.88 464.366 1071.39 466.187C1071.89 468.007 1072.2 470.132 1071.69 471.952C1071.18 473.773 1068.45 474.583 1068.45 474.583C1068.45 474.583 1064.67 479.284 1064.77 481.51C1064.87 483.735 1064.5 483.99 1065.21 486.418C1065.92 488.846 1066.32 492.993 1066.83 495.623C1067.34 498.253 1068.96 508.268 1068.96 508.268L1049.26 502.939C1049.26 502.939 1045.43 501.831 1045.63 498.509C1045.83 495.187 1048.34 490.577 1049.56 486.025C1050.6 482.134 1049.48 479.505 1049.38 476.977C1049.27 474.448 1049.11 470.941 1047.18 470.637C1045.26 470.334 1045.86 467.198 1045.86 467.198L1045.36 462.747C1045.36 462.747 1048.63 458.431 1053.49 456.948C1056.13 456.143 1062.88 457.42 1062.88 457.42Z" fill="#3D84A3"/>
<path d="M1064 445.403C1064.34 446.207 1065.03 446.187 1064.64 447.139C1064.25 448.11 1063.47 448.068 1063.47 448.068C1063.47 448.068 1060.93 452.018 1061.39 453.626C1061.85 455.235 1064.16 456.341 1064.16 456.341C1063.99 457.274 1063.54 458.137 1062.88 458.821C1062.22 459.504 1061.38 459.979 1060.45 460.184C1058.76 460.589 1055.62 461.012 1054.91 458.701C1054.34 456.829 1054.51 455.666 1054.51 455.666C1054.51 455.666 1055.52 454.907 1056.13 454.368C1056.74 453.829 1056.51 452.427 1056.4 451.738C1056.28 451.048 1054.72 450.71 1054.15 448.872C1053.57 447.034 1053.11 445.195 1053.46 442.667C1053.8 440.139 1054.61 439.179 1055.99 438.604C1057.37 438.03 1059.72 437.88 1060.99 439.144C1062.26 440.408 1062.81 441.454 1063.15 442.718C1063.37 443.633 1063.65 444.53 1064 445.403Z" fill="#FFB17D"/>
<path opacity="0.2" d="M1057.75 437.323C1057.75 437.323 1060.55 438.068 1061.12 440.021C1061.7 441.974 1061.74 442.898 1061.74 442.898L1062.44 443.817C1061.95 444.611 1061.62 445.492 1061.46 446.411C1061.2 448.335 1060.77 450.136 1058.87 450.653L1060.6 450.764C1061.23 451.511 1060.62 453.167 1060.67 453.936C1060.85 456.349 1063.47 457.72 1064.27 458.294L1064.9 462.689L1057.14 466.395L1050.5 462.603L1051.62 455.02C1051.62 455.02 1053.43 453.9 1053.6 453.641C1053.77 453.382 1054.03 452.09 1054.03 452.09C1054.03 452.09 1051.53 448.384 1051.7 447.781C1051.88 447.178 1052.13 439.767 1052.22 439.422C1052.31 439.077 1052.57 436.923 1054.29 437.182C1055.44 437.338 1056.59 437.385 1057.75 437.323Z" fill="#970000"/>
<path d="M356 557V251.5L406 261V554L356 557Z" fill="#EFF2F8"/>
<path d="M311.5 514.5L356 556.5V397.5L311.5 514.5Z" fill="#CBD6DE"/>
<path class="house-illustration__pulsing-energy-transfer" d="M637.5 393V382.5L614 380.5V365.5M576 177L511 162.5V187.5M795.5 228.5L854.5 243.5V271M614 299V277L511 259V239M854.5 307V321.5L729.5 299V319L718.5 327.5V353L763.5 358V501L838 497.5M646 394.5V382.25V370M646 423.25V417.5M637.5 423.25V417.125M611 466H622" stroke="#EBFF00" stroke-width="5" stroke-linejoin="round" stroke-dasharray="6 8"/>
<path class="house-illustration__pulsing-energy-transfer" d="M534 470H562.473V465H592" stroke="#EBFF00" stroke-width="5" stroke-linejoin="round" stroke-dasharray="6 8"/>
</g>
<defs>
<filter id="filter0_d" x="495" y="111" width="377" height="179" filterUnits="userSpaceOnUse" color-interpolation-filters="sRGB">
<feFlood flood-opacity="0" result="BackgroundImageFix"/>
<feColorMatrix in="SourceAlpha" type="matrix" values="0 0 0 0 0 0 0 0 0 0 0 0 0 0 0 0 0 0 127 0"/>
<feOffset dx="10" dy="10"/>
<feGaussianBlur stdDeviation="10"/>
<feColorMatrix type="matrix" values="0 0 0 0 1 0 0 0 0 0.978833 0 0 0 0 0.470833 0 0 0 0.25 0"/>
<feBlend mode="normal" in2="BackgroundImageFix" result="effect1_dropShadow"/>
<feBlend mode="normal" in="SourceGraphic" in2="effect1_dropShadow" result="shape"/>
</filter>
<linearGradient id="paint0_linear" x1="505" y1="190.5" x2="842" y2="190.5" gradientUnits="userSpaceOnUse">
<stop stop-color="#00A7AA"/>
<stop offset="0.1656" stop-color="#00A2A5"/>
<stop offset="0.3699" stop-color="#019396"/>
<stop offset="0.5944" stop-color="#027A7D"/>
<stop offset="0.8319" stop-color="#04575B"/>
<stop offset="0.9985" stop-color="#053A3F"/>
</linearGradient>
<clipPath id="clip0">
<rect width="1317" height="696" fill="white"/>
</clipPath>
</defs>
</svg>
