<svg width="100" height="100" viewBox="0 0 100 100" fill="none" xmlns="http://www.w3.org/2000/svg">
<g filter="url(#filter0_d)">
<circle cx="50" cy="44" r="40" fill="#70B33B"/>
</g>
<path fill-rule="evenodd" clip-rule="evenodd" d="M66.6636 43.9813C66.7735 43.9815 66.8824 43.9602 66.984 43.9183C67.0856 43.8764 67.1779 43.8145 67.2556 43.7369C67.3333 43.6592 67.3949 43.5674 67.4368 43.4659C67.4787 43.3644 67.5002 43.2554 67.5 43.1456V31.4906H74.1636C74.2735 31.4909 74.3824 31.4696 74.484 31.4277C74.5856 31.3857 74.6778 31.3239 74.7555 31.2462C74.8332 31.1686 74.8949 31.0767 74.9369 30.9752C74.9788 30.8737 75.0002 30.7648 75 30.655V27.33C74.9992 27.299 74.993 27.2681 74.9818 27.2391C74.9749 27.1776 74.9627 27.1171 74.9454 27.0577C74.9272 27.0123 74.9091 26.9761 74.8909 26.9397C74.8181 26.7943 74.7001 26.6763 74.5546 26.6035C74.5166 26.5762 74.4732 26.5576 74.4273 26.5489C74.4 26.5399 74.3818 26.5217 74.3546 26.5126L42.69 19.0182C42.6272 19.0076 42.5637 19.0015 42.5 19H39.1664C39.068 18.9999 38.9706 19.0184 38.8791 19.0546L38.8145 19.0816C38.7927 19.0907 38.7755 19.1 38.7573 19.1091L25.4245 26.6035C25.3827 26.6293 25.3441 26.6599 25.3091 26.6944C25.2818 26.7126 25.2555 26.7397 25.2309 26.7579C25.1614 26.8291 25.105 26.9122 25.0645 27.0031V27.012C25.0279 27.1047 25.0079 27.2034 25.0054 27.303C25.0054 27.3121 25 27.321 25 27.33V30.655C24.9996 30.7646 25.021 30.873 25.0627 30.9743C25.1044 31.0757 25.1658 31.1682 25.2432 31.2458C25.3206 31.3234 25.4127 31.3847 25.514 31.4268C25.6153 31.4688 25.7239 31.4906 25.8336 31.4906H37.5V46.97L34.4091 50.0585C34.3318 50.1344 34.2704 50.2248 34.2285 50.3246C34.1865 50.4244 34.1648 50.5317 34.1645 50.64V63.9663H32.5V68.9626H49.1664V63.9663H47.5V50.64C47.4998 50.5317 47.4781 50.4244 47.4361 50.3246C47.3941 50.2248 47.3327 50.1344 47.2555 50.0585L44.1645 46.97V31.4906H60.8346V43.1456C60.834 43.2548 60.8549 43.363 60.8961 43.4641C60.9374 43.5652 60.9981 43.6571 61.0749 43.7347C61.1518 43.8123 61.2431 43.8738 61.3438 43.9161C61.4445 43.9584 61.5526 43.9807 61.6618 43.9813H63.3346V46.4794C63.334 46.5886 63.3549 46.6968 63.3961 46.7979C63.4374 46.899 63.4981 46.9908 63.5749 47.0685C63.6518 47.1461 63.7431 47.208 63.8438 47.2503C63.9445 47.2926 64.0526 47.3145 64.1618 47.3151C64.4909 47.3151 64.8125 47.4127 65.0861 47.5954C65.3596 47.7781 65.5729 48.0377 65.6988 48.3415C65.8247 48.6452 65.8577 48.9793 65.7935 49.3018C65.7293 49.6242 65.5709 49.9205 65.3382 50.153C65.1055 50.3855 64.8091 50.5439 64.4864 50.6081C64.1636 50.6722 63.8292 50.6394 63.5252 50.5136C63.2212 50.3878 62.9613 50.1744 62.7785 49.901C62.5957 49.6276 62.4982 49.3063 62.4982 48.9775V48.1419H60.8346V48.9775C60.8349 49.5735 60.9964 50.1584 61.3021 50.6702C61.6078 51.1819 62.0461 51.6015 62.5709 51.8846L56.3164 58.1344H54.1618C54.0526 58.135 53.9445 58.1568 53.8438 58.1991C53.7431 58.2415 53.6518 58.3034 53.5749 58.381C53.4981 58.4586 53.4374 58.5505 53.3961 58.6516C53.3549 58.7526 53.334 58.8609 53.3346 58.97V66.4644C53.334 66.5736 53.3549 66.6818 53.3961 66.7829C53.4374 66.884 53.4981 66.9759 53.5749 67.0535C53.6518 67.1311 53.7431 67.193 53.8438 67.2353C53.9445 67.2777 54.0526 67.2995 54.1618 67.3001H74.1618C74.2717 67.3003 74.3806 67.279 74.4822 67.2371C74.5838 67.1952 74.676 67.1338 74.7537 67.0561C74.8315 66.9785 74.893 66.8862 74.935 66.7847C74.9769 66.6832 74.9985 66.5742 74.9982 66.4644V58.97C74.9985 58.8602 74.9769 58.7513 74.935 58.6498C74.893 58.5483 74.8315 58.456 74.7537 58.3783C74.676 58.3007 74.5838 58.2393 74.4822 58.1974C74.3806 58.1554 74.2717 58.1341 74.1618 58.1344H72.0073L65.7527 51.8846C66.34 51.5673 66.8178 51.0802 67.124 50.4874C67.4301 49.8946 67.5502 49.2236 67.4688 48.5615C67.3873 47.8994 67.108 47.2772 66.6673 46.7761C66.2265 46.2751 65.6448 45.9185 64.9982 45.7529V43.9813H66.6618H66.6636ZM67.5 28.1568H73.3364V29.8282H67.5V28.1568ZM73.3364 59.8057V65.6288H55V59.8057H73.3364ZM69.6545 58.1344H58.6818L64.1637 52.6564L69.6545 58.1344ZM65.8363 38.985H62.5V31.4906H65.8363V38.985ZM65.8363 29.8282H62.5V28.1568H65.8363V29.8282ZM40 20.6625H41.6664V26.4944H40V20.6625ZM39.1664 28.1568H42.5V29.4831L42.1554 29.8282H39.1664V28.1568ZM42.5 31.8357V37.8043L39.5118 34.8244L42.5 31.8357ZM39.1664 31.4906H40.4882L39.1664 32.808V31.4906ZM39.1664 36.832L42.1554 39.8207L39.1664 42.8005V36.832ZM42.5 41.8282V47.7968L39.5118 44.8169L42.5 41.8282ZM39.1664 47.3151V46.8245L42.1554 49.8132L39.1664 52.793V47.3151ZM42.5 51.8207V57.7893L39.5118 54.8095L42.5 51.8207ZM39.1664 56.817L42.1554 59.8057L39.1664 62.7855V56.817ZM42.5 61.8133V63.9663H40.3455L42.5 61.8133ZM38.3336 21.2528V26.4944H29.0146L38.3336 21.2528ZM26.6664 29.8282V28.1568H37.5V29.8282H26.6664ZM35.8336 50.9851L37.5 49.3226V63.9663H35.8336V50.9851ZM47.5 65.6288V67.3001H34.1664V65.6288H47.5ZM45.8336 50.9851V63.9663H44.1664V49.3226L45.8336 50.9851ZM60.8336 29.8282H44.1664V28.1568H60.8363V29.8282H60.8336ZM43.3309 26.4944V20.8896L67.0336 26.4944H43.3336H43.3309ZM62.4973 42.3188V40.6475H65.8336V42.3188H62.4973Z" fill="white"/>
<defs>
<filter id="filter0_d" x="0" y="0" width="100" height="100" filterUnits="userSpaceOnUse" color-interpolation-filters="sRGB">
<feFlood flood-opacity="0" result="BackgroundImageFix"/>
<feColorMatrix in="SourceAlpha" type="matrix" values="0 0 0 0 0 0 0 0 0 0 0 0 0 0 0 0 0 0 127 0"/>
<feOffset dy="6"/>
<feGaussianBlur stdDeviation="5"/>
<feColorMatrix type="matrix" values="0 0 0 0 0 0 0 0 0 0 0 0 0 0 0 0 0 0 0.1 0"/>
<feBlend mode="normal" in2="BackgroundImageFix" result="effect1_dropShadow"/>
<feBlend mode="normal" in="SourceGraphic" in2="effect1_dropShadow" result="shape"/>
</filter>
</defs>
</svg>
