<svg width="40" height="40" viewBox="0 0 40 40" fill="none" xmlns="http://www.w3.org/2000/svg">
<path fill-rule="evenodd" clip-rule="evenodd" d="M19.9997 3.3335C10.7997 3.3335 3.33301 10.8002 3.33301 20.0002C3.33301 29.2002 10.7997 36.6668 19.9997 36.6668C29.1997 36.6668 36.6663 29.2002 36.6663 20.0002C36.6663 10.8002 29.1997 3.3335 19.9997 3.3335ZM19.9997 33.3335C12.6497 33.3335 6.66634 27.3502 6.66634 20.0002C6.66634 12.6502 12.6497 6.66683 19.9997 6.66683C27.3497 6.66683 33.333 12.6502 33.333 20.0002C33.333 27.3502 27.3497 33.3335 19.9997 33.3335ZM9.99967 23.3335C9.99967 21.4925 11.4921 20.0002 13.333 20.0002C15.174 20.0002 16.6663 21.4925 16.6663 23.3335C16.6663 25.1744 15.174 26.6668 13.333 26.6668C11.4921 26.6668 9.99967 25.1744 9.99967 23.3335ZM19.9997 10.0002C18.1587 10.0002 16.6663 11.4925 16.6663 13.3335C16.6663 15.1744 18.1587 16.6668 19.9997 16.6668C21.8406 16.6668 23.333 15.1744 23.333 13.3335C23.333 11.4925 21.8406 10.0002 19.9997 10.0002ZM23.333 23.3335C23.333 21.4925 24.8254 20.0002 26.6663 20.0002C28.5073 20.0002 29.9997 21.4925 29.9997 23.3335C29.9997 25.1744 28.5073 26.6668 26.6663 26.6668C24.8254 26.6668 23.333 25.1744 23.333 23.3335Z" fill="white"/>
</svg>
