<svg width="110" height="42" viewBox="0 0 110 42" fill="none" xmlns="http://www.w3.org/2000/svg">
<path d="M13.2645 24.4848C13.2645 20.4719 16.2125 17.5239 20.3888 17.5239C23.6236 17.5239 26.1622 19.305 27.1041 21.9868H25.4865C24.6267 20.1033 22.7635 18.875 20.3888 18.875C17.0517 18.875 14.7385 21.25 14.7385 24.4848C14.7385 27.7196 17.0517 30.0942 20.3888 30.0942C23.296 30.0942 25.4047 28.4561 25.9369 25.7949H19.5493V24.4436H27.4929V25.1398C27.1858 28.8044 24.3398 31.4453 20.3888 31.4453C16.2124 31.4453 13.2644 28.4973 13.2644 24.4848" fill="white"/>
<path d="M50.0864 18.0562H59.9132V19.4075H51.5607V23.9727H58.726V25.3241H51.5607V30.0941H59.9132V31.4454H50.0864V18.0562Z" fill="white"/>
<path d="M88.1656 19.4075H83.6206V18.0562H94.1842V19.4075H89.6396V31.4454H88.1656V19.4075Z" fill="white"/>
<path d="M0.735382 16.2136L0.311658 15.6126L20.8382 1.1347C20.9636 1.04606 21.1135 0.998962 21.267 1.00002C21.4206 1.00107 21.5699 1.05023 21.694 1.14058L41.8917 15.797C41.9857 15.8652 42.0623 15.9546 42.115 16.0581C42.1678 16.1616 42.1952 16.2761 42.1951 16.3922V40.0545C42.1951 40.2495 42.1177 40.4365 41.9798 40.5744C41.8418 40.7124 41.6548 40.7898 41.4598 40.7898H0.735382C0.540346 40.7898 0.353301 40.7124 0.21539 40.5744C0.0774792 40.4365 0 40.2495 0 40.0545V16.2137C0.000126215 16.0959 0.0284811 15.9799 0.0826856 15.8753C0.13689 15.7707 0.215364 15.6807 0.311536 15.6127L0.735382 16.2137H1.47076V39.3191H40.7243V16.7672L21.2559 2.63993L1.15934 16.8146L0.735472 16.2136H0.735382Z" fill="white"/>
<path d="M68.5403 16.214L68.1165 15.6131L88.643 1.13518C88.7684 1.04655 88.9183 0.99945 89.0719 1.00051C89.2254 1.00156 89.3747 1.05072 89.4988 1.14106L109.696 15.7975C109.791 15.8657 109.867 15.9551 109.92 16.0586C109.973 16.1621 110 16.2766 110 16.3927V40.0549C110 40.25 109.922 40.437 109.785 40.5749C109.647 40.7128 109.46 40.7903 109.265 40.7903H68.5403C68.3453 40.7903 68.1582 40.7128 68.0203 40.5749C67.8824 40.437 67.8049 40.25 67.8049 40.0549V16.2142C67.8051 16.0964 67.8334 15.9804 67.8876 15.8758C67.9418 15.7712 68.0203 15.6812 68.1165 15.6132L68.5403 16.2142H69.2757V39.3196H108.529V16.7676L89.0607 2.64033L68.9642 16.815L68.5403 16.214H68.5403Z" fill="white"/>
<path d="M34.6379 16.2137L55.1645 1.73584L75.3622 16.3923V40.0545H34.6379V16.2137Z" stroke="white" stroke-width="2.11667" stroke-linecap="square" stroke-linejoin="round"/>
</svg>
