<svg id="Layer_1" data-name="Layer 1" xmlns="http://www.w3.org/2000/svg" xmlns:xlink="http://www.w3.org/1999/xlink" viewBox="0 0 594.28 402.53"><defs><style>.cls-1{fill:#002444;}.cls-2{fill:#3b95c4;}.cls-3{fill:url(#New_Gradient_Swatch_5);}.cls-4{fill:url(#New_Gradient_Swatch_4);}.cls-5{fill:none;stroke:#051b3e;stroke-linecap:square;stroke-linejoin:round;stroke-width:6px;}</style><linearGradient id="New_Gradient_Swatch_5" x1="-298.3" y1="840.89" x2="-296.71" y2="840.89" gradientTransform="matrix(-113.99, -113.99, -113.99, 113.99, 62055.81, -129396.46)" gradientUnits="userSpaceOnUse"><stop offset="0" stop-color="#51bbbb"/><stop offset="0.02" stop-color="#52bbb6"/><stop offset="0.16" stop-color="#5bb890"/><stop offset="0.3" stop-color="#63b671"/><stop offset="0.45" stop-color="#69b459"/><stop offset="0.61" stop-color="#6db348"/><stop offset="0.79" stop-color="#6fb23e"/><stop offset="1" stop-color="#70b23b"/></linearGradient><linearGradient id="New_Gradient_Swatch_4" x1="-295.7" y1="840.29" x2="-294.11" y2="840.29" gradientTransform="matrix(113.69, -113.69, -113.69, -113.69, 129536.32, 62371.77)" gradientUnits="userSpaceOnUse"><stop offset="0" stop-color="#51bbbb"/><stop offset="0.09" stop-color="#4db3bd"/><stop offset="0.36" stop-color="#43a2c1"/><stop offset="0.64" stop-color="#3d98c3"/><stop offset="1" stop-color="#3b95c4"/></linearGradient></defs><title>logo-color.inline</title><path class="cls-1" d="M1.61,493.18c0-16,11.77-27.78,28.44-27.78,13,0,23,7.11,26.81,17.89H47.62c-3.1-6.29-9.4-10.21-17.57-10.21-11.85,0-20,8.5-20,20.1s8.17,20.11,20,20.11c9.73,0,16.92-4.91,19.45-13.82H26.78v-7.68H58.41v4.09C57.18,510.51,45.74,521,30.05,521,13.38,521,1.61,509.2,1.61,493.18" transform="translate(-1.08 -222.52)"/><path class="cls-1" d="M66.17,466.46h23c13.15,0,18.87,7.27,18.87,17.16,0,8-3.76,14.3-12.17,16.43L110,519.9H100L87.26,500.78H74.51V519.9H66.17Zm23,26.64c7.76,0,10.38-4.09,10.38-9.48s-2.7-9.48-10.38-9.48H74.51v19Z" transform="translate(-1.08 -222.52)"/><polygon class="cls-1" points="116.33 243.94 155.64 243.94 155.64 251.62 124.67 251.62 124.67 266.33 150.9 266.33 150.9 274.01 124.67 274.01 124.67 289.7 155.64 289.7 155.64 297.38 116.33 297.38 116.33 243.94"/><polygon class="cls-1" points="164.88 243.94 204.18 243.94 204.18 251.62 173.21 251.62 173.21 266.33 199.44 266.33 199.44 274.01 173.21 274.01 173.21 289.7 204.18 289.7 204.18 297.38 164.88 297.38 164.88 243.94"/><path class="cls-1" d="M213.27,487.54c0-13.56,8.09-22.14,22.56-22.14s22.63,8.58,22.63,22.14V519.9h-8.33V487.54c0-9-4.91-14.46-14.3-14.46s-14.22,5.47-14.22,14.46V519.9h-8.34Z" transform="translate(-1.08 -222.52)"/><polygon class="cls-1" points="288.85 243.94 328.15 243.94 328.15 251.62 297.18 251.62 297.18 266.33 323.42 266.33 323.42 274.01 297.18 274.01 297.18 289.7 328.15 289.7 328.15 297.38 288.85 297.38 288.85 243.94"/><path class="cls-1" d="M337.24,487.54c0-13.56,8.09-22.14,22.56-22.14s22.63,8.58,22.63,22.14V519.9H374.1V487.54c0-9-4.9-14.46-14.3-14.46s-14.22,5.47-14.22,14.46V519.9h-8.34Z" transform="translate(-1.08 -222.52)"/><polygon class="cls-1" points="391.08 243.94 430.39 243.94 430.39 251.62 399.42 251.62 399.42 266.33 425.65 266.33 425.65 274.01 399.42 274.01 399.42 289.7 430.39 289.7 430.39 297.38 391.08 297.38 391.08 243.94"/><path class="cls-1" d="M440.7,466.46h23c13.15,0,18.87,7.27,18.87,17.16,0,8-3.76,14.3-12.17,16.43l14.14,19.85h-10l-12.75-19.12H449V519.9H440.7Zm23.05,26.64c7.76,0,10.38-4.09,10.38-9.48s-2.7-9.48-10.38-9.48H449v19Z" transform="translate(-1.08 -222.52)"/><path class="cls-1" d="M488.92,493.18c0-16,11.77-27.78,28.44-27.78,13,0,23,7.11,26.8,17.89h-9.23c-3.11-6.29-9.4-10.21-17.57-10.21-11.85,0-20,8.5-20,20.1s8.17,20.11,20,20.11c9.72,0,16.92-4.91,19.45-13.82H514.09v-7.68h31.63v4.09C544.49,510.51,533.05,521,517.36,521c-16.67,0-28.44-11.77-28.44-27.79" transform="translate(-1.08 -222.52)"/><polygon class="cls-1" points="564.41 274.5 543.25 243.94 553.22 243.94 568.58 267.23 584.03 243.94 593.75 243.94 572.75 274.26 572.75 297.38 564.41 297.38 564.41 274.5"/><polygon class="cls-2" points="24.81 336.29 0.88 336.29 0.88 325.43 60.64 325.43 60.64 336.29 36.6 336.29 36.6 401.03 24.81 401.03 24.81 336.29"/><path class="cls-2" d="M63.8,585.75c0-22.66,16.65-39.3,40.24-39.3s40.23,16.64,40.23,39.3-16.65,39.3-40.23,39.3S63.8,608.41,63.8,585.75m68.56,0c0-16.42-11.56-28.44-28.32-28.44s-28.33,12-28.33,28.44S87.27,614.19,104,614.19s28.32-12,28.32-28.44" transform="translate(-1.08 -222.52)"/><path class="cls-2" d="M152.13,585.75c0-22.66,16.64-39.3,40.23-39.3,18.38,0,32.48,10,37.92,25.31H217.21c-4.39-8.9-13.29-14.45-24.85-14.45-16.76,0-28.33,12-28.33,28.44s11.57,28.44,28.33,28.44c13.75,0,23.93-6.94,27.51-19.54H187.73V583.79h44.74v5.77c-1.73,20.7-17.92,35.49-40.11,35.49-23.59,0-40.23-16.64-40.23-39.3" transform="translate(-1.08 -222.52)"/><polygon class="cls-2" points="242.38 325.43 297.98 325.43 297.98 336.29 254.17 336.29 254.17 357.1 291.28 357.1 291.28 367.97 254.17 367.97 254.17 390.16 297.98 390.16 297.98 401.03 242.38 401.03 242.38 325.43"/><polygon class="cls-2" points="330.35 336.29 306.42 336.29 306.42 325.43 366.19 325.43 366.19 336.29 342.14 336.29 342.14 401.03 330.35 401.03 330.35 336.29"/><polygon class="cls-2" points="377.06 325.43 388.85 325.43 388.85 357.22 431.05 357.22 431.05 325.43 442.84 325.43 442.84 401.03 431.05 401.03 431.05 368.08 388.85 368.08 388.85 401.03 377.06 401.03 377.06 325.43"/><polygon class="cls-2" points="458.33 325.43 513.93 325.43 513.93 336.29 470.12 336.29 470.12 357.1 507.23 357.1 507.23 367.97 470.12 367.97 470.12 390.16 513.93 390.16 513.93 401.03 458.33 401.03 458.33 325.43"/><path class="cls-2" d="M528.08,548h32.48c18.61,0,26.71,10.29,26.71,24.27,0,11.33-5.32,20.23-17.23,23.24l20,28.09h-14.1l-18-27h-18v27H528.08Zm32.6,37.68c11,0,14.68-5.78,14.68-13.41s-3.82-13.41-14.68-13.41H539.87v26.82Z" transform="translate(-1.08 -222.52)"/><path class="cls-1" d="M72.74,349.4c0-21.68,15.93-37.61,38.49-37.61,17.48,0,31.19,9.63,36.28,24.11h-8.74c-4.64-10.17-14.71-16.81-27.54-16.81-18,0-30.53,12.83-30.53,30.31s12.5,30.31,30.53,30.31c15.71,0,27.1-8.85,30-23.23H106.7v-7.3h42.91v3.76c-1.66,19.8-17,34.06-38.38,34.06-22.56,0-38.49-15.92-38.49-37.6" transform="translate(-1.08 -222.52)"/><polygon class="cls-1" points="270.6 92.15 323.69 92.15 323.69 99.45 278.56 99.45 278.56 124.11 317.27 124.11 317.27 131.41 278.56 131.41 278.56 157.18 323.69 157.18 323.69 164.48 270.6 164.48 270.6 92.15"/><polygon class="cls-1" points="476.32 99.45 451.77 99.45 451.77 92.15 508.84 92.15 508.84 99.45 484.29 99.45 484.29 164.48 476.32 164.48 476.32 99.45"/><path class="cls-3" d="M5.05,304.71l-2.29-3.24,110.9-78.22a4,4,0,0,1,4.62,0L227.4,302.46a4,4,0,0,1,1.64,3.22V433.52a4,4,0,0,1-4,4H5.05a4,4,0,0,1-4-4V304.71a4,4,0,0,1,1.68-3.24l2.29,3.24H9V429.54H221.1V307.71L115.92,231.38,7.34,308l-2.29-3.25h0Z" transform="translate(-1.08 -222.52)"/><path class="cls-4" d="M371.37,304.71l-2.29-3.24L480,223.25a4,4,0,0,1,4.62,0l109.12,79.18a4,4,0,0,1,1.64,3.22V433.52a4,4,0,0,1-4,4h-220a4,4,0,0,1-2.81-1.16,4.05,4.05,0,0,1-1.16-2.81V304.71a4,4,0,0,1,1.68-3.24l2.29,3.24h4V429.54H587.42V307.71L482.24,231.38,373.66,308l-2.29-3.25h0Z" transform="translate(-1.08 -222.52)"/><polygon class="cls-5" points="187.13 82.19 298.03 3.98 407.15 83.16 407.15 211 187.13 211 187.13 82.19"/></svg>