<svg width="50" height="50" viewBox="0 0 50 50" fill="none" xmlns="http://www.w3.org/2000/svg">
<path fill-rule="evenodd" clip-rule="evenodd" d="M41.6636 25C41.7735 25.0002 41.8824 24.9789 41.984 24.937C42.0856 24.895 42.1779 24.8331 42.2556 24.7554C42.3333 24.6777 42.3949 24.5858 42.4368 24.4842C42.4787 24.3826 42.5002 24.2736 42.5 24.1637V12.5H49.1636C49.2735 12.5002 49.3824 12.4789 49.484 12.437C49.5856 12.395 49.6778 12.3331 49.7555 12.2554C49.8332 12.1777 49.8949 12.0858 49.9369 11.9842C49.9788 11.8826 50.0002 11.7736 50 11.6637V8.33629C49.9992 8.30517 49.993 8.27434 49.9818 8.24529C49.9749 8.18375 49.9627 8.12319 49.9454 8.06374C49.9272 8.01829 49.9091 7.98203 49.8909 7.94567C49.8181 7.80014 49.7001 7.68201 49.5546 7.6092C49.5166 7.58192 49.4732 7.56325 49.4273 7.5546C49.4 7.54551 49.3818 7.52729 49.3546 7.5182L17.69 0.0182001C17.6272 0.00760006 17.5637 0.00150607 17.5 5.0259e-07H14.1664C14.068 -0.000111356 13.9706 0.0184496 13.8791 0.0545992L13.8145 0.0816766C13.7927 0.0907675 13.7755 0.100107 13.7573 0.109198L0.424532 7.6092C0.382743 7.63505 0.344055 7.66564 0.30912 7.7002C0.281847 7.71838 0.255485 7.74549 0.230939 7.76367C0.161413 7.83501 0.105047 7.91814 0.0645353 8.00914V8.01802C0.0279453 8.11078 0.00794177 8.20953 0.00544213 8.30922C0.00544213 8.31831 4.45598e-06 8.3272 4.45598e-06 8.33629V11.6637C-0.000354446 11.7734 0.0209708 11.8819 0.0627042 11.9833C0.104438 12.0848 0.165756 12.1773 0.243202 12.255C0.320648 12.3327 0.412656 12.394 0.513976 12.4361C0.615295 12.4781 0.723929 12.5 0.833634 12.5H12.5V27.9909L9.40907 31.0818C9.33182 31.1577 9.27044 31.2482 9.22846 31.3481C9.18648 31.448 9.16475 31.5554 9.16454 31.6637V45H7.5V50H24.1664V45H22.5V31.6637C22.4998 31.5554 22.4781 31.448 22.4361 31.3481C22.3941 31.2482 22.3327 31.1577 22.2555 31.0818L19.1645 27.9909V12.5H35.8346V24.1637C35.834 24.2729 35.8549 24.3813 35.8961 24.4824C35.9374 24.5836 35.9981 24.6755 36.0749 24.7532C36.1518 24.8309 36.2431 24.8924 36.3438 24.9347C36.4445 24.9771 36.5526 24.9994 36.6618 25H38.3346V27.5C38.334 27.6092 38.3549 27.7176 38.3961 27.8187C38.4374 27.9199 38.4981 28.0118 38.5749 28.0895C38.6518 28.1672 38.7431 28.2291 38.8438 28.2715C38.9445 28.3138 39.0526 28.3357 39.1618 28.3363C39.4909 28.3363 39.8125 28.434 40.0861 28.6168C40.3596 28.7996 40.5729 29.0595 40.6988 29.3635C40.8247 29.6674 40.8577 30.0018 40.7935 30.3245C40.7293 30.6472 40.5709 30.9436 40.3382 31.1763C40.1055 31.409 39.8091 31.5676 39.4864 31.6317C39.1636 31.6959 38.8292 31.6631 38.5252 31.5372C38.2212 31.4113 37.9613 31.1978 37.7785 30.9242C37.5957 30.6506 37.4982 30.329 37.4982 30V29.1637H35.8346V30C35.8349 30.5964 35.9964 31.1818 36.3021 31.6939C36.6078 32.206 37.0461 32.6259 37.5709 32.9093L31.3164 39.1637H29.1618C29.0526 39.1643 28.9445 39.1862 28.8438 39.2285C28.7431 39.2709 28.6518 39.3328 28.5749 39.4105C28.4981 39.4882 28.4374 39.5801 28.3961 39.6813C28.3549 39.7824 28.334 39.8908 28.3346 40V47.5C28.334 47.6092 28.3549 47.7176 28.3961 47.8187C28.4374 47.9199 28.4981 48.0118 28.5749 48.0895C28.6518 48.1671 28.7431 48.2291 28.8438 48.2715C28.9445 48.3138 29.0526 48.3357 29.1618 48.3363H49.1618C49.2717 48.3365 49.3806 48.3152 49.4822 48.2733C49.5838 48.2313 49.676 48.1699 49.7537 48.0921C49.8315 48.0144 49.893 47.9221 49.935 47.8205C49.9769 47.7189 49.9985 47.6099 49.9982 47.5V40C49.9985 39.8901 49.9769 39.7811 49.935 39.6795C49.893 39.5779 49.8315 39.4856 49.7537 39.4078C49.676 39.3301 49.5838 39.2687 49.4822 39.2267C49.3806 39.1848 49.2717 39.1635 49.1618 39.1637H47.0073L40.7527 32.9093C41.34 32.5917 41.8178 32.1043 42.124 31.511C42.4301 30.9178 42.5502 30.2462 42.4688 29.5836C42.3873 28.921 42.108 28.2984 41.6673 27.797C41.2265 27.2955 40.6448 26.9387 39.9982 26.7729V25H41.6618H41.6636ZM42.5 9.16371H48.3364V10.8363H42.5V9.16371ZM48.3364 40.8363V46.6637H30V40.8363H48.3364ZM44.6545 39.1637H33.6818L39.1637 33.6816L44.6545 39.1637ZM40.8363 20H37.5V12.5H40.8363V20ZM40.8363 10.8363H37.5V9.16371H40.8363V10.8363ZM15 1.66371H16.6664V7.5H15V1.66371ZM14.1664 9.16371H17.5V10.4909L17.1554 10.8363H14.1664V9.16371ZM17.5 12.8453V18.8184L14.5118 15.8363L17.5 12.8453ZM14.1664 12.5H15.4882L14.1664 13.8184V12.5ZM14.1664 17.8453L17.1554 20.8363L14.1664 23.8184V17.8453ZM17.5 22.8453V28.8184L14.5118 25.8363L17.5 22.8453ZM14.1664 28.3363V27.8453L17.1554 30.8363L14.1664 33.8184V28.3363ZM17.5 32.8453V38.8184L14.5118 35.8363L17.5 32.8453ZM14.1664 37.8453L17.1554 40.8363L14.1664 43.8184V37.8453ZM17.5 42.8453V45H15.3455L17.5 42.8453ZM13.3336 2.25453V7.5H4.01456L13.3336 2.25453ZM1.66637 10.8363V9.16371H12.5V10.8363H1.66637ZM10.8336 32.0091L12.5 30.3453V45H10.8336V32.0091ZM22.5 46.6637V48.3363H9.16637V46.6637H22.5ZM20.8336 32.0091V45H19.1664V30.3453L20.8336 32.0091ZM35.8336 10.8363H19.1664V9.16371H35.8363V10.8363H35.8336ZM18.3309 7.5V1.89098L42.0336 7.5H18.3336H18.3309ZM37.4973 23.3363V21.6637H40.8336V23.3363H37.4973Z" fill="#051C3F"/>
</svg>
