<svg width="50" height="50" viewBox="0 0 50 50" fill="none" xmlns="http://www.w3.org/2000/svg">
<path d="M2.1325 14.4375L2.94875 18.0865C2.98329 18.2408 3.06101 18.382 3.17283 18.4937C3.28465 18.6053 3.42594 18.6829 3.58021 18.7173L7.22906 19.5336L10.3867 21.5373C10.5202 21.6218 10.675 21.6666 10.833 21.6666C10.991 21.6666 11.1458 21.6218 11.2794 21.5373L14.4374 19.5336L18.0864 18.7175C18.2407 18.6831 18.382 18.6055 18.4938 18.4939C18.6056 18.3822 18.6834 18.241 18.7179 18.0867L19.5341 14.4377L21.537 11.2801C21.6217 11.1465 21.6666 10.9915 21.6666 10.8333C21.6666 10.6751 21.6217 10.5202 21.537 10.3865L19.5339 7.22915L18.7177 3.58009C18.6831 3.42587 18.6054 3.28466 18.4936 3.17297C18.3818 3.06128 18.2405 2.98373 18.0862 2.94937L14.4374 2.13301L11.2796 0.129371C11.146 0.0448628 10.9912 0 10.8332 0C10.6752 0 10.5204 0.0448628 10.3869 0.129371L7.22906 2.13301L3.58021 2.94916C3.42594 2.98352 3.28465 3.06108 3.17283 3.17277C3.06101 3.28445 2.98329 3.42566 2.94875 3.57989L2.1325 7.22915L0.129692 10.3865C0.0449794 10.5202 0 10.6751 0 10.8333C0 10.9915 0.0449794 11.1465 0.129692 11.2801L2.1325 14.4375ZM3.6176 7.99998C3.66918 7.9188 3.70636 7.82933 3.7275 7.7355L4.45989 4.46041L7.7351 3.72718C7.8291 3.7067 7.91874 3.66978 7.99989 3.61812L10.8332 1.82051L13.6665 3.61812C13.7476 3.66975 13.8371 3.70667 13.931 3.72718L17.2062 4.46041L17.9386 7.73519C17.9598 7.82915 17.9971 7.91873 18.0488 7.99998L19.8464 10.8333L18.0488 13.6666C17.9973 13.7478 17.9601 13.8373 17.9389 13.9311L17.2065 17.2059L13.9313 17.9391C13.8375 17.9596 13.7479 17.9966 13.6669 18.0482L10.8332 19.8461L7.99989 18.0485C7.91883 17.9969 7.8293 17.96 7.73541 17.9394L4.45989 17.2062L3.7275 13.9314C3.70639 13.8375 3.66921 13.7479 3.6176 13.6666L1.82 10.8333L3.6176 7.99998Z" fill="#051C3F"/>
<path d="M10.8333 16.6666H11.0498V16.6562C12.5378 16.556 13.9262 15.8724 14.9129 14.7541C15.8997 13.6357 16.405 12.173 16.319 10.6841C16.2331 9.1951 15.5628 7.80028 14.4539 6.80288C13.3451 5.80549 11.8873 5.28618 10.3976 5.35787C8.90788 5.42956 7.5067 6.08645 6.49873 7.18572C5.49077 8.28498 4.95752 9.73772 5.01494 11.228C5.07237 12.7184 5.71582 14.1258 6.80538 15.1442C7.89494 16.1627 9.34251 16.7098 10.8333 16.6666ZM10.8333 6.66666C11.6574 6.66666 12.463 6.91103 13.1482 7.36887C13.8334 7.82671 14.3674 8.47745 14.6828 9.23881C14.9982 10.0002 15.0807 10.8379 14.9199 11.6462C14.7591 12.4545 14.3623 13.1969 13.7796 13.7796C13.1969 14.3623 12.4544 14.7592 11.6462 14.9199C10.8379 15.0807 10.0002 14.9982 9.23881 14.6828C8.47745 14.3675 7.82671 13.8334 7.36887 13.1482C6.91103 12.463 6.66666 11.6574 6.66666 10.8333C6.66796 9.72865 7.10736 8.6696 7.88848 7.88848C8.6696 7.10736 9.72865 6.66796 10.8333 6.66666Z" fill="#051C3F"/>
<path d="M49.1669 36.6667H46.6669V34.1667C46.6669 33.9457 46.5791 33.7337 46.4228 33.5775C46.2665 33.4212 46.0546 33.3334 45.8335 33.3334H45.0002V24.1667C45.0002 23.9457 44.9124 23.7337 44.7561 23.5775C44.5999 23.4212 44.3879 23.3334 44.1669 23.3334H34.5571L38.3103 7.69456C38.3397 7.57208 38.341 7.44453 38.314 7.3215C38.287 7.19847 38.2325 7.08316 38.1545 6.98423C38.0765 6.88531 37.9771 6.80535 37.8638 6.75036C37.7505 6.69537 37.6262 6.66678 37.5002 6.66675H22.1877V8.33341H27.2767L25.6773 15.0001H20.8336V16.6667H25.2767L23.6767 23.3334H19.557L20.3103 20.1945L18.69 19.8056L17.8434 23.3334H13.7318L13.9354 22.4862L12.3152 22.0972L12.0181 23.3334H7.89214L8.24526 21.862L6.62526 21.4714L0.0234992 48.9722C-0.00589614 49.0947 -0.00714444 49.2222 0.019848 49.3453C0.0468405 49.4683 0.101371 49.5836 0.179342 49.6825C0.257312 49.7815 0.356693 49.8614 0.470013 49.9164C0.583333 49.9714 0.707645 50 0.833602 50H27.5002C27.6874 50 27.8691 49.9369 28.016 49.821C28.163 49.7051 28.2667 49.5432 28.3103 49.3612L33.3571 28.3334H35.0002V33.3334H34.1669C33.9459 33.3334 33.7339 33.4212 33.5776 33.5775C33.4214 33.7337 33.3336 33.9457 33.3336 34.1667V36.6667H32.9169V38.3334H48.3335V48.3334H31.6669V45.2775H30.0002V49.1667C30.0002 49.3877 30.088 49.5997 30.2443 49.7559C30.4006 49.9122 30.6125 50 30.8336 50H49.1669C49.3879 50 49.5998 49.9122 49.7561 49.7559C49.9124 49.5997 50.0002 49.3877 50.0002 49.1667V37.5C50.0002 37.279 49.9124 37.0671 49.7561 36.9108C49.5998 36.7545 49.3879 36.6667 49.1669 36.6667ZM11.3287 33.3334H15.4433L13.844 40H9.72672L11.3287 33.3334ZM8.01286 40H3.8912L5.49151 33.3334H9.61484L8.01286 40ZM27.5097 31.6667H23.3903L24.9903 25.0001H29.1098L27.5097 31.6667ZM27.1097 33.3334L25.5098 40H21.3904L22.9904 33.3334H27.1097ZM19.6773 40H15.5575L17.1575 33.3334H21.2772L19.6773 40ZM13.4439 41.6667L11.8439 48.3334H7.72401L9.32609 41.6667H13.4439ZM15.1575 41.6667H19.2773L17.6772 48.3334H13.5571L15.1575 41.6667ZM20.9909 41.6667H25.1102L23.5102 48.3334H19.3905L20.9909 41.6667ZM28.9909 8.33341H33.1102L31.5102 15.0001H27.3903L28.9909 8.33341ZM26.9909 16.6667H31.1102L29.5103 23.3334H25.3904L26.9909 16.6667ZM23.2773 25.0001L21.6773 31.6667H17.5575L19.1575 25.0001H23.2773ZM17.444 25.0001L15.844 31.6667H11.7294L13.3315 25.0001H17.444ZM7.49266 25.0001H11.6177L10.0156 31.6667H5.89162L7.49266 25.0001ZM3.4911 41.6667H7.61234L6.01068 48.3334H1.89068L3.4911 41.6667ZM26.843 48.3334H25.224L34.8241 8.33341H36.4431L26.843 48.3334ZM35.8336 26.6667H33.757L34.157 25.0001H43.3335V33.3334H42.5002C42.2792 33.3334 42.0672 33.4212 41.911 33.5775C41.7547 33.7337 41.6669 33.9457 41.6669 34.1667V36.6667H38.3336V34.1667C38.3336 33.9457 38.2458 33.7337 38.0895 33.5775C37.9332 33.4212 37.7212 33.3334 37.5002 33.3334H36.6669V27.5001C36.6669 27.279 36.5791 27.0671 36.4228 26.9108C36.2665 26.7545 36.0546 26.6667 35.8336 26.6667ZM35.0002 36.6667V35H36.6669V36.6667H35.0002ZM43.3335 36.6667V35H45.0002V36.6667H43.3335Z" fill="#051C3F"/>
<path d="M41.6665 42.5H46.6665V44.1667H41.6665V42.5Z" fill="#051C3F"/>
<path d="M35.0002 40.8333V42.4999H33.3335V44.1666H35.0002V45.8332H36.6668V44.1666H38.3335V42.4999H36.6668V40.8333H35.0002Z" fill="#051C3F"/>
</svg>
