<svg width="50" height="50" viewBox="0 0 50 50" fill="none" xmlns="http://www.w3.org/2000/svg">
<path fill-rule="evenodd" clip-rule="evenodd" d="M49.1667 25.8333H44.1667C43.7067 25.8333 43.3333 25.46 43.3333 25C43.3333 24.54 43.7067 24.1667 44.1667 24.1667H49.1667C49.6267 24.1667 50 24.54 50 25C50 25.46 49.6267 25.8333 49.1667 25.8333ZM42.0883 42.9217C41.875 42.9217 41.6625 42.84 41.5 42.6775L37.9642 39.1425C37.6383 38.8167 37.6383 38.29 37.9642 37.9642C38.29 37.6383 38.8175 37.6383 39.1425 37.9642L42.6783 41.4992C43.0033 41.825 43.0033 42.3517 42.6783 42.6775C42.5158 42.84 42.3017 42.9217 42.0883 42.9217ZM39.1425 12.0358C38.98 12.1992 38.7667 12.28 38.5533 12.28C38.34 12.28 38.1267 12.1983 37.9642 12.0358C37.6383 11.71 37.6383 11.1833 37.9642 10.8575L41.5 7.3225C41.825 6.99667 42.3517 6.99667 42.6783 7.3225C43.0033 7.64833 43.0033 8.175 42.6783 8.50083L39.1425 12.0358ZM25 41.6667C15.81 41.6667 8.33333 34.19 8.33333 25C8.33333 15.8092 15.81 8.33333 25 8.33333C34.1908 8.33333 41.6675 15.8092 41.6675 25C41.6675 34.19 34.1908 41.6667 25 41.6667ZM25 10C16.73 10 10 16.7292 10 25C10 33.2708 16.73 40 25 40C33.2708 40 40 33.2708 40 25C40 16.7292 33.2708 10 25 10ZM21.4633 37.2117C21.3008 37.4 21.07 37.5 20.8333 37.5C20.705 37.5 20.5758 37.4708 20.4558 37.41C20.115 37.2367 19.9367 36.8525 20.0225 36.4792L22.2858 26.6667H18.3333C18.0067 26.6667 17.7108 26.4758 17.575 26.18C17.4392 25.8833 17.4892 25.535 17.7033 25.2883L28.5367 12.7883C28.7875 12.4983 29.2033 12.4175 29.5442 12.5908C29.8858 12.7642 30.0658 13.1483 29.9783 13.5217L27.7142 23.3333H31.6667C31.9942 23.3333 32.2892 23.5242 32.425 23.82C32.5608 24.1167 32.5108 24.465 32.2967 24.7117L21.4633 37.2117ZM26.6667 25C26.4125 25 26.1725 24.8842 26.015 24.6858C25.8567 24.4875 25.7983 24.2275 25.8542 23.9792L27.6008 16.4125L20.1583 25H23.3333C23.5875 25 23.8275 25.1158 23.985 25.3142C24.1433 25.5125 24.2017 25.7725 24.145 26.0208L22.3992 33.5875L29.8417 25H26.6667ZM25 6.66667C24.54 6.66667 24.1667 6.29333 24.1667 5.83333V0.833333C24.1667 0.373333 24.54 0 25 0C25.46 0 25.8342 0.373333 25.8342 0.833333V5.83333C25.8342 6.29333 25.46 6.66667 25 6.66667ZM11.4475 12.28C11.2342 12.28 11.0208 12.1983 10.8583 12.0358L7.3225 8.50083C6.99667 8.175 6.99667 7.64833 7.3225 7.3225C7.6475 6.99667 8.175 6.99667 8.50083 7.3225L12.0367 10.8575C12.3633 11.1833 12.3633 11.71 12.0367 12.0358C11.8742 12.1992 11.66 12.28 11.4475 12.28ZM5.83333 25.8333H0.834167C0.373333 25.8333 0 25.46 0 25C0 24.54 0.373333 24.1667 0.834167 24.1667H5.83333C6.29417 24.1667 6.66667 24.54 6.66667 25C6.66667 25.46 6.29417 25.8333 5.83333 25.8333ZM10.8583 37.9642C11.1842 37.6383 11.7117 37.6383 12.0367 37.9642C12.3633 38.29 12.3633 38.8167 12.0367 39.1425L8.50083 42.6775C8.33833 42.84 8.125 42.9217 7.91167 42.9217C7.69833 42.9217 7.485 42.84 7.3225 42.6775C6.99667 42.3517 6.99667 41.825 7.3225 41.4992L10.8583 37.9642ZM25 43.3333C25.46 43.3333 25.8342 43.7067 25.8342 44.1667V49.1667C25.8342 49.6267 25.46 50 25 50C24.54 50 24.1667 49.6267 24.1667 49.1667V44.1667C24.1667 43.7067 24.54 43.3333 25 43.3333Z" fill="#051C3F"/>
</svg>
