<svg width="50" height="50" viewBox="0 0 50 50" fill="none" xmlns="http://www.w3.org/2000/svg">
<path d="M45.8333 0H30.8333C28.5331 0.00284831 26.6695 1.86646 26.6667 4.16667V30.8333C26.6695 33.1335 28.5331 34.9972 30.8333 35H34.1667V36.6667C34.1667 37.5871 34.9129 38.3333 35.8333 38.3333H37.5V45.8333C37.5 47.2139 36.3806 48.3333 35 48.3333H14.1667C12.7861 48.3333 11.6667 47.2139 11.6667 45.8333V40H12.5C13.4204 40 14.1667 39.2537 14.1667 38.3333V35H19.1667C20.5473 35 21.6667 33.8806 21.6667 32.5V2.5C21.6667 1.11938 20.5473 0 19.1667 0H2.5C1.11938 0 0 1.11938 0 2.5V32.5C0 33.8806 1.11938 35 2.5 35H7.5V38.3333C7.5 39.2537 8.24626 40 9.16667 40H10V45.8333C10.0028 48.1335 11.8665 49.9972 14.1667 50H35C37.3002 49.9972 39.1638 48.1335 39.1667 45.8333V38.3333H40.8333C41.7537 38.3333 42.5 37.5871 42.5 36.6667V35H45.8333C48.1335 34.9972 49.9972 33.1335 50 30.8333V4.16667C49.9972 1.86646 48.1335 0.00284831 45.8333 0ZM6.66667 1.66667H15V2.5C15 2.96021 14.6269 3.33333 14.1667 3.33333H7.5C7.03979 3.33333 6.66667 2.96021 6.66667 2.5V1.66667ZM1.66667 32.5V2.5C1.66667 2.03979 2.03979 1.66667 2.5 1.66667H5V2.5C5 3.88062 6.11938 5 7.5 5H14.1667C15.5473 5 16.6667 3.88062 16.6667 2.5V1.66667H19.1667C19.6269 1.66667 20 2.03979 20 2.5V32.5C20 32.9602 19.6269 33.3333 19.1667 33.3333H2.5C2.03979 33.3333 1.66667 32.9602 1.66667 32.5ZM9.16667 35H12.5V38.3333H9.16667V35ZM40.8333 36.6667H35.8333V35H40.8333V36.6667ZM48.3333 30.8333C48.3333 32.2139 47.2139 33.3333 45.8333 33.3333H30.8333C29.4527 33.3333 28.3333 32.2139 28.3333 30.8333V4.16667C28.3333 2.78605 29.4527 1.66667 30.8333 1.66667H45.8333C47.2139 1.66667 48.3333 2.78605 48.3333 4.16667V30.8333Z" fill="#051C3F"/>
<path d="M14.1668 13.3334H13.3335V11.6667C13.3335 11.2065 12.9604 10.8334 12.5002 10.8334H9.16683C8.70662 10.8334 8.3335 11.2065 8.3335 11.6667V13.3334H7.50016C6.57975 13.3334 5.8335 14.0796 5.8335 15V25C5.8335 25.9205 6.57975 26.6667 7.50016 26.6667H14.1668C15.0872 26.6667 15.8335 25.9205 15.8335 25V15C15.8335 14.0796 15.0872 13.3334 14.1668 13.3334ZM10.0002 12.5H11.6668V13.3334H10.0002V12.5ZM7.50016 25V15H14.1668V25H7.50016Z" fill="#051C3F"/>
<path d="M9.1665 21.6666H12.4998V23.3333H9.1665V21.6666Z" fill="#051C3F"/>
<path d="M42.5002 16.6667H40.8336V9.16672C40.8332 8.80336 40.5972 8.48191 40.2505 8.37245C39.9038 8.2634 39.5262 8.39157 39.3179 8.68902L33.4845 17.0224C33.3063 17.2771 33.2847 17.6095 33.4284 17.885C33.5716 18.1605 33.8564 18.3334 34.1669 18.3334H36.6669V25.8334C36.6669 26.2081 36.9167 26.5365 37.2776 26.6366C37.3501 26.6565 37.4249 26.6667 37.5002 26.6667C37.7928 26.6667 38.0638 26.5133 38.2143 26.2627L43.2143 17.9293C43.369 17.6718 43.3734 17.3511 43.2253 17.0899C43.0776 16.8283 42.8005 16.6667 42.5002 16.6667ZM38.3336 22.8252V17.5001C38.3336 17.0398 37.9604 16.6667 37.5002 16.6667H35.7668L39.1669 11.81V17.5001C39.1669 17.9603 39.54 18.3334 40.0002 18.3334H41.0285L38.3336 22.8252Z" fill="#051C3F"/>
<path d="M34.1665 30H35.8332V31.6667H34.1665V30Z" fill="#051C3F"/>
<path d="M37.5 30H39.1667V31.6667H37.5V30Z" fill="#051C3F"/>
<path d="M40.8335 30H42.5002V31.6667H40.8335V30Z" fill="#051C3F"/>
</svg>
