<svg width="52" height="60" viewBox="0 0 52 60" fill="none" xmlns="http://www.w3.org/2000/svg">
<path d="M42.1387 22.5C44.6964 22.5 46.7773 20.419 46.7773 17.8613C46.7773 15.3036 44.6964 13.2227 42.1387 13.2227C39.5809 13.2227 37.5 15.3036 37.5 17.8613C37.5 20.419 39.5809 22.5 42.1387 22.5ZM42.1387 14.6875C43.8886 14.6875 45.3125 16.1113 45.3125 17.8613C45.3125 19.6113 43.8886 21.0351 42.1387 21.0351C40.3887 21.0351 38.9648 19.6113 38.9648 17.8613C38.9648 16.1113 40.3887 14.6875 42.1387 14.6875Z" fill="#051C3F"/>
<path d="M42.1387 12.1923C42.5432 12.1923 42.8711 11.8643 42.8711 11.4599V10.7324C42.8711 10.3279 42.5432 10 42.1387 10C41.7342 10 41.4062 10.3279 41.4062 10.7324V11.4599C41.4062 11.8643 41.7342 12.1923 42.1387 12.1923Z" fill="#051C3F"/>
<path d="M41.4062 24.2627V24.9901C41.4062 25.3946 41.7342 25.7226 42.1387 25.7226C42.5432 25.7226 42.8711 25.3946 42.8711 24.9901V24.2627C42.8711 23.8582 42.5432 23.5303 42.1387 23.5303C41.7342 23.5303 41.4062 23.8582 41.4062 24.2627Z" fill="#051C3F"/>
<path d="M38.3038 12.6836C38.4395 12.9186 38.6856 13.0499 38.9388 13.0499C39.063 13.0499 39.1891 13.0182 39.3043 12.9517C39.6546 12.7494 39.7746 12.3015 39.5724 11.9512L39.2086 11.3212C39.0063 10.9708 38.5583 10.8511 38.2081 11.0531C37.8578 11.2554 37.7378 11.7033 37.94 12.0536L38.3038 12.6836Z" fill="#051C3F"/>
<path d="M44.9732 22.771C44.623 22.9732 44.5029 23.4211 44.7052 23.7714L45.0689 24.4014C45.2046 24.6364 45.4508 24.7677 45.7039 24.7677C45.8281 24.7677 45.9542 24.736 46.0694 24.6695C46.4197 24.4672 46.5397 24.0193 46.3375 23.669L45.9737 23.039C45.7716 22.6886 45.3234 22.5688 44.9732 22.771Z" fill="#051C3F"/>
<path d="M35.5987 14.9311L36.2287 15.2948C36.344 15.3614 36.47 15.3931 36.5942 15.3931C36.8474 15.3931 37.0936 15.2617 37.2292 15.0268C37.4314 14.6765 37.3114 14.2285 36.9611 14.0263L36.3312 13.6625C35.9808 13.4602 35.5329 13.5802 35.3307 13.9306C35.1284 14.2809 35.2484 14.7288 35.5987 14.9311Z" fill="#051C3F"/>
<path d="M47.316 21.6964L47.946 22.0601C48.0613 22.1267 48.1873 22.1584 48.3115 22.1584C48.5647 22.1584 48.8108 22.027 48.9465 21.7921C49.1487 21.4418 49.0287 20.9938 48.6784 20.7916L48.0484 20.4278C47.6981 20.2254 47.2502 20.3455 47.048 20.6959C46.8457 21.0461 46.9657 21.494 47.316 21.6964Z" fill="#051C3F"/>
<path d="M35.0098 18.5937H35.7372C36.1417 18.5937 36.4696 18.2658 36.4696 17.8613C36.4696 17.4568 36.1417 17.1289 35.7372 17.1289H35.0098C34.6053 17.1289 34.2773 17.4568 34.2773 17.8613C34.2773 18.2658 34.6053 18.5937 35.0098 18.5937Z" fill="#051C3F"/>
<path d="M47.8076 17.8613C47.8076 18.2658 48.1355 18.5937 48.54 18.5937H49.2675C49.672 18.5937 49.9999 18.2658 49.9999 17.8613C49.9999 17.4568 49.672 17.1289 49.2675 17.1289H48.54C48.1355 17.1289 47.8076 17.4568 47.8076 17.8613Z" fill="#051C3F"/>
<path d="M36.2287 20.4277L35.5987 20.7914C35.2484 20.9937 35.1284 21.4416 35.3307 21.7919C35.4663 22.0269 35.7125 22.1582 35.9656 22.1582C36.0898 22.1582 36.2159 22.1265 36.3312 22.06L36.9611 21.6962C37.3114 21.494 37.4314 21.046 37.2292 20.6957C37.027 20.3454 36.5789 20.2255 36.2287 20.4277Z" fill="#051C3F"/>
<path d="M47.6829 15.3932C47.8071 15.3932 47.9332 15.3615 48.0484 15.295L48.6784 14.9312C49.0287 14.729 49.1487 14.281 48.9465 13.9307C48.7441 13.5804 48.2961 13.4605 47.946 13.6627L47.316 14.0264C46.9657 14.2287 46.8457 14.6766 47.048 15.0269C47.1836 15.2619 47.4298 15.3932 47.6829 15.3932Z" fill="#051C3F"/>
<path d="M38.3038 23.0388L37.94 23.6688C37.7378 24.0191 37.8578 24.467 38.2081 24.6692C38.3234 24.7358 38.4494 24.7675 38.5736 24.7675C38.8268 24.7675 39.0729 24.6361 39.2086 24.4012L39.5724 23.7712C39.7746 23.4209 39.6546 22.973 39.3043 22.7707C38.9539 22.5683 38.5061 22.6884 38.3038 23.0388Z" fill="#051C3F"/>
<path d="M44.9732 12.9518C45.0886 13.0184 45.2146 13.05 45.3388 13.05C45.5919 13.05 45.8381 12.9187 45.9737 12.6837L46.3375 12.0538C46.5397 11.7035 46.4197 11.2555 46.0694 11.0533C45.7191 10.8509 45.2712 10.9709 45.0689 11.3213L44.7052 11.9513C44.5029 12.3016 44.623 12.7495 44.9732 12.9518Z" fill="#051C3F"/>
<path d="M48.2908 55.4859V53.7374C48.2908 53.3329 47.9629 53.005 47.5584 53.005C47.1539 53.005 46.826 53.3329 46.826 53.7374V55.4101H39.1112V45.1562H46.826V50.6124C46.826 51.0169 47.1539 51.3448 47.5584 51.3448C47.9629 51.3448 48.2908 51.0169 48.2908 50.6124V44.8144C48.2908 44.1952 47.787 43.6914 47.1678 43.6914H43.6574V28.2867C43.6574 27.8822 43.3294 27.5543 42.9249 27.5543H18.4626V23.4217L28.9808 26.5623H28.9809C29.1248 26.6053 29.27 26.6257 29.413 26.6257C30.0648 26.6257 30.6683 26.2007 30.8642 25.5449L31.2736 24.1739L33.4726 24.8306C33.5426 24.8515 33.6131 24.8613 33.6825 24.8613C33.9978 24.8613 34.2891 24.656 34.3841 24.3383C34.4998 23.9507 34.2794 23.5427 33.8918 23.4269L4.88387 14.7656C4.49608 14.6498 4.08817 14.8703 3.97245 15.2579C3.85672 15.6455 4.07713 16.0535 4.46473 16.1693L6.66365 16.8259L6.25427 18.1969C6.13855 18.5843 6.18074 18.9936 6.37283 19.3494C6.56502 19.7051 6.88416 19.9647 7.27156 20.0804L16.9976 22.9845V30.2148H6.22742C5.82293 30.2148 5.495 30.5428 5.495 30.9473C5.495 31.3518 5.82293 31.6797 6.22742 31.6797H34.7655V45.2538H1.46484V31.6797H3.13251C3.537 31.6797 3.86493 31.3518 3.86493 30.9473C3.86493 30.5428 3.537 30.2148 3.13251 30.2148H0.732419C0.327929 30.2148 0 30.5428 0 30.9473V45.9863C0 46.3908 0.327929 46.7187 0.732419 46.7187H2.83202V55.4101H2.29491C1.02949 55.4101 0 56.4396 0 57.705C0 58.9704 1.02949 59.9999 2.29491 59.9999H47.7049C48.9703 59.9999 49.9998 58.9704 49.9998 57.705C49.9998 56.642 49.2734 55.7455 48.2908 55.4859ZM7.66179 18.653C7.65222 18.6352 7.65652 18.6205 7.65798 18.6159L8.06306 17.259L29.8657 23.7692L29.4606 25.126C29.4529 25.1518 29.426 25.1665 29.3998 25.1588L17.954 21.7411C17.9447 21.7381 17.9353 21.7353 17.9257 21.7326L7.69079 18.6766C7.68601 18.6751 7.67146 18.6708 7.66179 18.653ZM18.4626 30.2148V29.0191H42.1925V43.6914H38.7694C38.1502 43.6914 37.6464 44.1952 37.6464 44.8144V55.4101H36.2303V30.9473C36.2303 30.5428 35.9024 30.2148 35.4979 30.2148H18.4626ZM34.7655 46.7187V55.4101H33.3007V49.6972C33.3007 49.2927 32.9727 48.9648 32.5682 48.9648H22.8027C22.3982 48.9648 22.0702 49.2927 22.0702 49.6972V55.4101H11.8164V53.7875C11.8164 53.383 11.4884 53.0551 11.0839 53.0551C10.6795 53.0551 10.3515 53.383 10.3515 53.7875V55.4101H7.22654V46.7187H10.3515V50.6425C10.3515 51.047 10.6795 51.3749 11.0839 51.3749C11.4884 51.3749 11.8164 51.047 11.8164 50.6425V46.7187H34.7655ZM31.8358 55.4101H23.5351V50.4296H31.8358V55.4101ZM4.29686 46.7187H5.7617V55.4101H4.29686V46.7187ZM47.7049 58.5351H2.29491C1.8372 58.5351 1.46484 58.1627 1.46484 57.705C1.46484 57.2473 1.8372 56.8749 2.29491 56.8749H47.7049C48.1626 56.8749 48.535 57.2473 48.535 57.705C48.535 58.1627 48.1626 58.5351 47.7049 58.5351Z" fill="#051C3F"/>
<path d="M2.92969 33.8768V43.0565C2.92969 43.461 3.25762 43.7889 3.66211 43.7889H32.5683C32.9727 43.7889 33.3007 43.461 33.3007 43.0565V33.8768C33.3007 33.4723 32.9727 33.1444 32.5683 33.1444H3.66211C3.25762 33.1444 2.92969 33.4723 2.92969 33.8768ZM12.9882 42.3241V34.6092H23.2421V42.3241H12.9882ZM31.8358 42.3241H24.707V34.6092H31.8358V42.3241ZM4.39453 34.6092H11.5234V42.3241H4.39453V34.6092Z" fill="#051C3F"/>
<path d="M44.3232 46.7192C44.0372 46.4331 43.5734 46.4331 43.2875 46.7192L41.6314 48.3752C41.3454 48.6612 41.3454 49.125 41.6314 49.411L42.6669 50.4464L41.5265 51.5867C41.2405 51.8728 41.2405 52.3364 41.5265 52.6225C41.6695 52.7655 41.857 52.837 42.0444 52.837C42.2318 52.837 42.4193 52.7655 42.5623 52.6225L44.2205 50.9643C44.3579 50.827 44.435 50.6406 44.435 50.4464C44.435 50.2522 44.3579 50.0658 44.2205 49.9285L43.185 48.8931L44.3232 47.7549C44.6092 47.469 44.6092 47.0052 44.3232 46.7192Z" fill="#051C3F"/>
</svg>
