<svg xmlns="http://www.w3.org/2000/svg" xmlns:xlink="http://www.w3.org/1999/xlink" viewBox="0 0 3356.19 1728"><defs><style>.cls-1{fill:#fff;}.cls-2{fill:url(#New_Gradient_Swatch_4);}.cls-3{fill:url(#New_Gradient_Swatch_5);}.cls-4{fill:#57382f;}.cls-5{fill:#436b23;}.cls-6{fill:#29351d;opacity:0.55;}.cls-7{fill:#f5b38b;}.cls-8{fill:#051939;}.cls-9{fill:#005582;}.cls-10{fill:#245a76;}.cls-11{fill:#031126;stroke:#37002f;stroke-miterlimit:10;}.cls-12{fill:#3e3634;}.cls-13{fill:#374965;}.cls-14,.cls-18{fill:#051c3f;}.cls-15{fill:#da418e;}.cls-16{fill:#e8a27f;}.cls-17{fill:#37002f;}.cls-18{opacity:0.59;}.cls-19{fill:#fdded3;}.cls-20{fill:#cb9475;}.cls-21{fill:#30789e;}.cls-22{fill:#69778c;}.cls-23{fill:#430046;}.cls-24{fill:url(#linear-gradient);}.cls-25{fill:#8c2f21;}.cls-26{fill:#d19f3a;}.cls-27{fill:#ff5e00;}.cls-28{fill:#e94f37;}.cls-29{fill:#ba3f2c;}.cls-30{fill:none;stroke-linecap:round;stroke-linejoin:round;stroke-width:55px;stroke:url(#New_Gradient_Swatch_3);}</style><linearGradient id="New_Gradient_Swatch_4" x1="1082.4" y1="1279.48" x2="1092.03" y2="1279.48" gradientTransform="matrix(113.69, -113.69, -113.69, -113.69, 24292.39, 270190.67)" gradientUnits="userSpaceOnUse"><stop offset="0" stop-color="#51bbbb"/><stop offset="0.09" stop-color="#4db3bd"/><stop offset="0.36" stop-color="#43a2c1"/><stop offset="0.64" stop-color="#3d98c3"/><stop offset="1" stop-color="#3b95c4"/></linearGradient><linearGradient id="New_Gradient_Swatch_5" x1="1396.03" y1="1675.53" x2="305.55" y2="585.05" gradientUnits="userSpaceOnUse"><stop offset="0" stop-color="#51bbbb"/><stop offset="0.02" stop-color="#52bbb6"/><stop offset="0.16" stop-color="#5bb890"/><stop offset="0.3" stop-color="#63b671"/><stop offset="0.45" stop-color="#69b459"/><stop offset="0.61" stop-color="#6db348"/><stop offset="0.79" stop-color="#6fb23e"/><stop offset="1" stop-color="#70b23b"/></linearGradient><linearGradient id="linear-gradient" x1="1038.63" y1="828.04" x2="2161.79" y2="828.04" gradientUnits="userSpaceOnUse"><stop offset="0" stop-color="#70b33b"/><stop offset="0.11" stop-color="#6cb342"/><stop offset="0.28" stop-color="#60b256"/><stop offset="0.47" stop-color="#4cb176"/><stop offset="0.7" stop-color="#31afa4"/><stop offset="0.94" stop-color="#0faddd"/><stop offset="1" stop-color="#05aced"/></linearGradient><linearGradient id="New_Gradient_Swatch_3" x1="2636.23" y1="88.36" x2="3082.61" y2="88.36" gradientTransform="matrix(1, 0.01, 0.01, -1, 0.03, 485.98)" gradientUnits="userSpaceOnUse"><stop offset="0" stop-color="#50bbbb"/><stop offset="0.34" stop-color="#45a6c0"/><stop offset="0.68" stop-color="#3d99c3"/><stop offset="1" stop-color="#3b95c4"/></linearGradient></defs><title>dsvdsvArtboard 2</title><g id="Layer_7" data-name="Layer 7"><rect class="cls-1" width="3356.19" height="1728"/></g><g id="Layer_8" data-name="Layer 8"><path d="M2685.54,459.61c-1.63,0-5.69,1.11-8.7,1.46-1.89.19-11-.33-14.6-2.42-3.15,2.05-7.42,4.06-15.7,5.7-10.82,2-21.77-3.84-24.1-7.24-3.6.54-6.41,4.43-12.44,8.57,2.05-1.41-7.6,6.08-12.69,2.86-4.74-3.31-2.47-6.16-5.6-8.3,0,0,.07-.33.07-.34a4.12,4.12,0,0,0-.47-2.8c-.16-17.76-1.29-39.72-8.35-59.91,26.47,13.43,49.48,11.51,56.28,9.34,8-2.61,3.92-11.09-1.58-9.43.39-.13-.23,0-.48.17a14.28,14.28,0,0,1-2.22.66c-4.29.82-12.52.62-16.91.36-13.86-1.14-30.14-9.14-30.14-9.14-.32-.17,0,0-1.41-.73-4.83-2.55-9.28-5.76-13.83-4.34s-6.82,5.29-15.42,13c-29,25.35-88.48,35.77-111.38,34.44C2419,429.47,2400.62,420,2400.62,420c-23.29-12.91-29-19.58-33.91-21.39a4.71,4.71,0,0,0-5.1-.5s-.38.2-1,.49c-2,.51-4.45,1.4-7.85,2.65a3.6,3.6,0,0,0-.85.44,97.78,97.78,0,0,1-39.63,2.62c-30-4-42.55-9.28-42.72-9.35a4.69,4.69,0,0,0-3.74,8.61c.54.23,13.63,5.83,45.21,10a112.59,112.59,0,0,0,15,1c18.86,0,32.33-4.82,37.58-7.06,1.2.52,11.45,7.82,12.06,8.77-.44.62-6.09,24.75-5.39,80.81-4.76,4.33-8,13-9.46,19.18-9-.81-11.15-6.16-15.5-8.2-14.17,13.9-33.17,9.57-37.38.34-1.22-2.73-.25-3.1-3.17-3.61-7.51,11-15.51,15.15-26.57,16.55-3.45.42-6.74,1-19.42-2.33.68,3.06,13.94,26.44,22.52,26.44.14.07,8.6,4,8.45,4a206.31,206.31,0,0,1,22,12.62h0v0l0,0h0c3.26,2.25,9.93,7,12.5,10.52a4.81,4.81,0,0,0,4.78,1.85c7.44,3.16,8.54-12.59,31.74-24.55a24.18,24.18,0,0,1,3.16-1.4s-5.8,23.71-5.83,23.71-.73,3.21-2.13,13.52a9.8,9.8,0,0,0,0,4.07c1.12,3.83,6.61,5.58,9.49.11,0,0,1.63-3.15,1.61-3.15l.11-.22.27-.54h0s0,0,0,0h0s0,0,0,0l.08-.15h0l.05-.09c1.52-2.5,1-3.38,7.41-9.3,1.45-1.33-.33-.87,8.78-.45,5.61,12.15,7.74,14.06,11,14.06,5.33,0,5.78-5.21,5.3-10.52-.31-3.52-2.71-21.47-6.4-31.77a36.79,36.79,0,0,1,4.61.64s14.09,1.3,29.5,18.69l.11.13s2.52,3,2.55,3c4.29,5.32,6.66,10.78,13.37,8.07,3.24-1.3,8.65-7.49,20.25-17.68-2.28,1.94,6-6.23,24.36-17.48,9-5.62,3.24-2.27-8.11-5.62-9.95-2.91-17.2-11.53-17.8-16.91-9.75,4.63-14.82,5.38-19.24,5.38-7.26,0-16.79-2.59-19.78-9.52l-.94-.86h0c-.52-.46-1.32-1.16-1.92-1.58-3.84,2.59-11.77,5.42-13.65,5.94-2.09.56-9.3,1.3-11.85-2.41a5.47,5.47,0,0,0-.84.5c-3-.15-.56,2.08-3.08-5.37a61.86,61.86,0,0,0-3.49-8.12s-1-2-1-2a4.4,4.4,0,0,0-2.76-2.13,35.54,35.54,0,0,0-4.23-7c-.14-20,.3-52.49,4.5-71.94,1.89,1,11.49,7.34,23.64,11.52,14.39,5,34.62,8.93,51.82,7.69,20.28-1.51,58.12-9.68,83.1-22.5,13.72-7,21-14.09,29.73-22.67.93,2.31,1.68,4.5,1.68,4.5v0s5.48,13.63,7.28,39.1c.42,6.5.54,13,.57,19.52-.24.48-1.24,2.59-1.31,2.73-8,1.26-14.41,15.19-28.86,8-3.91-2-6.12-3.85-9.14-4.31-3.49-.51-2.58,1.87-9.66,4.48-3.95,3-7.86,5.49-13.59,5.49a20.81,20.81,0,0,1-7.73-1.71c-2.83,3-8.76,7.51-12.59,8.81a25,25,0,0,1-10.48.72c.07,6.11.25,1.73,6.19,7.5,13.5,4.47,26.88,14.2,36.87,24.86a4.75,4.75,0,0,0,8.43-2.29,4,4,0,0,0,1.43-.58c14.66-9.46,26.75-10.87,31.09-12.07-.16-1.89,1.76,7.6-1.58,18.76-.09.15-13.36,13.42,0,.11h0a4.77,4.77,0,0,0-1,2.9c0,5.42,7.59,6.64,9.23,2a6.62,6.62,0,0,1,1.82-3.18c2.3-2.49,6.92-4.65,10.64-4,3.57.89,5.16,3,7.52,4.43,1.89,1.13,4.42,1.55,6.36.28,4.89-3.19,2.58-10.33,2.08-19.45h0c0-.07,0-.05,0-.14h0c-.06-1.07-.11-2.15-.15-3.21,8.9,1,18.84,2.93,27.15,6.19,4.45,1.74,7.86,4.05,11.48,4.05,9.65,0,15.55-20.46,40.92-37.8a87.42,87.42,0,0,1,9.44-5.5,5.56,5.56,0,0,0,2-1.37A30,30,0,0,1,2685.54,459.61Z"/><path d="M991.52,447.51c-.18-.21-17.18-19.95-27.47-44.42,0-.9.3-3.94,2.44-11.87,2.68-10,16.23-10.77,16.46-10.78a4.69,4.69,0,0,0-.39-9.38c-.84,0-20.64,1-25.14,17.72-.26,1-.5,1.91-.73,2.79-4.85-5.5-12.47-14.57-15.65-20.86-.48-.95-1.16-2.13-2-3.46-.19-1.55-.32-5.29,2.47-7.06,2.05-1.29,6.57-2.38,8.92-2.75a4.7,4.7,0,0,0-1.46-9.28c-.82.13-8.12,1.35-12.47,4.1a14.1,14.1,0,0,0-4.48,4.49c-5.5-7.82-12.32-17-17.87-24.35a4.76,4.76,0,0,0-3.28-4.32c-3.79-5-6.47-8.46-6.84-8.93a4.69,4.69,0,0,0-7.42,5.75l2.21,2.86c-8.4.4-13.88,2-18.77,6.13-.61-5.37-1.46-13-2.64-23.81.28-6.8-11.1-6.84-11.31.88,0,0,1,9.7,2.35,24-15.46-10.8-31.2-4.21-41.21.7,1.41-5,3.17-11,5.49-18.7,1.94-6.43-8.73-8.9-10.94-1.69-2.4,7.73-4.58,15.55-6.73,23.5l-.24-.08.24.08v0c-.18-.07-.27-.11-.23-.11-23.18-8.19-31.92,1.06-27.21,6.63.09.1.19.24.16.18a5.78,5.78,0,0,0,6.94.85,22.78,22.78,0,0,1,8.83.32c3.64.82,6.22,1.92,8.69,2.66-2,7.42-4,15-6.21,22.67a40,40,0,0,0-28.36-19.86c-10.92-1.92-17.12,2.91-14.18,1.27-7.4,4.18-1.32,12.55,4.51,9.28a4.52,4.52,0,0,1,1-.25c10-1.37,19.66,6.49,17.87,5.06,10.28,7.18,10.73,16.3,14.23,18.95l.5.34c-2.24,7.1-14.18-7.61-17-.19-2.06-6.22,0,0-21.51-9.4-18.53-8.08-31.07-5.12-47.26,0-6.89,2.16-4.48,12.23,3.06,9.87,13.21-4.21,18.54-4.53,23.89-4.11,20.27,2.18,42.43,18.3,41.46,39.56a12.59,12.59,0,0,0-.08,3.77,6.48,6.48,0,0,0,1.51,2.93A357.51,357.51,0,0,1,765,469a5.63,5.63,0,0,0-1.81,4.09v0a4.73,4.73,0,0,0,.46,2c1.24,2.67,4.54,3.68,7.53,2.22,3.35-1.62,14.85-20.8,27.11-50.23A134.27,134.27,0,0,1,810,419.36c18.81-10.3,35.62-9.17,48.94-.11,10.82,7.4,13.4,16,15.57,18.34a6.61,6.61,0,0,0,3.75,2.11c.16,2,.29,3.77.4,5.26,0-.4.26,3.22.26,3.14,0,.23.06.94.06.74,0,.12.63,7.56.63,7.68h0c.19,2.21.39,4.45.76,10.31.25,3.85,4.25,5.89,7.86,4.14,4.47-2.17,3.54-5.5,2.83-13.89h0c0-.36-.33-4.11-.33-4.11s-.77-9.31-1.81-20.81c9.77-14,25.18-43,55.21-28.08,7.47,3.92,8.8,8.94,13.44,7.49a197.25,197.25,0,0,0,26.91,42.1,4.69,4.69,0,0,0,7.09-6.15Zm-172-82.58c1.64-6.06,2.76-10.62,4.2-16.13l1.14-.43c6.71-2.85,25-15.77,38.53-3.23,1.93,1.82,3.91,4,6.59,4.93.69,7.14,1.43,14.81,2.18,22.62a37.19,37.19,0,0,0-28.52-10.4c-10.27.54-18.75,4.39-25.69,8.32C818.43,368.73,819,366.84,819.47,364.93Zm9.4,37a71.92,71.92,0,0,0-24,8.4c3-7.88,5.87-16.28,8.66-25.09,4.43-2.51,9.72-6.27,16.61-9.24,14.36-5.88,26.24-3.45,34.48,5.32,1.5,1.6,4.76,6.3,9,7.12,1,11.14,2.06,22,2.91,31.46A52.33,52.33,0,0,0,828.87,402Zm52.68-55.61c6-4.77,11.3-7.54,24.1-8,.45,0,.86,0,1.25,0,3.88,5.14,8.12,10.83,12.05,16.24-8.78-2.28-16.76-.9-26.71,2.8-4.1,1.53-6.57,5.68-9.18,8.64C881.5,346.28,882,349.76,881.55,346.36ZM917.83,391c-12.76,3.48-22,12.62-30.48,24.37-1.29-14.11-2.46-26.79-2.47-26.76-.2-2.49-.39-4.81-.57-7,6-7.86,4.43-12.2,21.66-15.11a33.81,33.81,0,0,1,15.62,1.32c5.43,2,7.51,4.3,9.81,4.85.51.86,1,1.62,1.26,2.24,2.7,5.33,7.85,12,12.45,17.55A45.85,45.85,0,0,0,917.83,391Z"/><path class="cls-2" d="M1769,738.73l-13.87-19.67,671.74-473.79a24,24,0,0,1,28,.19l661,479.63a24,24,0,0,1,9.93,19.48v774.35a24.07,24.07,0,0,1-24.07,24.07H1769a24.07,24.07,0,0,1-24.06-24.07V738.73a24.11,24.11,0,0,1,10.19-19.67L1769,738.73H1793v756.13H3077.62v-738L2440.51,294.53,1782.84,758.39,1769,738.73h0Z"/><path class="cls-3" d="M185.89,738.73,172,719.06,843.76,245.27a24,24,0,0,1,28,.19l661,479.63a24,24,0,0,1,9.93,19.48v774.35A24.07,24.07,0,0,1,1518.6,1543H185.89a24.07,24.07,0,0,1-24.06-24.07V738.73A24.13,24.13,0,0,1,172,719.06l13.87,19.67H210v756.13H1494.54v-738L857.43,294.53,199.77,758.39l-13.88-19.66h0Z"/><path class="cls-4" d="M2594,1264.44c-2.59-3.77-5.83-4-8.73-1.28-19.09-6.28-20.8,161.93,9.1,135.09,10.28-9.23,10.13-35,12.51-67.6C2607.09,1327.42,2615.24,1267.1,2594,1264.44Z"/><path class="cls-4" d="M2635.22,1341.8c6.24,41.68,29.07,45,30.4-37.27C2667.93,1162.29,2621,1246.83,2635.22,1341.8Z"/><path class="cls-5" d="M2729.56,1048.77c-2.09-26.68-14.26-54-39-61.64,5.93-16.81,10.17-34.16,15-51.22,30.29-107,22.72-139.35-10.37-166.41-38.23-31.28-92.7-34.41-86.54-34-19.48-2.51-39.32-3.14-59-3.14-156,.07-167.69,30-171.43,37.26-7.91,15.41,3,43.89-1.68,69.3-2.51,13.55-7.46,28.63-7.8,32.55-1.86,21.56-16.63,63.37-63.41,112.05-10.76-14.59-25.82-25.54-44.31-28.35-104.79-15.9-149.7,198.65-99.69,284.56,9,48.29,95.65,51.11,247.4,49.47q60-.65,119.87-3.91c14.66-.8,77.3-4.25,91.53-7.86,49.81-12.64,90.93-122.5,102.31-170.67C2726.78,1088,2731.08,1068.13,2729.56,1048.77Z"/><path class="cls-6" d="M2595.16,798.42c-8.59-3.48-17.64-5.91-26.51-8.56-20.26-6.06-40.68-10.93-61.75-13.16a158,158,0,0,0-57.13,4.08,125.12,125.12,0,0,0-28,11.3c-9.86,5.47-19.73,12.7-24.74,23.09-4.53,9.39-5.39,19.34-7.12,29.47a468.19,468.19,0,0,1-44.12,133.69c-39.45,42-82.41,32.25-51.86,93.2.9,38.38-12.32,70.72-26.28,107.27a670.15,670.15,0,0,0,172.39,17.84c58.39-1.71,95.74-6,103.55-64.73,14.76-47.3,32.73-88,27.44-75.5a132.12,132.12,0,0,1,11.65-22.38,64.52,64.52,0,0,1,14.16-9.24c2,.17,6.54.78.65-.26h0c5.68,1,11,.87,16.16-2.13,25.5-14.93,36.62-22.2,36.37-87.35C2649.91,903.16,2643.17,817.9,2595.16,798.42Z"/><path class="cls-7" d="M2300.37,1316.2c-.35-.75-.72-1.49-1.13-2.22-3.67-15.48-13.69-16.29-18.3-9.8a10.19,10.19,0,0,0-6,7.23c-4.91,6.28-4.15,8.3-24.66,26a9.89,9.89,0,0,0-2.57,3.72c-4.67,5.22-1.16,10.5,2.69,15.5-5.23,17.66-14.9,18.84-11.91,27-4.73,8-6.66,19.39,1.86,22.13,12.82,17,70.92-58.86,71.45-59.81C2318,1334.79,2302.79,1317.66,2300.37,1316.2Z"/><path class="cls-8" d="M2313,1336.77a8.33,8.33,0,0,0-6,5c-.35.91-24.08,29.37-52.83,40-23.87-59.66-93.3,59.68-86.72,70.38,12,19.56,38.94,5,66.89-7.79C2364.59,1384.9,2330.79,1318.06,2313,1336.77Z"/><path class="cls-7" d="M2372.9,1318.13c-.31-27.91-12.54-25.27-16.89-20.06a35,35,0,0,0-6.1,11.71,57.74,57.74,0,0,1-27,9.25c-5.28-18.73-19.66-9.44-18.54-2.11-.25.64-.48,1.28-.69,1.93a18.82,18.82,0,0,1,1.44,2.83c18.78,21-2.1,72,37.28,70.87,10.92-.3,21.5-7.59,23.45-22.1C2373.37,1353.08,2384.56,1332,2372.9,1318.13Z"/><path class="cls-7" d="M2404.08,858c-234.79,12.67-247.7-50.37-390.43-58.25-41.34-2.28-23.08,20.51-23.37,25.73-3.15,56.66,63.11,15.87,76.5,21.4,62.22,25.72,105.52,66.67,237,61.39,23.88-1,52.68,16.44,74.61,1.89C2399.62,901.68,2411.35,866.84,2404.08,858Z"/><path class="cls-7" d="M2459.2,773.11c-.71.44-1.12.66,0,0Z"/><path class="cls-7" d="M2596.68,933.27c.59-20.13-26.4-26.27,10.8-62.91a41.65,41.65,0,0,1,3.51-2.94c7.1-20.35-.23-23.56-21.42-42.3-35.17-2-17.68-49.59,5.23-47.9a5.22,5.22,0,0,1,4.93,5.65h0c42.84,20.28,111.45,34.61,72.47,95.66h0c-12.39,23.81-27.86,40.4-47.77,53.57l.33-.23C2606.54,944.05,2596.18,949.73,2596.68,933.27Z"/><path class="cls-9" d="M2286.75,1035.76h0l0,0Z"/><path class="cls-9" d="M2421.9,846.86l.22.13Z"/><path class="cls-9" d="M2294.7,1031.22l.08,0Z"/><path class="cls-9" d="M2300.5,1028.25c-.13.06-.12,0,0,0Z"/><path class="cls-9" d="M2324,1017h0Z"/><path class="cls-9" d="M2612.33,883.67l.45.39C2612.23,883.58,2611.77,883.2,2612.33,883.67Z"/><path class="cls-10" d="M2605.34,878.71c-2.11-2.25-4.81-4.69-7.38-3a34.46,34.46,0,0,0-5.78,2c-6.78,2.08-45.53,0-46.4.07-24-5.29,5.16-1.92-70.44-10.49a5.88,5.88,0,0,0-3-1.4c-.93-1-5.81-2.15-6.78-2.38-38-8.82-94-6.67-99-8.49-1-2.87-1.6,20.81-5,27.68-10.39,20.77-20.56,29.34-17.61,31,23.48,13.41,75.64,23.89,5,86.11.12-.09.3-.26-.55.49l.1-.1-.43.38h0c-9.49,8.15-25.84,17.2-24.55,16.51-2.33,1.13-24.61,11.87-23,11l-.22.11c1-.57-6.18,3.19-5.5,2.82,0,0-1.65.79-2,1,1-.46-11.86,6.37-13.1,8.49-5.59,2-19.26,1.82,23.28,35,76.17,59.69,105.07,34.62,184.27,48.26,15.13,2.62,17.67,1.86,17.33,1.83a3.35,3.35,0,0,0,3.33-2,8.22,8.22,0,0,1,.79.89,124,124,0,0,1,8.61-18.84c-4.92,23.23,11.81,19.3,14.06,13,2.91-8.21,10.79-63.28,42.51-116.86h0c4.81-8.14,6-9.7,6-9.7h0c3-4.75,13.85-21.91,17.72-26,16.27-19.86,51.45-41.37,50.77-47C2652.4,913.85,2607,879.08,2605.34,878.71Z"/><path class="cls-7" d="M2512.47,709.84c-56.93-9.17-84.78,126.38-38.22,150.63-.65,4.26-.86,4.66-.88,12.52h0a108.06,108.06,0,0,1-1.92,15.64c1.05,7.36,21.85,28.46,58.63,14.13h0a109.59,109.59,0,0,0,12.74-6s0-.05,0-.07l-.06-13.75v-.43a57.8,57.8,0,0,1,.53-6.77,16,16,0,0,1,.25-4.39A28.38,28.38,0,0,1,2547,863l.05,0c.47-.91,1-1.84,1.63-2.89,1.33-2.25,3.9-3.65,6.46-4.43.41-.64.79-1.27,1.1-1.85,5.22-2.46,13.07-17.43,15.57-27.75,1.45-1,14.94-27.09,16.85-33.05C2607.17,735.45,2560.31,690.93,2512.47,709.84Z"/><path class="cls-11" d="M2550.4,847.05c-.06-3.53-2.1-16.76,6.85-21.24,11.74-5.87,15.45-32.25,2.32-27a10.12,10.12,0,0,1-2.71,1.51c-3.76.7.83-11.32-7.55-24-9.33-14.08-24.95-17.52-24.95-17.52-60.94-20.09-55.63-.95-63.85-2.09-8-1.1.56-22.52,5.81-34.59,17-39.09,61.22-25,71.47-23.57,78.31,7.12,88,78.75,51.34,123.58C2536.9,878.62,2550.59,859.81,2550.4,847.05Z"/><path class="cls-12" d="M2486.46,767.26c-25.05-6.75-30.46,1.58-15.23,2,17,1.47,20,6,20.14,6C2496,776.13,2495.94,769.74,2486.46,767.26Z"/><path class="cls-12" d="M2472.71,787.48l0-.05h0Zm1.72,1.5c11.17-12-2.35-9.88-2.35-9.88C2462.63,786.68,2469.67,794.06,2474.43,789Z"/><path class="cls-12" d="M2514.28,801.61v-.07A.2.2,0,0,1,2514.28,801.61Zm5.7-5.71c.61-2.71-5.08-5.82-9.24,1.17C2505.08,806.39,2517.08,808.78,2520,795.9Z"/><path class="cls-4" d="M2536.09,793.2c-8.88-12.17-22.62-14.05-23.48-10.82-1.3,4.86,13.36,2.45,17.42,10.06C2533.42,799.69,2537.69,795.41,2536.09,793.2Z"/><path class="cls-13" d="M2367.67,1077.62a57.8,57.8,0,0,0-13-13.49c-13.64-67-181.4-38.78-218.94-7.12-100.92,85.13-.86,240.47,115.61,301.66,25.29-13.58,41.8-26.65,44.92-47.82-5.55-33.75-26.34-39.59-47.53-73.83-10.49-19-24.26-52.41-15.15-72.06,56.7-1.34,110.67,43.13,121.37-23.21a37.47,37.47,0,0,0,20.73-20.77C2381.6,1106,2376.29,1090.28,2367.67,1077.62Z"/><path class="cls-13" d="M2277.88,1130.1c-5.94,68.89-1.49,134.09,26.31,196.18,18.95,6,51,3.09,69.61-13.52,7.57-104.61,15.89-169.7,35.68-179.2,25.44-12.21,44.56,61.4,109.06,13.83C2603.9,1084.42,2311.57,739.11,2277.88,1130.1Z"/><path class="cls-14" d="M2482.26,1163.4c-55.39-16.71-72.8-43.93-70.79-102.49,0,0-7.87,35.58-13.8,62-6.67,29.65-11.05,59.48-13.42,78.48-3.43,27.48,12.73-58.06,25.54-45.15C2422.82,1169.34,2482.26,1163.4,2482.26,1163.4Z"/><path class="cls-14" d="M2297.86,1025.44c-16.49,66-23.56,88.08-23.41,143l-25.74-3.66c29.9-95.64,27.16-56.82,46.35-139.34Z"/><path class="cls-8" d="M2374.37,1327.29c-.89.79-1.22,38-28.28,49-40.54-19.11-41.78-2.14-46.62,31.72-11.62,23.25-18.38,63.56-5,72.62,9.67,6.56,46-13.63,51.76-21.84,21.3-15.08,33.32-59.2,38-87C2405.11,1303,2374.75,1317.65,2374.37,1327.29Z"/><path class="cls-15" d="M2012.84,834.84c.1-12,3.29-25.67-13.76-35.08-10.83-6-14.27-5.27-16.9-5.37l.63-9.85-72.45-3.64L1906,878.22s11.77,5.39,35.47,5.82,38.11-2.8,38.11-2.8l.22-11a98.3,98.3,0,0,0,17.51-2.45C2011.88,864.53,2012.72,847.39,2012.84,834.84Zm-18.35,20.48c-4.5,3.95-11.44,2.62-14.41,2.75l2.48-51.2c3.21.57,3.73-.21,6.83.9,9.15,3.27,12.6,8.1,12.25,20.38C2001.25,841.57,2000,850.5,1994.49,855.32Z"/><path class="cls-16" d="M1995.63,836.64c.47,5.9,3.81,11.52,9.51,13.62,7.16,2.65,14.95-.52,21.49-3.48,6.92-3.12,13.64-7,18-13.43a3.57,3.57,0,0,0-.15-4.57,8.89,8.89,0,0,0,0-1.44,4.8,4.8,0,0,0-.85-2.24,13.28,13.28,0,0,0-3.81-5c-9.29-8.17-26.65-17.06-36.15-4.39C1999.17,821.62,1995,829.07,1995.63,836.64Z"/><path class="cls-7" d="M1981.24,811.54c.82-5.67,9.42-3.31,12.42-3.39,5.5-.16,14.63-.85,19.42,3.6,5.11,4.74,2.05,8.72-3.52,10.75a32.58,32.58,0,0,1-18.25,1.09C1986.8,822.68,1979.85,821.2,1981.24,811.54Z"/><path class="cls-7" d="M1986.32,825.89c1.6-1.11,16.81-3.7,23.13-2,4.39,1.16,11.5,2.78,8.26,9.84-2.75,6-11.08,6.36-15.92,6.09-4.36-.24-13.47,1.31-15.9-5.92C1985.09,831.46,1983.47,827.86,1986.32,825.89Z"/><path class="cls-7" d="M1990.27,840.77c4.6-2,30.58-4.34,29.42,3.63-.71,4.8-8.56,9.69-11.76,9.38a64.3,64.3,0,0,1-14.34-3C1989.62,849.4,1986.89,842.23,1990.27,840.77Z"/><path class="cls-7" d="M1992.37,851.54a21.88,21.88,0,0,1,3.51.24c3.74-1.09,7.19-2.14,10.95-1,3.54,1,8.69,3.61,6.11,7-2.09,2.75-6.8,6.37-9.8,6-3.48-.41-7.07-.54-10.54-1.53C1987.32,860.71,1987.11,851.66,1992.37,851.54Z"/><path class="cls-7" d="M1988.63,789.51c3.82-.38,6.7,4.1,10.47,4.45,4.2.39,9.64-.54,13.85-.63,6.52-.14,11.84-1.66,17.07,1.81,4.94,1.41,8.93,5.48,11.58,10.6,3.6,7,.27,16.39-8.74,15.25s-19.39-6.18-26.21-10.66c-8.21-5.4-14.6-4.42-20.9-13.05C1983.78,794.59,1984.82,789.88,1988.63,789.51Z"/><path class="cls-11" d="M2450.42,802.28s8.1,6.72,11.82,6.26c19.4-2.39,39.35,13,46.59,18.78,7,5.56,13,5.69,26.43-2.78,13.21-8.35,19.82-27.47,19.82-27.47l3.48,2.43s-9.23,11.22-4.18,35.12c.58,2.71,1.74,21.91,1.74,21.91s-14.49,11.62-24.34,17.38c-14.25,8.35-41.72,4.87-54.24-.69s-29.27-9-32.68-27.82c-2.79-15.3-1.05-22.25.69-30.6C2446.46,810.44,2450.42,802.28,2450.42,802.28Z"/><path class="cls-1" d="M2460.53,817.81l39.44,12s-10.29,16.15-24.15,9.93S2460.53,817.81,2460.53,817.81Z"/><path class="cls-17" d="M2583.24,714.66s-5.21-4.17,3.13-13.56,14.61,1,19.82,7.3,2.09,11.48-6.26,14.61"/><path class="cls-17" d="M2600.11,723.48l-.35-.94c4.71-1.77,7.58-4.14,8.3-6.87.57-2.14-.19-4.47-2.25-6.95-.59-.71-1.2-1.47-1.82-2.25-3.16-4-6.74-8.51-10.78-8.62-2.12,0-4.27,1.11-6.46,3.58-3.24,3.64-4.83,7-4.6,9.72a4.69,4.69,0,0,0,1.4,3.12l-.62.78a5.58,5.58,0,0,1-1.77-3.81c-.26-3,1.37-6.57,4.84-10.47,2.4-2.71,4.81-4,7.24-3.92,4.51.13,8.24,4.84,11.53,9,.62.77,1.22,1.53,1.8,2.23,2.28,2.74,3.11,5.38,2.46,7.85C2608.22,719,2605.14,721.59,2600.11,723.48Z"/><path class="cls-13" d="M555,808.48c34.58-44,75.42-28.77,223.36-16.17,92.26,7.86,92.61,112.13,112.86,164.63,38.4,5.49,73.23,25,102.94,49.22q3.95,2.77,7.81,5.78c29.27,22.9,49.77,55.94,54.74,92.94,1.83,13.61.77,19.65.57,34.23,9.82,17.56,6.19,38.76-4.72,54.91.19.41-12.35,13.71-16.1,16.26,16.84,116.28,46,202.58,32,203.75-15,1.25-16.07,5.47-22.15-7,0,0-15.83-115.58-25.66-149.28-4.09-14-5.44-22.68-11-36.17-10.69,2.65-249.76,17.89-264.82,18.28,1.7,108.86,6.66,180.88,6.37,180,6.63,19.78-10.44,30.25-21.14,24.94-18.94-.07-13.85-87.92-27.42-212.67-20.11-10.42-33.9-29.56-48.4-50.46-11.91,106.49-19,249.7-58.47,215-11.16-4.59,17.45-214.58,17.45-214.89h0c3.24-21.16,5.88-38.64,8-53.12-36.57-66.11-37.82-79.66-13-121.08-11.18-31.8-49-80.33-56.44-110.42C546.54,875.6,541.3,825.92,555,808.48ZM914.86,1089c29.65,5,57.51,16.75,77,29.07-11.09-44.65-56.16-69.33-85.24-72.9A415.39,415.39,0,0,1,914.86,1089Z"/><path class="cls-18" d="M584.71,863c6.57-8.21,75.18-35.38,111.18-37.11,41.39-2,101.84,25.62,118.45,61.1,65.14,139.09,35.18,133.63,78.44,167.53-.88-.63,40.09,41.71,55.5,39.27,31.09,25.06,43.45,32.7,46.23,48.8,8.87,51.28-66,56.52-182.35,61.63-89,3.9-79.46,23.8-124.49-28-25.28-29.07-43.16-65.8-49.62-99.53-4-20.79-.07-38.47-1.46-58.37-2.56-36.66-12.88-61.85-16.93-75C609.16,909.22,569.07,882.58,584.71,863Z"/><path class="cls-19" d="M932.1,1115.77a2.39,2.39,0,0,1-.25.21c17.2-16.19,35.28-12.74,42-2.07,8.52,1.48,15.51,60.27,20.73,87.69,9.94,99.41,1.43,170.9,6.22,193.77,4.4,6.49,40.74,26.37,46.32,30.8-9.64,1.63-39.79-2-49.76-5.19l-3.11-.52c-1.35-.41-27.28-9.61-29-12.72-.51-.42-.74-7.87-.78-8-.72-1.88-1.61-7.92-1.85-9.18C943.11,1290,931.79,1266.92,932.52,1261c-5-11.11-9.21-22.41-11.54-35.28a2.35,2.35,0,0,1-.05-2.6C915.48,1202.32,916.51,1130.33,932.1,1115.77Z"/><path class="cls-7" d="M933.26,1198.26c.93-2.59,1.9-5.17,2.87-7.74.2-.48.39-1,.59-1.45h0q1.27-3.35,2.52-6.71c.82-2.25,1.56-4.53,2.4-6.77.19-.53.41-1,.62-1.57.12-.23,1-2.26,1-2.3,4-9.06,8.56-18.26,8.58-28.42a12.63,12.63,0,0,0-.26-2.56c9.8-26.6,14.24-32,22.33-26.71a2.78,2.78,0,0,1,3,1.21l0-.06c.17.28.13.25.18.33a3.28,3.28,0,0,1,1.17,2.58c15.19,33.08-18.42,69.68-31.08,122.16-2.4,10-10.22,31.7-10.5,36.16-6.13-16.41-3.75-12.62-3.71-13.14-1.85-3.58-9.92-19.28-11.77-27.94C925.27,1223,928.88,1210.52,933.26,1198.26Z"/><path class="cls-20" d="M977.27,1140.14c0,.23-.09.47-.13.7a.5.5,0,0,1,.05.13C977.22,1140.69,977.25,1140.42,977.27,1140.14Z"/><path class="cls-20" d="M941.83,1298h0C942.64,1300.61,941.18,1295.86,941.83,1298Z"/><path class="cls-19" d="M877.19,1355.71c3.42-93.22,12.27-82.14,1.17-188.93-5.17-49,36.58-84.49,61.58-70.45,7-3.34,11.06,15.84,8.18,22.45-.08,2.36-.14,6.16-1,16.12a3.12,3.12,0,0,1,1.54-1.48,13,13,0,0,1,1.63-4.18c.54-2.66,2.34-3.54,4.1-3.23,2.62-12.24.47-10.15,2.35-18.1.33-1.36.74-2.36,2.06-2.85,1.71-.35,3.14-.19,3.88,1.91a2.85,2.85,0,0,1,4.15.6c.92,1.34.47,3,.29,3.9l-.33,1.7c-.17.8-1,4.24-1.58,6.63l.15.15c-2.18,5.78-2.73,9.33-4.3,15.19.82,1.9-16,69-16.2,69.87-14.38,61.14-11.23,76.7-27.31,138.4,3.76,14.36,4.36,20.92-8.78,30.4C849,1417,877.19,1355.71,877.19,1355.71Z"/><path class="cls-21" d="M791.3,840.93s7.63,21.28,8.73,29.16c2.61,18.77,25,35.71,30.36,49.12,15.65,39.11-17.21,39.11-1,75.82,6.2,14-.44,25,9.19,26.27s39,0,84.94,38.09c42.65,35.34,53.56,56.12,53.56,56.12s-35.16-10.28-63.63,6c-29.77,17.07-46.45,48.93-43.78,56.92.43,1.31-25.4,2.18-25.4,2.18s-14.88-1.75-40.71-6.56c-44-8.2-81.43-19.7-91.07-37.65s-8.31-67.43-7-88.88-29.33-70.49-25.39-97.63,12.43-90.25,17.51-91.79,5.69-1.46,14.45-5.84,36.33-14,45.09-12.7S791.3,840.93,791.3,840.93Z"/><path class="cls-19" d="M822.64,740.66c-.19-8.57-2.12-12.59-3.4-17.49l.06.13c-20.16-90.92-181.55-28.65-99,92.28,2.19,3.21,3.73,4.69,13.37,12.21,1.57,20.89-2.91,31.33-2.91,31.33.34,2.48,6.7,11.11,15.14,13.82l.16,0c.87.29,1.75.52,2.63.77l.69.19c12.53,3.5,25,5.11,35.05-3.11a5.93,5.93,0,0,1-1.45-2.15c-4.92-5.93-3.57-24.08-1.85-27.71,15.51-10.89,24.5-18.07,31.75-40.34h0v0h0c5.7-17.26,3-21.68,5.47-39.2,0,0,0,0,0,0s.14-1,.14-1h0c1.11-7.21,1.13-19.87-1.75-19.57-.12-.88-.54-3.83-.2-5,0-.58.42-.67.74-1,2.63-1.57,2.38,2.41,3.53,7,.68-.92,1-.76,1.63-1.22l-.09.09A1.3,1.3,0,0,1,822.64,740.66Zm-8.81,57.16s0,0,0-.05A.17.17,0,0,1,813.83,797.82Z"/><path class="cls-22" d="M831.85,698.43c-5.14-11-28.34-32.71-63.29-30.51-12.61-5.25-31.6-5.47-42.14-2.52-12.3,3.58-10.25,7.51-19.47,15.32-7.15,5.27-15.64,3.1-22.54,5.15-51.41,14.82-20.64,61.19-72.79,61.19-23.1,0-41.26-12.94-69.3,16.21-47.32,49.78,52,154.9,124.21,75,1.08,1.78,7.38,5.33,17.45,1.61,27.48-10.16,47.94-.88,50.42-5.55a18.23,18.23,0,0,0-.46-4.66c1.21-5.63-20.41-28.89-6.49-64.09a101.44,101.44,0,0,0,10.31-15.28,1.92,1.92,0,0,0,.4-1.12c9.78,5.19,26.32-3.21,31.35-23.52a61.24,61.24,0,0,1,8.43.19c6.66,6.29,11.15,10.13,22.74,11.46C830.92,765.8,855.76,719.5,831.85,698.43Z"/><path class="cls-23" d="M800.29,746.21c1.28.12,8.36.79,9.26,2.62,3.76,6.74-15-.53-25.52,2.42C773.87,756.24,772.47,743.64,800.29,746.21Z"/><path class="cls-12" d="M796.38,768.92l0,0h0S796.39,768.91,796.38,768.92Zm-2,1.16c-6.85-11,2.86-14.8,6.4-5C803.91,773.59,796.85,774,794.38,770.08Z"/><path class="cls-12" d="M752.34,775l0-.07A.21.21,0,0,0,752.34,775Zm-2,1.15c-7.27-11.63,3.17-14,6.4-5C759.87,779.61,752.81,780,750.34,776.1Z"/><path class="cls-23" d="M734.94,759.66c4.29-4.69,22.45-8.19,22.77-3.51s-10.28,0-18.63,6c-.87.73-2.73,3.87-5,3.87C728.27,766,734.15,760.53,734.94,759.66Z"/><path class="cls-1" d="M756.94,802.76s14.44,2.63,23.64,1.31,17.07-9.19,17.07-9.19,1.32,14.45-14.44,18.39S756.94,802.76,756.94,802.76Z"/><path class="cls-19" d="M1059.66,874.74c-26.79-.27-75.43,8.42-133.05,3.08-23.67-2.19-46.19-7.2-74.56-17.8-20.95-7.82-37.49-18.15-59.84-18.62,10.08,53.37,20.39,52.8,20.51,53.37,13.48,3.63,5.74,2.17,24.89,6.29,65.88,14.18,84,12.67,207.58,3.22,8.4-.65,15,1.58,23.18,3.5,10.54,2.47,15.8,2.54,21,1.6,21.49-3.88,15.31-5.91,25.16-35.17C1121.44,853.61,1080.51,863.08,1059.66,874.74Z"/><path class="cls-7" d="M1092.23,879.16c-1.61-5.25,6.14-11.45.56-12.21-7-.94-13.43,3.5-18.75,7.5-5.63,4.22-10.93,9.1-13.54,15.78a3.3,3.3,0,0,0,1.06,4.1,7.75,7.75,0,0,0,.33,1.3,4.68,4.68,0,0,0,1.22,1.86,12.53,12.53,0,0,0,4.45,3.72c10.06,5.52,27.56,10.06,33.61-3.33C1104,891.67,1094.3,885.89,1092.23,879.16Z"/><path class="cls-19" d="M1113,881.6c-5.22-.94-31.65,5.48-28.79,11.55,1.71,3.65,10.11,2.54,13.4,1.87a82.46,82.46,0,0,0,14.38-4.25C1115.89,889.16,1116.87,882.29,1113,881.6Z"/><path class="cls-19" d="M1102.15,882.42c1,.48,9.89-.29,13.17-2.46,2.29-1.5,6-3.77,3.22-8-2.39-3.59-7.08-2.45-9.74-1.47-2.4.89-7.7,1.35-8,6.62C1100.67,878.87,1100.28,881.56,1102.15,882.42Z"/><path class="cls-19" d="M1099.87,866.9c-.36,3.66,5.14,3.27,6.92,3.71,3.27.8,8.63,2.4,12.17.23,3.76-2.33,2.53-5.21-.5-7.19a18.82,18.82,0,0,0-10.76-3C1104.86,860.63,1100.48,860.67,1099.87,866.9Z"/><path class="cls-19" d="M1102.3,893.17a30.78,30.78,0,0,1-3.62.65c-4.13-.35-8,1.92-11.71,3.27-3.49,1.27-5.6,4-2.21,6.28,2.75,1.87,5.71,1.44,8.77.76,3.56-.78,11.85-2.51,15.28-3.75C1114,898.5,1112.57,889.43,1102.3,893.17Z"/><path class="cls-7" d="M1111.58,872.77a14,14,0,0,1-6.72,3.2c-4.37.87-11.93.08-11.93.08l-2.57.65.56,3.34s-4,.72,4-.07,12.82-.52,15.83-2.61a7.87,7.87,0,0,0,3.38-5l-1.61-1.09Z"/><path class="cls-7" d="M1108.9,865.66s1.86-.82-6.58-.95-12.27-1-17.63,0a38.55,38.55,0,0,0-9.93,3.58,77.9,77.9,0,0,1,15.21-.52c8.1.56,16.35.72,19.07.57S1108.9,865.66,1108.9,865.66Z"/><path class="cls-1" d="M1179.07,877.47c.4-10.71,3.7-34.22,3.7-34.22l-61.76.63s1,4.13,2.1,10.24a12.37,12.37,0,0,0-10.82-1.48c-9.11,2.59-11.17,9.22-10.72,14s1.51,12.58,7.79,17.26,11.15,6.06,12.36,9.76a6.87,6.87,0,0,0,4.17,4.32,11.89,11.89,0,0,0,2.36,5c2.68,3.32,7.12,4.23,10.27,4.43-3.75,2.18-8.69,2-10.33,4.31-1.83,2.52,34.07,1.22,34.07,1.22s19.45-1.14,13.16-3.62c-3.09-1.22-5.11-1.4-8.05-2.37a26.38,26.38,0,0,0,4.11-.85c2.89-.64,5.72-2.76,8-6.54C1182.8,894.12,1178.77,885.44,1179.07,877.47Zm-59.6,6.9c-3.92-3.06-11.16-7.1-12.2-12.67s.25-11.15,4.12-12.65,9.31-2,10.51.5a8,8,0,0,0,2.54,3c.64,4.67,1.18,9.78,1.36,14.8.17,4.35-.09,8.15-.25,11.51C1124.54,888.14,1122.32,886.58,1119.47,884.37Z"/><path class="cls-19" d="M1110.5,866.78c-3.72-.6-7.13.57-10.87.65-4.17.09-8.29-.67-12.41-1-6.41-.56-12.5,0-18,2.88-5,1-9.35,4.51-12.49,9.09-4.27,6.23-2,15.22,7,14.76s13.61-8.27,20.77-12c8.65-4.48,20.93.65,28-7C1114.73,871.82,1114.21,867.38,1110.5,866.78Z"/><path class="cls-8" d="M964.67,1402.49s-1.75,14-1.17,21.3c.38,4.7.51,11.2.56,15.24a4.82,4.82,0,0,0,3.67,4.63c8.2,2,28,6.88,35.47,8.44,41.74,8.76,90.92,3.91,90.92,3.91s2.05-4.37,0-8.16-43.34-21.49-48-23.24-29.24-4.63-48.21-7.26C975.54,1414.26,964.67,1402.49,964.67,1402.49Z"/><path class="cls-8" d="M918.55,1348.59c.31-.62.72,0,1.17.48a31.94,31.94,0,0,1,6.42,8.76,60.1,60.1,0,0,1,4.31,11.34.91.91,0,0,1-.07.63c-1.25,2.66-10.8,22.55-24.67,39.4-14.88,18.1-41.73,42.9-48.16,45.53s-7.29,3.8-9.63,2-3.5-7-1.75-12.84,15.49-35.15,17-44.2,14.58-45.18,14.51-44.06c-.12,2.14-2.37,12.54-2.77,15.21-1.17,7.88,3.93,16.16,7.5,14.09,7.59-4.37,24.52-19.84,29.77-26.56A59.87,59.87,0,0,0,918.55,1348.59Z"/><path class="cls-14" d="M598.06,1019.28c2.38-38.79,68.06-49.9,101.31,8.32,54.68,95.74,81,143.44,46.71,182.64-7.54,8.64-22.29,7.24-30.91,0-28.23-23.72-15.54-22-27.79-59.62-25-76.75-31.53-78.37-53-94.57-17.89-13.5-21.72-8-21.89-7.88C595.22,1056.51,596.72,1041.07,598.06,1019.28Z"/><path class="cls-19" d="M745.27,1160.21c.46-1.41-2.72-13.27-5.55-20.88l.08.19c-.34-.94-2.08-6.13-2.38-7.12,1.15-12.55-12.35-34.71-19.36-45.22l-14.31-19.7h0s0,0,0,0l0,0v0c-.07-.12-.27-.4-.27-.41h0c-.07-.11-.16-.23-.08-.13l-.2-.3c-.23-.88-38.16-49.51-38.63-53.58-.42-.37-.87-.75-1.32-1.13.11-.34-.35-21.19,11.12-48.43C691,923.81,701.74,859.06,699.9,858.34l0-.08c-3.08-.68-21.4,6.6-21.41,6.61-13,8.35-23.14,15.4-31.79,49.29h0c-8,31.42-18.48,64.35-24.83,84.53h0c-2.29,7.28-3.81,7.81-2.87,27.55.87.87,1.15,1.11,3.51,3.6h0l1,1h0c1.84,1.91,3.18,3.26,3.18,3.26l0,0c.09.09,0,0,0,0,26.78,27.49-3.65-1.51,51.1,53.35,21.69,21.7,22.11,46,21.16,49.35.14.8.25,1.6.37,2.41l.11.09c-.07,1,.43,2.64.18,3.26a3.38,3.38,0,0,1,.12,1.4,152.27,152.27,0,0,1,.79,23.13c-.36,4.44,4.58,5.91,5.64-.52a3,3,0,0,0,.62-2.41c.46-1.27,1.34-12.26.43-22.09a17.6,17.6,0,0,0,2.75.21H710c.38,5.37,3,17.18,4.46,23.74a2.61,2.61,0,0,0,.21,2.14c.31,3.23.39,4.44,1.43,5.14,1,2.09,5.45,2.06,4.16-3.14.93-3.73-.45-22.95-.75-27.53l1,0c.87,1.94,1.08,2.94,1.8,4.87l-.06-.14c7.58,21.07,5.15,31.74,10.9,30.44,2.47-.67,3-3.73,3-6.27a1.89,1.89,0,0,0,.1-.73c1.37-2.69-4.6-24.49-4.83-25.51a2.35,2.35,0,0,0,.71,0c5.11,11.69,4,7.93,5.63,14.25C740.37,1170.12,746.68,1169.73,745.27,1160.21Z"/><path class="cls-24" d="M2086.41,1182.54H1115.22c-40.48,0-76.59-4.08-76.59-45.14l3.77-613.68c0-41.06,32.34-50.19,72.82-50.19l996.26,1.71c40.48,0,47.8,17.63,47.8,58.69l2.51,606C2161.79,1181,2126.88,1182.54,2086.41,1182.54Z"/><path class="cls-1" d="M1767.41,538.53c-10.2,1.21-16.5,8.93-22.74,16.49-7.27,8.81-16.39,17.54-21.91,27.54-4.94,8.93,6.27,16.86,13.65,10.54s13-15.31,19.1-22.83c2.62-3.24,5.16-6.6,8-9.62s6.61-5.22,9.6-8.28C1777.6,547.81,1774.74,537.66,1767.41,538.53Z"/><path class="cls-1" d="M1831,626.87c-14.88,7.1-29.66,14.47-44.36,21.94-10.48,5.33-1.28,20.66,9.17,15.68,14.88-7.1,29.74-14.32,44.45-21.78C1850.86,637.33,1841.57,621.84,1831,626.87Z"/><path class="cls-1" d="M1638.43,505c-5.37,14.06-12.56,30-13.67,45.12-.62,8.37,12.25,11.81,16,4.32,6.81-13.77,9.84-30.14,15.32-44.58C1660.19,498.9,1642.58,494.18,1638.43,505Z"/><path class="cls-1" d="M1550.74,506.11c1.2-9.63-15.41-11.95-17.06-2.31-2.39,14-3.66,29.79.33,43.64,2.65,9.18,17.62,7.76,17.11-2.32C1550.45,531.84,1549.07,519.44,1550.74,506.11Z"/><path class="cls-1" d="M1440.47,519.23c-5.85-9.83-20.64-1.12-15.3,8.94,6.61,12.47,9.44,24.94,13.83,38.15,3,9,17.91,8.08,17.34-2.35C1455.51,548.53,1448.3,532.38,1440.47,519.23Z"/><path class="cls-1" d="M1370.51,612c-10.74-15.67-24.17-30-40.36-40.16-8-5-17.75,7-10.27,13.31,13,10.91,24.84,22.23,34.52,36.27C1361.17,631.26,1377.33,622,1370.51,612Z"/><path class="cls-1" d="M1316,685.83c-14.19-13.61-32.17-24.27-51.85-27.13-10.7-1.55-15.57,13.42-4.59,16.66,16.4,4.85,30.76,11.73,43.12,23.79C1311.39,707.62,1324.78,694.23,1316,685.83Z"/><path class="cls-1" d="M1317,992.8c-7.46,2-14.08,9-19.76,14.06s-12.8,10.88-16.68,17.72,4.38,16.75,11.66,11.65c6.28-4.4,11.26-10.71,17-15.84,5.57-5,13.08-9.14,17.14-15.43S1323.71,991,1317,992.8Z"/><path class="cls-1" d="M1382.22,1059.79q-14.15,20.18-26.41,41.54c-5.71,9.89,9.59,18.82,15.3,8.94q12.32-21.35,26.36-41.57C1404,1059.31,1388.7,1050.55,1382.22,1059.79Z"/><path class="cls-1" d="M1480.1,1100.13c-6.88,16.19-10.55,33.89-13.32,51.22-1.8,11.19,15.33,16,17.14,4.72,2.71-16.9,7.67-32.82,11.83-49.35C1498,1097.73,1484,1090.88,1480.1,1100.13Z"/><path class="cls-1" d="M1595.91,1154a278.94,278.94,0,0,1-3.9-43c-.08-11.51-17.92-11.53-17.89,0a236.34,236.34,0,0,0,4.67,47.69C1581.16,1170,1597.71,1165.05,1595.91,1154Z"/><path class="cls-1" d="M1724.8,1136.59c-2.12-8.95-8.41-17.23-12.94-25.17-4.65-8.15-8.73-17.06-14.88-24.18-5.55-6.42-17.14.38-14.37,8.36,3.09,8.89,8.81,16.9,13.55,25,4.63,7.9,8.63,17.42,15.34,23.73A8,8,0,0,0,1724.8,1136.59Z"/><path class="cls-1" d="M1835.4,1067.54c-11.77-18.12-30.79-33.74-48.29-46.09-10-7-18.88,9.06-9.45,16.16,8.12,6.11,16,12.38,23.5,19.24,7.3,6.66,13.64,14.36,21,20.92C1829,1083.87,1840.88,1076,1835.4,1067.54Z"/><path class="cls-7" d="M2153.15,777.76c.77-12.29-5.24-17.33,0-28.61-75.44-20-171.15-37.32-277.85-43.21-130.17-7.19-72.67,64.58-73.59,81-9.91,178.41,198.71,50,240.86,67.4,30.05,12.41,82.09,30.16,110.55,44.13C2151.15,861.73,2152.07,814.71,2153.15,777.76Z"/><path class="cls-19" d="M1191.06,868.5c-30.44-3-116-20.38-161.85-20.81,10.2,30.79,6,94.37,0,128,17.55.21,85.12-11.83,104.08-11.61,28.62.33,50.09,9.81,77.37,18.79,34.94,11.49,52.71,13.28,70.5,11.66,73.86-6.7,53.54-15.41,95.59-111.45C1406.36,815.46,1265.06,835.27,1191.06,868.5Z"/><path class="cls-7" d="M1357.41,900.38c-1.47-16.94-11.19-33-27.61-38.91-20.65-7.44-42.92,1.86-61.64,10.5-19.8,9.13-39,20.46-51.26,39-3.32,5-2.39,9.79.53,13.12a24.61,24.61,0,0,0,.18,4.14,14,14,0,0,0,2.48,6.43c1.83,4.53,5.37,9.26,11.05,14.17,26.88,23.25,76.93,48.38,103.94,11.77C1347.61,943.6,1359.29,922.12,1357.41,900.38Z"/><path class="cls-1" d="M1342.48,711.41c-16.94,33-25.59,50-21.72,73,3.68,21.86,31,33,31,33s8.88,3.13-4.82,28.14-44.38,81.81-44.38,81.81-23.29,49-28.11,58.12c-19.63,37.19-48.49,9.57-62,15.79-8.75,4,62.87,39.69,62.87,39.69s54.25,26.43,41,10.19-36.94-24.79-28.09-49.14S1365,849.24,1365,849.24s5.33-12.49,11-16.49,28.74,23,61,4.83c17.22-9.72,32.21-39.9,45.1-60.94,17.34-28.32,49.22-86.18,49.22-86.18l-140.44-76.73S1365.47,666.65,1342.48,711.41Z"/><path class="cls-25" d="M1352.5,717.74s-11.61,30.41-14.43,52.24c-4.31,33.37,25.52,36.21,39.89,41.64,13.11,5,35.61,19.14,51.75,10s56.74-87.57,56.74-87.57Z"/><path class="cls-19" d="M1406.34,862.22c-3.29-14.39-31-10.88-40.81-11.93-17.9-1.92-47.69-6.2-62.78,3.58-16.09,10.43-5.71,21.23,12.66,27.83,19.81,7.13,38.67,9.24,59.5,7.81C1389.5,888.51,1412,886.74,1406.34,862.22Z"/><path class="cls-19" d="M1391.39,896.64c-5.32-3.21-55.11-13.92-75.47-11.52-14.17,1.67-37.12,3.74-25.81,22.27,9.64,15.77,36.77,19,52.5,19.65,14.16.62,44,7,51.06-10.36C1396,910.9,1400.89,902.37,1391.39,896.64Z"/><path class="cls-19" d="M1376.1,932.37c-15.19-6.25-100.06-7-95.37,13.21,2.82,12.18,29,14.26,39.36,14.37,14.71.16,31.88-.83,46.32-3.5C1379.17,954.09,1387.25,937,1376.1,932.37Z"/><path class="cls-19" d="M1322.44,962.88a96.06,96.06,0,0,0-11.39-.38c-12.28-3.75-25.44.63-37.58,2.3-11.4,1.57-19.55,8.36-10.78,17.56,7.11,7.47,16.35,8.07,26.08,8,11.26,0,37.52.1,48.68-1.41C1354.48,986.66,1339.6,964.65,1322.44,962.88Z"/><path class="cls-19" d="M1321.89,907.88c-8.39-7.14-18.66-9-28.12-14.4-10.55-6-19.69-14.14-29.46-21.25-15.16-11-31.21-18.57-49.21-19-14-4.77-30.06-1.72-44.69,6-19.92,10.49-27.54,38.2-4.42,50.29,22.84,11.94,46.24-2.1,69.66-1.49,28.22.74,51.28,32.87,80.29,22.86C1325,927.81,1330.26,915,1321.89,907.88Z"/><path class="cls-1" d="M1872.35,788c-13.91-40.24-34.74-76.87-85.29-96.28-32.11-12.33-47.11-12.26-53.79-10.58l-8.33-34.45L1534.87,692l84,338.72s34,9.56,93.71-7.46,93.14-42.33,93.14-42.33l-8.58-35.51c9.74-3.63,24.13-10.26,41.82-22.23C1872.78,900.3,1885.27,825.36,1872.35,788Zm-50.79,93.84c-10,15.07-29,19.69-36.38,22.46L1743.7,727.77c8.53-.54,16.78-8.83,25.46-7.4,25.65,4.24,43.89,24.64,60.23,64.48S1845.73,845.51,1821.56,881.83Z"/><path class="cls-16" d="M1830.31,813.15c1.21,15.41,9.92,30.07,24.81,35.57,18.72,6.92,39.05-1.37,56.13-9.09,18.07-8.16,35.62-18.32,46.9-35.07,3-4.53,2.24-8.88-.39-11.94a23.1,23.1,0,0,0-.13-3.76,12.87,12.87,0,0,0-2.21-5.86c-1.63-4.14-4.82-8.46-10-13-24.27-21.34-69.59-44.55-94.42-11.46C1839.53,773.92,1828.75,793.36,1830.31,813.15Z"/><path class="cls-7" d="M1792.72,747.59c2.13-14.8,24.59-8.63,32.44-8.85,14.36-.41,38.21-2.23,50.71,9.4,13.34,12.39,5.36,22.79-9.2,28.07-15.7,5.7-30.82,6.22-47.65,2.85C1807.23,776.7,1789.08,772.82,1792.72,747.59Z"/><path class="cls-7" d="M1806,785.06c4.16-2.89,43.89-9.65,60.38-5.31,11.48,3,30,7.26,21.59,25.69-7.2,15.69-28.94,16.6-41.59,15.91-11.38-.62-35.18,3.41-41.51-15.46C1802.77,799.61,1798.54,790.22,1806,785.06Z"/><path class="cls-7" d="M1816.31,823.94c12-5.2,79.86-11.36,76.81,9.48-1.84,12.53-22.35,25.31-30.71,24.49a168.48,168.48,0,0,1-37.43-7.83C1814.61,846.46,1807.48,827.76,1816.31,823.94Z"/><path class="cls-7" d="M1821.79,852.06a59.22,59.22,0,0,1,9.17.62c9.75-2.83,18.76-5.57,28.6-2.73,9.24,2.67,22.68,9.42,16,18.29-5.45,7.2-17.76,16.63-25.6,15.71-9.08-1.08-18.47-1.41-27.52-4C1808.59,876,1808,852.37,1821.79,852.06Z"/><path class="cls-7" d="M1812,690.06c10-1,17.49,10.71,27.33,11.63,11,1,25.19-1.41,36.17-1.64,17-.36,30.93-4.35,44.58,4.71,12.89,3.69,23.32,14.33,30.23,27.68,9.42,18.19.72,42.83-22.81,39.84-23.26-2.95-50.64-16.14-68.44-27.84-21.45-14.11-38.14-11.55-54.59-34.09C1799.36,703.33,1802.07,691,1812,690.06Z"/><path class="cls-26" d="M1576.3,784.72l161.85,2.2,41.74,178.15s-27.07,20.06-55.34,28.8c-77.74,24.06-92,8-92,8C1633.37,1006.75,1576.3,784.72,1576.3,784.72Z"/><path class="cls-14" d="M2094.32,445.66H1083.46c-39.69,0-71.87,32.81-71.87,73.28V1127c0,40.47,32.18,73.28,71.87,73.28H2094.32c39.7,0,71.88-32.81,71.88-73.28V518.94C2166.2,478.47,2134,445.66,2094.32,445.66Zm46,679.18c0,40.47-33,52-72.7,52H1115.07c-39.69,0-73.88-11.57-73.88-52l1.24-597.43c0-40.47,33-49.48,72.64-49.48h952.52c39.7,0,72.7,17.81,72.7,58.28Z"/><path class="cls-27" d="M504.31,1088.19c7.5-5,16-2.55,17.3,8.91,2,17.23-12.75,35.79-9.78,31.52-5.71,8.46-12.42,17.25-19.27,11.12-1.42-1.26-1.85-3-2.61-4.69-1-1.73-1.67-1.47-2.75-3.67a11,11,0,0,0-.52,3.75,6.38,6.38,0,0,1-6.08,7.85C465.47,1143,478.8,1104.92,504.31,1088.19Z"/><path class="cls-27" d="M562.74,1175.9c-11.4-8.26-11.5-27.21-11.37-40.9.28-24.84,20.42-19.77,30.32-.87a53.15,53.15,0,0,1,5.86,24.82,6.35,6.35,0,0,1,1.5,4.19,3.09,3.09,0,0,1,0,.8h0l-.16.78a19,19,0,0,1-12.36,13.57,12.82,12.82,0,0,1-4,.57A16.49,16.49,0,0,1,562.74,1175.9Z"/><path class="cls-27" d="M1228.76,1235.31c8,2,14.73,7.65,19.9,13.8,16,19,13.53,50.37,2.54,55.24a6.31,6.31,0,0,1-7.38-1.92,6,6,0,0,1-4.56,3.1l-1.37.11C1211.83,1305.64,1189.56,1225.71,1228.76,1235.31Z"/><path d="M1207.07,594.86h0Z"/><path d="M1227.73,611.53c-11.64-6.29-14.55-8.19-20.92-10.38-12.72-4.28-21.76-.54-28.29,3.27,0-.09-.06-.18-.1-.27l0-.09c3.06-4.06,6.39-8.84,10.59-11.77,5-3.17,19.33,3.32,16.2,1.93l1.81.64-.27-.1,3.49,1.21c1.29.43,4,1.51,5.33,2,8,3,12.27-8.37,4.88-11.56-2.22-1-5.7-2.16-5.7-2.16l-.14,0s-5.81-2-4-1.38c-5.69-1.93-16.81-6.24-25.26-2.75-4.89,2-9.47,6.92-13.34,11.7A30.39,30.39,0,0,0,1166,588c-5.22-2.38-7.65-3.71-13.12-4.86.19-14.89-2.09-104.49-2.09-104.49.86-6.33-7.36-9.81-11.26-4.76-3.6,4.64,1.58,55.68.84,108.83a33.91,33.91,0,0,0-15.8,6.38c-7.55-7.37-8.41-11.73-32.27-3.55a127.82,127.82,0,0,1-15.61,4.54c-9.65,2.39-5.16,13.77,1.59,12.45,14.47-2.83,25.65-8.89,33-8.89a33.23,33.23,0,0,1,5,4.58,30.13,30.13,0,0,0-3.73,9.75c-1.47-.5-2.81-.94-3.43-1.07-4.48-.94-8.07-.45-16.89,5.48,0,0-.59.41-.61.42l.11-.08-5.61,3.84a65.92,65.92,0,0,1-12.06,6.48c-6,2.47-4.61,12,2.49,12,6.71,0,24.47-14.43,29.39-16,0,0,2.74.79,5.83,1.93a13.16,13.16,0,0,0-5.45,2.21c-10.57,7.48-16.73,27.61-23.51,33.27a6.25,6.25,0,0,0,3.86,11.19c11,0,20.69-34.65,28.41-34.3a13.14,13.14,0,0,1,3.06.57c11,15.07,33.82,14.94,48.74,4a32.82,32.82,0,0,0,6-5.61,65.16,65.16,0,0,1,11.64-1.19,16.46,16.46,0,0,1,8.51,2.94c4.31,3,12.42,11.32,20.3,11.32,14.34,0,10.36-14,2.43-12.86-9.07,1.31-14-14.62-33.37-14-.84,0-1.79.1-2.8.2,0-.13,0-.25.08-.38,3.15-1.8,6.48-3.88,7.89-4.61,15.58-7.3,30.73,9.46,37,9.46C1231.12,623.26,1233.09,614.43,1227.73,611.53Z"/><path d="M1076.65,590.09h0C1076.51,590.11,1076.52,590.11,1076.65,590.09Z"/><path class="cls-1" d="M1138.05,618.17c8.25,0,8.25,12.5,0,12.5S1129.8,618.17,1138.05,618.17Z"/><path class="cls-1" d="M1161.51,613.19c8.24,0,8.23,12.49,0,12.49S1153.28,613.19,1161.51,613.19Z"/><path d="M2159.35,570c-11.4-21.56-33.09-29.55-52.33-25.7a62,62,0,0,0-13.09,4.56c7.87-22.39,6.67-18.34,7.88-22.27,8.14-2,19.52-7.51,32.26-1.25,2,1,3.14,2,5.3,2a6.28,6.28,0,0,0,3.21-11.69c-14.18-8.34-27.14-6-36.29-3.49,1.95-6.18,4.73-14.91,8.72-27.37,3.51-7.27-7.61-13.35-11.48-5,0,0-3.67,11.08-9.09,27.39-10-20-28.51-21.12-40.64-21.07,3.76-4.69,8.34-10.33,14.26-17.48,5-6-4.31-14.35-9.9-7.65-6,7.16-11.86,14.54-17.74,22.07l-.19-.21.19.21,0,0c-.14-.18-.21-.27-.17-.24-18.79-21.22-31.73-15.76-29.77-7.19,0,.16.07.37.07.28a6.3,6.3,0,0,0,6.39,4.6,24.32,24.32,0,0,1,8.48,5c3.17,2.82,5.17,5.39,7.23,7.51-5.46,7-11,14.2-16.84,21.44-1-14.51-7-27.56-18.3-36.7-9.77-7.88-18.13-5.89-14.46-6.12-9.23.64-7.26,13,0,12.51a4.78,4.78,0,0,1,1.1.27c10.47,3.82,16.15,17.5,15.07,15,6.64,13.28,2.75,23.46,4.93,28.2.1.23.21.43.31.64-5.55,6.56-11.4,13.17-17.63,19.79.94-7.86,1.15-29-15.43-50.63-14.28-18.63-28-22-46.2-25.09-7.76-1.29-10.18,11-1.69,12.39,14.92,2.42,20.28,4.89,25.32,8.18,18.78,13.12,32.81,42.44,21.75,65.13a16.11,16.11,0,0,0-1.87,4.07,8.85,8.85,0,0,0,.09,4,397.33,397.33,0,0,1-39.23,32.47,6.44,6.44,0,0,0-3.71,3.5v0a6.37,6.37,0,0,0,5.82,8.82c4,0,24.4-14.82,50.38-40.43a131.1,131.1,0,0,1,15.06-2.18c23.28-1.27,39.19,8.87,47.92,25.81,7.06,13.8,5.49,24.58,6.51,28.26a8,8,0,0,0,2.67,4.28l-2.11,6c.16-.45-1.28,3.64-1.24,3.56-.09.26-.38,1.06-.29.84-.05.14-3,8.58-3,8.71h0c-.87,2.51-1.74,5.06-4.15,11.65a6.27,6.27,0,0,0,5.71,8.68c5.4,0,6.08-4.12,9.37-13.65h0l1.62-4.66c.06,0,3.67-10.56,8.12-23.66,16.2-10.08,45.06-33.58,67.34-1.38,5.88,8.9,4.11,15.41,11,15.41,15.56,0-1.91-37.58-30.46-43.56-14.14-3-27.48,2.13-41.39,10.44,5.44-16.07,10.32-30.53,10.3-30.5,1-2.83,1.9-5.46,2.76-7.94,9.58-5.4,22.07-14.58,40.29-8.62a36.31,36.31,0,0,1,14.66,9.72c6.43,7.41,5.41,11.79,11.25,11.79A6.27,6.27,0,0,0,2159.35,570ZM2044,498.57l1.32.14c7.91.45,31.92-4,39.23,16.89,1,3,1.89,6.48,4.1,8.87-2.72,8.16-5.64,16.92-8.62,25.83-4.1-12.43-12.14-21.36-23-26.45-10.3-4.86-20.42-5.15-29.08-4.54,1.41-1.77,2.83-3.56,4.24-5.37C2036.76,508.2,2040,503.82,2044,498.57Zm-20.16,60.76a70.42,70.42,0,0,0-27.49-3.55c6.63-7,13.48-14.65,20.39-22.79,5.53-.39,12.49-1.69,20.64-1.28,16.83,1.19,27.3,10.14,31.19,24.07.71,2.55,1.65,9.4,5.42,12.54-4.26,12.7-8.44,25.09-12.1,35.86C2057,582.44,2042.21,565.77,2023.88,559.33Z"/><path class="cls-8" d="M777.6,669.32l-.06.18C778.28,669,778.31,668.91,777.6,669.32ZM610.07,726c0,.1,0-.06.06-.21,0,0,.08-.2.08-.19,8.3-20,32.82-22,55.28-24.78l.22-2.63h0l.15-1.76h0c.07,0,1.42-16.21,1-20.29,0-.07,0-.3,0-.34a34.79,34.79,0,0,0-1.31-7.59c-1.79-5-5.55-7.93-11-11.8,0,0-10.28-7-7-4.65-25.57-17.36-19.31-33-29.25-40.17-13.9-9.22-57.7-2.48-61.71-2.53-14.61-.16-17.44-19.54,30.05-29.41,23.65-4.93,51.88.12,78.47,2.55h0l.45,0s20.66,1.19,22.5,1.34c16.46,1.31,20.43,4.06,30,16.9,4.76,6.39,9.36,12.9,14.24,19.19,7.93,10.23,26.69,32.54,37.61,39.64,4.05-2.35,7.89-5,11.91-7.42,8.69-5.16,25.7-11.4,34.37-10.11,5.42.81,8.6,5.79,8.2,11-2.43,32.4-82.61,82.5-134.84,95.84C658.72,756.5,599.45,758,610.07,726Z"/><path d="M2494.36,707.36a6.38,6.38,0,0,1-7.06-2.94c-2.61-3.91-.75-20.51,12.86-40.43a105.43,105.43,0,0,1,8.07-10.38s3.2-3.66,6.08-6.59c7.38-7.45,29.41-24.62,36.9-19.71,3.37,2.22,4.8,6.4.43,11.88-2.12,2.63-22.23,24.28-24.06,47-.51,9.19,3.76,20.73-9.26,22.82-4.29.69-8.1.19-15.39.67C2500.08,709.84,2496.76,710.58,2494.36,707.36Z"/><path d="M2596.53,768.61c-.45-2.06-2.11-13.54-2.11-13.5-2.13-9.94-5.79-13-1.54-17.09a6.24,6.24,0,0,1-1.93-11l-.11.05c0-.24,2-1,2.31-1.1.85-.24.61-.13.61-.13,8.65-1.23,21.17-11.64,27.08-18.27,8.56-10,10-17.19,14.32-19.63,5.29-3,12.09.19,11.74,10-1.15,31.27-31.71,77.79-42.54,77.79C2600.18,775.69,2597.43,772.72,2596.53,768.61Z"/><path class="cls-8" d="M1284.9,1387.3c.54-6.49.56-7.91.56-7.91C1285.28,1382.18,1285.1,1384.8,1284.9,1387.3ZM1237,1431.2h-.06c3.29,0-21.26.36-34.57-10.53-8.66-3.85-3-20.44-7.83-92.14a5.56,5.56,0,0,1,.5-2.69,7.25,7.25,0,0,1,1.17-1.74h0c.18-.2.38-.38.57-.56a4.32,4.32,0,0,1,1.09-.77,6.42,6.42,0,0,1,4-4.35s0,0,0,0h0s.39-.14.41-.15a178.65,178.65,0,0,1,39.77-7.83c-2.46-16.66-8.41-20.43-9.35-22.93a6.27,6.27,0,0,1,3.32-8.21s7-5,14.51,14.25a69.21,69.21,0,0,1,4.15,16.62c15,.44,27.47,4,33.24,6.75a14.91,14.91,0,0,1,4.72,3.36c10.5,12.7,5.18,73,2.42,88.91a6.64,6.64,0,0,1-2.8,4.38,6.26,6.26,0,0,1-2.36,5.81c-12.87,9.57-28.32,12.09-44.7,12.09C1242.43,1431.48,1239.7,1431.38,1237,1431.2Z"/><path class="cls-8" d="M470.45,1324.66c-7.8-1-18.79-9.84-18.39-19.08-3-5.66-2.32-110.79-4.15-115.48,0,0-.05-.8-.15-2.28.33,4.76-1.26-11.63,0-20.85a18.15,18.15,0,0,1,3.27-8.91c4.8-6.27,19.13-7.31,26.93-6.83a38.74,38.74,0,0,1,4.12-12.68c3.72-7.91,14.78-2.2,11.53,4.86-1.61,3.54-2.58,5.47-3.27,9.83,28.32,7,28.92,12.37,31.39,32.22,4.8,38.31,7.77,103.92,5,122.87-.67,4.74-2,8-5.53,10.69-7.62,5.85-24.72,9.46-35.27,9.46C480.53,1328.48,474.84,1327.42,470.45,1324.66Z"/><path class="cls-8" d="M555.73,1313.75c-20.29-7-22-22.4-21.93-51.64.06-24.22-.72-31.83-.72-61.52a6.29,6.29,0,0,1,7.38-4.49,35.93,35.93,0,0,1,3.67-1.84c5.73-2.58,14.69-4.16,21.14-5.16a148.53,148.53,0,0,0-1.87-19.52c-.77-5.17-1.42-8.61.59-11.12,3.16-4,10.77-3.26,11.21,4.28.55,6.74,2.1,11.77,2.6,24.9,30.63-2.22,35.77.52,32,55.91,0-.07,0,0,0,0v.08c0-3.82-.67,36.78-10.36,56.47,1.33-2.5-6.45,16.79-24.62,16.79A64,64,0,0,1,555.73,1313.75Z"/><path d="M2722.72,939c-7.17-.47-7.11-9.9-5.79-17a5.69,5.69,0,0,1-2.24-1.38c-2.73-2.74-2-6-.86-9.55,3.73-11.29,23.64-41.78,33-47.73,9.68-6.16,32-2.15,27,11.25-3.35,8.95-13.13,13.87-25.92,28.9C2731.48,923.29,2733.64,939.72,2722.72,939Z"/><path class="cls-28" d="M2592.69,1045.12q.2,3.29.49,6.56C2593.33,1052.26,2593.24,1054.05,2592.69,1045.12Zm42.1,105.46c-56.73-16.43-59.42-116-52.47-154.69,7.11-40.36,34.12-67.3,55.86-72.33,15.54-3.59,27.14,4,37.39.33,10.31-4.08,16.68-15,32.26-20.93a41.43,41.43,0,0,1,46.53,12.57c6.83,8.05,4.47,8.52,9.58,7.46,22.2-5.41,33.68-10.49,51.45,4.57,36.91,31.28,33.27,135.33,22,171,1.59-5.32-3.05,19-25.87,38.71-24.42,21.18-42.76,3.33-50.16,3.68-4.58.67-10.76,5-20.94,9-16.55,6.38-30.84,4.63-26.45,4.78-14-.48-21.16-4.79-25.55-6.31-.51-.16-.49-.1-.65,0-3.47,2.86-2.62,6.39-20.38,6.5A116,116,0,0,1,2634.79,1150.58Z"/><path d="M2630,1017a6.54,6.54,0,0,1-2.08-4.45c-.2-3.14,1.71-4.74,9.7-13.37,30.09-32.41,22.88-26.84,64-2.62,8.93,5.29,11.87,6.66,13.9,9.78a7,7,0,0,1-1.56,9.11c-5.35,4.43-52.42,5.61-60.65,5.61C2634.19,1021.05,2631.9,1020.56,2630,1017Z"/><path d="M2744.38,1017.88a5.54,5.54,0,0,1-3.34-1.39,6.16,6.16,0,0,1-4.89-5.11h0c-.76-4,2-6,11.33-15.11,15.94-15.71,20.3-22,28.94-21.26,8.11.76,37.48,18.6,42.31,26a9,9,0,0,1,1,8.08c-2,5.32-9,6.71-13.72,7.52C2790.84,1019.27,2759.41,1018.57,2744.38,1017.88Z"/><path d="M2656.18,1090.72l-6.2,4.66c-8.7,6.38-16.69,3.46-16.69-13a111.65,111.65,0,0,0-2.51-15.51c-1.88-6.92-1.75-8-7.69-20.53-.84-1.76-3-6.22-3-6.22-8-7,6-17.57,10.29-8.12a53.57,53.57,0,0,1,5.8,4.93c1.41,1.34,5.34,5.45,6.88,6.5l.23.13a5.93,5.93,0,0,0,1.72-.15,53.45,53.45,0,0,0,9.27-4.17l.09,0h0c17.25-8.62,20.82,6.87,24.69,23.34,4.75-1.42,13.29-8.67,20.54-12.46,13.63-7.13,22.34,8.87,28.95,17.3,6.69-4.41,10.83-10.59,16.8-15.32,14.12-11.11,31.79,2,35.08,2,3,0,20.56-15.52,22.89-17.44a9.37,9.37,0,0,1,11.53,10.66c-4,9.84-11.61,24.68-15.45,31.86-6.62,12.43-15.08,21.14-26.07,12.21-.68-.55-5.35-4.08-5.05-3.78-7.6-4.88-9.23-.6-25.71,12-27.87,21.42-27.33-11.8-45.74-2.49-7.48,4-16.88,10.79-24.1,10.79C2662.82,1107.79,2661.05,1098.09,2656.18,1090.72Z"/><path d="M2648.52,1210.11c-.26-2-.52-4-.81-6C2647.71,1204.2,2648.4,1209.17,2648.52,1210.11Zm126.77,101.76c-.17-2.47-.35-4.95-.51-7.45C2775.27,1312.34,2775.29,1311.87,2775.29,1311.87Zm-145.66,109.06a27.78,27.78,0,0,1-.34-9.41c1.34-15.9,3.85-19.57,5.94-104.3.77-31.49,2.21-77.89-1-115.43-27.7,2.22-42.88,1.46-48.46-6.77-2.78-4.09-3.46-16.36-3.76-22.55-.7-13.26,7.47-13,10.61-10.86,0,0,9.33.76,46.76-2.62-2.51.18,92.27-11.88,144.84-11.61,38.14.18,59.79-.71,57.24,17.63-3.39,24.67-14.27,21.39-55.49,24.14.52,10.21,10.25,137.31,13.68,163.71,6.8,52.16,18.42,76.43-8.26,76.43-11.38,0-16.7-5.69-19-15.47-5.21-21.65-13.51-121.62-14.86-222.74-67.91,4.51-50.06,2.62-99.48,8.29,4.85,26,5.65,45.83,7.14,89.89,1.24,35.43,6.08,108.1-.8,141.39-1.6,7.81-5.15,11.19-16.19,11.19C2640.07,1431.84,2631.68,1428.82,2629.63,1420.93Z"/><path d="M696.7,1191.41a10,10,0,0,0,0-1.22,46.23,46.23,0,0,0-2.54-10.42c-7.68-21.25-22.15-27.63-21.53-37.79.66-10.82,13.36-18.1,26.57,1.18-.22-.31.71,1,.3.45a73.91,73.91,0,0,1,7.81,16.07,99.22,99.22,0,0,1,4.66,19.68,6.38,6.38,0,0,1-3.24,6.37,25.84,25.84,0,0,1,.52,5.68,6.27,6.27,0,1,1-12.53,0Z"/><path class="cls-29" d="M691.36,1421.73c-4.8-1.29-43.37,16.17-70.82-37.06-7.36-14.64-10.66-32.05-10-29.55,0,0-.12-.55-.13-.61s-12.62-66.93,9.29-107.37c3.55-11.18,8.71-21.87,16.37-30.77,19.52-22.25,32.55-17.53,38.5-17,2.64-3.13,11.78-17.76,26-22.41,12.16-4,28.17-2.79,37.83,5,5.68,4.6,8.28,9.37,10.15,11.88,1.25-.51,2.49-1.06,3.76-1.53,37.55-13,70.48,85.41,70.48,100.17,15.41,75.23-24.7,130.86-60.24,125.7-4.89-.72-4.79-1.19-6.32-.46-9.29,4.86-15.46,12.69-36.75,12.69C702.31,1430.49,696.12,1423.62,691.36,1421.73Z"/><path class="cls-28" d="M694.12,1384.21c.55-6.19.62-8.35.62-8.35C694.55,1378.8,694.35,1381.57,694.12,1384.21Zm-132.06,83.28c-9.75-4.62-4.85-1.29-20.44,3.24a62.61,62.61,0,0,1-17.69,2.41c-22.87-.07-32.08-9-35.73-11a2.31,2.31,0,0,0-.47-.2c-2.5,0-7.55,4-19.8,3.16-33.45-2.4-79.64-35.72-59.58-119,7.63-31.57,21.33-58.95,51.59-70.84,9.89-3.92,21.1-5,30.31-.2,9.16-10.34,26-16.5,43.44-13.26-.05,0,0,0,0,0l.18,0c1.32,0,9.41,2.3,15.61,5.59,2.61,1.38,5,3.06,7.64,4.43.38.18.28.2.63,0,3.54-1.86,7.16-5,16-8.42,37.93-14.73,61,16.39,63.84,18.64l.17.1a5.76,5.76,0,0,0,.6,0c4.59-.43,3.55-1.06,12.64-1.06.82,0,1.31.07.32,0,22.52,1.55,40.9,20.25,49.35,37.31,12.66,25.5,5.56,80.44,1.18,97.26-9.54,36.65-26.2,47.87-42.15,51.44-13.9,3.16-24.33-2.54-27.8-3.87-.36-.08-.3,0-.3,0-3.71,2-7.67,5.19-15,7.85C619.12,1469.86,592.55,1481.66,562.06,1467.49Z"/><path d="M533,1347.68c-8.86-4.1-16-7.07-45.25,1.19-6.89,2-8.4,3-11.22,1.45a6.06,6.06,0,0,1-2.77-7.68c-1.13-8.93,19.91-21.4,36.22-25.35,12.39-3,22.58-1.88,31.54,7.35,3.09,3.17,9.47,11.5,9.42,15.67,4.63,3,4.56,14.12-4.35,14.12C542.69,1354.43,539.6,1350.87,533,1347.68Z"/><path d="M652.27,1360.29c-15.94-6.22-35.55-8.59-53.19-4.55-4.33,1.07-5.76,2-8.07,1.32a5.48,5.48,0,0,1-1.86.25,6.3,6.3,0,0,1-6.17-7,11.66,11.66,0,0,1,1.92-4.41l.17-.27c-.07.16,0,.1,0,0-.28.43.42-.62.71-1,16-23.82,54.44-29.76,72.06-5.62C669.16,1354.87,662.33,1364.27,652.27,1360.29Z"/><path d="M464.11,1388.14c-7.48-9.79-10.26-14.79-8-18.87.06-.17.34-.78.34-.78a6.13,6.13,0,0,1,5.26-3.23c3.91,0,5.86,3.06,18.37,8.65.09.06.12.06.12.06a232.13,232.13,0,0,0,29.32,11.41c-.83,6-5.13,17.88,6.15,20.62a73.19,73.19,0,0,0,14.12,2c8.39,0,6.46-12,8.71-16.13a180,180,0,0,0,33.46,1.63c-.25,3.54,0,7.46,2.24,10.19-.51,6.2,7.28,5.31,12.6,4.7,18-.56,14.87-9.91,15.5-18.06,29.22-4.56,37.3-11.62,43-3.48,10.84,15.48-49.47,45-102.24,45C509,1431.86,485,1415.53,464.11,1388.14Z"/><path class="cls-28" d="M758.22,1382.48c1-7.35,1.66-18.2,1.38-14.22,4.83-74.74-12.15-141.41-10.85-135.26,0-.17-1.14-5.41-1.23-5.82-.42-1.92-1-3.82-.51-5.79a6.3,6.3,0,0,1,7.68-4.36c5.85,1.61,4.23,8.54,4.59,6a7,7,0,0,1,0-.71c15.78,72.87,16.43,127.86,11.37,161.82C769.37,1392.43,757.08,1390.56,758.22,1382.48Z"/><path class="cls-28" d="M664.32,1372c-4.22-40.84-7.89-99.73,3.14-139,5-17.48,6.58-18.94,9.09-20.13a6.24,6.24,0,0,1,8.05,8.42,178.65,178.65,0,0,0-11.35,49.28c-1.75,27.73.69,71.92,3.47,99.74C677.58,1379,665.12,1379.67,664.32,1372Z"/><line class="cls-30" x1="3054.57" y1="563.89" x2="2665.71" y2="282.73"/></g></svg>