<svg xmlns="http://www.w3.org/2000/svg" xmlns:xlink="http://www.w3.org/1999/xlink" viewBox="0 0 2569.14 861.43"><defs><style>.cls-1{fill:#9ba4b2;}.cls-2{fill:#8fc2dd;}.cls-3{fill:#f3cbbe;}.cls-4{fill:#8bc0dc;}.cls-5{fill:#384a66;}.cls-6{fill:#71b43c;}.cls-7{fill:#e9997e;}.cls-8{fill:#4a5a74;}.cls-9{fill:#de6c43;}.cls-10{fill:#4c5c75;}.cls-11{fill:#3e96c5;}.cls-12{fill:#d1a039;}.cls-13{fill:none;}.cls-14{fill:#e48666;}.cls-15{isolation:isolate;}.cls-16{fill:url(#linear-gradient);}.cls-17{fill:#1e1e1c;}.cls-18{fill:#9e9d9c;}.cls-19{fill:#f6f6f6;}.cls-20{fill:#c7c6c6;}.cls-21,.cls-35{fill:#fff;}.cls-22{fill:#403f3e;}.cls-23{fill:#585857;}.cls-24{fill:#3d3d3b;}.cls-25{fill:#8ebde1;}.cls-26{fill:url(#linear-gradient-2);}.cls-27{fill:url(#linear-gradient-3);}.cls-28{fill:url(#linear-gradient-4);}.cls-29{fill:url(#linear-gradient-5);}.cls-30{fill:#727070;}.cls-31{fill:#d9d9d9;}.cls-32{fill:url(#linear-gradient-6);}.cls-33{fill:#b0d4e8;}.cls-34{fill:url(#linear-gradient-7);}.cls-35,.cls-37{opacity:0.3;}.cls-36,.cls-62{opacity:0.4;}.cls-36,.cls-37{mix-blend-mode:multiply;}.cls-36{fill:url(#linear-gradient-8);}.cls-37{fill:url(#linear-gradient-9);}.cls-38{fill:url(#linear-gradient-10);}.cls-39{fill:#19223d;}.cls-40{clip-path:url(#clip-path);}.cls-41{clip-path:url(#clip-path-2);}.cls-42{clip-path:url(#clip-path-3);}.cls-43{fill:#7fbb4e;}.cls-43,.cls-48,.cls-54,.cls-68{opacity:0.2;}.cls-44{clip-path:url(#clip-path-4);}.cls-45{clip-path:url(#clip-path-5);}.cls-46{clip-path:url(#clip-path-6);}.cls-47{clip-path:url(#clip-path-7);}.cls-48{fill:#78b844;}.cls-49{clip-path:url(#clip-path-8);}.cls-50{clip-path:url(#clip-path-9);}.cls-51{fill:#364863;}.cls-52{clip-path:url(#clip-path-10);}.cls-53{clip-path:url(#clip-path-11);}.cls-54{fill:#87bf5a;}.cls-55{clip-path:url(#clip-path-12);}.cls-56{clip-path:url(#clip-path-13);}.cls-57{clip-path:url(#clip-path-14);}.cls-58{clip-path:url(#clip-path-15);}.cls-59{clip-path:url(#clip-path-16);}.cls-60{clip-path:url(#clip-path-17);}.cls-61{clip-path:url(#clip-path-18);}.cls-62{fill:#231f20;}.cls-63{clip-path:url(#clip-path-19);}.cls-64{clip-path:url(#clip-path-20);}.cls-65{clip-path:url(#clip-path-21);}.cls-66{clip-path:url(#clip-path-22);}.cls-67{clip-path:url(#clip-path-23);}.cls-68{fill:#010101;}.cls-69{clip-path:url(#clip-path-24);}.cls-70{clip-path:url(#clip-path-25);}.cls-71{clip-path:url(#clip-path-26);}.cls-72{clip-path:url(#clip-path-27);}.cls-73{clip-path:url(#clip-path-28);}.cls-74{clip-path:url(#clip-path-29);}.cls-75{clip-path:url(#clip-path-30);}.cls-76{clip-path:url(#clip-path-31);}.cls-77{clip-path:url(#clip-path-32);}.cls-78{clip-path:url(#clip-path-33);}.cls-79{clip-path:url(#clip-path-34);}.cls-80{clip-path:url(#clip-path-35);}.cls-81{clip-path:url(#clip-path-36);}.cls-82{clip-path:url(#clip-path-37);}.cls-83{clip-path:url(#clip-path-38);}.cls-84{fill:#255b77;}.cls-85{clip-path:url(#clip-path-39);}.cls-86{clip-path:url(#clip-path-40);}.cls-87{clip-path:url(#clip-path-41);}.cls-88{clip-path:url(#clip-path-42);}.cls-89{clip-path:url(#clip-path-43);}.cls-90{clip-path:url(#clip-path-44);}.cls-91{fill:url(#linear-gradient-11);}.cls-92{fill:url(#linear-gradient-12);}.cls-93{fill:#404042;}.cls-94{fill:url(#linear-gradient-13);}.cls-95{fill:url(#linear-gradient-14);}.cls-96{fill:url(#linear-gradient-15);}.cls-97{fill:url(#linear-gradient-16);}.cls-98{clip-path:url(#clip-path-45);}.cls-99{fill:#f7b18c;}.cls-100{fill:#f18c70;}.cls-101{fill:#343434;}.cls-102{clip-path:url(#clip-path-46);}.cls-103{fill:#e7e8e9;}.cls-104{clip-path:url(#clip-path-47);}.cls-105{fill:#0a191a;opacity:0.1;}.cls-106{clip-path:url(#clip-path-48);}.cls-107{fill:#172641;}.cls-108{fill:#3d95c4;}.cls-109{fill:url(#New_Gradient_Swatch_5);}.cls-110{fill:url(#New_Gradient_Swatch_4);}.cls-111{fill:#19213c;}</style><linearGradient id="linear-gradient" x1="1750.31" y1="443.22" x2="2569.14" y2="443.22" gradientUnits="userSpaceOnUse"><stop offset="0" stop-color="#fff"/><stop offset="0.11" stop-color="#f6faf3"/><stop offset="0.31" stop-color="#deeed2"/><stop offset="0.58" stop-color="#b6d99c"/><stop offset="0.9" stop-color="#81bd53"/><stop offset="1" stop-color="#6fb43b"/></linearGradient><linearGradient id="linear-gradient-2" x1="2236.5" y1="459.76" x2="2331.47" y2="459.76" gradientUnits="userSpaceOnUse"><stop offset="0" stop-color="#9c9b9b"/><stop offset="1" stop-color="#e3e2e2"/></linearGradient><linearGradient id="linear-gradient-3" x1="2203.25" y1="542.44" x2="2203.25" y2="448.1" gradientUnits="userSpaceOnUse"><stop offset="0" stop-color="#868686"/><stop offset="1" stop-color="#585857"/></linearGradient><linearGradient id="linear-gradient-4" x1="2324.43" y1="554.11" x2="2324.43" y2="467.31" xlink:href="#linear-gradient-3"/><linearGradient id="linear-gradient-5" x1="1761.3" y1="315.82" x2="1789.98" y2="287.14" xlink:href="#linear-gradient-3"/><linearGradient id="linear-gradient-6" x1="1757.79" y1="264.15" x2="2486.07" y2="264.15" gradientUnits="userSpaceOnUse"><stop offset="0" stop-color="#464749"/><stop offset="1" stop-color="#8a8885"/></linearGradient><linearGradient id="linear-gradient-7" x1="1733.9" y1="540.23" x2="1686.99" y2="484.32" xlink:href="#linear-gradient-3"/><linearGradient id="linear-gradient-8" x1="1912.22" y1="556.64" x2="1912.22" y2="440.87" gradientUnits="userSpaceOnUse"><stop offset="0" stop-color="#5b5a5a"/><stop offset="0.33" stop-color="#464545"/><stop offset="1" stop-color="#1e1e1c"/></linearGradient><linearGradient id="linear-gradient-9" x1="1764.36" y1="457.26" x2="1764.36" y2="190.34" xlink:href="#linear-gradient-8"/><linearGradient id="linear-gradient-10" x1="944.93" y1="418.21" x2="1763.76" y2="418.21" gradientUnits="userSpaceOnUse"><stop offset="0" stop-color="#fff"/><stop offset="0.11" stop-color="#f3f8fb"/><stop offset="0.31" stop-color="#d2e7f1"/><stop offset="0.58" stop-color="#9ccae2"/><stop offset="0.9" stop-color="#53a2cc"/><stop offset="1" stop-color="#3c96c5"/></linearGradient><clipPath id="clip-path" transform="translate(-162.33 -276.48)"><path id="SVGID" class="cls-1" d="M1183.69,392.68a14.79,14.79,0,0,0-5.9-23.68,8.35,8.35,0,0,0-7.59-14.72,23,23,0,0,0-20.47-12.54c-3.5,0-16.22.42-18.81,8.75-1.79-.53-31.44,1.75-25.72,28.88a14.77,14.77,0,0,0,3.81,12.94,14.67,14.67,0,0,0-3.7,9.79c.09,19.58,22.64,29.21,30.7,29.21a14.75,14.75,0,0,0,10.91-4.8,14.71,14.71,0,0,0,4.62.74c6.87,0,37.35-15.13,37.35-23.3A14.76,14.76,0,0,0,1183.69,392.68Z"/></clipPath><clipPath id="clip-path-2" transform="translate(-162.33 -276.48)"><path id="SVGID-2" data-name="SVGID" class="cls-2" d="M1235.78,611.63s-19.42,8.79-24.47,7.87c-4-7.76-8.22-24.47-10.51-34.58s-9.19-40.9-10.11-50.55-2.59-13.62-2.59-13.62-2.54,11.74-2.08,19.56,4.33,10.8,7,30.82c.79,6,5.09,24.4,5.09,24.4s-30.36.42-43.69.88-66.37-3.22-66.37-3.22,7.46-21.13,12.43-34.39c7.72-20.6,1.62-32.82.7-39.71s-1.66-11.24-1.66-11.24-2.17,22-6.31,33.91-11.46,43.54-11.46,68.82c0,6.69-7.14-2.76-13.12,0s-10.21,0-10.21,0,8.24-53.46,10.54-65.41,6.66-39.76,8.5-52.17,7.16-29.82,10.83-38.09,14.2-16.59,21.09-18.89,13.51-4.49,13.51-4.49a140.86,140.86,0,0,1,18.94-1.35c8.92,0,27.3,3.08,27.3,3.08s12.92,4.65,19.81,7.86,17,19.24,18.61,26.89c2.78,13.33,6.15,24.54,6.61,34.19s1.84,41.36,3.22,51.93S1235.78,611.63,1235.78,611.63Z"/></clipPath><clipPath id="clip-path-3" transform="translate(-162.33 -276.48)"><path id="SVGID-3" data-name="SVGID" class="cls-7" d="M1169.09,433.26c-10.74-4.21-14.78-17.85-12.15-20.14,5.31-4.6,5.89-12.58,7.57-16.46,3.2-1.41,5.56-9.57,4.18-12.78s-3,.23-3,.23-.7-4.16-2.08-9.22c-.78-2.84-5.83-8.32-5.83-8.32a20.89,20.89,0,0,1-13,3.15c-6.28-.56-9.06-6.1-9.06-6.1s-11.36,3.94-11.68,14.95c-.08,2.44-.48,4.68-.48,6.82-.54-.21-1.39-1.47-1.9-1.3-1.72.58-2,4.55-1.08,7.37.82,2.43,3.11,5.86,4.67,5.9a53.75,53.75,0,0,0,1.54,6c2.3,7.35,6.09,8.81,6.11,11.61.08,13.55-8.46,15.73-12.23,17.25,0,0,4.56,20.21,21.62,20.29S1169.09,433.26,1169.09,433.26Z"/></clipPath><clipPath id="clip-path-4" transform="translate(-162.33 -276.48)"><path id="SVGID-4" data-name="SVGID" class="cls-4" d="M1123.57,385.39s1.31,7.37,2.48,7c4.11-1.25,13.77-4.09,17.16-4.09s14.93,1.07,19.57,1.52c1.22.12,2.87-5.72,2.87-5.72s-1,6.78-1,8.11c-.21,3.34-.65,9.58-1.07,12-.56,3.24-10.28,14.35-19.56,14.42-6.48.05-16.71-8.95-17.47-12.07-.6-2.43-1.69-9.31-2.14-12.24C1124.24,393.5,1123.57,385.39,1123.57,385.39Z"/></clipPath><clipPath id="clip-path-5" transform="translate(-162.33 -276.48)"><path id="SVGID-5" data-name="SVGID" class="cls-5" d="M1529.16,483.13a17.84,17.84,0,0,0-7.12-28.55,10.07,10.07,0,0,0-5.78-18.33,9.84,9.84,0,0,0-3.36.58,27.69,27.69,0,0,0-36.47-12.48,10.08,10.08,0,0,0-16.47,3.88,24.28,24.28,0,0,0-31.08,23.27,24.15,24.15,0,0,0,5.66,15.57,18.25,18.25,0,0,0-.31,3.33,17.81,17.81,0,0,0,4.9,12.28,17.84,17.84,0,0,0,13.38,29.63c.45,0,.9,0,1.34,0a17.83,17.83,0,0,0,31,11.64,17.66,17.66,0,0,0,5.57.89,17.84,17.84,0,0,0,17.24-13.28,17.83,17.83,0,0,0,21.51-28.38Z"/></clipPath><clipPath id="clip-path-6" transform="translate(-162.33 -276.48)"><path id="SVGID-6" data-name="SVGID" class="cls-2" d="M1592,747.06s-23.41,10.6-29.5,9.49c-4.78-9.35-9.9-29.49-12.67-41.68s-11.08-49.31-12.19-60.94-3.87-36-3.87-36-6.65,20.49-6.1,29.91,9.57,26.28,12.74,50.42c1,7.22,6.14,29.41,6.14,29.41s-36.61.5-52.67,1.06-80-3.88-80-3.88,9-25.48,15-41.46c9.31-24.83,2.34-47.67,1.23-56s-1.5-14.31-1.5-14.31-3.5,35.34-8.49,49.75-13.82,52.49-13.82,83c0,8.06-8.6-3.33-15.81,0s-12.31,0-12.31,0,9.94-64.45,12.71-78.85,8-47.93,10.25-62.89,8.62-35.94,13-45.92,17.11-20,25.42-22.77,16.29-5.41,16.29-5.41a169.63,169.63,0,0,1,22.83-1.63c10.76,0,32.91,3.71,32.91,3.71s15.57,5.6,23.88,9.48,20.52,23.19,22.44,32.41c3.35,16.07,7.42,29.58,8,41.22s2.21,49.86,3.88,62.6S1592,747.06,1592,747.06Z"/></clipPath><clipPath id="clip-path-7" transform="translate(-162.33 -276.48)"><path id="SVGID-7" data-name="SVGID" class="cls-14" d="M1511.56,532c-13-5.08-17.82-21.51-14.64-24.27,6.4-5.55,7.1-15.17,9.13-19.85,3.85-1.7,6.69-11.53,5-15.41s-3.67.29-3.67.29-.84-5-2.5-11.12-6.76-13.8-17.53-14.75c-7.27-.64-29.5-2.06-30.12,19.19-.09,2.94-.57,5.64-.57,8.22-.65-.26-1.68-1.78-2.3-1.57-2.07.7-2.44,5.49-1.29,8.89,1,2.93,3.74,7,5.62,7.11a61.27,61.27,0,0,0,1.87,7.26c2.76,8.87,7.33,10.63,7.35,14,.11,16.34-10.19,19-14.74,20.8,0,0,5.5,24.36,26.07,24.46S1511.56,532,1511.56,532Z"/></clipPath><clipPath id="clip-path-8" transform="translate(-162.33 -276.48)"><path id="SVGID-8" data-name="SVGID" class="cls-4" d="M1456.69,474.34s1.58,8.88,3,8.45c5-1.51,16.59-4.94,20.68-4.94s18,1.3,23.59,1.84c1.48.14,3.46-6.89,3.46-6.89s-1.14,8.17-1.25,9.77c-.26,4-.79,11.55-1.29,14.47-.68,3.9-12.39,17.3-23.58,17.38-7.82.06-20.14-10.79-21.06-14.55-.72-2.93-2-11.23-2.58-14.75C1457.5,484.11,1456.69,474.34,1456.69,474.34Z"/></clipPath><clipPath id="clip-path-9" transform="translate(-162.33 -276.48)"><path id="SVGID-9" data-name="SVGID" class="cls-10" d="M1310.34,435.47c-9.86-2.89-11-18.94-14.64-33.52-4.67-18.54,6-38.39,18.49-29.66,0,0,12.55-12.53,24.5-10.6s26.9,9.54,27.5,24.8-3.36,40.39-7.61,44.21S1320.19,438.35,1310.34,435.47Z"/></clipPath><clipPath id="clip-path-10" transform="translate(-162.33 -276.48)"><path id="SVGID-10" data-name="SVGID" class="cls-5" d="M1442.79,718.36s-23.6,5-30,3.86c-5.06-9.9-2.54-35.18-5.47-48.09s-11.74-52.22-12.91-64.55-1.51-14.69-1.51-14.69,0,24.59.57,34.56.51,1.51,3.87,27.07c1,7.66,2.35,32.28,2.35,32.28s-34.62-.59-51.63,0-74.16-3.63-74.16-3.63-1-25.28,1.18-43.22c3.47-28.6,1.09-22.66,1.7-36.18.4-8.87-.14-20.11-.14-20.11s-.23,17.33-2.09,33.36c-3.32,28.66-9.11,60.53-9.11,92.8,0,8.54-19.28-8.46-26.91-4.94s-13,0-13,0,10.52-68.25,13.45-83.51,3.14-49.62,4-65.61c1.63-28.92,2.23-39.65,12.46-56.5,6-9.88,45.07-24.69,45.07-24.69h31.47c11.4,0,40.48,2.55,40.48,2.55,18.5,6.67,39.84,10,46.78,30.52,8.11,24,4.51,46.55,5.09,58.87s10.39,55.27,12.15,68.77S1442.79,718.36,1442.79,718.36Z"/></clipPath><clipPath id="clip-path-11" transform="translate(-162.33 -276.48)"><path id="SVGID-11" data-name="SVGID" class="cls-3" d="M1372.41,479.12c-13.54-8.22-19.39-25.71-16.78-29.28,3.18-4.33,1.61-12.4,2.9-16.38,4.08-1.79,9.51-14.63,7.75-18.73-1.22-2.84-3.77-1.6-5.23-.57-.65.46-2.3,8.18-2.3,8.18s-1.55-13.14-1-19.81-.81-14-10.18-16c-3.52.52-18.31,11.28-31,11.28,0,0-7.47-21.52-10.76,3.75-.26,2,2.53,16.74,2.66,21.2.07,2.41-4.52-8.07-4.52-7.11-.69-.27-2.08-.83-2.73-.61-2.19.74-2.59,5.81-1.38,9.41,1,3.1,6.25,11.13,8.24,11.18.73,3.41,1.1,11.75,3.7,14,3.85,3.28.93,20.58-11.26,27,0,0,9.38,19.92,31.16,20S1372.41,479.12,1372.41,479.12Z"/></clipPath><clipPath id="clip-path-12" transform="translate(-162.33 -276.48)"><path id="SVGID-12" data-name="SVGID" class="cls-4" d="M1307.91,421.82s1.37,7.28,2.81,6.84c5.07-1.55,18.18-5.26,22.37-5.26s17.11,1.75,22.83,2.31c1.51.14,2.6-5.47,2.6-5.47s.26,22.83-.26,25.82c-.69,4-13.72,16.7-25.17,16.78-8,.06-22.8-10.55-23.75-14.4C1308.6,445.44,1307.91,421.82,1307.91,421.82Z"/></clipPath><clipPath id="clip-path-13" transform="translate(-162.33 -276.48)"><path id="SVGID-13" data-name="SVGID" class="cls-5" d="M939.69,410c-9.66-2.82-12.46-8.11-16.05-22.39-4.58-18.17,7-39.1,26.53-37.72s31.23-5.34,37.59,12.79c5,14.11-.84,36.87-5,40.61S949.35,412.85,939.69,410Z"/></clipPath><clipPath id="clip-path-14" transform="translate(-162.33 -276.48)"><path id="SVGID-14" data-name="SVGID" class="cls-5" d="M1065.28,685.21s-23.12,4.94-29.45,3.79c-5-9.7-2.49-34.48-5.36-47.13s-11.5-51.18-12.65-63.25-1.47-14.4-1.47-14.4,0,24.09.55,33.87.5,1.48,3.79,26.53c1,7.5,2.3,31.62,2.3,31.62s19.75,125.2,3.08,125.78-122.61-11.1-122.61-11.1l-6.61-134.08s-5.42,10.34-5.42,42c0,8.37-18.89-8.29-26.37-4.84s-7.26.16-7.26.16,8.42-60.55,11.29-75.5,5.66-56.86,6.54-72.53c1.59-28.35,1.94-35.92,12-52.43C893.47,464,930,445.1,930,445.1s14,3.16,26.66,3.16c11.17,0,33.57-1.18,33.57-1.18,18.14,6.54,38.57,14.79,45.36,34.89,8,23.52,7.14,42.75,7.71,54.83s9,56.33,10.7,69.56S1065.28,685.21,1065.28,685.21Z"/></clipPath><clipPath id="clip-path-15" transform="translate(-162.33 -276.48)"><path id="SVGID-15" data-name="SVGID" class="cls-3" d="M991.8,448.27c-13.26-8-16.43-21.87-13.87-25.37,3.11-4.24,3.52-13,4.78-16.88,4-1.76,9.31-14.34,7.59-18.36-1.19-2.78-3.69-1.57-5.12-.55-.64.45-2.26,8-2.26,8s-2.45,5.92-2.61,1.43c-.14-3.82,1-15.45,1-23.78,0-21.91-12.83-10.64-25.28-10-11.7.57-24.14-10.75-23.27,11.81,0,1.19,2.24,16.32,3,21.6.5,3.54-1.12,4.43-1.91,1.79-.68-2.27-4.65-10.36-4.64-9.42-.69-.26-2-.81-2.69-.59-2.14.72-2.53,5.69-1.34,9.22,1,3,6.12,10.91,8.07,11,.71,3.33,3.33,12.63,5.88,14.79,3.78,3.21,2.44,16.68-9.51,23,7.72,11.16,15.66,18.9,28.25,19.34S979.36,461.72,991.8,448.27Z"/></clipPath><clipPath id="clip-path-16" transform="translate(-162.33 -276.48)"><path id="SVGID-16" data-name="SVGID" class="cls-4" d="M933.1,394.61s1.68,4.81,3.09,4.38c5-1.52,17.48-2.83,21.58-2.83s16.77,1.72,22.38,2.26c1.48.14,2.55-5.36,2.55-5.36s.25,22.38-.25,25.3c-.68,3.92-13.45,16.37-24.68,16.45-7.84.06-22.34-10.34-23.27-14.11C933.78,417.76,933.1,394.61,933.1,394.61Z"/></clipPath><clipPath id="clip-path-17" transform="translate(-162.33 -276.48)"><path id="SVGID-17" data-name="SVGID" class="cls-5" d="M1040.38,436.62s1.25-7.49,5.83-8.33,18.73-.71,30.4,6.25c21.63,12.9,22.2,54.77,24.46,74.57,1.92,16.79,17.16,20.18,17.16,20.18s-6.26,9.6-15.84,5.85-9.05-4.34-9.05-4.34-4.73,5.68,13,12.45c10.37,4,2.53,25,2.53,25l-78.91.86-17.07-8.33s-4.17-15.41-3.75-25.41,3.33-11.66-.84-19.15-9.91-5.93-3.24-18.84,2.44-19.31,5.28-31.4c2.33-9.88,2.55-18.06,12.12-26.39S1040.38,436.62,1040.38,436.62Z"/></clipPath><clipPath id="clip-path-18" transform="translate(-162.33 -276.48)"><path id="SVGID-18" data-name="SVGID" class="cls-6" d="M1160.11,755.55s-23.46,10.62-29.57,9.51c-4.79-9.37-9.92-29.56-12.7-41.78s-11.1-49.42-12.21-61.08-3.89-36.09-3.89-36.09-6.66,20.55-6.11,30,9.59,26.34,12.77,50.53c1,7.24,2.22,30.54,2.22,30.54s-32.76-.56-48.86,0-76.64-3.89-76.64-3.89,5.46-25.53,11.47-41.55c9.32-24.89,4.09-52.29,3-60.62s-2.22-18.88-2.22-18.88-4.54,44.47-9.54,58.9S974,723.74,974,754.28c0,8.09-8.62-3.33-15.84,0s-12.34,0-12.34,0,10-64.59,12.74-79S959,640,961.26,625s16.17-48.8,20.61-58.8,17.14-20.05,25.47-22.82,16.32-5.42,16.32-5.42a169.54,169.54,0,0,1,22.89-1.64c10.78,0,33,3.72,33,3.72s15.61,5.62,23.94,9.5S1124,572.79,1126,582c3.36,16.1,7.43,29.64,8,41.31s2.22,50,3.88,62.74S1160.11,755.55,1160.11,755.55Z"/></clipPath><clipPath id="clip-path-19" transform="translate(-162.33 -276.48)"><path id="SVGID-19" data-name="SVGID" class="cls-3" d="M1079.53,540c-13-5.09-17.86-21.56-14.67-24.32,6.41-5.57,7.11-15.21,9.15-19.9,3.86-1.7,6.71-11.55,5-15.44s-3.68.28-3.68.28-.84-5-2.5-11.14-8.7-12.9-17.57-14.78c-4-.38,3.9,11.19,3.9,11.19s-33.38-24.33-34.09,8c-.06,2.95-.57,5.65-.57,8.24-.66-.26-1.69-1.78-2.3-1.57-2.08.7-2.45,5.5-1.3,8.9,1,2.94,3.75,7.08,5.63,7.13a63.6,63.6,0,0,0,1.87,7.28c2.78,8.88,7.35,10.65,7.38,14,.1,16.37-10.22,19-14.78,20.84,0,0,5.52,24.43,26.13,24.52S1079.53,540,1079.53,540Z"/></clipPath><clipPath id="clip-path-20" transform="translate(-162.33 -276.48)"><path id="SVGID-20" data-name="SVGID" class="cls-4" d="M1024.54,482.21s1.58,8.9,3,8.47c5-1.52,16.63-4.95,20.73-4.95s18,1.3,23.65,1.84c1.48.14,3.46-6.91,3.46-6.91s-1.14,8.2-1.24,9.8c-.27,4-.8,11.58-1.3,14.5-.68,3.91-12.42,17.34-23.63,17.42-7.84.06-20.19-10.82-21.12-14.59-.72-2.93-2-11.25-2.58-14.78C1025.35,492,1024.54,482.21,1024.54,482.21Z"/></clipPath><clipPath id="clip-path-21" transform="translate(-162.33 -276.48)"><path id="SVGID-21" data-name="SVGID" class="cls-5" d="M1203.47,473.45c-10.26-2.83-9.73-14.7-13.55-29-4.86-18.16-.12-35.94,14.16-35.52,0,0,15-4,27.46-2.08s28.21,5.09,28.84,20-2.3,38.14-6.71,41.88S1213.72,476.27,1203.47,473.45Z"/></clipPath><clipPath id="clip-path-22" transform="translate(-162.33 -276.48)"><path id="SVGID-22" data-name="SVGID" class="cls-8" d="M1334.63,750.46s-23.1,4.94-29.42,3.79c-5-9.7-2.49-34.46-5.36-47.1S1288.36,656,1287.21,644s-1.48-14.39-1.48-14.39,0,24.08.56,33.84.5,1.49,3.79,26.51c1,7.5,2.3,31.6,2.3,31.6s-33.9-.57-50.56,0S1169.2,718,1169.2,718s-1-24.76,1.16-42.33c3.4-28,1.06-22.19,1.66-35.42.4-8.69-.13-19.69-.13-19.69s-.23,17-2.05,32.66c-3.25,28.06-8.93,59.27-8.93,90.87,0,8.37-18.87-8.28-26.34-4.83s-12.77,0-12.77,0,8.91-64.54,11.79-79.48,4.46-50.89,5.34-66.55c1.59-28.32,1.6-40.62,11.62-57.12,5.87-9.67,43.18-23.13,43.18-23.13s19.71.75,32.35.75c11.16,0,41.36,1.41,41.36,1.41,18.12,6.54,37.29,10.89,44.08,31,7.94,23.5,8.39,47.33,9,59.39s6.2,52.38,7.93,65.6S1334.63,750.46,1334.63,750.46Z"/></clipPath><clipPath id="clip-path-23" transform="translate(-162.33 -276.48)"><path id="SVGID-23" data-name="SVGID" class="cls-9" d="M1268.05,516.19c-14.08-8-20.17-25.17-17.45-28.66,3.31-4.25,1.67-12.15,3-16,4.25-1.76,9.9-14.33,8.06-18.35-1.26-2.78-3.92-1.57-5.43-.55-.68.45-2.4,8-2.4,8s.34-13-1.07-19.39c-4.65-21-50.66-25.73-54.08-1-.27,2,2.63,16.39,2.77,20.76.08,2.36-4.7-7.91-4.7-7-.72-.26-2.17-.81-2.85-.59-2.28.72-2.69,5.69-1.43,9.21,1.09,3,6.5,10.9,8.57,10.95.76,3.34,1.15,11.51,3.86,13.67,4,3.21,1,20.16-11.73,26.46,0,0,9.77,19.51,32.43,19.6S1268.05,516.19,1268.05,516.19Z"/></clipPath><clipPath id="clip-path-24" transform="translate(-162.33 -276.48)"><path id="SVGID-24" data-name="SVGID" class="cls-4" d="M1200.93,460.08s1.44,7.14,2.94,6.7c5.27-1.51,18.91-5.15,23.27-5.15s17.8,1.72,23.76,2.26c1.57.15,2.7-5.35,2.7-5.35s.27,22.36-.26,25.28c-.73,3.91-14.28,16.35-26.2,16.43-8.33.06-23.73-10.33-24.71-14.1C1201.66,483.22,1200.93,460.08,1200.93,460.08Z"/></clipPath><clipPath id="clip-path-25" transform="translate(-162.33 -276.48)"><path id="SVGID-25" data-name="SVGID" class="cls-5" d="M1379.46,571.68c-11.09-3.24-14.3-9.31-18.42-25.7-5.26-20.86,8.07-44.89,30.46-43.3s35.85-6.14,43.15,14.67c5.68,16.2-1,42.33-5.74,46.63S1390.55,574.93,1379.46,571.68Z"/></clipPath><clipPath id="clip-path-26" transform="translate(-162.33 -276.48)"><path id="SVGID-26" data-name="SVGID" class="cls-6" d="M1523.64,887.6s-26.55,5.67-33.8,4.35c-5.7-11.14-2.86-39.59-6.16-54.11s-13.2-58.75-14.52-72.61-1.7-16.54-1.7-16.54,0,27.67.64,38.89.57,1.7,4.36,30.45c1.13,8.61,2.64,36.31,2.64,36.31s-38.95-.66-58.09,0-83.43-4.07-83.43-4.07-1.11-28.44,1.33-48.63c3.9-32.18,1.23-25.5,1.92-40.7.45-10-.16-22.63-.16-22.63s-.26,19.49-2.35,37.53c-3.74,32.24-10.26,68.1-10.26,104.4,0,9.61-21.68-9.51-30.26-5.55s-8.35.18-8.35.18,9.67-69.51,13-86.67,6.5-65.28,7.51-83.27c1.82-32.53,2.22-41.23,13.73-60.19,6.75-11.11,48.65-32.79,48.65-32.79s16.1,3.63,30.62,3.63c12.82,0,38.54-1.36,38.54-1.36,20.82,7.51,44.27,17,52.07,40.06,9.12,27,8.19,49.08,8.85,62.94s10.3,64.67,12.28,79.85S1523.64,887.6,1523.64,887.6Z"/></clipPath><clipPath id="clip-path-27" transform="translate(-162.33 -276.48)"><path id="SVGID-27" data-name="SVGID" class="cls-3" d="M1439.29,615.59c-15.23-9.24-18.87-25.11-15.93-29.12,3.58-4.88,4-14.9,5.49-19.38,4.59-2,10.69-16.46,8.71-21.08-1.37-3.2-4.24-1.8-5.88-.64-.73.52-2.59,9.2-2.59,9.2s-2.81,6.8-3,1.64c-.15-4.38,1.14-17.74,1.14-27.29,0-25.16-14.73-12.22-29-11.52-13.43.66-27.72-12.34-26.71,13.57,0,1.36,2.56,18.73,3.41,24.79.57,4.06-1.29,5.08-2.2,2-.78-2.6-5.33-11.89-5.33-10.81-.78-.31-2.35-.93-3.08-.69-2.46.84-2.91,6.54-1.54,10.59,1.18,3.49,7,12.52,9.26,12.59.83,3.82,3.83,14.49,6.76,17,4.33,3.68,2.8,19.15-10.92,26.39,8.86,12.81,12.19,18.08,32.3,24.56C1413.58,634.73,1425,631,1439.29,615.59Z"/></clipPath><clipPath id="clip-path-28" transform="translate(-162.33 -276.48)"><path id="SVGID-28" data-name="SVGID" class="cls-4" d="M1371.9,554s1.92,5.53,3.54,5c5.7-1.74,20.08-3.26,24.79-3.26s19.24,2,25.68,2.6c1.7.17,2.92-6.15,2.92-6.15s.3,25.69-.28,29c-.78,4.5-15.44,18.79-28.32,18.89-9,.06-25.66-11.87-26.72-16.21C1372.68,580.56,1371.9,554,1371.9,554Z"/></clipPath><clipPath id="clip-path-29" transform="translate(-162.33 -276.48)"><path id="SVGID-29" data-name="SVGID" class="cls-2" d="M1099.76,618.77c-11.09-3.24-14.29-9.31-18.42-25.7-5.26-20.86,2.46-41,28.08-32.48,10.39,3.47,38.23-17,45.53,3.85,5.68,16.2-1,42.33-5.74,46.63S1110.85,622,1099.76,618.77Z"/></clipPath><clipPath id="clip-path-30" transform="translate(-162.33 -276.48)"><path id="SVGID-30" data-name="SVGID" class="cls-10" d="M1243.94,934.69s-26.54,5.66-33.8,4.35c-5.7-11.14-2.86-39.59-6.16-54.11s-13.2-58.75-14.52-72.61-1.69-16.54-1.69-16.54,0,27.67.63,38.89.57,1.7,4.36,30.45c1.13,8.61,2.64,36.31,2.64,36.31s-38.94-.66-58.09,0-83.43-4.07-83.43-4.07-1.11-28.44,1.34-48.63c3.9-32.18,1.22-25.5,1.91-40.7.45-10-.16-22.63-.16-22.63s-.26,19.49-2.35,37.53c-3.74,32.24-10.26,68.1-10.26,104.4,0,9.61-21.68-9.51-30.26-5.55s-8.35.18-8.35.18,9.67-69.51,13-86.67,6.5-65.28,7.51-83.27c1.82-32.53,2.23-41.23,13.73-60.19,6.75-11.11,48.66-32.79,48.66-32.79s16.09,3.63,30.61,3.63c12.82,0,38.54-1.36,38.54-1.36,20.82,7.51,44.27,17,52.07,40.06,9.12,27,8.19,49.08,8.85,62.94S1229,829,1231,844.16,1243.94,934.69,1243.94,934.69Z"/></clipPath><clipPath id="clip-path-31" transform="translate(-162.33 -276.48)"><path id="SVGID-31" data-name="SVGID" class="cls-7" d="M1159.59,662.68c-15.23-9.24-18.87-25.11-15.93-29.12,3.58-4.88,4-14.9,5.49-19.38,4.59-2,10.7-16.46,8.72-21.08-1.37-3.2-4.24-1.8-5.88-.64-.74.52-2.6,9.2-2.6,9.2s-2.81,6.8-3,1.64c-.15-4.38,1.15-17.74,1.14-27.29,0-25.16-56.73-23.86-55.73,2,0,1.36,2.57,18.73,3.41,24.79.57,4.06-1.29,5.08-2.2,2-.78-2.6-5.33-11.89-5.33-10.81-.78-.31-2.34-.93-3.07-.69-2.47.84-2.92,6.54-1.55,10.59,1.18,3.49,7,12.52,9.27,12.59.82,3.82,3.83,14.49,6.75,17,4.33,3.68,2.8,19.15-10.92,26.39,8.86,12.81,12.2,18.08,32.3,24.56C1133.88,681.82,1145.3,678.12,1159.59,662.68Z"/></clipPath><clipPath id="clip-path-32" transform="translate(-162.33 -276.48)"><path id="SVGID-32" data-name="SVGID" class="cls-4" d="M1092.2,601.08s1.92,5.53,3.54,5c5.7-1.74,20.08-3.26,24.79-3.26s19.25,2,25.68,2.6c1.7.17,2.93-6.15,2.93-6.15s.29,25.69-.29,29c-.78,4.5-15.44,18.79-28.32,18.89-9,.06-25.66-11.87-26.72-16.21C1093,627.65,1092.2,601.08,1092.2,601.08Z"/></clipPath><clipPath id="clip-path-33" transform="translate(-162.33 -276.48)"><path id="SVGID-33" data-name="SVGID" class="cls-10" d="M963.21,689.81C951.33,686.33,950,667,945.57,649.4c-5.63-22.36,7.18-46.29,22.29-35.76,0,0,15.13-15.11,29.54-12.79s32.43,11.51,33.16,29.9-4.06,48.7-9.18,53.31S975.1,693.29,963.21,689.81Z"/></clipPath><clipPath id="clip-path-34" transform="translate(-162.33 -276.48)"><path id="SVGID-34" data-name="SVGID" class="cls-6" d="M1122.91,1030.9s-28.45,6.07-36.23,4.66c-6.1-11.94-3.06-42.43-6.6-58s-14.14-63-15.56-77.82-1.81-17.72-1.81-17.72,0,29.64.68,41.67.61,1.83,4.67,32.64c1.21,9.23,2.83,38.91,2.83,38.91s-41.74-.7-62.26,0-89.42-4.36-89.42-4.36-1.19-30.48,1.44-52.12c4.18-34.48,1.31-27.33,2-43.62.49-10.69-.17-24.25-.17-24.25s-.27,20.89-2.51,40.23c-4,34.55-11,73-11,111.89,0,10.3-23.24-10.2-32.43-6s-15.72,0-15.72,0,12.68-82.29,16.22-100.69,3.78-59.83,4.86-79.11c2-34.87,2.69-47.81,15-68.12,7.23-11.91,54.34-29.77,54.34-29.77h38c13.74,0,48.8,3.07,48.8,3.07,22.31,8,48,12.07,56.41,36.8,9.78,28.94,5.43,56.13,6.14,71s12.53,66.64,14.65,82.91S1122.91,1030.9,1122.91,1030.9Z"/></clipPath><clipPath id="clip-path-35" transform="translate(-162.33 -276.48)"><path id="SVGID-35" data-name="SVGID" class="cls-3" d="M1038.05,742.44c-16.31-9.91-23.37-31-20.22-35.3,3.83-5.23,1.94-14.95,3.49-19.75,4.93-2.16,11.46-17.64,9.34-22.59-1.47-3.43-4.54-1.93-6.3-.68-.78.55-2.78,9.85-2.78,9.85s-1.86-15.83-1.24-23.88-1-16.94-12.26-19.34c-4.25.63-22.09,13.6-37.42,13.61,0,0-9-26-13,4.51-.31,2.42,3.05,20.19,3.21,25.57.09,2.9-5.45-9.73-5.45-8.58-.83-.33-2.51-1-3.29-.73-2.64.89-3.13,7-1.66,11.34,1.26,3.75,7.53,13.42,9.93,13.49.88,4.1,1.33,14.17,4.46,16.83,4.65,4,1.12,24.82-13.58,32.58,0,0,11.31,24,37.57,24.14S1038.05,742.44,1038.05,742.44Z"/></clipPath><clipPath id="clip-path-36" transform="translate(-162.33 -276.48)"><path id="SVGID-36" data-name="SVGID" class="cls-4" d="M960.28,673.35s1.66,8.78,3.4,8.25c6.11-1.87,21.92-6.35,27-6.35s20.63,2.12,27.53,2.79c1.82.17,3.14-6.6,3.14-6.6s.31,27.54-.31,31.13c-.84,4.82-16.55,20.14-30.36,20.24-9.65.07-27.49-12.72-28.63-17.36C961.12,701.83,960.28,673.35,960.28,673.35Z"/></clipPath><clipPath id="clip-path-37" transform="translate(-162.33 -276.48)"><path id="SVGID-37" data-name="SVGID" class="cls-5" d="M1533.49,554.31s1.43-8.6,6.69-9.56,21.49-.82,34.9,7.17c24.83,14.81,25.48,62.88,28.08,85.61,2.2,19.27,19.7,23.17,19.7,23.17s-7.19,11-18.19,6.71-10.39-5-10.39-5-5.43,6.51,14.94,14.29c11.91,4.55,2.9,28.64,2.9,28.64l-90.58,1-19.61-9.56s-4.78-17.69-4.3-29.16,3.83-13.39-1-22-11.37-6.8-3.72-21.62,2.8-22.17,6.07-36.06c2.66-11.33,2.91-20.73,13.91-30.29S1533.49,554.31,1533.49,554.31Z"/></clipPath><clipPath id="clip-path-38" transform="translate(-162.33 -276.48)"><path id="SVGID-38" data-name="SVGID" class="cls-11" d="M1660.67,924.17s-22.71,7.31-29.72,6c-5.5-10.76-5.35-32.79-8.54-46.82s-12.75-56.73-14-70.12-4.46-41.43-4.46-41.43-7.65,23.59-7,34.42,11,30.24,14.67,58c1.09,8.31,2.54,35.06,2.54,35.06s-37.6-.64-56.09,0-88-4.46-88-4.46,6.27-29.31,13.16-47.7c10.71-28.58,4.7-60,3.42-69.59s-2.54-21.68-2.54-21.68-5.22,51.05-11,67.63-15.9,60.39-15.9,95.45c0,9.28-9.9-3.82-18.19,0s-14.16,0-14.16,0,11.43-74.15,14.62-90.72.6-40.48,3.15-57.69,18.56-56,23.66-67.5,19.69-23,29.25-26.21,18.74-6.22,18.74-6.22a194.66,194.66,0,0,1,26.27-1.88c12.38,0,37.86,4.28,37.86,4.28s17.92,6.44,27.48,10.9,23.61,26.69,25.82,37.29c3.86,18.49,8.53,34,9.17,47.42s2.55,57.37,4.46,72S1660.67,924.17,1660.67,924.17Z"/></clipPath><clipPath id="clip-path-39" transform="translate(-162.33 -276.48)"><path id="SVGID-39" data-name="SVGID" class="cls-3" d="M1578.43,673c-14.89-5.85-20.5-24.76-16.84-27.93,7.36-6.39,8.16-17.46,10.5-22.84,4.44-1.95,7.7-13.27,5.79-17.73s-4.22.33-4.22.33-1-5.78-2.88-12.79-10-14.81-20.16-17c-4.55-.44,4.47,12.84,4.47,12.84S1516.77,560,1516,597.18c-.08,3.39-.66,6.49-.66,9.46-.75-.29-1.94-2-2.64-1.8-2.38.8-2.82,6.31-1.5,10.22,1.14,3.38,4.31,8.12,6.48,8.18a73.07,73.07,0,0,0,2.14,8.36c3.19,10.2,8.44,12.23,8.46,16.11.12,18.79-11.72,21.82-17,23.93,0,0,6.32,28,30,28.14S1578.43,673,1578.43,673Z"/></clipPath><clipPath id="clip-path-40" transform="translate(-162.33 -276.48)"><path id="SVGID-40" data-name="SVGID" class="cls-4" d="M1515.3,606.64s1.82,10.22,3.43,9.73c5.7-1.75,19.1-5.69,23.8-5.69s20.72,1.5,27.15,2.12c1.7.16,4-7.93,4-7.93s-1.32,9.4-1.44,11.24c-.29,4.64-.9,13.29-1.49,16.65-.77,4.49-14.25,19.91-27.12,20-9,.06-23.18-12.42-24.24-16.74-.83-3.37-2.34-12.92-3-17C1516.23,617.89,1515.3,606.64,1515.3,606.64Z"/></clipPath><clipPath id="clip-path-41" transform="translate(-162.33 -276.48)"><path id="SVGID-41" data-name="SVGID" class="cls-12" d="M1302.61,672.54a20,20,0,0,0-8-32.06,11.32,11.32,0,0,0-10.28-19.93,31.13,31.13,0,0,0-40.95-14,11.32,11.32,0,0,0-18.5,4.37,26.93,26.93,0,0,0-7.67-1.1,27.23,27.23,0,0,0-20.87,44.72,20,20,0,0,0,5.16,17.53,20,20,0,0,0,15,33.27c.51,0,1,0,1.51-.06a20,20,0,0,0,34.79,13.08,20,20,0,0,0,25.63-13.92,20,20,0,0,0,24.15-31.88Z"/></clipPath><clipPath id="clip-path-42" transform="translate(-162.33 -276.48)"><path id="SVGID-42" data-name="SVGID" class="cls-8" d="M1373.13,969s-26.29,11.9-33.13,10.65c-5.37-10.49-11.12-33.12-14.23-46.8s-12.45-55.38-13.69-68.44-4.35-40.44-4.35-40.44-7.47,23-6.85,33.59,10.74,29.52,14.31,56.62c1.07,8.11,6.89,33,6.89,33s-41.11.57-59.15,1.19-89.89,4.28-89.89,4.28,10.14-37.24,16.86-55.19c10.45-27.89,2.63-53.55,1.39-62.88s-1.69-16.06-1.69-16.06-3.93,39.69-9.53,55.86-15.53,58.95-15.53,93.17c0,9.06-9.66-3.73-17.75,0s-13.82,0-13.82,0,11.15-72.38,14.27-88.55,9-53.82,11.5-70.62,9.69-40.37,14.67-51.57,19.21-22.47,28.55-25.58,18.28-6.07,18.28-6.07a190.62,190.62,0,0,1,25.65-1.83c12.08,0,36.95,4.17,36.95,4.17s17.49,6.29,26.82,10.64,23,26,25.2,36.4c3.77,18.05,8.33,33.22,9,46.29s2.49,56,4.35,70.3S1373.13,969,1373.13,969Z"/></clipPath><clipPath id="clip-path-43" transform="translate(-162.33 -276.48)"><path id="SVGID-43" data-name="SVGID" class="cls-3" d="M1282.84,727.48c-14.54-5.71-20-24.16-16.44-27.26,7.19-6.23,8-17,10.25-22.29,4.33-1.91,7.52-12.95,5.65-17.3s-4.12.31-4.12.31-.94-5.63-2.81-12.48-7.58-15.5-19.68-16.57c-8.16-.72-33.13-2.31-33.83,21.55-.09,3.3-.64,6.34-.64,9.24-.73-.29-1.89-2-2.58-1.77-2.32.79-2.74,6.17-1.46,10,1.12,3.3,4.21,7.93,6.32,8a72.23,72.23,0,0,0,2.1,8.16c3.11,10,8.23,11.93,8.26,15.72.11,18.34-11.45,21.3-16.55,23.35,0,0,6.17,27.37,29.27,27.47S1282.84,727.48,1282.84,727.48Z"/></clipPath><clipPath id="clip-path-44" transform="translate(-162.33 -276.48)"><path id="SVGID-44" data-name="SVGID" class="cls-4" d="M1221.22,662.68s1.78,10,3.35,9.49c5.56-1.7,18.64-5.55,23.23-5.55s20.22,1.46,26.5,2.06c1.66.16,3.88-7.74,3.88-7.74s-1.28,9.18-1.4,11c-.29,4.53-.88,13-1.45,16.24-.76,4.39-13.91,19.44-26.48,19.53-8.78.06-22.62-12.12-23.66-16.35-.8-3.28-2.28-12.6-2.89-16.56C1222.13,673.65,1221.22,662.68,1221.22,662.68Z"/></clipPath><linearGradient id="linear-gradient-11" x1="26.81" y1="432.3" x2="831.53" y2="432.3" gradientUnits="userSpaceOnUse"><stop offset="0" stop-color="#fff"/><stop offset="0.1" stop-color="#f3f3f4"/><stop offset="0.27" stop-color="#d2d3d8"/><stop offset="0.51" stop-color="#9c9fab"/><stop offset="0.79" stop-color="#53596d"/><stop offset="1" stop-color="#19213c"/></linearGradient><linearGradient id="linear-gradient-12" x1="1991.68" y1="274.74" x2="2317.79" y2="274.74" gradientUnits="userSpaceOnUse"><stop offset="0" stop-color="#231f20"/><stop offset="1" stop-color="#3e3e3f"/></linearGradient><linearGradient id="linear-gradient-13" x1="2112.5" y1="231.81" x2="2220.02" y2="231.81" gradientUnits="userSpaceOnUse"><stop offset="0" stop-color="#e2e3e3"/><stop offset="1" stop-color="#efefef"/></linearGradient><linearGradient id="linear-gradient-14" x1="2315.28" y1="593.24" x2="2315.28" y2="407.5" gradientUnits="userSpaceOnUse"><stop offset="0.32" stop-color="#1c71b8"/><stop offset="1" stop-color="#d0e2e7"/></linearGradient><linearGradient id="linear-gradient-15" x1="1989.89" y1="199.49" x2="2105.1" y2="199.49" xlink:href="#linear-gradient-13"/><linearGradient id="linear-gradient-16" x1="2105.1" y1="291.47" x2="2316.01" y2="291.47" gradientUnits="userSpaceOnUse"><stop offset="0" stop-color="#bbbdbf"/><stop offset="1" stop-color="#555557"/></linearGradient><clipPath id="clip-path-45" transform="translate(-162.33 -276.48)"><rect id="SVGID-45" data-name="SVGID" class="cls-13" x="114.87" y="331.04" width="527.23" height="674.68"/></clipPath><clipPath id="clip-path-46" transform="translate(-162.33 -276.48)"><rect id="SVGID-46" data-name="SVGID" class="cls-13" x="230.05" y="371.4" width="129.57" height="259.91" rx="14.29"/></clipPath><clipPath id="clip-path-47" transform="translate(-162.33 -276.48)"><path id="SVGID-47" data-name="SVGID" class="cls-11" d="M228.43,694.37s21.24,18.73,68.94,18.73,52.89-16.77,52.89-16.77l30.42,377.82c-56.23,0-126.82-22.85-181.27-49.4Z"/></clipPath><clipPath id="clip-path-48" transform="translate(-162.33 -276.48)"><path id="SVGID-48" data-name="SVGID" class="cls-11" d="M501.35,825.26s-23.63,36.19-56.58,53.25c-20,10.35-51.68,19-51.68,19l28,175.85c50.79,0,115.17-15.3,175.9-49.6Z"/></clipPath><linearGradient id="New_Gradient_Swatch_5" x1="827.62" y1="1132.28" x2="827.91" y2="1132.28" gradientTransform="matrix(-113.99, -113.99, -113.99, 113.99, 223686.3, -34281.24)" gradientUnits="userSpaceOnUse"><stop offset="0" stop-color="#52bbbb"/><stop offset="0.01" stop-color="#53bbb7"/><stop offset="0.15" stop-color="#5cb891"/><stop offset="0.3" stop-color="#63b672"/><stop offset="0.45" stop-color="#69b55a"/><stop offset="0.61" stop-color="#6db449"/><stop offset="0.79" stop-color="#6fb33f"/><stop offset="1" stop-color="#70b33c"/></linearGradient><linearGradient id="New_Gradient_Swatch_4" x1="820.36" y1="1134.99" x2="820.65" y2="1134.99" gradientTransform="matrix(113.69, -113.69, -113.69, -113.69, 36082.1, 222742.29)" gradientUnits="userSpaceOnUse"><stop offset="0" stop-color="#52bbbb"/><stop offset="0.09" stop-color="#4eb3bd"/><stop offset="0.36" stop-color="#44a2c1"/><stop offset="0.64" stop-color="#3f98c3"/><stop offset="1" stop-color="#3d95c4"/></linearGradient></defs><title>process</title><g class="cls-15"><g id="Layer_1" data-name="Layer 1"><polygon class="cls-16" points="2569.14 443.21 2237.42 25.01 2237.42 143.12 1750.31 143.12 1750.31 743.32 2237.42 743.32 2237.42 861.43 2569.14 443.21"/><polygon class="cls-17" points="1669.11 439.33 1669.11 451.85 1527.71 435.56 1568.06 427.08 1669.11 439.33"/><polygon class="cls-18" points="2360.11 641.9 2024.56 630.38 2024.56 688.76 2360.11 688.76 2360.11 641.9"/><polygon class="cls-19" points="1826.57 169.25 1669.11 391.27 1669.11 642.58 2024.56 630.39 2024.56 312.72 1826.57 169.25"/><polygon class="cls-20" points="2024.56 312.72 2024.56 630.38 2380.02 642.58 2380.02 391.49 2024.56 312.72"/><polygon class="cls-20" points="1694.66 641.7 2024.56 630.38 2024.56 688.76 1694.66 688.76 1694.66 641.7"/><polygon class="cls-21" points="2018.69 630.59 2024.56 630.38 2024.56 312.72 2011.23 315.22 2018.69 630.59"/><polygon class="cls-18" points="1886.9 635.11 1826.57 637.18 1826.57 450.01 1886.9 457.26 1886.9 635.11"/><polygon class="cls-20" points="1997.87 422.8 1886.9 440.42 1886.9 635.11 1997.87 631.3 1997.87 422.8"/><polygon class="cls-22" points="1997.87 422.8 1826.57 450.01 1886.9 457.26 1997.87 440.88 1997.87 422.8"/><polygon class="cls-21" points="1826.57 450.01 1826.57 637.18 1822.82 637.08 1819.07 551.28 1819.07 544.31 1819.07 451.2 1826.57 450.01"/><polygon class="cls-23" points="1911.25 482.54 1911.25 630.01 1962.09 628.11 1962.09 475.85 1911.25 482.54"/><polygon class="cls-20" points="1804.28 662.22 1964.74 659.58 1964.74 630.2 1804.11 635.93 1804.28 662.22"/><polygon class="cls-18" points="1964.74 630.2 1964.74 659.58 1935.17 659.09 1935.17 688.76 1997.87 688.76 1997.87 660.12 1997.87 631.3 1964.74 630.2"/><polygon class="cls-20" points="1778.51 662.23 1935.17 659.09 1935.17 688.76 1778.51 688.76 1778.51 662.23"/><polygon class="cls-21" points="1997.87 631.3 1964.74 627.7 1804.11 635.93 1804.28 661.3 1807.2 637.83 1960.32 631.63 1963.12 659.48 1964.74 659.58 1964.74 631.19 1997.87 631.3"/><polygon class="cls-21" points="1964.74 659.58 1935.17 656.58 1778.51 662.23 1778.51 688.76 1781.44 664.35 1931.05 660.13 1933.85 688.76 1935.17 688.76 1935.17 660.06 1964.74 659.58"/><polygon class="cls-24" points="1669.11 439.33 1568.06 427.08 1757.79 150.44 1826.57 169.25 1669.11 391.27 1669.11 439.33"/><polygon class="cls-17" points="2486.07 417.26 2436.77 423.45 2006.55 334.9 2060.1 323.64 2486.07 417.26"/><polygon class="cls-25" points="2331.47 554.11 2236.5 544.94 2236.5 452.22 2331.47 467.31 2331.47 554.11"/><polygon class="cls-25" points="2210.51 448.1 2096.3 429.96 2096.3 531.4 2210.51 542.43 2210.51 448.1"/><polygon class="cls-26" points="2331.47 467.31 2236.5 452.22 2236.5 452.22 2331.47 467.31 2331.47 467.31"/><polygon class="cls-27" points="2195.98 541.03 2210.51 542.43 2210.51 448.1 2195.98 449.95 2195.98 541.03"/><polygon class="cls-28" points="2317.39 552.75 2331.47 554.11 2331.47 467.31 2317.39 468.88 2317.39 552.75"/><polygon class="cls-22" points="2210.51 448.1 2096.3 429.96 2096.3 434.4 2195.98 449.95 2210.51 448.1"/><polygon class="cls-22" points="2236.5 452.22 2236.5 456.29 2317.18 468.88 2331.47 467.31 2236.5 452.22"/><polygon class="cls-25" points="1886.9 294.88 1769.85 324.37 1769.85 278.91 1886.9 245.74 1886.9 294.88"/><polygon class="cls-22" points="1886.9 253.69 1784.91 282.07 1769.85 278.91 1886.9 245.74 1886.9 253.69"/><polygon class="cls-29" points="1784.91 320.58 1769.85 324.37 1769.85 278.91 1784.91 282.07 1784.91 320.58"/><polygon class="cls-30" points="1757.79 150.44 2006.55 334.9 2060.1 323.64 1757.79 111.04 1527.71 435.56 1568.06 427.08 1757.79 150.44"/><rect class="cls-24" x="2149.13" y="443.32" width="3.54" height="93.6"/><rect class="cls-31" x="2151.64" y="443.32" width="3.52" height="93.6"/><rect class="cls-24" x="2276.22" y="463.14" width="3.39" height="85.92"/><rect class="cls-31" x="2278.73" y="463.14" width="3.39" height="85.92"/><polygon class="cls-32" points="2486.07 417.26 2202.3 241.53 1757.79 111.04 2060.1 323.64 2486.07 417.26"/><path class="cls-17" d="M2124.32,837.11a1.79,1.79,0,0,0-.88-3.39l-13.33.68a1.79,1.79,0,1,0,.19,3.57l13.32-.68A2,2,0,0,0,2124.32,837.11Z" transform="translate(-162.33 -276.48)"/><path class="cls-33" d="M2123,834.34a1.73,1.73,0,0,0,1-1.67,1.75,1.75,0,0,0-1.85-1.67c-14.2.73-14.21.73-14.59,1.87a1.78,1.78,0,0,0,1.83,2.33l12.94-.68A1.73,1.73,0,0,0,2123,834.34Z" transform="translate(-162.33 -276.48)"/><polygon class="cls-25" points="1704.83 555.35 1780.91 548 1780.91 457.26 1704.83 469.34 1704.83 555.35"/><polygon class="cls-22" points="1780.91 460.79 1717.46 470.71 1704.83 469.34 1780.91 457.26 1780.91 460.79"/><polygon class="cls-34" points="1717.32 554.14 1704.83 555.35 1704.83 469.34 1717.32 470.71 1717.32 554.14"/><rect class="cls-24" x="1747.11" y="465.01" width="3.38" height="85.72"/><rect class="cls-31" x="1744.61" y="465.01" width="3.37" height="85.72"/><polygon class="cls-35" points="1757.79 111.04 2065.33 316.49 2486.07 417.26 2060.1 323.64 1757.79 111.04"/><polygon class="cls-36" points="1826.57 450.01 1886.9 457.26 1997.87 440.88 1997.87 548 1886.9 556.64 1826.57 450.01"/><polygon class="cls-37" points="1859.62 225.94 1699.58 451.95 1669.11 457.26 1669.11 391.27 1811.61 190.34 1859.62 225.94"/><polygon class="cls-38" points="1763.76 418.2 1432.05 0 1432.05 118.11 944.93 118.11 944.93 718.31 1432.05 718.31 1432.05 836.42 1763.76 418.2"/><path class="cls-3" d="M1654.31,922s6.26,14.18,7.51,17.94,2.09,10,.84,14.18-4.59,9.6-6.68,10.85-12.1,4.59-12.1,4.59a5.08,5.08,0,0,1,1.25-5.42c2.51-2.51,6.26-6.68,7.1-9.6s0-9.18,0-9.18-1.46,14.25-4.8,14.25-2.71-13.83-2.3-16.75-3.75-7.1-4.59-10.85a101.81,101.81,0,0,1-1.25-11.68Z" transform="translate(-162.33 -276.48)"/><path class="cls-3" d="M1438.89,912.54s-6.62,15-7.94,19-2.21,10.59-.89,15,4.86,10.15,7.06,11.48,12.8,4.85,12.8,4.85a5.38,5.38,0,0,0-1.33-5.74c-2.64-2.64-6.61-7.06-7.5-10.15s0-9.7,0-9.7,1.54,15.06,5.07,15.06,2.88-14.62,2.43-17.71,4-7.5,4.86-11.47a106.93,106.93,0,0,0,1.32-12.36Z" transform="translate(-162.33 -276.48)"/><path class="cls-39" d="M1480.78,1033.74l116.41-2.48s17.33-139.93,11.14-139.93-131.27-3.72-131.27-3.72Z" transform="translate(-162.33 -276.48)"/><path id="SVGID-49" data-name="SVGID" class="cls-1" d="M1183.69,392.68a14.79,14.79,0,0,0-5.9-23.68,8.35,8.35,0,0,0-7.59-14.72,23,23,0,0,0-20.47-12.54c-3.5,0-16.22.42-18.81,8.75-1.79-.53-31.44,1.75-25.72,28.88a14.77,14.77,0,0,0,3.81,12.94,14.67,14.67,0,0,0-3.7,9.79c.09,19.58,22.64,29.21,30.7,29.21a14.75,14.75,0,0,0,10.91-4.8,14.71,14.71,0,0,0,4.62.74c6.87,0,37.35-15.13,37.35-23.3A14.76,14.76,0,0,0,1183.69,392.68Z" transform="translate(-162.33 -276.48)"/><g class="cls-40"><path class="cls-11" d="M1110.2,373.43c-4.43-6.3-5-17.79,7.18-17.17s16.63,5.44,20.39-2.08c3.14-6.28,6.77-12.59,11.46-6.35a87,87,0,0,0,11.23,11.87s5.62-7.18,10.93-.31,5,12.48,5,12.48,6.24,0,5.3,7.81-1.25,15.29-1.25,15.29,7.5,2.5,6.25,8.43-5,15.61-13.74,19.36-50.1,8.77-50.1,8.77-18.89-18.14-14.21-27.81l4.68-9.68s-6.67-7.77-4.22-14S1110.2,373.43,1110.2,373.43Z" transform="translate(-162.33 -276.48)"/></g><path id="SVGID-50" data-name="SVGID" class="cls-2" d="M1235.78,611.63s-19.42,8.79-24.47,7.87c-4-7.76-8.22-24.47-10.51-34.58s-9.19-40.9-10.11-50.55-2.59-13.62-2.59-13.62-2.54,11.74-2.08,19.56,4.33,10.8,7,30.82c.79,6,5.09,24.4,5.09,24.4s-30.36.42-43.69.88-66.37-3.22-66.37-3.22,7.46-21.13,12.43-34.39c7.72-20.6,1.62-32.82.7-39.71s-1.66-11.24-1.66-11.24-2.17,22-6.31,33.91-11.46,43.54-11.46,68.82c0,6.69-7.14-2.76-13.12,0s-10.21,0-10.21,0,8.24-53.46,10.54-65.41,6.66-39.76,8.5-52.17,7.16-29.82,10.83-38.09,14.2-16.59,21.09-18.89,13.51-4.49,13.51-4.49a140.86,140.86,0,0,1,18.94-1.35c8.92,0,27.3,3.08,27.3,3.08s12.92,4.65,19.81,7.86,17,19.24,18.61,26.89c2.78,13.33,6.15,24.54,6.61,34.19s1.84,41.36,3.22,51.93S1235.78,611.63,1235.78,611.63Z" transform="translate(-162.33 -276.48)"/><g class="cls-41"><path class="cls-11" d="M1090.89,465.54c4.33-11.68,3.36-13.3,14-19.85s33.81-8.41,44.15-7,10.78-7.16,17.74-6.14c6,.88,17.38,9.41,24.77,15.57,4.86,4.06,12,19.1,13.42,28.41s3.59,32,5.31,40,8.58,28.86,10.3,39.34c3.79,23.11,22,32.06,20,54.63-.32,3.45-17.07,9.53-17.07,9.53l-12.06,3.11-14.13-39.64s.73,9.31.73,17.93-12.45-2.77-12.45-2.77-95.82,6.92-100,15.88-26.25,13.5-20.75-2.21c13.21-37.7,5.17-79.72,12.41-92.81S1086.55,477.22,1090.89,465.54Z" transform="translate(-162.33 -276.48)"/></g><path id="SVGID-51" data-name="SVGID" class="cls-7" d="M1169.09,433.26c-10.74-4.21-14.78-17.85-12.15-20.14,5.31-4.6,5.89-12.58,7.57-16.46,3.2-1.41,5.56-9.57,4.18-12.78s-3,.23-3,.23-.7-4.16-2.08-9.22c-.78-2.84-5.83-8.32-5.83-8.32a20.89,20.89,0,0,1-13,3.15c-6.28-.56-9.06-6.1-9.06-6.1s-11.36,3.94-11.68,14.95c-.08,2.44-.48,4.68-.48,6.82-.54-.21-1.39-1.47-1.9-1.3-1.72.58-2,4.55-1.08,7.37.82,2.43,3.11,5.86,4.67,5.9a53.75,53.75,0,0,0,1.54,6c2.3,7.35,6.09,8.81,6.11,11.61.08,13.55-8.46,15.73-12.23,17.25,0,0,4.56,20.21,21.62,20.29S1169.09,433.26,1169.09,433.26Z" transform="translate(-162.33 -276.48)"/><g class="cls-42"><path class="cls-43" d="M1125.09,370.07c4-3.12,7.66,7.35,7.35,10.9a8.65,8.65,0,0,1-1.75,4.48,2.8,2.8,0,0,0-.38,2.76c1.38,3.47,3.46,1.28,4.31,5.09,1.25,5.57-.43,8.13.16,11.86.94,5.94,15.45,17.49-5,7.65-5.34-2.57,9.24,12.19,1.73,23.55-3.75,5.67-11.45,4.86-11.45,4.86s16.53,24,27,19,26.41-19.63,26.41-19.63V376l-22.79-22.85L1131,356.75Z" transform="translate(-162.33 -276.48)"/></g><path id="SVGID-52" data-name="SVGID" class="cls-4" d="M1123.57,385.39s1.31,7.37,2.48,7c4.11-1.25,13.77-4.09,17.16-4.09s14.93,1.07,19.57,1.52c1.22.12,2.87-5.72,2.87-5.72s-1,6.78-1,8.11c-.21,3.34-.65,9.58-1.07,12-.56,3.24-10.28,14.35-19.56,14.42-6.48.05-16.71-8.95-17.47-12.07-.6-2.43-1.69-9.31-2.14-12.24C1124.24,393.5,1123.57,385.39,1123.57,385.39Z" transform="translate(-162.33 -276.48)"/><g class="cls-44"><path class="cls-11" d="M1143.25,384.53s1.8,8.69,2.14,11.89,1.37,6.37-.81,7.81-8.72,5.75-3.65,13.9c3.51,5.63,11.69,6.12,11.69,6.12l13-21.27-3.35-16Z" transform="translate(-162.33 -276.48)"/></g><path id="SVGID-53" data-name="SVGID" class="cls-5" d="M1529.16,483.13a17.84,17.84,0,0,0-7.12-28.55,10.07,10.07,0,0,0-5.78-18.33,9.84,9.84,0,0,0-3.36.58,27.69,27.69,0,0,0-36.47-12.48,10.08,10.08,0,0,0-16.47,3.88,24.28,24.28,0,0,0-31.08,23.27,24.15,24.15,0,0,0,5.66,15.57,18.25,18.25,0,0,0-.31,3.33,17.81,17.81,0,0,0,4.9,12.28,17.84,17.84,0,0,0,13.38,29.63c.45,0,.9,0,1.34,0a17.83,17.83,0,0,0,31,11.64,17.66,17.66,0,0,0,5.57.89,17.84,17.84,0,0,0,17.24-13.28,17.83,17.83,0,0,0,21.51-28.38Z" transform="translate(-162.33 -276.48)"/><g class="cls-45"><path class="cls-39" d="M1440.57,459.92c2.64-18.44-6-21.45,8.66-20.7s12.79,2.64,20.32-4.13,12.42-13.55,18.07-6a104.62,104.62,0,0,0,13.54,14.3s6.78-8.65,13.18-.37,6,15.05,6,15.05,7.52,0,6.39,9.41-1.5,18.44-1.5,18.44,9,3,7.53,10.16-6,18.82-16.56,23.34-60.4,10.57-60.4,10.57-22.77-21.86-17.13-33.53l5.65-11.67s-13.06-6.89-10.11-14.36S1440.57,459.92,1440.57,459.92Z" transform="translate(-162.33 -276.48)"/></g><path id="SVGID-54" data-name="SVGID" class="cls-2" d="M1592,747.06s-23.41,10.6-29.5,9.49c-4.78-9.35-9.9-29.49-12.67-41.68s-11.08-49.31-12.19-60.94-3.87-36-3.87-36-6.65,20.49-6.1,29.91,9.57,26.28,12.74,50.42c1,7.22,6.14,29.41,6.14,29.41s-36.61.5-52.67,1.06-80-3.88-80-3.88,9-25.48,15-41.46c9.31-24.83,2.34-47.67,1.23-56s-1.5-14.31-1.5-14.31-3.5,35.34-8.49,49.75-13.82,52.49-13.82,83c0,8.06-8.6-3.33-15.81,0s-12.31,0-12.31,0,9.94-64.45,12.71-78.85,8-47.93,10.25-62.89,8.62-35.94,13-45.92,17.11-20,25.42-22.77,16.29-5.41,16.29-5.41a169.63,169.63,0,0,1,22.83-1.63c10.76,0,32.91,3.71,32.91,3.71s15.57,5.6,23.88,9.48,20.52,23.19,22.44,32.41c3.35,16.07,7.42,29.58,8,41.22s2.21,49.86,3.88,62.6S1592,747.06,1592,747.06Z" transform="translate(-162.33 -276.48)"/><g class="cls-46"><path class="cls-11" d="M1417.29,571c5.23-14.08,4-16,16.93-23.92s40.77-10.14,53.24-8.48,13-8.62,21.38-7.4c7.27,1.06,21,11.34,29.85,18.77,5.87,4.9,14.52,23,16.19,34.25s4.32,38.61,6.39,48.17,10.35,34.79,12.42,47.42c4.57,27.86,26.58,38.65,24.09,65.86-.38,4.16-20.57,11.49-20.57,11.49l-14.55,3.74-17-47.78s.88,11.22.88,21.61-15-3.33-15-3.33S1416,739.68,1411,750.49s-31.64,16.28-25-2.67c15.93-45.44,6.23-96.09,15-111.88S1412.06,585,1417.29,571Z" transform="translate(-162.33 -276.48)"/></g><path id="SVGID-55" data-name="SVGID" class="cls-14" d="M1511.56,532c-13-5.08-17.82-21.51-14.64-24.27,6.4-5.55,7.1-15.17,9.13-19.85,3.85-1.7,6.69-11.53,5-15.41s-3.67.29-3.67.29-.84-5-2.5-11.12-6.76-13.8-17.53-14.75c-7.27-.64-29.5-2.06-30.12,19.19-.09,2.94-.57,5.64-.57,8.22-.65-.26-1.68-1.78-2.3-1.57-2.07.7-2.44,5.49-1.29,8.89,1,2.93,3.74,7,5.62,7.11a61.27,61.27,0,0,0,1.87,7.26c2.76,8.87,7.33,10.63,7.35,14,.11,16.34-10.19,19-14.74,20.8,0,0,5.5,24.36,26.07,24.46S1511.56,532,1511.56,532Z" transform="translate(-162.33 -276.48)"/><g class="cls-47"><path class="cls-48" d="M1458.52,455.87c4.85-3.76,9.23,8.86,8.86,13.14a10.37,10.37,0,0,1-2.11,5.4,3.41,3.41,0,0,0-.46,3.33c1.67,4.19,4.17,1.54,5.2,6.13,1.51,6.72-.52,9.81.19,14.3,1.13,7.15,18.63,21.08-6,9.22-6.45-3.1,11.13,14.7,2.08,28.39-4.52,6.83-13.8,5.86-13.8,5.86s19.92,29,32.57,23,31.84-23.66,31.84-23.66V463l-27.48-27.56-23.71,4.38Z" transform="translate(-162.33 -276.48)"/></g><path id="SVGID-56" data-name="SVGID" class="cls-4" d="M1456.69,474.34s1.58,8.88,3,8.45c5-1.51,16.59-4.94,20.68-4.94s18,1.3,23.59,1.84c1.48.14,3.46-6.89,3.46-6.89s-1.14,8.17-1.25,9.77c-.26,4-.79,11.55-1.29,14.47-.68,3.9-12.39,17.3-23.58,17.38-7.82.06-20.14-10.79-21.06-14.55-.72-2.93-2-11.23-2.58-14.75C1457.5,484.11,1456.69,474.34,1456.69,474.34Z" transform="translate(-162.33 -276.48)"/><g class="cls-49"><path class="cls-11" d="M1480.41,473.3s2.17,10.48,2.58,14.34,1.65,7.67-1,9.4-10.51,6.94-4.39,16.76c4.23,6.79,14.09,7.38,14.09,7.38l15.7-25.64-4-19.3Z" transform="translate(-162.33 -276.48)"/></g><path id="SVGID-57" data-name="SVGID" class="cls-10" d="M1310.34,435.47c-9.86-2.89-11-18.94-14.64-33.52-4.67-18.54,6-38.39,18.49-29.66,0,0,12.55-12.53,24.5-10.6s26.9,9.54,27.5,24.8-3.36,40.39-7.61,44.21S1320.19,438.35,1310.34,435.47Z" transform="translate(-162.33 -276.48)"/><g class="cls-50"><path class="cls-51" d="M1310.34,435.47s-7.58-5.89-9.18-20.47-1-18.33-2-28.64c-1.26-13.23,15-14.07,15-14.07s3.44,2.65,19.06,1.71,26.3.25,29.48,12.49-2.91,57-2.91,57Z" transform="translate(-162.33 -276.48)"/></g><path id="SVGID-58" data-name="SVGID" class="cls-5" d="M1442.79,718.36s-23.6,5-30,3.86c-5.06-9.9-2.54-35.18-5.47-48.09s-11.74-52.22-12.91-64.55-1.51-14.69-1.51-14.69,0,24.59.57,34.56.51,1.51,3.87,27.07c1,7.66,2.35,32.28,2.35,32.28s-34.62-.59-51.63,0-74.16-3.63-74.16-3.63-1-25.28,1.18-43.22c3.47-28.6,1.09-22.66,1.7-36.18.4-8.87-.14-20.11-.14-20.11s-.23,17.33-2.09,33.36c-3.32,28.66-9.11,60.53-9.11,92.8,0,8.54-19.28-8.46-26.91-4.94s-13,0-13,0,10.52-68.25,13.45-83.51,3.14-49.62,4-65.61c1.63-28.92,2.23-39.65,12.46-56.5,6-9.88,45.07-24.69,45.07-24.69h31.47c11.4,0,40.48,2.55,40.48,2.55,18.5,6.67,39.84,10,46.78,30.52,8.11,24,4.51,46.55,5.09,58.87s10.39,55.27,12.15,68.77S1442.79,718.36,1442.79,718.36Z" transform="translate(-162.33 -276.48)"/><g class="cls-52"><path class="cls-39" d="M1263.07,514.77c13.37-25.24,65-29.13,78.19-27.37s13.76-9.14,22.64-7.84c18.28,2.66,11.62,3.18,31.62,19.88,6.21,5.18,15.38,24.38,17.14,36.27s4.58,40.89,6.78,51,11,36.85,13.15,50.22c4.83,29.51,28.15,40.94,25.51,69.75-.41,4.41-22.25,27.09-22.25,27.09l-28.31,4.62s-140.34-26.46-145.62-15-29.79-34-22.76-54c16.86-48.12.23-51.1,9.47-67.82S1255.65,528.79,1263.07,514.77Z" transform="translate(-162.33 -276.48)"/></g><path id="SVGID-59" data-name="SVGID" class="cls-3" d="M1372.41,479.12c-13.54-8.22-19.39-25.71-16.78-29.28,3.18-4.33,1.61-12.4,2.9-16.38,4.08-1.79,9.51-14.63,7.75-18.73-1.22-2.84-3.77-1.6-5.23-.57-.65.46-2.3,8.18-2.3,8.18s-1.55-13.14-1-19.81-.81-14-10.18-16c-3.52.52-18.31,11.28-31,11.28,0,0-7.47-21.52-10.76,3.75-.26,2,2.53,16.74,2.66,21.2.07,2.41-4.52-8.07-4.52-7.11-.69-.27-2.08-.83-2.73-.61-2.19.74-2.59,5.81-1.38,9.41,1,3.1,6.25,11.13,8.24,11.18.73,3.41,1.1,11.75,3.7,14,3.85,3.28.93,20.58-11.26,27,0,0,9.38,19.92,31.16,20S1372.41,479.12,1372.41,479.12Z" transform="translate(-162.33 -276.48)"/><g class="cls-53"><path class="cls-54" d="M1317.87,411.16a9.6,9.6,0,0,1-4,6.82c1.68,7.63,5.47,2.59,6.71,8.12,1.6,7.12,1.52,13.79,2.39,18.53.93,5.06,11,20.23-6.37,10.47-6.61-3.71,14.5,27.34,11.83,34.29-2.3,6-20.69-.46-20.69-.46s17.55,32.43,30.94,26.05,33.72-30.52,33.72-30.52V401.91l-29.1-23.73-28.23-.16S1318.27,406.63,1317.87,411.16Z" transform="translate(-162.33 -276.48)"/></g><path id="SVGID-60" data-name="SVGID" class="cls-4" d="M1307.91,421.82s1.37,7.28,2.81,6.84c5.07-1.55,18.18-5.26,22.37-5.26s17.11,1.75,22.83,2.31c1.51.14,2.6-5.47,2.6-5.47s.26,22.83-.26,25.82c-.69,4-13.72,16.7-25.17,16.78-8,.06-22.8-10.55-23.75-14.4C1308.6,445.44,1307.91,421.82,1307.91,421.82Z" transform="translate(-162.33 -276.48)"/><g class="cls-55"><path class="cls-11" d="M1332.19,420.75s2.22,10.73,2.64,14.68,1.68,7.85-1,9.63-10.76,7.1-4.49,17.15c4.33,7,14.41,7.55,14.41,7.55l16.08-26.24-4.14-19.76Z" transform="translate(-162.33 -276.48)"/></g><path id="SVGID-61" data-name="SVGID" class="cls-5" d="M939.69,410c-9.66-2.82-12.46-8.11-16.05-22.39-4.58-18.17,7-39.1,26.53-37.72s31.23-5.34,37.59,12.79c5,14.11-.84,36.87-5,40.61S949.35,412.85,939.69,410Z" transform="translate(-162.33 -276.48)"/><g class="cls-56"><path class="cls-39" d="M935.48,408s-7.42-5.76-9-20.05-1-23.4,6.87-29.82,14.06-1.79,14.06-1.79,4.72,1.12,20,.2,15.88,2.69,18.43,5.55c8.22,9.25-1.89,53.8-1.89,53.8Z" transform="translate(-162.33 -276.48)"/></g><path id="SVGID-62" data-name="SVGID" class="cls-5" d="M1065.28,685.21s-23.12,4.94-29.45,3.79c-5-9.7-2.49-34.48-5.36-47.13s-11.5-51.18-12.65-63.25-1.47-14.4-1.47-14.4,0,24.09.55,33.87.5,1.48,3.79,26.53c1,7.5,2.3,31.62,2.3,31.62s19.75,125.2,3.08,125.78-122.61-11.1-122.61-11.1l-6.61-134.08s-5.42,10.34-5.42,42c0,8.37-18.89-8.29-26.37-4.84s-7.26.16-7.26.16,8.42-60.55,11.29-75.5,5.66-56.86,6.54-72.53c1.59-28.35,1.94-35.92,12-52.43C893.47,464,930,445.1,930,445.1s14,3.16,26.66,3.16c11.17,0,33.57-1.18,33.57-1.18,18.14,6.54,38.57,14.79,45.36,34.89,8,23.52,7.14,42.75,7.71,54.83s9,56.33,10.7,69.56S1065.28,685.21,1065.28,685.21Z" transform="translate(-162.33 -276.48)"/><g class="cls-57"><path class="cls-39" d="M889.16,485.7c13.1-24.74,57.21-31.23,70.14-29.51s15.87-11.57,24.57-10.3c17.91,2.61,30.52,16.64,35.09,24.78,3.88,6.92,12.49,21.19,14.22,32.84s2.6,46,4.75,55.88,9.74,32.67,11.89,45.78c4.74,28.91,33,40.38,30.46,68.61-.39,4.32-21.8,26.55-21.8,26.55l-19.65,93.89S906.42,769.7,901.24,780.91s-42.41-124.07-35.52-143.73C882.25,590,866,587.1,875,570.71S881.89,499.44,889.16,485.7Z" transform="translate(-162.33 -276.48)"/></g><path id="SVGID-63" data-name="SVGID" class="cls-3" d="M991.8,448.27c-13.26-8-16.43-21.87-13.87-25.37,3.11-4.24,3.52-13,4.78-16.88,4-1.76,9.31-14.34,7.59-18.36-1.19-2.78-3.69-1.57-5.12-.55-.64.45-2.26,8-2.26,8s-2.45,5.92-2.61,1.43c-.14-3.82,1-15.45,1-23.78,0-21.91-12.83-10.64-25.28-10-11.7.57-24.14-10.75-23.27,11.81,0,1.19,2.24,16.32,3,21.6.5,3.54-1.12,4.43-1.91,1.79-.68-2.27-4.65-10.36-4.64-9.42-.69-.26-2-.81-2.69-.59-2.14.72-2.53,5.69-1.34,9.22,1,3,6.12,10.91,8.07,11,.71,3.33,3.33,12.63,5.88,14.79,3.78,3.21,2.44,16.68-9.51,23,7.72,11.16,15.66,18.9,28.25,19.34S979.36,461.72,991.8,448.27Z" transform="translate(-162.33 -276.48)"/><g class="cls-58"><path class="cls-54" d="M942.86,384.16a9.39,9.39,0,0,1-3.91,6.69c1.65,7.47,5.36,2.54,6.58,8,1.56,7,1.49,13.51,2.34,18.16.91,4.95,10.77,19.82-6.25,10.26-6.47-3.64,4.84,19.38,2.23,26.19-2.26,5.88-10.9,6.95-10.9,6.95s17.19,31.79,30.31,25.54,33-29.91,33-29.91V375.09l-28.52-23.24s-21.34-4.31-26.69,7.58S943.25,379.72,942.86,384.16Z" transform="translate(-162.33 -276.48)"/></g><path id="SVGID-64" data-name="SVGID" class="cls-4" d="M933.1,394.61s1.68,4.81,3.09,4.38c5-1.52,17.48-2.83,21.58-2.83s16.77,1.72,22.38,2.26c1.48.14,2.55-5.36,2.55-5.36s.25,22.38-.25,25.3c-.68,3.92-13.45,16.37-24.68,16.45-7.84.06-22.34-10.34-23.27-14.11C933.78,417.76,933.1,394.61,933.1,394.61Z" transform="translate(-162.33 -276.48)"/><g class="cls-59"><path class="cls-11" d="M956.89,393.57s2.18,10.51,2.59,14.37,1.65,7.7-1,9.44-10.54,7-4.4,16.81c4.24,6.81,14.13,7.4,14.13,7.4L984,415.87l-4.05-19.35Z" transform="translate(-162.33 -276.48)"/></g><path id="SVGID-65" data-name="SVGID" class="cls-5" d="M1040.38,436.62s1.25-7.49,5.83-8.33,18.73-.71,30.4,6.25c21.63,12.9,22.2,54.77,24.46,74.57,1.92,16.79,17.16,20.18,17.16,20.18s-6.26,9.6-15.84,5.85-9.05-4.34-9.05-4.34-4.73,5.68,13,12.45c10.37,4,2.53,25,2.53,25l-78.91.86-17.07-8.33s-4.17-15.41-3.75-25.41,3.33-11.66-.84-19.15-9.91-5.93-3.24-18.84,2.44-19.31,5.28-31.4c2.33-9.88,2.55-18.06,12.12-26.39S1040.38,436.62,1040.38,436.62Z" transform="translate(-162.33 -276.48)"/><g class="cls-60"><path class="cls-39" d="M1022.8,445c3.21-4,11.27-5.23,17.73-7.35,3.77-7.36,11.32-5.1,15.28-3,7.91,4.16,19.72,7.42,24.3,17s13.57,20.8,14,30,4.11,24.64,7,34.51c3,10.38,16.7,17.48,11.69,23s-24.63-10.62-19.22-4,24.69,25.07,24.69,25.07-92.67,3.42-97.25-5.74-11.47-5.49-8.55-16.32,14-13.25,6.88-22.41-7.83-10.26-5.18-24.93c2.45-13.58-1.7-20.75,5.09-28.29S1016.39,452.91,1022.8,445Z" transform="translate(-162.33 -276.48)"/></g><path id="SVGID-66" data-name="SVGID" class="cls-6" d="M1160.11,755.55s-23.46,10.62-29.57,9.51c-4.79-9.37-9.92-29.56-12.7-41.78s-11.1-49.42-12.21-61.08-3.89-36.09-3.89-36.09-6.66,20.55-6.11,30,9.59,26.34,12.77,50.53c1,7.24,2.22,30.54,2.22,30.54s-32.76-.56-48.86,0-76.64-3.89-76.64-3.89,5.46-25.53,11.47-41.55c9.32-24.89,4.09-52.29,3-60.62s-2.22-18.88-2.22-18.88-4.54,44.47-9.54,58.9S974,723.74,974,754.28c0,8.09-8.62-3.33-15.84,0s-12.34,0-12.34,0,10-64.59,12.74-79S959,640,961.26,625s16.17-48.8,20.61-58.8,17.14-20.05,25.47-22.82,16.32-5.42,16.32-5.42a169.54,169.54,0,0,1,22.89-1.64c10.78,0,33,3.72,33,3.72s15.61,5.62,23.94,9.5S1124,572.79,1126,582c3.36,16.1,7.43,29.64,8,41.31s2.22,50,3.88,62.74S1160.11,755.55,1160.11,755.55Z" transform="translate(-162.33 -276.48)"/><g class="cls-61"><path class="cls-62" d="M985.05,579c5.24-14.11,4.06-16.07,17-24s40.86-10.16,53.35-8.49,13-8.65,21.43-7.42c7.29,1.06,21,11.36,29.93,18.81,5.88,4.91,14.55,23.08,16.22,34.33s4.33,38.7,6.41,48.28,10.37,34.86,12.45,47.53c4.57,27.92,26.64,38.74,24.14,66-.38,4.17-20.62,11.52-20.62,11.52l-14.58,3.75-17.07-47.89-12.08-72.05s-5.68-.53-5.68,9.46,9,15.69,11.5,25.27,7.14,48.57,7.14,59-15-3.34-15-3.34l-117.24,3.82s1.54-32,9.43-47.44c13.49-26.4,10.31-45.45,6.88-72.89,0,0-4.52,34.13-6.18,41.21s-8.66,83.66-13.66,94.49-26.65-21.25-20-40.23c16-45.55,1.18-58.76,9.92-74.58S979.81,593.16,985.05,579Z" transform="translate(-162.33 -276.48)"/></g><path id="SVGID-67" data-name="SVGID" class="cls-3" d="M1079.53,540c-13-5.09-17.86-21.56-14.67-24.32,6.41-5.57,7.11-15.21,9.15-19.9,3.86-1.7,6.71-11.55,5-15.44s-3.68.28-3.68.28-.84-5-2.5-11.14-8.7-12.9-17.57-14.78c-4-.38,3.9,11.19,3.9,11.19s-33.38-24.33-34.09,8c-.06,2.95-.57,5.65-.57,8.24-.66-.26-1.69-1.78-2.3-1.57-2.08.7-2.45,5.5-1.3,8.9,1,2.94,3.75,7.08,5.63,7.13a63.6,63.6,0,0,0,1.87,7.28c2.78,8.88,7.35,10.65,7.38,14,.1,16.37-10.22,19-14.78,20.84,0,0,5.52,24.43,26.13,24.52S1079.53,540,1079.53,540Z" transform="translate(-162.33 -276.48)"/><g class="cls-63"><path class="cls-54" d="M1026.37,463.7c4.87-3.77,9.26,8.88,8.88,13.16a10.36,10.36,0,0,1-2.12,5.42,3.42,3.42,0,0,0-.45,3.34c1.67,4.19,4.18,1.54,5.21,6.14,1.51,6.74-.52,9.83.19,14.34,1.13,7.16,18.67,21.12-6,9.24-6.46-3.11,11.17,14.72,2.09,28.45-4.53,6.84-13.84,5.87-13.84,5.87s20,29.05,32.65,23S1084.85,549,1084.85,549V470.83l-27.53-27.62-23.77,4.39Z" transform="translate(-162.33 -276.48)"/></g><path id="SVGID-68" data-name="SVGID" class="cls-4" d="M1024.54,482.21s1.58,8.9,3,8.47c5-1.52,16.63-4.95,20.73-4.95s18,1.3,23.65,1.84c1.48.14,3.46-6.91,3.46-6.91s-1.14,8.2-1.24,9.8c-.27,4-.8,11.58-1.3,14.5-.68,3.91-12.42,17.34-23.63,17.42-7.84.06-20.19-10.82-21.12-14.59-.72-2.93-2-11.25-2.58-14.78C1025.35,492,1024.54,482.21,1024.54,482.21Z" transform="translate(-162.33 -276.48)"/><g class="cls-64"><path class="cls-11" d="M1048.32,481.17s2.17,10.5,2.58,14.37,1.65,7.69-1,9.43-10.54,6.95-4.41,16.79c4.25,6.8,14.12,7.39,14.12,7.39l15.74-25.69-4-19.34Z" transform="translate(-162.33 -276.48)"/></g><path id="SVGID-69" data-name="SVGID" class="cls-5" d="M1203.47,473.45c-10.26-2.83-9.73-14.7-13.55-29-4.86-18.16-.12-35.94,14.16-35.52,0,0,15-4,27.46-2.08s28.21,5.09,28.84,20-2.3,38.14-6.71,41.88S1213.72,476.27,1203.47,473.45Z" transform="translate(-162.33 -276.48)"/><g class="cls-65"><path class="cls-39" d="M1203.47,473.45s-7.89-5.76-9.56-20,.64-8.08-.39-18.18c-1.31-13,14.1-21,14.1-21s2.76,5.54,19,4.62,28.06-5.37,31.36,6.61-3,55.84-3,55.84Z" transform="translate(-162.33 -276.48)"/></g><path id="SVGID-70" data-name="SVGID" class="cls-8" d="M1334.63,750.46s-23.1,4.94-29.42,3.79c-5-9.7-2.49-34.46-5.36-47.1S1288.36,656,1287.21,644s-1.48-14.39-1.48-14.39,0,24.08.56,33.84.5,1.49,3.79,26.51c1,7.5,2.3,31.6,2.3,31.6s-33.9-.57-50.56,0S1169.2,718,1169.2,718s-1-24.76,1.16-42.33c3.4-28,1.06-22.19,1.66-35.42.4-8.69-.13-19.69-.13-19.69s-.23,17-2.05,32.66c-3.25,28.06-8.93,59.27-8.93,90.87,0,8.37-18.87-8.28-26.34-4.83s-12.77,0-12.77,0,8.91-64.54,11.79-79.48,4.46-50.89,5.34-66.55c1.59-28.32,1.6-40.62,11.62-57.12,5.87-9.67,43.18-23.13,43.18-23.13s19.71.75,32.35.75c11.16,0,41.36,1.41,41.36,1.41,18.12,6.54,37.29,10.89,44.08,31,7.94,23.5,8.39,47.33,9,59.39s6.2,52.38,7.93,65.6S1334.63,750.46,1334.63,750.46Z" transform="translate(-162.33 -276.48)"/><g class="cls-66"><path class="cls-51" d="M1158.65,551.11c13.09-24.72,63.63-28.53,76.56-26.81s13.48-8.95,22.17-7.68c17.9,2.61,11.38,3.13,31,19.47,6.08,5.08,15.06,23.88,16.78,35.52s4.48,40,6.63,49.95,10.74,36.08,12.88,49.18c4.74,28.89,27.57,40.09,25,68.3-.39,4.31-21.78,26.52-21.78,26.52l-27.73,4.53s-137.42-25.91-142.59-14.71-29.17-33.27-22.29-52.91c16.51-47.13.22-50,9.27-66.42S1151.38,564.84,1158.65,551.11Z" transform="translate(-162.33 -276.48)"/></g><path id="SVGID-71" data-name="SVGID" class="cls-9" d="M1268.05,516.19c-14.08-8-20.17-25.17-17.45-28.66,3.31-4.25,1.67-12.15,3-16,4.25-1.76,9.9-14.33,8.06-18.35-1.26-2.78-3.92-1.57-5.43-.55-.68.45-2.4,8-2.4,8s.34-13-1.07-19.39c-4.65-21-50.66-25.73-54.08-1-.27,2,2.63,16.39,2.77,20.76.08,2.36-4.7-7.91-4.7-7-.72-.26-2.17-.81-2.85-.59-2.28.72-2.69,5.69-1.43,9.21,1.09,3,6.5,10.9,8.57,10.95.76,3.34,1.15,11.51,3.86,13.67,4,3.21,1,20.16-11.73,26.46,0,0,9.77,19.51,32.43,19.6S1268.05,516.19,1268.05,516.19Z" transform="translate(-162.33 -276.48)"/><g class="cls-67"><path class="cls-68" d="M1211.3,449.64a9.37,9.37,0,0,1-4.15,6.69c1.75,7.46,5.7,2.53,7,7.95,1.66,7,1.57,13.5,2.48,18.14,1,5,11.43,19.82-6.63,10.26-6.87-3.64,15.09,26.77,12.32,33.58-2.4,5.88-21.54-.46-21.54-.46s18.26,31.76,32.2,25.51,35.08-29.88,35.08-29.88V440.59l-30.27-23.23-29.38-.17S1211.72,445.21,1211.3,449.64Z" transform="translate(-162.33 -276.48)"/></g><path id="SVGID-72" data-name="SVGID" class="cls-4" d="M1200.93,460.08s1.44,7.14,2.94,6.7c5.27-1.51,18.91-5.15,23.27-5.15s17.8,1.72,23.76,2.26c1.57.15,2.7-5.35,2.7-5.35s.27,22.36-.26,25.28c-.73,3.91-14.28,16.35-26.2,16.43-8.33.06-23.73-10.33-24.71-14.1C1201.66,483.22,1200.93,460.08,1200.93,460.08Z" transform="translate(-162.33 -276.48)"/><g class="cls-69"><path class="cls-11" d="M1226.2,459s2.31,10.5,2.75,14.37,1.75,7.69-1,9.43-11.19,7-4.68,16.79c4.51,6.81,15,7.4,15,7.4l16.72-25.7-4.3-19.34Z" transform="translate(-162.33 -276.48)"/></g><path id="SVGID-73" data-name="SVGID" class="cls-5" d="M1379.46,571.68c-11.09-3.24-14.3-9.31-18.42-25.7-5.26-20.86,8.07-44.89,30.46-43.3s35.85-6.14,43.15,14.67c5.68,16.2-1,42.33-5.74,46.63S1390.55,574.93,1379.46,571.68Z" transform="translate(-162.33 -276.48)"/><g class="cls-70"><path class="cls-39" d="M1374.63,569.34s-8.52-6.62-10.33-23-1.15-26.86,7.88-34.22,16.15-2.05,16.15-2.05,5.41,1.28,23,.23,18.23,3.07,21.15,6.36c9.45,10.63-2.16,61.77-2.16,61.77Z" transform="translate(-162.33 -276.48)"/></g><path id="SVGID-74" data-name="SVGID" class="cls-6" d="M1523.64,887.6s-26.55,5.67-33.8,4.35c-5.7-11.14-2.86-39.59-6.16-54.11s-13.2-58.75-14.52-72.61-1.7-16.54-1.7-16.54,0,27.67.64,38.89.57,1.7,4.36,30.45c1.13,8.61,2.64,36.31,2.64,36.31s-38.95-.66-58.09,0-83.43-4.07-83.43-4.07-1.11-28.44,1.33-48.63c3.9-32.18,1.23-25.5,1.92-40.7.45-10-.16-22.63-.16-22.63s-.26,19.49-2.35,37.53c-3.74,32.24-10.26,68.1-10.26,104.4,0,9.61-21.68-9.51-30.26-5.55s-8.35.18-8.35.18,9.67-69.51,13-86.67,6.5-65.28,7.51-83.27c1.82-32.53,2.22-41.23,13.73-60.19,6.75-11.11,48.65-32.79,48.65-32.79s16.1,3.63,30.62,3.63c12.82,0,38.54-1.36,38.54-1.36,20.82,7.51,44.27,17,52.07,40.06,9.12,27,8.19,49.08,8.85,62.94s10.3,64.67,12.28,79.85S1523.64,887.6,1523.64,887.6Z" transform="translate(-162.33 -276.48)"/><g class="cls-71"><path class="cls-62" d="M1321.46,658.56c15-28.4,65.67-35.86,80.52-33.88s18.22-13.28,28.21-11.82c20.55,3,35,19.1,40.28,28.45,4.45,7.93,14.34,24.32,16.32,37.69s3,52.77,5.46,64.15,11.18,37.5,13.65,52.55c5.43,33.2,37.94,46.36,35,78.78-.45,4.95-25,30.47-25,30.47l-31.86,5.2s-157.88-29.78-163.82-16.9-33.52-38.23-25.61-60.8c19-54.14.26-57.48,10.66-76.3S1313.11,674.33,1321.46,658.56Z" transform="translate(-162.33 -276.48)"/></g><path id="SVGID-75" data-name="SVGID" class="cls-3" d="M1439.29,615.59c-15.23-9.24-18.87-25.11-15.93-29.12,3.58-4.88,4-14.9,5.49-19.38,4.59-2,10.69-16.46,8.71-21.08-1.37-3.2-4.24-1.8-5.88-.64-.73.52-2.59,9.2-2.59,9.2s-2.81,6.8-3,1.64c-.15-4.38,1.14-17.74,1.14-27.29,0-25.16-14.73-12.22-29-11.52-13.43.66-27.72-12.34-26.71,13.57,0,1.36,2.56,18.73,3.41,24.79.57,4.06-1.29,5.08-2.2,2-.78-2.6-5.33-11.89-5.33-10.81-.78-.31-2.35-.93-3.08-.69-2.46.84-2.91,6.54-1.54,10.59,1.18,3.49,7,12.52,9.26,12.59.83,3.82,3.83,14.49,6.76,17,4.33,3.68,2.8,19.15-10.92,26.39,8.86,12.81,12.19,18.08,32.3,24.56C1413.58,634.73,1425,631,1439.29,615.59Z" transform="translate(-162.33 -276.48)"/><g class="cls-72"><path class="cls-54" d="M1383.1,542a10.75,10.75,0,0,1-4.48,7.68c1.89,8.58,6.15,2.91,7.55,9.14,1.79,8,1.7,15.51,2.69,20.84,1.05,5.7,12.35,22.76-7.18,11.78-7.43-4.17,5.56,22.25,2.56,30.07-2.59,6.75-12.52,8-12.52,8s19.74,36.49,34.81,29.31,37.93-34.33,37.93-34.33V531.58l-32.73-26.68s-24.51-4.95-30.65,8.7S1383.55,536.9,1383.1,542Z" transform="translate(-162.33 -276.48)"/></g><path id="SVGID-76" data-name="SVGID" class="cls-4" d="M1371.9,554s1.92,5.53,3.54,5c5.7-1.74,20.08-3.26,24.79-3.26s19.24,2,25.68,2.6c1.7.17,2.92-6.15,2.92-6.15s.3,25.69-.28,29c-.78,4.5-15.44,18.79-28.32,18.89-9,.06-25.66-11.87-26.72-16.21C1372.68,580.56,1371.9,554,1371.9,554Z" transform="translate(-162.33 -276.48)"/><g class="cls-73"><path class="cls-11" d="M1399.21,552.79s2.5,12.07,3,16.51,1.9,8.83-1.13,10.83-12.1,8-5.06,19.29c4.88,7.82,16.22,8.5,16.22,8.5l18.09-29.52-4.65-22.22Z" transform="translate(-162.33 -276.48)"/></g><path class="cls-39" d="M1173.66,1017.64c2.47-8.67,21.74-116.21,21.74-116.21l-141.52-4.07,11.22,97.81Z" transform="translate(-162.33 -276.48)"/><path id="SVGID-77" data-name="SVGID" class="cls-2" d="M1099.76,618.77c-11.09-3.24-14.29-9.31-18.42-25.7-5.26-20.86,2.46-41,28.08-32.48,10.39,3.47,38.23-17,45.53,3.85,5.68,16.2-1,42.33-5.74,46.63S1110.85,622,1099.76,618.77Z" transform="translate(-162.33 -276.48)"/><g class="cls-74"><path class="cls-11" d="M1094.93,616.43s-8.52-6.62-10.32-23-1.15-26.86,7.87-34.23,16.15-2,16.15-2,5.41,1.28,23,.23,18.23,3.07,21.15,6.36c9.45,10.63-2.16,61.77-2.16,61.77Z" transform="translate(-162.33 -276.48)"/></g><path id="SVGID-78" data-name="SVGID" class="cls-10" d="M1243.94,934.69s-26.54,5.66-33.8,4.35c-5.7-11.14-2.86-39.59-6.16-54.11s-13.2-58.75-14.52-72.61-1.69-16.54-1.69-16.54,0,27.67.63,38.89.57,1.7,4.36,30.45c1.13,8.61,2.64,36.31,2.64,36.31s-38.94-.66-58.09,0-83.43-4.07-83.43-4.07-1.11-28.44,1.34-48.63c3.9-32.18,1.22-25.5,1.91-40.7.45-10-.16-22.63-.16-22.63s-.26,19.49-2.35,37.53c-3.74,32.24-10.26,68.1-10.26,104.4,0,9.61-21.68-9.51-30.26-5.55s-8.35.18-8.35.18,9.67-69.51,13-86.67,6.5-65.28,7.51-83.27c1.82-32.53,2.23-41.23,13.73-60.19,6.75-11.11,48.66-32.79,48.66-32.79s16.09,3.63,30.61,3.63c12.82,0,38.54-1.36,38.54-1.36,20.82,7.51,44.27,17,52.07,40.06,9.12,27,8.19,49.08,8.85,62.94S1229,829,1231,844.16,1243.94,934.69,1243.94,934.69Z" transform="translate(-162.33 -276.48)"/><g class="cls-75"><path class="cls-51" d="M1041.76,705.65c15-28.4,65.67-35.86,80.52-33.88s18.22-13.28,28.21-11.82c20.56,3,35,19.1,40.28,28.45,4.45,7.93,14.34,24.32,16.32,37.69s3,52.77,5.46,64.15,11.18,37.5,13.65,52.55c5.44,33.2,37.94,46.36,35,78.78-.46,4.95-25,30.47-25,30.47l-31.85,5.2s-157.89-29.78-163.83-16.9-33.51-38.23-25.61-60.8c19-54.14.26-57.48,10.66-76.3S1033.41,721.42,1041.76,705.65Z" transform="translate(-162.33 -276.48)"/></g><path id="SVGID-79" data-name="SVGID" class="cls-7" d="M1159.59,662.68c-15.23-9.24-18.87-25.11-15.93-29.12,3.58-4.88,4-14.9,5.49-19.38,4.59-2,10.7-16.46,8.72-21.08-1.37-3.2-4.24-1.8-5.88-.64-.74.52-2.6,9.2-2.6,9.2s-2.81,6.8-3,1.64c-.15-4.38,1.15-17.74,1.14-27.29,0-25.16-56.73-23.86-55.73,2,0,1.36,2.57,18.73,3.41,24.79.57,4.06-1.29,5.08-2.2,2-.78-2.6-5.33-11.89-5.33-10.81-.78-.31-2.34-.93-3.07-.69-2.47.84-2.92,6.54-1.55,10.59,1.18,3.49,7,12.52,9.27,12.59.82,3.82,3.83,14.49,6.75,17,4.33,3.68,2.8,19.15-10.92,26.39,8.86,12.81,12.2,18.08,32.3,24.56C1133.88,681.82,1145.3,678.12,1159.59,662.68Z" transform="translate(-162.33 -276.48)"/><g class="cls-76"><path class="cls-43" d="M1103.41,589.08a10.78,10.78,0,0,1-4.49,7.68c1.89,8.58,6.16,2.91,7.55,9.14,1.79,8,1.71,15.51,2.69,20.84,1,5.7,12.36,22.76-7.18,11.78-7.42-4.17,5.56,22.25,2.56,30.07-2.59,6.75-12.52,8-12.52,8s19.74,36.49,34.81,29.31,37.93-34.33,37.93-34.33V578.67L1132,552s-24.51-5-30.65,8.7S1103.85,584,1103.41,589.08Z" transform="translate(-162.33 -276.48)"/></g><path id="SVGID-80" data-name="SVGID" class="cls-4" d="M1092.2,601.08s1.92,5.53,3.54,5c5.7-1.74,20.08-3.26,24.79-3.26s19.25,2,25.68,2.6c1.7.17,2.93-6.15,2.93-6.15s.29,25.69-.29,29c-.78,4.5-15.44,18.79-28.32,18.89-9,.06-25.66-11.87-26.72-16.21C1093,627.65,1092.2,601.08,1092.2,601.08Z" transform="translate(-162.33 -276.48)"/><g class="cls-77"><path class="cls-11" d="M1119.51,599.88s2.5,12.07,3,16.51,1.89,8.83-1.14,10.83-12.1,8-5.06,19.29c4.88,7.82,16.23,8.5,16.23,8.5l18.08-29.52L1146,603.27Z" transform="translate(-162.33 -276.48)"/></g><path id="SVGID-81" data-name="SVGID" class="cls-10" d="M963.21,689.81C951.33,686.33,950,667,945.57,649.4c-5.63-22.36,7.18-46.29,22.29-35.76,0,0,15.13-15.11,29.54-12.79s32.43,11.51,33.16,29.9-4.06,48.7-9.18,53.31S975.1,693.29,963.21,689.81Z" transform="translate(-162.33 -276.48)"/><g class="cls-78"><path class="cls-51" d="M963.21,689.81s-9.13-7.1-11.06-24.68S951,643,949.8,630.59c-1.52-16,18.06-17,18.06-17s4.15,3.18,23,2.05,31.73.31,35.55,15.06-3.51,68.76-3.51,68.76Z" transform="translate(-162.33 -276.48)"/></g><path id="SVGID-82" data-name="SVGID" class="cls-6" d="M1122.91,1030.9s-28.45,6.07-36.23,4.66c-6.1-11.94-3.06-42.43-6.6-58s-14.14-63-15.56-77.82-1.81-17.72-1.81-17.72,0,29.64.68,41.67.61,1.83,4.67,32.64c1.21,9.23,2.83,38.91,2.83,38.91s-41.74-.7-62.26,0-89.42-4.36-89.42-4.36-1.19-30.48,1.44-52.12c4.18-34.48,1.31-27.33,2-43.62.49-10.69-.17-24.25-.17-24.25s-.27,20.89-2.51,40.23c-4,34.55-11,73-11,111.89,0,10.3-23.24-10.2-32.43-6s-15.72,0-15.72,0,12.68-82.29,16.22-100.69,3.78-59.83,4.86-79.11c2-34.87,2.69-47.81,15-68.12,7.23-11.91,54.34-29.77,54.34-29.77h38c13.74,0,48.8,3.07,48.8,3.07,22.31,8,48,12.07,56.41,36.8,9.78,28.94,5.43,56.13,6.14,71s12.53,66.64,14.65,82.91S1122.91,1030.9,1122.91,1030.9Z" transform="translate(-162.33 -276.48)"/><g class="cls-79"><path class="cls-62" d="M906.23,785.43c16.12-30.44,78.35-35.13,94.27-33s16.59-11,27.3-9.45c22,3.21,14,3.84,38.12,24,7.49,6.25,18.55,29.4,20.67,43.73s5.52,49.31,8.17,61.51,13.22,44.42,15.86,60.55c5.83,35.58,33.94,49.37,30.75,84.11-.48,5.31-26.82,32.65-26.82,32.65l-34.14,5.58S911.2,1023.16,904.83,1037s-35.92-41-27.44-65.15c20.33-58,.28-61.62,11.42-81.78S897.27,802.33,906.23,785.43Z" transform="translate(-162.33 -276.48)"/></g><path id="SVGID-83" data-name="SVGID" class="cls-3" d="M1038.05,742.44c-16.31-9.91-23.37-31-20.22-35.3,3.83-5.23,1.94-14.95,3.49-19.75,4.93-2.16,11.46-17.64,9.34-22.59-1.47-3.43-4.54-1.93-6.3-.68-.78.55-2.78,9.85-2.78,9.85s-1.86-15.83-1.24-23.88-1-16.94-12.26-19.34c-4.25.63-22.09,13.6-37.42,13.61,0,0-9-26-13,4.51-.31,2.42,3.05,20.19,3.21,25.57.09,2.9-5.45-9.73-5.45-8.58-.83-.33-2.51-1-3.29-.73-2.64.89-3.13,7-1.66,11.34,1.26,3.75,7.53,13.42,9.93,13.49.88,4.1,1.33,14.17,4.46,16.83,4.65,4,1.12,24.82-13.58,32.58,0,0,11.31,24,37.57,24.14S1038.05,742.44,1038.05,742.44Z" transform="translate(-162.33 -276.48)"/><g class="cls-80"><path class="cls-54" d="M972.29,660.5a11.6,11.6,0,0,1-4.8,8.23c2,9.19,6.59,3.12,8.09,9.79,1.92,8.58,1.83,16.62,2.88,22.34,1.12,6.1,13.24,24.39-7.69,12.62-8-4.47,17.49,33,14.27,41.35-2.77,7.24-24.94-.57-24.94-.57s21.15,39.11,37.3,31.42,40.65-36.8,40.65-36.8V649.34L1003,620.74l-34-.21S972.78,655,972.29,660.5Z" transform="translate(-162.33 -276.48)"/></g><path id="SVGID-84" data-name="SVGID" class="cls-4" d="M960.28,673.35s1.66,8.78,3.4,8.25c6.11-1.87,21.92-6.35,27-6.35s20.63,2.12,27.53,2.79c1.82.17,3.14-6.6,3.14-6.6s.31,27.54-.31,31.13c-.84,4.82-16.55,20.14-30.36,20.24-9.65.07-27.49-12.72-28.63-17.36C961.12,701.83,960.28,673.35,960.28,673.35Z" transform="translate(-162.33 -276.48)"/><g class="cls-81"><path class="cls-11" d="M989.56,672.07s2.68,12.93,3.18,17.69,2,9.47-1.21,11.61-13,8.56-5.42,20.68c5.22,8.38,17.38,9.1,17.38,9.1l19.38-31.64-5-23.81Z" transform="translate(-162.33 -276.48)"/></g><path id="SVGID-85" data-name="SVGID" class="cls-5" d="M1533.49,554.31s1.43-8.6,6.69-9.56,21.49-.82,34.9,7.17c24.83,14.81,25.48,62.88,28.08,85.61,2.2,19.27,19.7,23.17,19.7,23.17s-7.19,11-18.19,6.71-10.39-5-10.39-5-5.43,6.51,14.94,14.29c11.91,4.55,2.9,28.64,2.9,28.64l-90.58,1-19.61-9.56s-4.78-17.69-4.3-29.16,3.83-13.39-1-22-11.37-6.8-3.72-21.62,2.8-22.17,6.07-36.06c2.66-11.33,2.91-20.73,13.91-30.29S1533.49,554.31,1533.49,554.31Z" transform="translate(-162.33 -276.48)"/><g class="cls-82"><path class="cls-39" d="M1513.31,563.92c3.68-4.55,12.93-6,20.35-8.45,4.33-8.44,13-5.85,17.53-3.46,9.09,4.78,22.65,8.52,27.91,19.51s15.57,23.88,16.05,34.4,4.71,28.28,8,39.62c3.46,11.91,19.17,20.07,13.42,26.42s-28.28-12.2-22.06-4.55,28.34,28.79,28.34,28.79-106.39,3.93-111.65-6.59-13.16-6.31-9.81-18.74,16-15.2,7.9-25.72-9-11.78-6-28.62c2.81-15.59-1.95-23.82,5.84-32.48S1505.94,573,1513.31,563.92Z" transform="translate(-162.33 -276.48)"/></g><path id="SVGID-86" data-name="SVGID" class="cls-11" d="M1660.67,924.17s-22.71,7.31-29.72,6c-5.5-10.76-5.35-32.79-8.54-46.82s-12.75-56.73-14-70.12-4.46-41.43-4.46-41.43-7.65,23.59-7,34.42,11,30.24,14.67,58c1.09,8.31,2.54,35.06,2.54,35.06s-37.6-.64-56.09,0-88-4.46-88-4.46,6.27-29.31,13.16-47.7c10.71-28.58,4.7-60,3.42-69.59s-2.54-21.68-2.54-21.68-5.22,51.05-11,67.63-15.9,60.39-15.9,95.45c0,9.28-9.9-3.82-18.19,0s-14.16,0-14.16,0,11.43-74.15,14.62-90.72.6-40.48,3.15-57.69,18.56-56,23.66-67.5,19.69-23,29.25-26.21,18.74-6.22,18.74-6.22a194.66,194.66,0,0,1,26.27-1.88c12.38,0,37.86,4.28,37.86,4.28s17.92,6.44,27.48,10.9,23.61,26.69,25.82,37.29c3.86,18.49,8.53,34,9.17,47.42s2.55,57.37,4.46,72S1660.67,924.17,1660.67,924.17Z" transform="translate(-162.33 -276.48)"/><g class="cls-83"><path class="cls-84" d="M1470,717.81c6-16.2,4.67-18.45,19.49-27.53s46.91-11.67,61.25-9.75,15-9.93,24.6-8.52c8.37,1.22,24.11,13,34.35,21.6,6.75,5.63,16.71,26.49,18.62,39.4s5,44.43,7.36,55.43,11.91,40,14.29,54.56c5.25,32,30.59,44.48,27.72,75.78C1677.2,923.56,1654,932,1654,932l-16.73,4.3-19.6-55-13.86-82.71s-6.53-.61-6.53,10.87,10.34,18,13.21,29,8.19,55.76,8.19,67.71-17.26-3.83-17.26-3.83l-134.59,4.38s1.77-36.77,10.82-54.47c15.49-30.3,11.84-52.16,7.9-83.67,0,0-5.18,39.18-7.1,47.31s-9.93,96-15.67,108.47-30.6-24.39-23-46.18c18.33-52.29,1.36-67.45,11.4-85.62S1464,734,1470,717.81Z" transform="translate(-162.33 -276.48)"/></g><path id="SVGID-87" data-name="SVGID" class="cls-3" d="M1578.43,673c-14.89-5.85-20.5-24.76-16.84-27.93,7.36-6.39,8.16-17.46,10.5-22.84,4.44-1.95,7.7-13.27,5.79-17.73s-4.22.33-4.22.33-1-5.78-2.88-12.79-10-14.81-20.16-17c-4.55-.44,4.47,12.84,4.47,12.84S1516.77,560,1516,597.18c-.08,3.39-.66,6.49-.66,9.46-.75-.29-1.94-2-2.64-1.8-2.38.8-2.82,6.31-1.5,10.22,1.14,3.38,4.31,8.12,6.48,8.18a73.07,73.07,0,0,0,2.14,8.36c3.19,10.2,8.44,12.23,8.46,16.11.12,18.79-11.72,21.82-17,23.93,0,0,6.32,28,30,28.14S1578.43,673,1578.43,673Z" transform="translate(-162.33 -276.48)"/><g class="cls-85"><path class="cls-54" d="M1517.41,585.4c5.58-4.33,10.62,10.19,10.19,15.11a12,12,0,0,1-2.43,6.22,3.94,3.94,0,0,0-.53,3.83c1.92,4.81,4.8,1.77,6,7.05,1.73,7.73-.6,11.28.21,16.46,1.3,8.22,21.44,24.25-6.93,10.61-7.41-3.57,12.82,16.9,2.4,32.66-5.2,7.85-15.88,6.74-15.88,6.74s22.93,33.34,37.48,26.41,36.63-27.22,36.63-27.22V593.58l-31.61-31.7-27.28,5Z" transform="translate(-162.33 -276.48)"/></g><path id="SVGID-88" data-name="SVGID" class="cls-4" d="M1515.3,606.64s1.82,10.22,3.43,9.73c5.7-1.75,19.1-5.69,23.8-5.69s20.72,1.5,27.15,2.12c1.7.16,4-7.93,4-7.93s-1.32,9.4-1.44,11.24c-.29,4.64-.9,13.29-1.49,16.65-.77,4.49-14.25,19.91-27.12,20-9,.06-23.18-12.42-24.24-16.74-.83-3.37-2.34-12.92-3-17C1516.23,617.89,1515.3,606.64,1515.3,606.64Z" transform="translate(-162.33 -276.48)"/><g class="cls-86"><path class="cls-11" d="M1542.59,605.45s2.5,12,3,16.49,1.89,8.83-1.14,10.83-12.09,8-5,19.27c4.87,7.82,16.21,8.49,16.21,8.49L1573.66,631,1569,608.83Z" transform="translate(-162.33 -276.48)"/></g><path id="SVGID-89" data-name="SVGID" class="cls-12" d="M1302.61,672.54a20,20,0,0,0-8-32.06,11.32,11.32,0,0,0-10.28-19.93,31.13,31.13,0,0,0-40.95-14,11.32,11.32,0,0,0-18.5,4.37,26.93,26.93,0,0,0-7.67-1.1,27.23,27.23,0,0,0-20.87,44.72,20,20,0,0,0,5.16,17.53,20,20,0,0,0,15,33.27c.51,0,1,0,1.51-.06a20,20,0,0,0,34.79,13.08,20,20,0,0,0,25.63-13.92,20,20,0,0,0,24.15-31.88Z" transform="translate(-162.33 -276.48)"/><g class="cls-87"><path class="cls-62" d="M1298.22,675.65s.42-10.14,1.69-20.71-7.19-10.57-7.19-10.57.42-7.6-6.76-16.9-14.79.42-14.79.42A118,118,0,0,1,1256,611.83c-6.34-8.45-11.83-.85-20.29,6.76s-6.33,5.5-22.82,4.65-4.15,5.76-7.11,26.47c0,0-6.41.16-9.73,8.54s11.35,16.13,11.35,16.13l-6.34,13.1c-6.34,13.1,19.23,37.66,19.23,37.66s56-6.8,67.83-11.88,16.91-18.17,18.6-26.2S1298.22,675.65,1298.22,675.65Z" transform="translate(-162.33 -276.48)"/></g><path id="SVGID-90" data-name="SVGID" class="cls-8" d="M1373.13,969s-26.29,11.9-33.13,10.65c-5.37-10.49-11.12-33.12-14.23-46.8s-12.45-55.38-13.69-68.44-4.35-40.44-4.35-40.44-7.47,23-6.85,33.59,10.74,29.52,14.31,56.62c1.07,8.11,6.89,33,6.89,33s-41.11.57-59.15,1.19-89.89,4.28-89.89,4.28,10.14-37.24,16.86-55.19c10.45-27.89,2.63-53.55,1.39-62.88s-1.69-16.06-1.69-16.06-3.93,39.69-9.53,55.86-15.53,58.95-15.53,93.17c0,9.06-9.66-3.73-17.75,0s-13.82,0-13.82,0,11.15-72.38,14.27-88.55,9-53.82,11.5-70.62,9.69-40.37,14.67-51.57,19.21-22.47,28.55-25.58,18.28-6.07,18.28-6.07a190.62,190.62,0,0,1,25.65-1.83c12.08,0,36.95,4.17,36.95,4.17s17.49,6.29,26.82,10.64,23,26,25.2,36.4c3.77,18.05,8.33,33.22,9,46.29s2.49,56,4.35,70.3S1373.13,969,1373.13,969Z" transform="translate(-162.33 -276.48)"/><g class="cls-88"><path class="cls-39" d="M1176.77,770c5.83-15.9,4.53-18.11,18.91-27s45.52-11.45,59.44-9.57,14.52-9.74,23.88-8.36c8.12,1.2,23.4,12.81,33.34,21.2,6.55,5.52,16.22,26,18.07,38.67s4.83,43.61,7.15,54.4,11.55,39.29,13.86,53.55c5.1,31.46,29.69,43.65,26.9,74.37-.43,4.7-23,13-23,13l-16.24,4.23-19-54s1,12.67,1,24.4-16.76-3.76-16.76-3.76-129,9.41-134.55,21.61-35.34,18.39-27.93-3c17.78-51.32,7-108.52,16.7-126.35S1170.93,785.89,1176.77,770Z" transform="translate(-162.33 -276.48)"/></g><path id="SVGID-91" data-name="SVGID" class="cls-3" d="M1282.84,727.48c-14.54-5.71-20-24.16-16.44-27.26,7.19-6.23,8-17,10.25-22.29,4.33-1.91,7.52-12.95,5.65-17.3s-4.12.31-4.12.31-.94-5.63-2.81-12.48-7.58-15.5-19.68-16.57c-8.16-.72-33.13-2.31-33.83,21.55-.09,3.3-.64,6.34-.64,9.24-.73-.29-1.89-2-2.58-1.77-2.32.79-2.74,6.17-1.46,10,1.12,3.3,4.21,7.93,6.32,8a72.23,72.23,0,0,0,2.1,8.16c3.11,10,8.23,11.93,8.26,15.72.11,18.34-11.45,21.3-16.55,23.35,0,0,6.17,27.37,29.27,27.47S1282.84,727.48,1282.84,727.48Z" transform="translate(-162.33 -276.48)"/><g class="cls-89"><path class="cls-54" d="M1223.28,641.94c5.45-4.23,10.37,9.95,9.94,14.75a11.47,11.47,0,0,1-2.37,6.07,3.84,3.84,0,0,0-.51,3.74c1.88,4.69,4.69,1.72,5.84,6.88,1.69,7.55-.58,11,.21,16.06,1.27,8,20.92,23.67-6.76,10.36-7.24-3.48,12.51,16.5,2.34,31.88-5.08,7.67-15.5,6.58-15.5,6.58s22.38,32.54,36.58,25.78,35.75-26.57,35.75-26.57V649.93L1258,619l-26.63,4.92Z" transform="translate(-162.33 -276.48)"/></g><path id="SVGID-92" data-name="SVGID" class="cls-4" d="M1221.22,662.68s1.78,10,3.35,9.49c5.56-1.7,18.64-5.55,23.23-5.55s20.22,1.46,26.5,2.06c1.66.16,3.88-7.74,3.88-7.74s-1.28,9.18-1.4,11c-.29,4.53-.88,13-1.45,16.24-.76,4.39-13.91,19.44-26.48,19.53-8.78.06-22.62-12.12-23.66-16.35-.8-3.28-2.28-12.6-2.89-16.56C1222.13,673.65,1221.22,662.68,1221.22,662.68Z" transform="translate(-162.33 -276.48)"/><g class="cls-90"><path class="cls-11" d="M1247.86,661.51s2.44,11.77,2.9,16.1,1.85,8.62-1.1,10.56-11.81,7.8-4.94,18.82c4.76,7.63,15.82,8.29,15.82,8.29l17.64-28.8-4.54-21.67Z" transform="translate(-162.33 -276.48)"/></g><polygon class="cls-91" points="831.53 432.29 499.81 14.09 499.81 132.2 26.81 132.2 26.81 732.4 499.81 732.4 499.81 850.5 831.53 432.29"/><polygon class="cls-92" points="1991.68 209.53 2106.89 287.6 2317.79 339.96 2191.25 268.08 1991.68 209.53"/><path class="cls-93" d="M2470.36,616.82a2.62,2.62,0,0,1-.62-.07l-89.23-22.45a2.5,2.5,0,0,1-1.88-2.73l2.09-18.09-10.41-2.43-2.15,17.29a2.52,2.52,0,0,1-3.11,2.13l-96.43-23.94a2.52,2.52,0,0,1-1.5-1.06l-54.58-82.4L2166.28,492a2.51,2.51,0,0,1-2-.47,2.55,2.55,0,0,1-1-1.81l-5.81-73.1,5-.4,5.59,70.3,45.15-8.67a2.54,2.54,0,0,1,2.57,1.09L2267,556.14l.58-16.45a2.51,2.51,0,0,1,3.15-2.35l203.85,53.46a2.52,2.52,0,0,1,1.85,2.86l-3.57,21.07a2.53,2.53,0,0,1-1.1,1.68A2.56,2.56,0,0,1,2470.36,616.82ZM2383.88,590l84.45,21.24,2.73-16.11-85.19-22.34ZM2271.8,562.13l91.71,22.77,2.15-17.26,0-.18L2272.48,543Z" transform="translate(-162.33 -276.48)"/><polygon class="cls-94" points="2117.86 168.55 2112.5 173.09 2209.67 289.46 2214.25 295.06 2220.03 292.12 2117.86 168.55"/><path class="cls-95" d="M2382.35,568.6l96,24.64L2351.8,466l-71.62-21ZM2152.22,407.5l115.21,131.6L2372,565.94,2268.06,441.48Z" transform="translate(-162.33 -276.48)"/><polygon class="cls-96" points="1989.89 131.01 1989.89 136.37 2105.1 267.96 2105.1 262.61 1989.89 131.01"/><polygon class="cls-97" points="2105.1 267.96 2105.1 262.61 2209.67 289.46 2214.25 295.06 2220.03 292.12 2316.01 316.76 2316 320.33 2105.1 267.96"/><g class="cls-98"><path class="cls-99" d="M383.78,392.79c8.55,6.17,8.71,20.52.38,32s-22,15.85-30.54,9.67-8.71-20.52-.38-32S375.24,386.61,383.78,392.79Z" transform="translate(-162.33 -276.48)"/><path class="cls-99" d="M367.26,483.08s26.64,41,12.75,125.5c-4.32,26.29-29.75,87.87-43.78,87.87s-71.24.62-93.11-15.62c-20.56-15.27-45.37-37.76-45.37-65.41s-6.55-82.16-13.95-106.75c-7.86-26.05-17-47.58-21.21-59.35-3.31-9.32,25.25-20.53,49.88,24.95,10.12,18.69,24.47,35.55,56,33.7S367.26,483.08,367.26,483.08Z" transform="translate(-162.33 -276.48)"/><rect class="cls-99" x="72.74" y="387.93" width="113.38" height="73.69"/><path class="cls-100" d="M218.44,624.24s32,77.81,46.56,90.31,41.48,20.82,41.48,20.82l37.21,11.73,14.12-165.38Z" transform="translate(-162.33 -276.48)"/><path class="cls-99" d="M193.2,449.37l12.3,99.52s19.31-37.69,13.41-62.7C213.73,464.22,193.2,449.37,193.2,449.37Z" transform="translate(-162.33 -276.48)"/><path class="cls-100" d="M218,619c0,7,9.33,31.8,20.79,31.8h103.3c11.46,0,20.79-5.66,20.79-12.6V495.69c0-6.95-9.33-12.61-20.79-12.61H238.76c-11.46,0-20.79,5.66-20.79,12.61Z" transform="translate(-162.33 -276.48)"/><path class="cls-101" d="M346.48,639.83A20.8,20.8,0,0,0,367.26,619V384a20.8,20.8,0,0,0-20.78-20.79H243.19A20.81,20.81,0,0,0,222.4,384V619a20.81,20.81,0,0,0,20.79,20.79Z" transform="translate(-162.33 -276.48)"/><g class="cls-102"><rect class="cls-103" x="50.79" y="93.87" width="163.78" height="263.48"/></g><path class="cls-99" d="M396.54,604.75a17.27,17.27,0,0,1-20,14.09l-33.52-5.78a17.27,17.27,0,0,1-14.1-20h0a17.26,17.26,0,0,1,20-14.09l33.52,5.78a17.3,17.3,0,0,1,14.11,20Z" transform="translate(-162.33 -276.48)"/><path class="cls-100" d="M343.05,613.06l33.52,5.78a17.27,17.27,0,0,0,20-14.09L329,593.09A17.27,17.27,0,0,0,343.05,613.06Z" transform="translate(-162.33 -276.48)"/><path class="cls-35" d="M348.38,609.25l-4.49-.77a12.63,12.63,0,0,1-10.31-14.59h0a12.61,12.61,0,0,1,14.59-10.28l4.49.77c6.86,1.18,8.07,4.81,6.5,13.92S355.25,610.43,348.38,609.25Z" transform="translate(-162.33 -276.48)"/><path class="cls-99" d="M405,558.2a19.57,19.57,0,0,1-19.57,19.58H340.28a19.56,19.56,0,0,1-19.57-19.58h0a19.57,19.57,0,0,1,19.57-19.56h45.13A19.57,19.57,0,0,1,405,558.2Z" transform="translate(-162.33 -276.48)"/><path class="cls-100" d="M340.28,577.78h45.13A19.57,19.57,0,0,0,405,558.2H320.71A19.56,19.56,0,0,0,340.28,577.78Z" transform="translate(-162.33 -276.48)"/><path class="cls-35" d="M347.89,572.5h-7.56A14.28,14.28,0,0,1,326,558.2h0a14.29,14.29,0,0,1,14.29-14.29h7.56c7.9,0,9.93,3.82,9.93,14.29S355.79,572.5,347.89,572.5Z" transform="translate(-162.33 -276.48)"/><path class="cls-99" d="M408.49,503.49A20.85,20.85,0,0,1,392,528l-50.37,9.81a20.84,20.84,0,0,1-24.45-16.48h0a20.86,20.86,0,0,1,16.47-24.46L384,487a20.86,20.86,0,0,1,24.45,16.48Z" transform="translate(-162.33 -276.48)"/><path class="cls-100" d="M341.65,537.76,392,528a20.85,20.85,0,0,0,16.47-24.46L317.2,521.28A20.84,20.84,0,0,0,341.65,537.76Z" transform="translate(-162.33 -276.48)"/><path class="cls-35" d="M349.69,530.45l-9.06,1.77a15.19,15.19,0,0,1-17.85-12h0a15.22,15.22,0,0,1,12-17.86l9.06-1.76c8.25-1.61,11.16,2,13.29,12.92S357.94,528.85,349.69,530.45Z" transform="translate(-162.33 -276.48)"/><path id="SVGID-93" data-name="SVGID" class="cls-11" d="M228.43,694.37s21.24,18.73,68.94,18.73,52.89-16.77,52.89-16.77l30.42,377.82c-56.23,0-126.82-22.85-181.27-49.4Z" transform="translate(-162.33 -276.48)"/><g class="cls-104"><path class="cls-105" d="M220,669.61s39.33,118.52,74.8,183.8c48,88.35,95,168.58,95,168.58l.43-74.69L377.69,669.61Z" transform="translate(-162.33 -276.48)"/></g><path class="cls-99" d="M425.93,688.68a23.16,23.16,0,0,0-7.81,5.35,23.54,23.54,0,0,0-25.92-5.36,23.15,23.15,0,0,0-8.55,6.16,23.51,23.51,0,0,0-24.16-3.74c-2.47,1-7.35,3.56-9.23,5.24l-36.64-75.72c-5-12-18.33-46.31-37-38.51s-1.79,40.57,3.24,52.61l58.51,140L314,769.17l-.49-.21c-5.83-2.39-19.4-11.26-38.49-16.39-15.38-4.13-46.23,2.89-29.58,17.4,15,13,33.84,22.37,45.09,31.06,14.56,11.23,34.12,25.89,47.28,34.79,9.64,6.51,18.73,12.65,25.72,18,1.9,1.44,5.3,4.31,9.09,7.59A40.06,40.06,0,0,0,414.25,868l48.83-20.41c16.59-6.93,23.91-24,24.29-41.92.31-15.19.33-23.49-6.1-45.58s-24.51-58.66-24.51-58.66a23.62,23.62,0,0,0-30.83-12.78Z" transform="translate(-162.33 -276.48)"/><rect class="cls-99" x="397.63" y="828.94" width="100.02" height="65" transform="translate(-459.91 -37.23) rotate(-22.68)"/><path class="cls-35" d="M297.53,597.74l-2.71-6.49a12.9,12.9,0,0,0-16.9-6.93h0A12.91,12.91,0,0,0,271,601.21l2.71,6.49c2.75,6.58,6.64,6.94,15.37,3.3S300.28,604.32,297.53,597.74Z" transform="translate(-162.33 -276.48)"/><path class="cls-35" d="M267,785.78s1.31-9.95-5.87-14.61a191.44,191.44,0,0,0-16.51-9.71c-2.57-1.16-3.94,6-3.94,6Z" transform="translate(-162.33 -276.48)"/><path id="SVGID-94" data-name="SVGID" class="cls-11" d="M501.35,825.26s-23.63,36.19-56.58,53.25c-20,10.35-51.68,19-51.68,19l28,175.85c50.79,0,115.17-15.3,175.9-49.6Z" transform="translate(-162.33 -276.48)"/><g class="cls-106"><path class="cls-105" d="M500,803.83s22.64,160.53,14,198.78c-16.52,73-118.68-94.57-114.64-23a957,957,0,0,1-2.54,135.87L651,1088l29.62-85.41Z" transform="translate(-162.33 -276.48)"/></g></g><path class="cls-107" d="M239.82,453.26a5.37,5.37,0,0,1,10.34-1.85h-1.73a3.5,3.5,0,0,0-3.29-1.91,3.76,3.76,0,0,0,0,7.52,3.5,3.5,0,0,0,3.64-2.58h-4.25V453h5.92v.76a5.33,5.33,0,0,1-10.63-.5" transform="translate(-162.33 -276.48)"/><path class="cls-107" d="M251.9,448.26h4.3c2.47,0,3.54,1.36,3.54,3.21a2.9,2.9,0,0,1-2.28,3.07l2.64,3.72h-1.86l-2.39-3.58h-2.39v3.58H251.9Zm4.32,5c1.45,0,1.94-.76,1.94-1.77s-.5-1.78-1.94-1.78h-2.76v3.55Z" transform="translate(-162.33 -276.48)"/><polygon class="cls-107" points="99.17 171.77 106.53 171.77 106.53 173.21 100.73 173.21 100.73 175.97 105.64 175.97 105.64 177.4 100.73 177.4 100.73 180.34 106.53 180.34 106.53 181.78 99.17 181.78 99.17 171.77"/><polygon class="cls-107" points="108.26 171.77 115.61 171.77 115.61 173.21 109.82 173.21 109.82 175.97 114.73 175.97 114.73 177.4 109.82 177.4 109.82 180.34 115.61 180.34 115.61 181.78 108.26 181.78 108.26 171.77"/><path class="cls-107" d="M279.44,452.2c0-2.54,1.52-4.14,4.23-4.14s4.23,1.6,4.23,4.14v6.06h-1.56V452.2a2.67,2.67,0,1,0-5.34,0v6.06h-1.56Z" transform="translate(-162.33 -276.48)"/><polygon class="cls-107" points="131.47 171.77 138.83 171.77 138.83 173.21 133.03 173.21 133.03 175.97 137.94 175.97 137.94 177.4 133.03 177.4 133.03 180.34 138.83 180.34 138.83 181.78 131.47 181.78 131.47 171.77"/><path class="cls-107" d="M302.65,452.2c0-2.54,1.52-4.14,4.23-4.14s4.23,1.6,4.23,4.14v6.06h-1.56V452.2a2.67,2.67,0,1,0-5.34,0v6.06h-1.56Z" transform="translate(-162.33 -276.48)"/><polygon class="cls-107" points="150.61 171.77 157.97 171.77 157.97 173.21 152.17 173.21 152.17 175.97 157.08 175.97 157.08 177.4 152.17 177.4 152.17 180.34 157.97 180.34 157.97 181.78 150.61 181.78 150.61 171.77"/><path class="cls-107" d="M322,448.26h4.3c2.47,0,3.54,1.36,3.54,3.21a2.9,2.9,0,0,1-2.28,3.07l2.65,3.72h-1.87L326,454.68h-2.39v3.58H322Zm4.32,5c1.45,0,1.94-.76,1.94-1.77s-.5-1.78-1.94-1.78h-2.76v3.55Z" transform="translate(-162.33 -276.48)"/><path class="cls-107" d="M331.05,453.26a5.37,5.37,0,0,1,10.34-1.85h-1.72a3.51,3.51,0,0,0-3.29-1.91,3.76,3.76,0,0,0,0,7.52,3.5,3.5,0,0,0,3.64-2.58h-4.26V453h5.93v.76a5.34,5.34,0,0,1-10.64-.5" transform="translate(-162.33 -276.48)"/><polygon class="cls-107" points="183.06 177.5 179.1 171.77 180.96 171.77 183.84 176.13 186.73 171.77 188.55 171.77 184.62 177.45 184.62 181.78 183.06 181.78 183.06 177.5"/><polygon class="cls-108" points="82.03 189.06 77.55 189.06 77.55 187.03 88.74 187.03 88.74 189.06 84.24 189.06 84.24 201.19 82.03 201.19 82.03 189.06"/><path class="cls-108" d="M251.46,470.59A7.53,7.53,0,1,1,259,478a7.19,7.19,0,0,1-7.53-7.36m12.83,0a5.3,5.3,0,1,0-5.3,5.33,5.1,5.1,0,0,0,5.3-5.33" transform="translate(-162.33 -276.48)"/><path class="cls-108" d="M268,470.59A7.6,7.6,0,0,1,282.63,468h-2.45a5,5,0,0,0-4.65-2.7,5.33,5.33,0,0,0,0,10.65,5,5,0,0,0,5.15-3.66h-6v-2H283v1.08a7.55,7.55,0,0,1-15-.71" transform="translate(-162.33 -276.48)"/><polygon class="cls-108" points="122.77 187.03 133.18 187.03 133.18 189.06 124.97 189.06 124.97 192.96 131.92 192.96 131.92 195 124.97 195 124.97 199.15 133.18 199.15 133.18 201.19 122.77 201.19 122.77 187.03"/><polygon class="cls-108" points="139.24 189.06 134.76 189.06 134.76 187.03 145.95 187.03 145.95 189.06 141.44 189.06 141.44 201.19 139.24 201.19 139.24 189.06"/><polygon class="cls-108" points="147.98 187.03 150.19 187.03 150.19 192.98 158.09 192.98 158.09 187.03 160.3 187.03 160.3 201.19 158.09 201.19 158.09 195.02 150.19 195.02 150.19 201.19 147.98 201.19 147.98 187.03"/><polygon class="cls-108" points="163.2 187.03 173.61 187.03 173.61 189.06 165.41 189.06 165.41 192.96 172.35 192.96 172.35 195 165.41 195 165.41 199.15 173.61 199.15 173.61 201.19 163.2 201.19 163.2 187.03"/><path class="cls-108" d="M338.38,463.51h6.08c3.49,0,5,1.93,5,4.55a4.1,4.1,0,0,1-3.22,4.35l3.74,5.26h-2.64L344,472.6h-3.38v5.07h-2.21Zm6.11,7.06c2.05,0,2.75-1.08,2.75-2.51s-.72-2.51-2.75-2.51h-3.9v5Z" transform="translate(-162.33 -276.48)"/><path class="cls-107" d="M253.13,426.34a7.27,7.27,0,0,1,14-2.53h-1.64a5.72,5.72,0,1,0-5.15,8.2,5.33,5.33,0,0,0,5.61-4.35h-6.46V426.3h8v.7a7.22,7.22,0,0,1-14.39-.66" transform="translate(-162.33 -276.48)"/><polygon class="cls-107" points="128.05 143.35 137.99 143.35 137.99 144.72 129.54 144.72 129.54 149.34 136.79 149.34 136.79 150.71 129.54 150.71 129.54 155.53 137.99 155.53 137.99 156.9 128.05 156.9 128.05 143.35"/><polygon class="cls-107" points="166.57 144.72 161.97 144.72 161.97 143.35 172.66 143.35 172.66 144.72 168.06 144.72 168.06 156.9 166.57 156.9 166.57 144.72"/><path class="cls-109" d="M240.46,418l-.43-.6,20.76-14.65a.75.75,0,0,1,.87,0l20.43,14.82a.76.76,0,0,1,.31.6v23.94a.73.73,0,0,1-.22.52.75.75,0,0,1-.53.22H240.46a.75.75,0,0,1-.53-.22.72.72,0,0,1-.21-.52V418a.71.71,0,0,1,.31-.6l.43.6h.74v23.37h39.71V418.53l-19.69-14.29-20.33,14.34-.43-.61h0Z" transform="translate(-162.33 -276.48)"/><path class="cls-110" d="M309,418l-.42-.6,20.76-14.65a.74.74,0,0,1,.86,0l20.43,14.82a.74.74,0,0,1,.31.6v23.94a.73.73,0,0,1-.22.52.74.74,0,0,1-.52.22H309a.74.74,0,0,1-.52-.22.73.73,0,0,1-.22-.52V418a.72.72,0,0,1,.32-.6l.42.6h.75v23.37h39.7V418.53L329.8,404.24l-20.33,14.34L309,418h0Z" transform="translate(-162.33 -276.48)"/><path class="cls-111" d="M274.75,418l-.43-.61,20.77-14.64a.72.72,0,0,1,.86,0l20.43,14.83a.75.75,0,0,1,.31.6v23.93a.75.75,0,0,1-.75.75H274.75a.73.73,0,0,1-.52-.22.75.75,0,0,1-.22-.53V418a.77.77,0,0,1,.31-.61l.43.61h.75v23.37h39.7V418.51l-19.69-14.29-20.33,14.34-.43-.61h0Z" transform="translate(-162.33 -276.48)"/></g></g></svg>